M48
; DRILL file {KiCad 8.0.5} date 2024-10-04T03:51:19+0200
; FORMAT={-:-/ absolute / metric / decimal}
; #@! TF.CreationDate,2024-10-04T03:51:19+02:00
; #@! TF.GenerationSoftware,Kicad,Pcbnew,8.0.5
; #@! TF.FileFunction,Plated,1,2,PTH
FMAT,2
METRIC
; #@! TA.AperFunction,Plated,PTH,ViaDrill
T1C0.400
; #@! TA.AperFunction,Plated,PTH,ComponentDrill
T2C0.800
; #@! TA.AperFunction,Plated,PTH,ComponentDrill
T3C1.000
; #@! TA.AperFunction,Plated,PTH,ComponentDrill
T4C1.100
%
G90
G05
T1
X72.898Y-110.109
X75.692Y-64.516
X77.037Y-110.478
X79.248Y-110.109
X82.423Y-99.822
X82.423Y-110.109
X85.344Y-97.409
X85.725Y-110.109
X87.421Y-64.389
X88.773Y-110.109
X90.4Y-64.389
X91.948Y-46.609
X91.948Y-110.109
X94.996Y-53.34
X95.123Y-63.5
X95.25Y-110.109
X96.647Y-38.227
X98.298Y-63.5
X98.298Y-110.109
X99.314Y-39.624
X101.473Y-110.109
X101.6Y-63.5
X104.648Y-63.5
X104.775Y-110.109
X107.188Y-63.5
X107.823Y-110.109
X109.728Y-63.5
X111.125Y-110.109
X113.284Y-45.339
X113.411Y-63.5
X114.173Y-110.109
X115.951Y-45.339
X117.348Y-110.109
X118.364Y-63.5
X118.491Y-45.339
X120.523Y-110.109
X121.158Y-45.339
X122.047Y-63.5
X123.698Y-110.109
X124.079Y-46.863
X124.206Y-45.339
X125.222Y-63.5
X125.349Y-48.26
X125.857Y-36.957
X126.873Y-110.109
X127.0Y-54.864
X130.048Y-110.109
X130.408Y-100.533
X133.223Y-66.548
X133.223Y-110.109
X134.92Y-108.077
X137.447Y-110.017
X139.7Y-110.109
X142.875Y-110.109
T2
X78.359Y-36.83
X85.979Y-36.83
T3
X76.5Y-43.0
X76.52Y-60.8
X79.04Y-43.0
X79.06Y-60.8
X81.58Y-43.0
X81.6Y-60.8
X84.12Y-43.0
X84.14Y-60.8
X86.66Y-43.0
X86.68Y-60.8
X89.2Y-43.0
X89.22Y-60.8
X91.74Y-43.0
X91.76Y-60.8
X94.28Y-43.0
X94.3Y-60.8
X96.82Y-43.0
X96.84Y-60.8
X99.36Y-43.0
X99.38Y-60.8
X101.9Y-43.0
X101.92Y-60.8
X104.44Y-43.0
X104.46Y-60.8
X106.98Y-43.0
X107.0Y-60.8
X109.52Y-43.0
X109.54Y-60.8
X112.06Y-43.0
X112.08Y-60.8
X114.6Y-43.0
X114.62Y-60.8
X117.14Y-43.0
X117.16Y-60.8
X119.68Y-43.0
X119.7Y-60.8
X122.22Y-43.0
X122.24Y-60.8
X124.76Y-43.0
X124.78Y-60.8
T4
X131.5Y-35.2
X131.5Y-39.7
X138.0Y-35.2
X138.0Y-39.7
M30
