M48
; DRILL file {KiCad 8.0.1} date 2024-04-05T19:57:55+0200
; FORMAT={-:-/ absolute / inch / decimal}
; #@! TF.CreationDate,2024-04-05T19:57:55+02:00
; #@! TF.GenerationSoftware,Kicad,Pcbnew,8.0.1
; #@! TF.FileFunction,Plated,1,2,PTH
FMAT,2
INCH
; #@! TA.AperFunction,Plated,PTH,ViaDrill
T1C0.0157
; #@! TA.AperFunction,Plated,PTH,ComponentDrill
T2C0.0315
; #@! TA.AperFunction,Plated,PTH,ComponentDrill
T3C0.0394
; #@! TA.AperFunction,Plated,PTH,ComponentDrill
T4C0.0433
%
G90
G05
T1
X3.033Y-4.3495
X3.4418Y-2.4579
X3.5591Y-2.4585
X3.6909Y-2.191
X4.8761Y-1.5377
X5.1342Y-3.958
X5.2229Y-4.0885
X5.4113Y-4.3314
T2
X3.0902Y-1.4528
X3.3902Y-1.4528
T3
X3.0118Y-1.6929
X3.0126Y-2.3937
X3.1118Y-1.6929
X3.1126Y-2.3937
X3.2118Y-1.6929
X3.2126Y-2.3937
X3.3118Y-1.6929
X3.3126Y-2.3937
X3.4118Y-1.6929
X3.4126Y-2.3937
X3.5118Y-1.6929
X3.5126Y-2.3937
X3.6118Y-1.6929
X3.6126Y-2.3937
X3.7118Y-1.6929
X3.7126Y-2.3937
X3.8118Y-1.6929
X3.8126Y-2.3937
X3.9118Y-1.6929
X3.9126Y-2.3937
X4.0118Y-1.6929
X4.0126Y-2.3937
X4.1118Y-1.6929
X4.1126Y-2.3937
X4.2118Y-1.6929
X4.2126Y-2.3937
X4.3118Y-1.6929
X4.3126Y-2.3937
X4.4118Y-1.6929
X4.4126Y-2.3937
X4.5118Y-1.6929
X4.5126Y-2.3937
X4.6118Y-1.6929
X4.6126Y-2.3937
X4.7118Y-1.6929
X4.7126Y-2.3937
X4.8118Y-1.6929
X4.8126Y-2.3937
X4.9118Y-1.6929
X4.9126Y-2.3937
T4
X5.1772Y-1.3858
X5.1772Y-1.563
X5.4331Y-1.3858
X5.4331Y-1.563
M30
