G04 #@! TF.GenerationSoftware,KiCad,Pcbnew,8.0.5*
G04 #@! TF.CreationDate,2024-10-04T03:51:19+02:00*
G04 #@! TF.ProjectId,SD-10005v,53442d31-3030-4303-9576-2e6b69636164,rev?*
G04 #@! TF.SameCoordinates,Original*
G04 #@! TF.FileFunction,Soldermask,Top*
G04 #@! TF.FilePolarity,Negative*
%FSLAX46Y46*%
G04 Gerber Fmt 4.6, Leading zero omitted, Abs format (unit mm)*
G04 Created by KiCad (PCBNEW 8.0.5) date 2024-10-04 03:51:19*
%MOMM*%
%LPD*%
G01*
G04 APERTURE LIST*
G04 Aperture macros list*
%AMRoundRect*
0 Rectangle with rounded corners*
0 $1 Rounding radius*
0 $2 $3 $4 $5 $6 $7 $8 $9 X,Y pos of 4 corners*
0 Add a 4 corners polygon primitive as box body*
4,1,4,$2,$3,$4,$5,$6,$7,$8,$9,$2,$3,0*
0 Add four circle primitives for the rounded corners*
1,1,$1+$1,$2,$3*
1,1,$1+$1,$4,$5*
1,1,$1+$1,$6,$7*
1,1,$1+$1,$8,$9*
0 Add four rect primitives between the rounded corners*
20,1,$1+$1,$2,$3,$4,$5,0*
20,1,$1+$1,$4,$5,$6,$7,0*
20,1,$1+$1,$6,$7,$8,$9,0*
20,1,$1+$1,$8,$9,$2,$3,0*%
G04 Aperture macros list end*
%ADD10R,1.700000X1.700000*%
%ADD11O,1.700000X1.700000*%
%ADD12R,1.600000X1.600000*%
%ADD13O,1.600000X1.600000*%
%ADD14C,2.000000*%
%ADD15R,1.000000X1.500000*%
%ADD16RoundRect,0.500000X-0.500000X-5.000000X0.500000X-5.000000X0.500000X5.000000X-0.500000X5.000000X0*%
G04 APERTURE END LIST*
D10*
G04 #@! TO.C,J1*
X76520000Y-60800000D03*
D11*
X79060000Y-60800000D03*
X81600000Y-60800000D03*
X84140000Y-60800000D03*
X86680000Y-60800000D03*
X89220000Y-60800000D03*
X91760000Y-60800000D03*
X94300000Y-60800000D03*
X96840000Y-60800000D03*
X99380000Y-60800000D03*
X101920000Y-60800000D03*
X104460000Y-60800000D03*
X107000000Y-60800000D03*
X109540000Y-60800000D03*
X112080000Y-60800000D03*
X114620000Y-60800000D03*
X117160000Y-60800000D03*
X119700000Y-60800000D03*
X122240000Y-60800000D03*
X124780000Y-60800000D03*
G04 #@! TD*
D12*
G04 #@! TO.C,D1*
X78359000Y-36830000D03*
D13*
X85979000Y-36830000D03*
G04 #@! TD*
D10*
G04 #@! TO.C,J2*
X76500000Y-43000000D03*
D11*
X79040000Y-43000000D03*
X81580000Y-43000000D03*
X84120000Y-43000000D03*
X86660000Y-43000000D03*
X89200000Y-43000000D03*
X91740000Y-43000000D03*
X94280000Y-43000000D03*
X96820000Y-43000000D03*
X99360000Y-43000000D03*
X101900000Y-43000000D03*
X104440000Y-43000000D03*
X106980000Y-43000000D03*
X109520000Y-43000000D03*
X112060000Y-43000000D03*
X114600000Y-43000000D03*
X117140000Y-43000000D03*
X119680000Y-43000000D03*
X122220000Y-43000000D03*
X124760000Y-43000000D03*
G04 #@! TD*
D14*
G04 #@! TO.C,SW1*
X131500000Y-35200000D03*
X138000000Y-35200000D03*
X131500000Y-39700000D03*
X138000000Y-39700000D03*
G04 #@! TD*
D15*
G04 #@! TO.C,JP1*
X123840000Y-36957000D03*
X122540000Y-36957000D03*
G04 #@! TD*
D16*
G04 #@! TO.C,CON1*
X74500000Y-116900000D03*
X77680000Y-116900000D03*
X80860000Y-116900000D03*
X84040000Y-116900000D03*
X87220000Y-116900000D03*
X90400000Y-116900000D03*
X93580000Y-116900000D03*
X96760000Y-116900000D03*
X99940000Y-116900000D03*
X103120000Y-116900000D03*
X106300000Y-116900000D03*
X109480000Y-116900000D03*
X112660000Y-116900000D03*
X115840000Y-116900000D03*
X119020000Y-116900000D03*
X122200000Y-116900000D03*
X125380000Y-116900000D03*
X128560000Y-116900000D03*
X131740000Y-116900000D03*
X134920000Y-116900000D03*
X138100000Y-116900000D03*
X141280000Y-116900000D03*
G04 #@! TD*
M02*
