G04 #@! TF.GenerationSoftware,KiCad,Pcbnew,8.0.5*
G04 #@! TF.CreationDate,2024-10-04T03:51:19+02:00*
G04 #@! TF.ProjectId,SD-10005v,53442d31-3030-4303-9576-2e6b69636164,rev?*
G04 #@! TF.SameCoordinates,Original*
G04 #@! TF.FileFunction,Copper,L1,Top*
G04 #@! TF.FilePolarity,Positive*
%FSLAX46Y46*%
G04 Gerber Fmt 4.6, Leading zero omitted, Abs format (unit mm)*
G04 Created by KiCad (PCBNEW 8.0.5) date 2024-10-04 03:51:19*
%MOMM*%
%LPD*%
G01*
G04 APERTURE LIST*
G04 Aperture macros list*
%AMRoundRect*
0 Rectangle with rounded corners*
0 $1 Rounding radius*
0 $2 $3 $4 $5 $6 $7 $8 $9 X,Y pos of 4 corners*
0 Add a 4 corners polygon primitive as box body*
4,1,4,$2,$3,$4,$5,$6,$7,$8,$9,$2,$3,0*
0 Add four circle primitives for the rounded corners*
1,1,$1+$1,$2,$3*
1,1,$1+$1,$4,$5*
1,1,$1+$1,$6,$7*
1,1,$1+$1,$8,$9*
0 Add four rect primitives between the rounded corners*
20,1,$1+$1,$2,$3,$4,$5,0*
20,1,$1+$1,$4,$5,$6,$7,0*
20,1,$1+$1,$6,$7,$8,$9,0*
20,1,$1+$1,$8,$9,$2,$3,0*%
G04 Aperture macros list end*
G04 #@! TA.AperFunction,ComponentPad*
%ADD10R,1.700000X1.700000*%
G04 #@! TD*
G04 #@! TA.AperFunction,ComponentPad*
%ADD11O,1.700000X1.700000*%
G04 #@! TD*
G04 #@! TA.AperFunction,ComponentPad*
%ADD12R,1.600000X1.600000*%
G04 #@! TD*
G04 #@! TA.AperFunction,ComponentPad*
%ADD13O,1.600000X1.600000*%
G04 #@! TD*
G04 #@! TA.AperFunction,ComponentPad*
%ADD14C,2.000000*%
G04 #@! TD*
G04 #@! TA.AperFunction,SMDPad,CuDef*
%ADD15R,1.000000X1.500000*%
G04 #@! TD*
G04 #@! TA.AperFunction,ConnectorPad*
%ADD16RoundRect,0.500000X-0.500000X-5.000000X0.500000X-5.000000X0.500000X5.000000X-0.500000X5.000000X0*%
G04 #@! TD*
G04 #@! TA.AperFunction,ViaPad*
%ADD17C,0.800000*%
G04 #@! TD*
G04 #@! TA.AperFunction,Conductor*
%ADD18C,0.508000*%
G04 #@! TD*
G04 #@! TA.AperFunction,Conductor*
%ADD19C,0.250000*%
G04 #@! TD*
G04 #@! TA.AperFunction,Conductor*
%ADD20C,0.254000*%
G04 #@! TD*
G04 APERTURE END LIST*
D10*
G04 #@! TO.P,J1,1,Pin_1*
G04 #@! TO.N,A0*
X76520000Y-60800000D03*
D11*
G04 #@! TO.P,J1,2,Pin_2*
G04 #@! TO.N,A1*
X79060000Y-60800000D03*
G04 #@! TO.P,J1,3,Pin_3*
G04 #@! TO.N,A2*
X81600000Y-60800000D03*
G04 #@! TO.P,J1,4,Pin_4*
G04 #@! TO.N,A3*
X84140000Y-60800000D03*
G04 #@! TO.P,J1,5,Pin_5*
G04 #@! TO.N,A4*
X86680000Y-60800000D03*
G04 #@! TO.P,J1,6,Pin_6*
G04 #@! TO.N,GND*
X89220000Y-60800000D03*
G04 #@! TO.P,J1,7,Pin_7*
G04 #@! TO.N,A5*
X91760000Y-60800000D03*
G04 #@! TO.P,J1,8,Pin_8*
G04 #@! TO.N,A6*
X94300000Y-60800000D03*
G04 #@! TO.P,J1,9,Pin_9*
G04 #@! TO.N,A7*
X96840000Y-60800000D03*
G04 #@! TO.P,J1,10,Pin_10*
G04 #@! TO.N,A8*
X99380000Y-60800000D03*
G04 #@! TO.P,J1,11,Pin_11*
G04 #@! TO.N,A9*
X101920000Y-60800000D03*
G04 #@! TO.P,J1,12,Pin_12*
G04 #@! TO.N,A10*
X104460000Y-60800000D03*
G04 #@! TO.P,J1,13,Pin_13*
G04 #@! TO.N,A11*
X107000000Y-60800000D03*
G04 #@! TO.P,J1,14,Pin_14*
G04 #@! TO.N,A12*
X109540000Y-60800000D03*
G04 #@! TO.P,J1,15,Pin_15*
G04 #@! TO.N,GND*
X112080000Y-60800000D03*
G04 #@! TO.P,J1,16,Pin_16*
G04 #@! TO.N,A13*
X114620000Y-60800000D03*
G04 #@! TO.P,J1,17,Pin_17*
G04 #@! TO.N,A14*
X117160000Y-60800000D03*
G04 #@! TO.P,J1,18,Pin_18*
G04 #@! TO.N,A15*
X119700000Y-60800000D03*
G04 #@! TO.P,J1,19,Pin_19*
G04 #@! TO.N,D0*
X122240000Y-60800000D03*
G04 #@! TO.P,J1,20,Pin_20*
G04 #@! TO.N,D1*
X124780000Y-60800000D03*
G04 #@! TD*
D12*
G04 #@! TO.P,D1,1,K*
G04 #@! TO.N,Net-(D1-K)*
X78359000Y-36830000D03*
D13*
G04 #@! TO.P,D1,2,A*
G04 #@! TO.N,+5V*
X85979000Y-36830000D03*
G04 #@! TD*
D10*
G04 #@! TO.P,J2,1,Pin_1*
G04 #@! TO.N,unconnected-(J2-Pin_1-Pad1)*
X76500000Y-43000000D03*
D11*
G04 #@! TO.P,J2,2,Pin_2*
G04 #@! TO.N,Net-(D1-K)*
X79040000Y-43000000D03*
G04 #@! TO.P,J2,3,Pin_3*
G04 #@! TO.N,GND*
X81580000Y-43000000D03*
G04 #@! TO.P,J2,4,Pin_4*
G04 #@! TO.N,unconnected-(J2-Pin_4-Pad4)*
X84120000Y-43000000D03*
G04 #@! TO.P,J2,5,Pin_5*
G04 #@! TO.N,unconnected-(J2-Pin_5-Pad5)*
X86660000Y-43000000D03*
G04 #@! TO.P,J2,6,Pin_6*
G04 #@! TO.N,GND*
X89200000Y-43000000D03*
G04 #@! TO.P,J2,7,Pin_7*
G04 #@! TO.N,RST*
X91740000Y-43000000D03*
G04 #@! TO.P,J2,8,Pin_8*
G04 #@! TO.N,~{IOR}*
X94280000Y-43000000D03*
G04 #@! TO.P,J2,9,Pin_9*
G04 #@! TO.N,~{DSRAM}*
X96820000Y-43000000D03*
G04 #@! TO.P,J2,10,Pin_10*
G04 #@! TO.N,~{CEROM2}*
X99360000Y-43000000D03*
G04 #@! TO.P,J2,11,Pin_11*
G04 #@! TO.N,~{MREQ}*
X101900000Y-43000000D03*
G04 #@! TO.P,J2,12,Pin_12*
G04 #@! TO.N,GND*
X104440000Y-43000000D03*
G04 #@! TO.P,J2,13,Pin_13*
G04 #@! TO.N,~{MEMW}*
X106980000Y-43000000D03*
G04 #@! TO.P,J2,14,Pin_14*
G04 #@! TO.N,~{MEMR}*
X109520000Y-43000000D03*
G04 #@! TO.P,J2,15,Pin_15*
G04 #@! TO.N,D7*
X112060000Y-43000000D03*
G04 #@! TO.P,J2,16,Pin_16*
G04 #@! TO.N,D6*
X114600000Y-43000000D03*
G04 #@! TO.P,J2,17,Pin_17*
G04 #@! TO.N,D5*
X117140000Y-43000000D03*
G04 #@! TO.P,J2,18,Pin_18*
G04 #@! TO.N,D4*
X119680000Y-43000000D03*
G04 #@! TO.P,J2,19,Pin_19*
G04 #@! TO.N,D3*
X122220000Y-43000000D03*
G04 #@! TO.P,J2,20,Pin_20*
G04 #@! TO.N,D2*
X124760000Y-43000000D03*
G04 #@! TD*
D14*
G04 #@! TO.P,SW1,1,1*
G04 #@! TO.N,RST*
X131500000Y-35200000D03*
X138000000Y-35200000D03*
G04 #@! TO.P,SW1,2,2*
G04 #@! TO.N,GND*
X131500000Y-39700000D03*
X138000000Y-39700000D03*
G04 #@! TD*
D15*
G04 #@! TO.P,JP1,1,A*
G04 #@! TO.N,~{DSRAM}*
X123840000Y-36957000D03*
G04 #@! TO.P,JP1,2,B*
G04 #@! TO.N,+5V*
X122540000Y-36957000D03*
G04 #@! TD*
D16*
G04 #@! TO.P,CON1,B1,5V*
G04 #@! TO.N,+5V*
X74500000Y-116900000D03*
G04 #@! TO.P,CON1,B2,5V*
X77680000Y-116900000D03*
G04 #@! TO.P,CON1,B3,~{DSRAM}*
G04 #@! TO.N,~{DSRAM}*
X80860000Y-116900000D03*
G04 #@! TO.P,CON1,B4,~{CEROM2}*
G04 #@! TO.N,~{CEROM2}*
X84040000Y-116900000D03*
G04 #@! TO.P,CON1,B5,~{MEMR}*
G04 #@! TO.N,~{MEMR}*
X87220000Y-116900000D03*
G04 #@! TO.P,CON1,B6,~{MEMW}*
G04 #@! TO.N,~{MEMW}*
X90400000Y-116900000D03*
G04 #@! TO.P,CON1,B7,~{IOR}*
G04 #@! TO.N,~{IOR}*
X93580000Y-116900000D03*
G04 #@! TO.P,CON1,B8,~{IOW}*
G04 #@! TO.N,unconnected-(CON1-~{IOW}-PadB8)*
X96760000Y-116900000D03*
G04 #@! TO.P,CON1,B9,N.C.*
G04 #@! TO.N,unconnected-(CON1-N.C.-PadB9)*
X99940000Y-116900000D03*
G04 #@! TO.P,CON1,B10,~{MREQ}*
G04 #@! TO.N,~{MREQ}*
X103120000Y-116900000D03*
G04 #@! TO.P,CON1,B11,CON*
G04 #@! TO.N,unconnected-(CON1-CON-PadB11)*
X106300000Y-116900000D03*
G04 #@! TO.P,CON1,B12,~{RAS1}*
G04 #@! TO.N,unconnected-(CON1-~{RAS1}-PadB12)*
X109480000Y-116900000D03*
G04 #@! TO.P,CON1,B13,~{CAS1}*
G04 #@! TO.N,unconnected-(CON1-~{CAS1}-PadB13)*
X112660000Y-116900000D03*
G04 #@! TO.P,CON1,B14,RAMA7*
G04 #@! TO.N,unconnected-(CON1-RAMA7-PadB14)*
X115840000Y-116900000D03*
G04 #@! TO.P,CON1,B15,~{RAS2}*
G04 #@! TO.N,unconnected-(CON1-~{RAS2}-PadB15)*
X119020000Y-116900000D03*
G04 #@! TO.P,CON1,B16,~{CAS2}*
G04 #@! TO.N,unconnected-(CON1-~{CAS2}-PadB16)*
X122200000Y-116900000D03*
G04 #@! TO.P,CON1,B17,~{MUX}*
G04 #@! TO.N,unconnected-(CON1-~{MUX}-PadB17)*
X125380000Y-116900000D03*
G04 #@! TO.P,CON1,B18,A14*
G04 #@! TO.N,A14*
X128560000Y-116900000D03*
G04 #@! TO.P,CON1,B19,A15*
G04 #@! TO.N,A15*
X131740000Y-116900000D03*
G04 #@! TO.P,CON1,B20,N.C.*
G04 #@! TO.N,unconnected-(CON1-N.C.-PadB20)*
X134920000Y-116900000D03*
G04 #@! TO.P,CON1,B21,GND*
G04 #@! TO.N,GND*
X138100000Y-116900000D03*
G04 #@! TO.P,CON1,B22,GND*
X141280000Y-116900000D03*
G04 #@! TD*
D17*
G04 #@! TO.N,GND*
X124206000Y-45339000D03*
X121158000Y-45339000D03*
X118491000Y-45339000D03*
X115951000Y-45339000D03*
X142875000Y-110109000D03*
X139700000Y-110109000D03*
X133223000Y-110109000D03*
X130048000Y-110109000D03*
X126873000Y-110109000D03*
X123698000Y-110109000D03*
X72898000Y-110109000D03*
X79248000Y-110109000D03*
X120523000Y-110109000D03*
X117348000Y-110109000D03*
X114173000Y-110109000D03*
X111125000Y-110109000D03*
X107823000Y-110109000D03*
X104775000Y-110109000D03*
X101473000Y-110109000D03*
X98298000Y-110109000D03*
X95250000Y-110109000D03*
X91948000Y-110109000D03*
X88773000Y-110109000D03*
X85725000Y-110109000D03*
X82423000Y-110109000D03*
X85344000Y-97409000D03*
X82423000Y-99822000D03*
G04 #@! TO.N,A1*
X77037200Y-110477600D03*
G04 #@! TO.N,D2*
X130407900Y-100533400D03*
G04 #@! TO.N,D3*
X124079000Y-46863000D03*
G04 #@! TO.N,D4*
X125349000Y-48260000D03*
G04 #@! TO.N,D5*
X134920000Y-108077000D03*
G04 #@! TO.N,D6*
X137447200Y-110016600D03*
G04 #@! TO.N,D7*
X127000000Y-54864000D03*
G04 #@! TO.N,~{MEMW}*
X90400000Y-64389000D03*
G04 #@! TO.N,~{CEROM2}*
X99314000Y-39624000D03*
G04 #@! TO.N,GND*
X118364000Y-63500000D03*
X91948000Y-46609000D03*
X104648000Y-63500000D03*
X113284000Y-45339000D03*
X95123000Y-63500000D03*
X107188000Y-63500000D03*
X75692000Y-64516000D03*
X133223000Y-66548000D03*
X125222000Y-63500000D03*
X122047000Y-63500000D03*
X109728000Y-63500000D03*
X96647000Y-38227000D03*
X98298000Y-63500000D03*
X113411000Y-63500000D03*
X101600000Y-63500000D03*
G04 #@! TO.N,~{DSRAM}*
X94996000Y-53340000D03*
X87421000Y-64389000D03*
X125857000Y-36957000D03*
G04 #@! TD*
D18*
G04 #@! TO.N,~{DSRAM}*
X125857000Y-36957000D02*
X123840000Y-36957000D01*
G04 #@! TO.N,Net-(D1-K)*
X79040000Y-39751000D02*
X79040000Y-43000000D01*
X78359000Y-39070000D02*
X79040000Y-39751000D01*
X78359000Y-36830000D02*
X78359000Y-39070000D01*
D19*
G04 #@! TO.N,~{DSRAM}*
X87421000Y-64389000D02*
X86868000Y-64942000D01*
X86868000Y-64942000D02*
X86868000Y-97663000D01*
X86868000Y-97663000D02*
X80860000Y-103671000D01*
X80860000Y-103671000D02*
X80860000Y-116900000D01*
G04 #@! TO.N,D2*
X124760000Y-43000000D02*
X124760000Y-44176700D01*
X124760000Y-44176700D02*
X130429000Y-49845700D01*
X130429000Y-49845700D02*
X130429000Y-100512300D01*
X130429000Y-100512300D02*
X130407900Y-100533400D01*
G04 #@! TO.N,D5*
X134920000Y-108077000D02*
X134920000Y-107488000D01*
X129286000Y-101854000D02*
X129286000Y-52578000D01*
X134920000Y-107488000D02*
X129286000Y-101854000D01*
X129286000Y-52578000D02*
X126395850Y-49687850D01*
X126395850Y-49687850D02*
X122651150Y-49687850D01*
G04 #@! TO.N,D6*
X137447200Y-110016600D02*
X134527600Y-110016600D01*
X134527600Y-110016600D02*
X128189700Y-103678700D01*
X125379850Y-50830850D02*
X121254150Y-50830850D01*
X128189700Y-103678700D02*
X128189700Y-53640700D01*
X128189700Y-53640700D02*
X125379850Y-50830850D01*
G04 #@! TO.N,D7*
X127000000Y-54864000D02*
X124206000Y-52070000D01*
X124206000Y-52070000D02*
X121285000Y-52070000D01*
D20*
X115697000Y-52070000D02*
X112060000Y-48433000D01*
X112060000Y-48433000D02*
X112060000Y-43000000D01*
X121285000Y-52070000D02*
X115697000Y-52070000D01*
D19*
G04 #@! TO.N,D4*
X125349000Y-48260000D02*
X122809000Y-48260000D01*
D20*
X119680000Y-47036000D02*
X120904000Y-48260000D01*
X119680000Y-46482000D02*
X119680000Y-47036000D01*
X120904000Y-48260000D02*
X122809000Y-48260000D01*
D19*
X119680000Y-43000000D02*
X119680000Y-46482000D01*
D20*
G04 #@! TO.N,D5*
X117140000Y-43000000D02*
X117140000Y-47798000D01*
X117140000Y-47798000D02*
X119029850Y-49687850D01*
X119029850Y-49687850D02*
X122651150Y-49687850D01*
G04 #@! TO.N,D6*
X114600000Y-43000000D02*
X114600000Y-48306000D01*
X114600000Y-48306000D02*
X117124850Y-50830850D01*
X117124850Y-50830850D02*
X121254150Y-50830850D01*
G04 #@! TO.N,A14*
X117160000Y-98425000D02*
X117160000Y-98745000D01*
X117160000Y-98745000D02*
X128560000Y-110145000D01*
X128560000Y-110145000D02*
X128560000Y-116900000D01*
D19*
G04 #@! TO.N,~{MEMR}*
X109520000Y-43000000D02*
X109520000Y-41575000D01*
X92916700Y-41830300D02*
X92916700Y-43911600D01*
X109520000Y-41575000D02*
X108458000Y-40513000D01*
X89154000Y-101633900D02*
X88679900Y-102108000D01*
X108458000Y-40513000D02*
X94234000Y-40513000D01*
X94234000Y-40513000D02*
X92916700Y-41830300D01*
X90542400Y-46285900D02*
X90542400Y-62365600D01*
X92916700Y-43911600D02*
X90542400Y-46285900D01*
X90542400Y-62365600D02*
X89154000Y-63754000D01*
X89154000Y-63754000D02*
X89154000Y-101633900D01*
G04 #@! TO.N,~{CEROM2}*
X89535000Y-39497000D02*
X87999700Y-41032300D01*
X99187000Y-39497000D02*
X89535000Y-39497000D01*
X99314000Y-39624000D02*
X99187000Y-39497000D01*
X87999700Y-61673100D02*
X88156500Y-61829900D01*
X88156500Y-61829900D02*
X88156500Y-99549500D01*
X87999700Y-41032300D02*
X87999700Y-61673100D01*
X88156500Y-99549500D02*
X84040000Y-103666000D01*
X84040000Y-103666000D02*
X84040000Y-116900000D01*
D18*
G04 #@! TO.N,+5V*
X85979000Y-36830000D02*
X122413000Y-36830000D01*
X122413000Y-36830000D02*
X122540000Y-36957000D01*
X86110000Y-36900000D02*
X85979000Y-36769000D01*
X73660000Y-108585000D02*
X74500000Y-109425000D01*
X85979000Y-34544000D02*
X84963000Y-33528000D01*
X85979000Y-36769000D02*
X85979000Y-34544000D01*
X73660000Y-35687000D02*
X73660000Y-108585000D01*
X84963000Y-33528000D02*
X75819000Y-33528000D01*
X75819000Y-33528000D02*
X73660000Y-35687000D01*
X74500000Y-109425000D02*
X74500000Y-116900000D01*
D19*
G04 #@! TO.N,~{IOR}*
X93022400Y-45434300D02*
X93022400Y-100965000D01*
D20*
X93022400Y-100965000D02*
X93580000Y-101522600D01*
X93580000Y-101522600D02*
X93580000Y-116900000D01*
D19*
G04 #@! TO.N,A14*
X117160000Y-98425000D02*
X117160000Y-60800000D01*
G04 #@! TO.N,A15*
X119700000Y-97155000D02*
X119700000Y-60800000D01*
D20*
X119700000Y-97155000D02*
X119700000Y-97856000D01*
X119700000Y-97856000D02*
X131740000Y-109896000D01*
X131740000Y-109896000D02*
X131740000Y-116900000D01*
G04 #@! TO.N,~{MEMR}*
X88679900Y-102108000D02*
X87220000Y-103567900D01*
X87220000Y-103567900D02*
X87220000Y-116900000D01*
D18*
G04 #@! TO.N,+5V*
X74500000Y-116900000D02*
X77680000Y-116900000D01*
D19*
G04 #@! TO.N,A1*
X77037200Y-63999500D02*
X77037200Y-110477600D01*
X79060000Y-60800000D02*
X79060000Y-61976700D01*
X79060000Y-61976700D02*
X77037200Y-63999500D01*
G04 #@! TO.N,D3*
X122220000Y-43000000D02*
X122220000Y-45004000D01*
X122220000Y-45004000D02*
X124079000Y-46863000D01*
G04 #@! TO.N,~{MEMW}*
X90400000Y-116900000D02*
X90400000Y-64389000D01*
G04 #@! TO.N,~{IOR}*
X94280000Y-43000000D02*
X94280000Y-44176700D01*
X94280000Y-44176700D02*
X93022400Y-45434300D01*
G04 #@! TO.N,~{MREQ}*
X103120000Y-45396700D02*
X101900000Y-44176700D01*
X103120000Y-116900000D02*
X103120000Y-45396700D01*
X101900000Y-43000000D02*
X101900000Y-44176700D01*
G04 #@! TO.N,~{DSRAM}*
X94996000Y-53340000D02*
X94996000Y-46000700D01*
X94996000Y-46000700D02*
X96820000Y-44176700D01*
X96820000Y-44176700D02*
X96820000Y-43000000D01*
G04 #@! TD*
G04 #@! TA.AperFunction,Conductor*
G04 #@! TO.N,GND*
G36*
X142001135Y-30913419D02*
G01*
X142135104Y-30915800D01*
X142150549Y-30917042D01*
X142416910Y-30955340D01*
X142434193Y-30959100D01*
X142691324Y-31034601D01*
X142707897Y-31040783D01*
X142951669Y-31152111D01*
X142967193Y-31160588D01*
X143192634Y-31305472D01*
X143206797Y-31316074D01*
X143409327Y-31491569D01*
X143421837Y-31504079D01*
X143597329Y-31706608D01*
X143607931Y-31720772D01*
X143752817Y-31946219D01*
X143761290Y-31961734D01*
X143872618Y-32205508D01*
X143878800Y-32222084D01*
X143954300Y-32479214D01*
X143958061Y-32496502D01*
X143996358Y-32762863D01*
X143997600Y-32778298D01*
X143999980Y-32911716D01*
X144000000Y-32913928D01*
X144000000Y-116843000D01*
X143980315Y-116910039D01*
X143927511Y-116955794D01*
X143876000Y-116967000D01*
X142762362Y-116967000D01*
X142731739Y-116958008D01*
X142728319Y-116961681D01*
X142723000Y-116967000D01*
X139837000Y-116967000D01*
X139831681Y-116961681D01*
X139829687Y-116958029D01*
X139806484Y-116966684D01*
X139797638Y-116967000D01*
X139582362Y-116967000D01*
X139551739Y-116958008D01*
X139548319Y-116961681D01*
X139543000Y-116967000D01*
X136657000Y-116967000D01*
X136651681Y-116961681D01*
X136649687Y-116958029D01*
X136626484Y-116966684D01*
X136617638Y-116967000D01*
X136244500Y-116967000D01*
X136177461Y-116947315D01*
X136131706Y-116894511D01*
X136120500Y-116843000D01*
X136120500Y-111843386D01*
X136119921Y-111837012D01*
X136700000Y-111837012D01*
X136700000Y-116750000D01*
X136705319Y-116755319D01*
X136707312Y-116758970D01*
X136730516Y-116750316D01*
X136739362Y-116750000D01*
X137950000Y-116750000D01*
X138250000Y-116750000D01*
X139460638Y-116750000D01*
X139491260Y-116758991D01*
X139494681Y-116755319D01*
X139500000Y-116750000D01*
X139500000Y-111837024D01*
X139499999Y-111837012D01*
X139880000Y-111837012D01*
X139880000Y-116750000D01*
X139885319Y-116755319D01*
X139887312Y-116758970D01*
X139910516Y-116750316D01*
X139919362Y-116750000D01*
X141130000Y-116750000D01*
X141430000Y-116750000D01*
X142640638Y-116750000D01*
X142671260Y-116758991D01*
X142674681Y-116755319D01*
X142680000Y-116750000D01*
X142680000Y-111837024D01*
X142679999Y-111837012D01*
X142673815Y-111758436D01*
X142673815Y-111758435D01*
X142624849Y-111575692D01*
X142538962Y-111407126D01*
X142538961Y-111407124D01*
X142419900Y-111260099D01*
X142272875Y-111141038D01*
X142272873Y-111141037D01*
X142104307Y-111055150D01*
X141921563Y-111006184D01*
X141842987Y-111000000D01*
X141430000Y-111000000D01*
X141430000Y-116750000D01*
X141130000Y-116750000D01*
X141130000Y-111000000D01*
X140717012Y-111000000D01*
X140638436Y-111006184D01*
X140638435Y-111006184D01*
X140455692Y-111055150D01*
X140287126Y-111141037D01*
X140287124Y-111141038D01*
X140140099Y-111260099D01*
X140021038Y-111407124D01*
X140021037Y-111407126D01*
X139935150Y-111575692D01*
X139886184Y-111758435D01*
X139886184Y-111758436D01*
X139880000Y-111837012D01*
X139499999Y-111837012D01*
X139493815Y-111758436D01*
X139493815Y-111758435D01*
X139444849Y-111575692D01*
X139358962Y-111407126D01*
X139358961Y-111407124D01*
X139239900Y-111260099D01*
X139092875Y-111141038D01*
X139092873Y-111141037D01*
X138924307Y-111055150D01*
X138741563Y-111006184D01*
X138662987Y-111000000D01*
X138250000Y-111000000D01*
X138250000Y-116750000D01*
X137950000Y-116750000D01*
X137950000Y-111000000D01*
X137537012Y-111000000D01*
X137458436Y-111006184D01*
X137458435Y-111006184D01*
X137275692Y-111055150D01*
X137107126Y-111141037D01*
X137107124Y-111141038D01*
X136960099Y-111260099D01*
X136841038Y-111407124D01*
X136841037Y-111407126D01*
X136755150Y-111575692D01*
X136706184Y-111758435D01*
X136706184Y-111758436D01*
X136700000Y-111837012D01*
X136119921Y-111837012D01*
X136114086Y-111772807D01*
X136114086Y-111772804D01*
X136063478Y-111610394D01*
X135975472Y-111464815D01*
X135975470Y-111464813D01*
X135975469Y-111464811D01*
X135855188Y-111344530D01*
X135709606Y-111256522D01*
X135617830Y-111227924D01*
X135547196Y-111205914D01*
X135547194Y-111205913D01*
X135547192Y-111205913D01*
X135497778Y-111201423D01*
X135476616Y-111199500D01*
X134363384Y-111199500D01*
X134344145Y-111201248D01*
X134292807Y-111205913D01*
X134130393Y-111256522D01*
X133984811Y-111344530D01*
X133864530Y-111464811D01*
X133776522Y-111610393D01*
X133725913Y-111772807D01*
X133719500Y-111843386D01*
X133719500Y-116843000D01*
X133699815Y-116910039D01*
X133647011Y-116955794D01*
X133595500Y-116967000D01*
X133064500Y-116967000D01*
X132997461Y-116947315D01*
X132951706Y-116894511D01*
X132940500Y-116843000D01*
X132940500Y-111843386D01*
X132934086Y-111772807D01*
X132934086Y-111772804D01*
X132883478Y-111610394D01*
X132795472Y-111464815D01*
X132795470Y-111464813D01*
X132795469Y-111464811D01*
X132675188Y-111344530D01*
X132529606Y-111256522D01*
X132437830Y-111227924D01*
X132367196Y-111205914D01*
X132367194Y-111205913D01*
X132367192Y-111205913D01*
X132317778Y-111201423D01*
X132296616Y-111199500D01*
X132296613Y-111199500D01*
X132191500Y-111199500D01*
X132124461Y-111179815D01*
X132078706Y-111127011D01*
X132067500Y-111075500D01*
X132067500Y-109852885D01*
X132067500Y-109852884D01*
X132045181Y-109769590D01*
X132002065Y-109694910D01*
X131941090Y-109633935D01*
X120063819Y-97756664D01*
X120030334Y-97695341D01*
X120027500Y-97668983D01*
X120027500Y-97111885D01*
X120026561Y-97104754D01*
X120025500Y-97088567D01*
X120025500Y-61890583D01*
X120045185Y-61823544D01*
X120097989Y-61777789D01*
X120102049Y-61776021D01*
X120103945Y-61775234D01*
X120103954Y-61775232D01*
X120286450Y-61677685D01*
X120446410Y-61546410D01*
X120577685Y-61386450D01*
X120675232Y-61203954D01*
X120735300Y-61005934D01*
X120755583Y-60800000D01*
X121184417Y-60800000D01*
X121204699Y-61005932D01*
X121204700Y-61005934D01*
X121264768Y-61203954D01*
X121362315Y-61386450D01*
X121395911Y-61427387D01*
X121493589Y-61546410D01*
X121550565Y-61593168D01*
X121653550Y-61677685D01*
X121836046Y-61775232D01*
X122034066Y-61835300D01*
X122034065Y-61835300D01*
X122052529Y-61837118D01*
X122240000Y-61855583D01*
X122445934Y-61835300D01*
X122643954Y-61775232D01*
X122826450Y-61677685D01*
X122986410Y-61546410D01*
X123117685Y-61386450D01*
X123215232Y-61203954D01*
X123275300Y-61005934D01*
X123295583Y-60800000D01*
X123724417Y-60800000D01*
X123744699Y-61005932D01*
X123744700Y-61005934D01*
X123804768Y-61203954D01*
X123902315Y-61386450D01*
X123935911Y-61427387D01*
X124033589Y-61546410D01*
X124090565Y-61593168D01*
X124193550Y-61677685D01*
X124376046Y-61775232D01*
X124574066Y-61835300D01*
X124574065Y-61835300D01*
X124592529Y-61837118D01*
X124780000Y-61855583D01*
X124985934Y-61835300D01*
X125183954Y-61775232D01*
X125366450Y-61677685D01*
X125526410Y-61546410D01*
X125657685Y-61386450D01*
X125755232Y-61203954D01*
X125815300Y-61005934D01*
X125835583Y-60800000D01*
X125815300Y-60594066D01*
X125755232Y-60396046D01*
X125657685Y-60213550D01*
X125582355Y-60121759D01*
X125526410Y-60053589D01*
X125408677Y-59956969D01*
X125366450Y-59922315D01*
X125183954Y-59824768D01*
X124985934Y-59764700D01*
X124985932Y-59764699D01*
X124985934Y-59764699D01*
X124780000Y-59744417D01*
X124574067Y-59764699D01*
X124376043Y-59824769D01*
X124288114Y-59871769D01*
X124193550Y-59922315D01*
X124193548Y-59922316D01*
X124193547Y-59922317D01*
X124033589Y-60053589D01*
X123902317Y-60213547D01*
X123804769Y-60396043D01*
X123744699Y-60594067D01*
X123724417Y-60800000D01*
X123295583Y-60800000D01*
X123275300Y-60594066D01*
X123215232Y-60396046D01*
X123117685Y-60213550D01*
X123042355Y-60121759D01*
X122986410Y-60053589D01*
X122868677Y-59956969D01*
X122826450Y-59922315D01*
X122643954Y-59824768D01*
X122445934Y-59764700D01*
X122445932Y-59764699D01*
X122445934Y-59764699D01*
X122240000Y-59744417D01*
X122034067Y-59764699D01*
X121836043Y-59824769D01*
X121748114Y-59871769D01*
X121653550Y-59922315D01*
X121653548Y-59922316D01*
X121653547Y-59922317D01*
X121493589Y-60053589D01*
X121362317Y-60213547D01*
X121264769Y-60396043D01*
X121204699Y-60594067D01*
X121184417Y-60800000D01*
X120755583Y-60800000D01*
X120735300Y-60594066D01*
X120675232Y-60396046D01*
X120577685Y-60213550D01*
X120502355Y-60121759D01*
X120446410Y-60053589D01*
X120328677Y-59956969D01*
X120286450Y-59922315D01*
X120103954Y-59824768D01*
X119905934Y-59764700D01*
X119905932Y-59764699D01*
X119905934Y-59764699D01*
X119700000Y-59744417D01*
X119494067Y-59764699D01*
X119296043Y-59824769D01*
X119208114Y-59871769D01*
X119113550Y-59922315D01*
X119113548Y-59922316D01*
X119113547Y-59922317D01*
X118953589Y-60053589D01*
X118822317Y-60213547D01*
X118724769Y-60396043D01*
X118664699Y-60594067D01*
X118644417Y-60800000D01*
X118664699Y-61005932D01*
X118664700Y-61005934D01*
X118724768Y-61203954D01*
X118822315Y-61386450D01*
X118855911Y-61427387D01*
X118953589Y-61546410D01*
X119010565Y-61593168D01*
X119113550Y-61677685D01*
X119296046Y-61775232D01*
X119296051Y-61775233D01*
X119297951Y-61776021D01*
X119298796Y-61776701D01*
X119301419Y-61778104D01*
X119301153Y-61778601D01*
X119352355Y-61819862D01*
X119374421Y-61886156D01*
X119374500Y-61890583D01*
X119374500Y-97088567D01*
X119373439Y-97104754D01*
X119372500Y-97111883D01*
X119372500Y-97111884D01*
X119372500Y-97812884D01*
X119372500Y-97899116D01*
X119394819Y-97982410D01*
X119437934Y-98057088D01*
X119437936Y-98057091D01*
X131376181Y-109995336D01*
X131409666Y-110056659D01*
X131412500Y-110083017D01*
X131412500Y-111075500D01*
X131392815Y-111142539D01*
X131340011Y-111188294D01*
X131288500Y-111199500D01*
X131183384Y-111199500D01*
X131164145Y-111201248D01*
X131112807Y-111205913D01*
X130950393Y-111256522D01*
X130804811Y-111344530D01*
X130684530Y-111464811D01*
X130596522Y-111610393D01*
X130545913Y-111772807D01*
X130539500Y-111843386D01*
X130539500Y-116843000D01*
X130519815Y-116910039D01*
X130467011Y-116955794D01*
X130415500Y-116967000D01*
X129884500Y-116967000D01*
X129817461Y-116947315D01*
X129771706Y-116894511D01*
X129760500Y-116843000D01*
X129760500Y-111843386D01*
X129754086Y-111772807D01*
X129754086Y-111772804D01*
X129703478Y-111610394D01*
X129615472Y-111464815D01*
X129615470Y-111464813D01*
X129615469Y-111464811D01*
X129495188Y-111344530D01*
X129349606Y-111256522D01*
X129257830Y-111227924D01*
X129187196Y-111205914D01*
X129187194Y-111205913D01*
X129187192Y-111205913D01*
X129137778Y-111201423D01*
X129116616Y-111199500D01*
X129116613Y-111199500D01*
X129011500Y-111199500D01*
X128944461Y-111179815D01*
X128898706Y-111127011D01*
X128887500Y-111075500D01*
X128887500Y-110101885D01*
X128887500Y-110101884D01*
X128865181Y-110018590D01*
X128822065Y-109943910D01*
X128761090Y-109882935D01*
X117523819Y-98645664D01*
X117490334Y-98584341D01*
X117487500Y-98557983D01*
X117487500Y-98381885D01*
X117486561Y-98374754D01*
X117485500Y-98358567D01*
X117485500Y-61890583D01*
X117505185Y-61823544D01*
X117557989Y-61777789D01*
X117562049Y-61776021D01*
X117563945Y-61775234D01*
X117563954Y-61775232D01*
X117746450Y-61677685D01*
X117906410Y-61546410D01*
X118037685Y-61386450D01*
X118135232Y-61203954D01*
X118195300Y-61005934D01*
X118215583Y-60800000D01*
X118195300Y-60594066D01*
X118135232Y-60396046D01*
X118037685Y-60213550D01*
X117962355Y-60121759D01*
X117906410Y-60053589D01*
X117788677Y-59956969D01*
X117746450Y-59922315D01*
X117563954Y-59824768D01*
X117365934Y-59764700D01*
X117365932Y-59764699D01*
X117365934Y-59764699D01*
X117160000Y-59744417D01*
X116954067Y-59764699D01*
X116756043Y-59824769D01*
X116668114Y-59871769D01*
X116573550Y-59922315D01*
X116573548Y-59922316D01*
X116573547Y-59922317D01*
X116413589Y-60053589D01*
X116282317Y-60213547D01*
X116184769Y-60396043D01*
X116124699Y-60594067D01*
X116104417Y-60800000D01*
X116124699Y-61005932D01*
X116124700Y-61005934D01*
X116184768Y-61203954D01*
X116282315Y-61386450D01*
X116315911Y-61427387D01*
X116413589Y-61546410D01*
X116470565Y-61593168D01*
X116573550Y-61677685D01*
X116756046Y-61775232D01*
X116756051Y-61775233D01*
X116757951Y-61776021D01*
X116758796Y-61776701D01*
X116761419Y-61778104D01*
X116761153Y-61778601D01*
X116812355Y-61819862D01*
X116834421Y-61886156D01*
X116834500Y-61890583D01*
X116834500Y-98358567D01*
X116833439Y-98374754D01*
X116832500Y-98381883D01*
X116832500Y-98381884D01*
X116832500Y-98701884D01*
X116832500Y-98788116D01*
X116854819Y-98871410D01*
X116897934Y-98946088D01*
X116897936Y-98946091D01*
X128196181Y-110244336D01*
X128229666Y-110305659D01*
X128232500Y-110332017D01*
X128232500Y-111075500D01*
X128212815Y-111142539D01*
X128160011Y-111188294D01*
X128108500Y-111199500D01*
X128003384Y-111199500D01*
X127984145Y-111201248D01*
X127932807Y-111205913D01*
X127770393Y-111256522D01*
X127624811Y-111344530D01*
X127504530Y-111464811D01*
X127416522Y-111610393D01*
X127365913Y-111772807D01*
X127359500Y-111843386D01*
X127359500Y-116843000D01*
X127339815Y-116910039D01*
X127287011Y-116955794D01*
X127235500Y-116967000D01*
X126704500Y-116967000D01*
X126637461Y-116947315D01*
X126591706Y-116894511D01*
X126580500Y-116843000D01*
X126580500Y-111843386D01*
X126574086Y-111772807D01*
X126574086Y-111772804D01*
X126523478Y-111610394D01*
X126435472Y-111464815D01*
X126435470Y-111464813D01*
X126435469Y-111464811D01*
X126315188Y-111344530D01*
X126169606Y-111256522D01*
X126077830Y-111227924D01*
X126007196Y-111205914D01*
X126007194Y-111205913D01*
X126007192Y-111205913D01*
X125957778Y-111201423D01*
X125936616Y-111199500D01*
X124823384Y-111199500D01*
X124804145Y-111201248D01*
X124752807Y-111205913D01*
X124590393Y-111256522D01*
X124444811Y-111344530D01*
X124324530Y-111464811D01*
X124236522Y-111610393D01*
X124185913Y-111772807D01*
X124179500Y-111843386D01*
X124179500Y-116843000D01*
X124159815Y-116910039D01*
X124107011Y-116955794D01*
X124055500Y-116967000D01*
X123524500Y-116967000D01*
X123457461Y-116947315D01*
X123411706Y-116894511D01*
X123400500Y-116843000D01*
X123400500Y-111843386D01*
X123394086Y-111772807D01*
X123394086Y-111772804D01*
X123343478Y-111610394D01*
X123255472Y-111464815D01*
X123255470Y-111464813D01*
X123255469Y-111464811D01*
X123135188Y-111344530D01*
X122989606Y-111256522D01*
X122897830Y-111227924D01*
X122827196Y-111205914D01*
X122827194Y-111205913D01*
X122827192Y-111205913D01*
X122777778Y-111201423D01*
X122756616Y-111199500D01*
X121643384Y-111199500D01*
X121624145Y-111201248D01*
X121572807Y-111205913D01*
X121410393Y-111256522D01*
X121264811Y-111344530D01*
X121144530Y-111464811D01*
X121056522Y-111610393D01*
X121005913Y-111772807D01*
X120999500Y-111843386D01*
X120999500Y-116843000D01*
X120979815Y-116910039D01*
X120927011Y-116955794D01*
X120875500Y-116967000D01*
X120344500Y-116967000D01*
X120277461Y-116947315D01*
X120231706Y-116894511D01*
X120220500Y-116843000D01*
X120220500Y-111843386D01*
X120214086Y-111772807D01*
X120214086Y-111772804D01*
X120163478Y-111610394D01*
X120075472Y-111464815D01*
X120075470Y-111464813D01*
X120075469Y-111464811D01*
X119955188Y-111344530D01*
X119809606Y-111256522D01*
X119717830Y-111227924D01*
X119647196Y-111205914D01*
X119647194Y-111205913D01*
X119647192Y-111205913D01*
X119597778Y-111201423D01*
X119576616Y-111199500D01*
X118463384Y-111199500D01*
X118444145Y-111201248D01*
X118392807Y-111205913D01*
X118230393Y-111256522D01*
X118084811Y-111344530D01*
X117964530Y-111464811D01*
X117876522Y-111610393D01*
X117825913Y-111772807D01*
X117819500Y-111843386D01*
X117819500Y-116843000D01*
X117799815Y-116910039D01*
X117747011Y-116955794D01*
X117695500Y-116967000D01*
X117164500Y-116967000D01*
X117097461Y-116947315D01*
X117051706Y-116894511D01*
X117040500Y-116843000D01*
X117040500Y-111843386D01*
X117034086Y-111772807D01*
X117034086Y-111772804D01*
X116983478Y-111610394D01*
X116895472Y-111464815D01*
X116895470Y-111464813D01*
X116895469Y-111464811D01*
X116775188Y-111344530D01*
X116629606Y-111256522D01*
X116537830Y-111227924D01*
X116467196Y-111205914D01*
X116467194Y-111205913D01*
X116467192Y-111205913D01*
X116417778Y-111201423D01*
X116396616Y-111199500D01*
X115283384Y-111199500D01*
X115264145Y-111201248D01*
X115212807Y-111205913D01*
X115050393Y-111256522D01*
X114904811Y-111344530D01*
X114784530Y-111464811D01*
X114696522Y-111610393D01*
X114645913Y-111772807D01*
X114639500Y-111843386D01*
X114639500Y-116843000D01*
X114619815Y-116910039D01*
X114567011Y-116955794D01*
X114515500Y-116967000D01*
X113984500Y-116967000D01*
X113917461Y-116947315D01*
X113871706Y-116894511D01*
X113860500Y-116843000D01*
X113860500Y-111843386D01*
X113854086Y-111772807D01*
X113854086Y-111772804D01*
X113803478Y-111610394D01*
X113715472Y-111464815D01*
X113715470Y-111464813D01*
X113715469Y-111464811D01*
X113595188Y-111344530D01*
X113449606Y-111256522D01*
X113357830Y-111227924D01*
X113287196Y-111205914D01*
X113287194Y-111205913D01*
X113287192Y-111205913D01*
X113237778Y-111201423D01*
X113216616Y-111199500D01*
X112103384Y-111199500D01*
X112084145Y-111201248D01*
X112032807Y-111205913D01*
X111870393Y-111256522D01*
X111724811Y-111344530D01*
X111604530Y-111464811D01*
X111516522Y-111610393D01*
X111465913Y-111772807D01*
X111459500Y-111843386D01*
X111459500Y-116843000D01*
X111439815Y-116910039D01*
X111387011Y-116955794D01*
X111335500Y-116967000D01*
X110804500Y-116967000D01*
X110737461Y-116947315D01*
X110691706Y-116894511D01*
X110680500Y-116843000D01*
X110680500Y-111843386D01*
X110674086Y-111772807D01*
X110674086Y-111772804D01*
X110623478Y-111610394D01*
X110535472Y-111464815D01*
X110535470Y-111464813D01*
X110535469Y-111464811D01*
X110415188Y-111344530D01*
X110269606Y-111256522D01*
X110177830Y-111227924D01*
X110107196Y-111205914D01*
X110107194Y-111205913D01*
X110107192Y-111205913D01*
X110057778Y-111201423D01*
X110036616Y-111199500D01*
X108923384Y-111199500D01*
X108904145Y-111201248D01*
X108852807Y-111205913D01*
X108690393Y-111256522D01*
X108544811Y-111344530D01*
X108424530Y-111464811D01*
X108336522Y-111610393D01*
X108285913Y-111772807D01*
X108279500Y-111843386D01*
X108279500Y-116843000D01*
X108259815Y-116910039D01*
X108207011Y-116955794D01*
X108155500Y-116967000D01*
X107624500Y-116967000D01*
X107557461Y-116947315D01*
X107511706Y-116894511D01*
X107500500Y-116843000D01*
X107500500Y-111843386D01*
X107494086Y-111772807D01*
X107494086Y-111772804D01*
X107443478Y-111610394D01*
X107355472Y-111464815D01*
X107355470Y-111464813D01*
X107355469Y-111464811D01*
X107235188Y-111344530D01*
X107089606Y-111256522D01*
X106997830Y-111227924D01*
X106927196Y-111205914D01*
X106927194Y-111205913D01*
X106927192Y-111205913D01*
X106877778Y-111201423D01*
X106856616Y-111199500D01*
X105743384Y-111199500D01*
X105724145Y-111201248D01*
X105672807Y-111205913D01*
X105510393Y-111256522D01*
X105364811Y-111344530D01*
X105244530Y-111464811D01*
X105156522Y-111610393D01*
X105105913Y-111772807D01*
X105099500Y-111843386D01*
X105099500Y-116843000D01*
X105079815Y-116910039D01*
X105027011Y-116955794D01*
X104975500Y-116967000D01*
X104444500Y-116967000D01*
X104377461Y-116947315D01*
X104331706Y-116894511D01*
X104320500Y-116843000D01*
X104320500Y-111843386D01*
X104314086Y-111772807D01*
X104314086Y-111772804D01*
X104263478Y-111610394D01*
X104175472Y-111464815D01*
X104175470Y-111464813D01*
X104175469Y-111464811D01*
X104055188Y-111344530D01*
X103909606Y-111256522D01*
X103817830Y-111227924D01*
X103747196Y-111205914D01*
X103747194Y-111205913D01*
X103747192Y-111205913D01*
X103697778Y-111201423D01*
X103676616Y-111199500D01*
X103676613Y-111199500D01*
X103569500Y-111199500D01*
X103502461Y-111179815D01*
X103456706Y-111127011D01*
X103445500Y-111075500D01*
X103445500Y-61566298D01*
X103465185Y-61499259D01*
X103517989Y-61453504D01*
X103587147Y-61443560D01*
X103650703Y-61472585D01*
X103665354Y-61487634D01*
X103713589Y-61546410D01*
X103770565Y-61593168D01*
X103873550Y-61677685D01*
X104056046Y-61775232D01*
X104254066Y-61835300D01*
X104254065Y-61835300D01*
X104272529Y-61837118D01*
X104460000Y-61855583D01*
X104665934Y-61835300D01*
X104863954Y-61775232D01*
X105046450Y-61677685D01*
X105206410Y-61546410D01*
X105337685Y-61386450D01*
X105435232Y-61203954D01*
X105495300Y-61005934D01*
X105515583Y-60800000D01*
X105944417Y-60800000D01*
X105964699Y-61005932D01*
X105964700Y-61005934D01*
X106024768Y-61203954D01*
X106122315Y-61386450D01*
X106155911Y-61427387D01*
X106253589Y-61546410D01*
X106310565Y-61593168D01*
X106413550Y-61677685D01*
X106596046Y-61775232D01*
X106794066Y-61835300D01*
X106794065Y-61835300D01*
X106812529Y-61837118D01*
X107000000Y-61855583D01*
X107205934Y-61835300D01*
X107403954Y-61775232D01*
X107586450Y-61677685D01*
X107746410Y-61546410D01*
X107877685Y-61386450D01*
X107975232Y-61203954D01*
X108035300Y-61005934D01*
X108055583Y-60800000D01*
X108484417Y-60800000D01*
X108504699Y-61005932D01*
X108504700Y-61005934D01*
X108564768Y-61203954D01*
X108662315Y-61386450D01*
X108695911Y-61427387D01*
X108793589Y-61546410D01*
X108850565Y-61593168D01*
X108953550Y-61677685D01*
X109136046Y-61775232D01*
X109334066Y-61835300D01*
X109334065Y-61835300D01*
X109352529Y-61837118D01*
X109540000Y-61855583D01*
X109745934Y-61835300D01*
X109943954Y-61775232D01*
X110126450Y-61677685D01*
X110286410Y-61546410D01*
X110417685Y-61386450D01*
X110515232Y-61203954D01*
X110575300Y-61005934D01*
X110595583Y-60800000D01*
X110580809Y-60649999D01*
X110838347Y-60649999D01*
X110838348Y-60650000D01*
X111602555Y-60650000D01*
X111580000Y-60734174D01*
X111580000Y-60865826D01*
X111602555Y-60950000D01*
X110838348Y-60950000D01*
X110844287Y-61017885D01*
X110844289Y-61017894D01*
X110900894Y-61229150D01*
X110900898Y-61229159D01*
X110993333Y-61427387D01*
X111118787Y-61606554D01*
X111273445Y-61761212D01*
X111452612Y-61886666D01*
X111650840Y-61979101D01*
X111650849Y-61979105D01*
X111862110Y-62035711D01*
X111930000Y-62041650D01*
X111930000Y-61277445D01*
X112014174Y-61300000D01*
X112145826Y-61300000D01*
X112230000Y-61277445D01*
X112230000Y-62041650D01*
X112297887Y-62035711D01*
X112297891Y-62035711D01*
X112509150Y-61979105D01*
X112509159Y-61979101D01*
X112707387Y-61886666D01*
X112886554Y-61761212D01*
X113041212Y-61606554D01*
X113166666Y-61427387D01*
X113259101Y-61229159D01*
X113259105Y-61229150D01*
X113315710Y-61017894D01*
X113315712Y-61017885D01*
X113321652Y-60950000D01*
X112557445Y-60950000D01*
X112580000Y-60865826D01*
X112580000Y-60800000D01*
X113564417Y-60800000D01*
X113584699Y-61005932D01*
X113584700Y-61005934D01*
X113644768Y-61203954D01*
X113742315Y-61386450D01*
X113775911Y-61427387D01*
X113873589Y-61546410D01*
X113930565Y-61593168D01*
X114033550Y-61677685D01*
X114216046Y-61775232D01*
X114414066Y-61835300D01*
X114414065Y-61835300D01*
X114432529Y-61837118D01*
X114620000Y-61855583D01*
X114825934Y-61835300D01*
X115023954Y-61775232D01*
X115206450Y-61677685D01*
X115366410Y-61546410D01*
X115497685Y-61386450D01*
X115595232Y-61203954D01*
X115655300Y-61005934D01*
X115675583Y-60800000D01*
X115655300Y-60594066D01*
X115595232Y-60396046D01*
X115497685Y-60213550D01*
X115422355Y-60121759D01*
X115366410Y-60053589D01*
X115248677Y-59956969D01*
X115206450Y-59922315D01*
X115023954Y-59824768D01*
X114825934Y-59764700D01*
X114825932Y-59764699D01*
X114825934Y-59764699D01*
X114620000Y-59744417D01*
X114414067Y-59764699D01*
X114216043Y-59824769D01*
X114128114Y-59871769D01*
X114033550Y-59922315D01*
X114033548Y-59922316D01*
X114033547Y-59922317D01*
X113873589Y-60053589D01*
X113742317Y-60213547D01*
X113644769Y-60396043D01*
X113584699Y-60594067D01*
X113564417Y-60800000D01*
X112580000Y-60800000D01*
X112580000Y-60734174D01*
X112557445Y-60650000D01*
X113321652Y-60650000D01*
X113321652Y-60649999D01*
X113315712Y-60582114D01*
X113315710Y-60582105D01*
X113259105Y-60370849D01*
X113259101Y-60370840D01*
X113166666Y-60172612D01*
X113166664Y-60172608D01*
X113041216Y-59993450D01*
X113041211Y-59993444D01*
X112886554Y-59838787D01*
X112707387Y-59713333D01*
X112509159Y-59620898D01*
X112509150Y-59620894D01*
X112297894Y-59564289D01*
X112297885Y-59564287D01*
X112230000Y-59558347D01*
X112230000Y-60322554D01*
X112145826Y-60300000D01*
X112014174Y-60300000D01*
X111930000Y-60322554D01*
X111930000Y-59558348D01*
X111929999Y-59558347D01*
X111862114Y-59564287D01*
X111862105Y-59564289D01*
X111650849Y-59620894D01*
X111650840Y-59620898D01*
X111452612Y-59713333D01*
X111452608Y-59713335D01*
X111273450Y-59838783D01*
X111273444Y-59838788D01*
X111118788Y-59993444D01*
X111118783Y-59993450D01*
X110993335Y-60172608D01*
X110993333Y-60172612D01*
X110900898Y-60370840D01*
X110900894Y-60370849D01*
X110844289Y-60582105D01*
X110844287Y-60582114D01*
X110838347Y-60649999D01*
X110580809Y-60649999D01*
X110575300Y-60594066D01*
X110515232Y-60396046D01*
X110417685Y-60213550D01*
X110342355Y-60121759D01*
X110286410Y-60053589D01*
X110168677Y-59956969D01*
X110126450Y-59922315D01*
X109943954Y-59824768D01*
X109745934Y-59764700D01*
X109745932Y-59764699D01*
X109745934Y-59764699D01*
X109540000Y-59744417D01*
X109334067Y-59764699D01*
X109136043Y-59824769D01*
X109048114Y-59871769D01*
X108953550Y-59922315D01*
X108953548Y-59922316D01*
X108953547Y-59922317D01*
X108793589Y-60053589D01*
X108662317Y-60213547D01*
X108564769Y-60396043D01*
X108504699Y-60594067D01*
X108484417Y-60800000D01*
X108055583Y-60800000D01*
X108035300Y-60594066D01*
X107975232Y-60396046D01*
X107877685Y-60213550D01*
X107802355Y-60121759D01*
X107746410Y-60053589D01*
X107628677Y-59956969D01*
X107586450Y-59922315D01*
X107403954Y-59824768D01*
X107205934Y-59764700D01*
X107205932Y-59764699D01*
X107205934Y-59764699D01*
X107000000Y-59744417D01*
X106794067Y-59764699D01*
X106596043Y-59824769D01*
X106508114Y-59871769D01*
X106413550Y-59922315D01*
X106413548Y-59922316D01*
X106413547Y-59922317D01*
X106253589Y-60053589D01*
X106122317Y-60213547D01*
X106024769Y-60396043D01*
X105964699Y-60594067D01*
X105944417Y-60800000D01*
X105515583Y-60800000D01*
X105495300Y-60594066D01*
X105435232Y-60396046D01*
X105337685Y-60213550D01*
X105262355Y-60121759D01*
X105206410Y-60053589D01*
X105088677Y-59956969D01*
X105046450Y-59922315D01*
X104863954Y-59824768D01*
X104665934Y-59764700D01*
X104665932Y-59764699D01*
X104665934Y-59764699D01*
X104460000Y-59744417D01*
X104254067Y-59764699D01*
X104056043Y-59824769D01*
X103968114Y-59871769D01*
X103873550Y-59922315D01*
X103873548Y-59922316D01*
X103873547Y-59922317D01*
X103713589Y-60053590D01*
X103665353Y-60112366D01*
X103607607Y-60151700D01*
X103537763Y-60153571D01*
X103477994Y-60117383D01*
X103447279Y-60054627D01*
X103445500Y-60033701D01*
X103445500Y-45449555D01*
X103445501Y-45449542D01*
X103445501Y-45353849D01*
X103445501Y-45353848D01*
X103423318Y-45271062D01*
X103384520Y-45203862D01*
X103380465Y-45196838D01*
X103380463Y-45196836D01*
X103380462Y-45196834D01*
X103315543Y-45131915D01*
X103315520Y-45131894D01*
X102327623Y-44143996D01*
X102294138Y-44082673D01*
X102299122Y-44012981D01*
X102340994Y-43957048D01*
X102356843Y-43946961D01*
X102486450Y-43877685D01*
X102646410Y-43746410D01*
X102777685Y-43586450D01*
X102875232Y-43403954D01*
X102935300Y-43205934D01*
X102955583Y-43000000D01*
X102940809Y-42849999D01*
X103198347Y-42849999D01*
X103198348Y-42850000D01*
X103962555Y-42850000D01*
X103940000Y-42934174D01*
X103940000Y-43065826D01*
X103962555Y-43150000D01*
X103198348Y-43150000D01*
X103204287Y-43217885D01*
X103204289Y-43217894D01*
X103260894Y-43429150D01*
X103260898Y-43429159D01*
X103353333Y-43627387D01*
X103478787Y-43806554D01*
X103633445Y-43961212D01*
X103812612Y-44086666D01*
X104010840Y-44179101D01*
X104010849Y-44179105D01*
X104222110Y-44235711D01*
X104290000Y-44241650D01*
X104290000Y-43477445D01*
X104374174Y-43500000D01*
X104505826Y-43500000D01*
X104590000Y-43477445D01*
X104590000Y-44241650D01*
X104657887Y-44235711D01*
X104657891Y-44235711D01*
X104869150Y-44179105D01*
X104869159Y-44179101D01*
X105067387Y-44086666D01*
X105246554Y-43961212D01*
X105401212Y-43806554D01*
X105526666Y-43627387D01*
X105619101Y-43429159D01*
X105619105Y-43429150D01*
X105675710Y-43217894D01*
X105675712Y-43217885D01*
X105681652Y-43150000D01*
X104917445Y-43150000D01*
X104940000Y-43065826D01*
X104940000Y-43000000D01*
X105924417Y-43000000D01*
X105944699Y-43205932D01*
X105944700Y-43205934D01*
X106004768Y-43403954D01*
X106102315Y-43586450D01*
X106102317Y-43586452D01*
X106233589Y-43746410D01*
X106306876Y-43806554D01*
X106393550Y-43877685D01*
X106576046Y-43975232D01*
X106774066Y-44035300D01*
X106774065Y-44035300D01*
X106792529Y-44037118D01*
X106980000Y-44055583D01*
X107185934Y-44035300D01*
X107383954Y-43975232D01*
X107566450Y-43877685D01*
X107726410Y-43746410D01*
X107857685Y-43586450D01*
X107955232Y-43403954D01*
X108015300Y-43205934D01*
X108035583Y-43000000D01*
X108015300Y-42794066D01*
X107955232Y-42596046D01*
X107857685Y-42413550D01*
X107786696Y-42327049D01*
X107726410Y-42253589D01*
X107576121Y-42130252D01*
X107566450Y-42122315D01*
X107383954Y-42024768D01*
X107185934Y-41964700D01*
X107185932Y-41964699D01*
X107185934Y-41964699D01*
X106980000Y-41944417D01*
X106774067Y-41964699D01*
X106639736Y-42005448D01*
X106584476Y-42022211D01*
X106576043Y-42024769D01*
X106539128Y-42044501D01*
X106393550Y-42122315D01*
X106393548Y-42122316D01*
X106393547Y-42122317D01*
X106233589Y-42253589D01*
X106102317Y-42413547D01*
X106004769Y-42596043D01*
X105944699Y-42794067D01*
X105924417Y-43000000D01*
X104940000Y-43000000D01*
X104940000Y-42934174D01*
X104917445Y-42850000D01*
X105681652Y-42850000D01*
X105681652Y-42849999D01*
X105675712Y-42782114D01*
X105675710Y-42782105D01*
X105619105Y-42570849D01*
X105619101Y-42570840D01*
X105526666Y-42372612D01*
X105526664Y-42372608D01*
X105401216Y-42193450D01*
X105401211Y-42193444D01*
X105246554Y-42038787D01*
X105067387Y-41913333D01*
X104869159Y-41820898D01*
X104869150Y-41820894D01*
X104657894Y-41764289D01*
X104657885Y-41764287D01*
X104590000Y-41758347D01*
X104590000Y-42522554D01*
X104505826Y-42500000D01*
X104374174Y-42500000D01*
X104290000Y-42522554D01*
X104290000Y-41758348D01*
X104289999Y-41758347D01*
X104222114Y-41764287D01*
X104222105Y-41764289D01*
X104010849Y-41820894D01*
X104010840Y-41820898D01*
X103812612Y-41913333D01*
X103812608Y-41913335D01*
X103633450Y-42038783D01*
X103633444Y-42038788D01*
X103478788Y-42193444D01*
X103478783Y-42193450D01*
X103353335Y-42372608D01*
X103353333Y-42372612D01*
X103260898Y-42570840D01*
X103260894Y-42570849D01*
X103204289Y-42782105D01*
X103204287Y-42782114D01*
X103198347Y-42849999D01*
X102940809Y-42849999D01*
X102935300Y-42794066D01*
X102875232Y-42596046D01*
X102777685Y-42413550D01*
X102706696Y-42327049D01*
X102646410Y-42253589D01*
X102496121Y-42130252D01*
X102486450Y-42122315D01*
X102303954Y-42024768D01*
X102105934Y-41964700D01*
X102105932Y-41964699D01*
X102105934Y-41964699D01*
X101900000Y-41944417D01*
X101694067Y-41964699D01*
X101559736Y-42005448D01*
X101504476Y-42022211D01*
X101496043Y-42024769D01*
X101459128Y-42044501D01*
X101313550Y-42122315D01*
X101313548Y-42122316D01*
X101313547Y-42122317D01*
X101153589Y-42253589D01*
X101022317Y-42413547D01*
X100924769Y-42596043D01*
X100864699Y-42794067D01*
X100844417Y-43000000D01*
X100864699Y-43205932D01*
X100864700Y-43205934D01*
X100924768Y-43403954D01*
X101022315Y-43586450D01*
X101022317Y-43586452D01*
X101153589Y-43746410D01*
X101226876Y-43806554D01*
X101313550Y-43877685D01*
X101496046Y-43975232D01*
X101496051Y-43975233D01*
X101497951Y-43976021D01*
X101498796Y-43976701D01*
X101501419Y-43978104D01*
X101501153Y-43978601D01*
X101552355Y-44019862D01*
X101574421Y-44086156D01*
X101574500Y-44090583D01*
X101574500Y-44133847D01*
X101574500Y-44219553D01*
X101580421Y-44241650D01*
X101596682Y-44302340D01*
X101618108Y-44339450D01*
X101639535Y-44376562D01*
X101639536Y-44376563D01*
X101639537Y-44376564D01*
X102758181Y-45495207D01*
X102791666Y-45556530D01*
X102794500Y-45582888D01*
X102794500Y-59896534D01*
X102774815Y-59963573D01*
X102722011Y-60009328D01*
X102652853Y-60019272D01*
X102591836Y-59992388D01*
X102506453Y-59922317D01*
X102506451Y-59922316D01*
X102506450Y-59922315D01*
X102323954Y-59824768D01*
X102125934Y-59764700D01*
X102125932Y-59764699D01*
X102125934Y-59764699D01*
X101920000Y-59744417D01*
X101714067Y-59764699D01*
X101516043Y-59824769D01*
X101428114Y-59871769D01*
X101333550Y-59922315D01*
X101333548Y-59922316D01*
X101333547Y-59922317D01*
X101173589Y-60053589D01*
X101042317Y-60213547D01*
X100944769Y-60396043D01*
X100884699Y-60594067D01*
X100864417Y-60800000D01*
X100884699Y-61005932D01*
X100884700Y-61005934D01*
X100944768Y-61203954D01*
X101042315Y-61386450D01*
X101075911Y-61427387D01*
X101173589Y-61546410D01*
X101230565Y-61593168D01*
X101333550Y-61677685D01*
X101516046Y-61775232D01*
X101714066Y-61835300D01*
X101714065Y-61835300D01*
X101732529Y-61837118D01*
X101920000Y-61855583D01*
X102125934Y-61835300D01*
X102323954Y-61775232D01*
X102506450Y-61677685D01*
X102591835Y-61607612D01*
X102656145Y-61580299D01*
X102725013Y-61592090D01*
X102776573Y-61639242D01*
X102794500Y-61703465D01*
X102794500Y-111075500D01*
X102774815Y-111142539D01*
X102722011Y-111188294D01*
X102670500Y-111199500D01*
X102563384Y-111199500D01*
X102544145Y-111201248D01*
X102492807Y-111205913D01*
X102330393Y-111256522D01*
X102184811Y-111344530D01*
X102064530Y-111464811D01*
X101976522Y-111610393D01*
X101925913Y-111772807D01*
X101919500Y-111843386D01*
X101919500Y-116843000D01*
X101899815Y-116910039D01*
X101847011Y-116955794D01*
X101795500Y-116967000D01*
X101264500Y-116967000D01*
X101197461Y-116947315D01*
X101151706Y-116894511D01*
X101140500Y-116843000D01*
X101140500Y-111843386D01*
X101134086Y-111772807D01*
X101134086Y-111772804D01*
X101083478Y-111610394D01*
X100995472Y-111464815D01*
X100995470Y-111464813D01*
X100995469Y-111464811D01*
X100875188Y-111344530D01*
X100729606Y-111256522D01*
X100637830Y-111227924D01*
X100567196Y-111205914D01*
X100567194Y-111205913D01*
X100567192Y-111205913D01*
X100517778Y-111201423D01*
X100496616Y-111199500D01*
X99383384Y-111199500D01*
X99364145Y-111201248D01*
X99312807Y-111205913D01*
X99150393Y-111256522D01*
X99004811Y-111344530D01*
X98884530Y-111464811D01*
X98796522Y-111610393D01*
X98745913Y-111772807D01*
X98739500Y-111843386D01*
X98739500Y-116843000D01*
X98719815Y-116910039D01*
X98667011Y-116955794D01*
X98615500Y-116967000D01*
X98084500Y-116967000D01*
X98017461Y-116947315D01*
X97971706Y-116894511D01*
X97960500Y-116843000D01*
X97960500Y-111843386D01*
X97954086Y-111772807D01*
X97954086Y-111772804D01*
X97903478Y-111610394D01*
X97815472Y-111464815D01*
X97815470Y-111464813D01*
X97815469Y-111464811D01*
X97695188Y-111344530D01*
X97549606Y-111256522D01*
X97457830Y-111227924D01*
X97387196Y-111205914D01*
X97387194Y-111205913D01*
X97387192Y-111205913D01*
X97337778Y-111201423D01*
X97316616Y-111199500D01*
X96203384Y-111199500D01*
X96184145Y-111201248D01*
X96132807Y-111205913D01*
X95970393Y-111256522D01*
X95824811Y-111344530D01*
X95704530Y-111464811D01*
X95616522Y-111610393D01*
X95565913Y-111772807D01*
X95559500Y-111843386D01*
X95559500Y-116843000D01*
X95539815Y-116910039D01*
X95487011Y-116955794D01*
X95435500Y-116967000D01*
X94904500Y-116967000D01*
X94837461Y-116947315D01*
X94791706Y-116894511D01*
X94780500Y-116843000D01*
X94780500Y-111843386D01*
X94774086Y-111772807D01*
X94774086Y-111772804D01*
X94723478Y-111610394D01*
X94635472Y-111464815D01*
X94635470Y-111464813D01*
X94635469Y-111464811D01*
X94515188Y-111344530D01*
X94369606Y-111256522D01*
X94277830Y-111227924D01*
X94207196Y-111205914D01*
X94207194Y-111205913D01*
X94207192Y-111205913D01*
X94157778Y-111201423D01*
X94136616Y-111199500D01*
X94136613Y-111199500D01*
X94031500Y-111199500D01*
X93964461Y-111179815D01*
X93918706Y-111127011D01*
X93907500Y-111075500D01*
X93907500Y-101479485D01*
X93885181Y-101396190D01*
X93885181Y-101396188D01*
X93842067Y-101321513D01*
X93842062Y-101321507D01*
X93384219Y-100863664D01*
X93350734Y-100802341D01*
X93347900Y-100775983D01*
X93347900Y-61639781D01*
X93367585Y-61572742D01*
X93420389Y-61526987D01*
X93489547Y-61517043D01*
X93550564Y-61543927D01*
X93581645Y-61569434D01*
X93713550Y-61677685D01*
X93896046Y-61775232D01*
X94094066Y-61835300D01*
X94094065Y-61835300D01*
X94112529Y-61837118D01*
X94300000Y-61855583D01*
X94505934Y-61835300D01*
X94703954Y-61775232D01*
X94886450Y-61677685D01*
X95046410Y-61546410D01*
X95177685Y-61386450D01*
X95275232Y-61203954D01*
X95335300Y-61005934D01*
X95355583Y-60800000D01*
X95784417Y-60800000D01*
X95804699Y-61005932D01*
X95804700Y-61005934D01*
X95864768Y-61203954D01*
X95962315Y-61386450D01*
X95995911Y-61427387D01*
X96093589Y-61546410D01*
X96150565Y-61593168D01*
X96253550Y-61677685D01*
X96436046Y-61775232D01*
X96634066Y-61835300D01*
X96634065Y-61835300D01*
X96652529Y-61837118D01*
X96840000Y-61855583D01*
X97045934Y-61835300D01*
X97243954Y-61775232D01*
X97426450Y-61677685D01*
X97586410Y-61546410D01*
X97717685Y-61386450D01*
X97815232Y-61203954D01*
X97875300Y-61005934D01*
X97895583Y-60800000D01*
X98324417Y-60800000D01*
X98344699Y-61005932D01*
X98344700Y-61005934D01*
X98404768Y-61203954D01*
X98502315Y-61386450D01*
X98535911Y-61427387D01*
X98633589Y-61546410D01*
X98690565Y-61593168D01*
X98793550Y-61677685D01*
X98976046Y-61775232D01*
X99174066Y-61835300D01*
X99174065Y-61835300D01*
X99192529Y-61837118D01*
X99380000Y-61855583D01*
X99585934Y-61835300D01*
X99783954Y-61775232D01*
X99966450Y-61677685D01*
X100126410Y-61546410D01*
X100257685Y-61386450D01*
X100355232Y-61203954D01*
X100415300Y-61005934D01*
X100435583Y-60800000D01*
X100415300Y-60594066D01*
X100355232Y-60396046D01*
X100257685Y-60213550D01*
X100182355Y-60121759D01*
X100126410Y-60053589D01*
X100008677Y-59956969D01*
X99966450Y-59922315D01*
X99783954Y-59824768D01*
X99585934Y-59764700D01*
X99585932Y-59764699D01*
X99585934Y-59764699D01*
X99380000Y-59744417D01*
X99174067Y-59764699D01*
X98976043Y-59824769D01*
X98888114Y-59871769D01*
X98793550Y-59922315D01*
X98793548Y-59922316D01*
X98793547Y-59922317D01*
X98633589Y-60053589D01*
X98502317Y-60213547D01*
X98404769Y-60396043D01*
X98344699Y-60594067D01*
X98324417Y-60800000D01*
X97895583Y-60800000D01*
X97875300Y-60594066D01*
X97815232Y-60396046D01*
X97717685Y-60213550D01*
X97642355Y-60121759D01*
X97586410Y-60053589D01*
X97468677Y-59956969D01*
X97426450Y-59922315D01*
X97243954Y-59824768D01*
X97045934Y-59764700D01*
X97045932Y-59764699D01*
X97045934Y-59764699D01*
X96840000Y-59744417D01*
X96634067Y-59764699D01*
X96436043Y-59824769D01*
X96348114Y-59871769D01*
X96253550Y-59922315D01*
X96253548Y-59922316D01*
X96253547Y-59922317D01*
X96093589Y-60053589D01*
X95962317Y-60213547D01*
X95864769Y-60396043D01*
X95804699Y-60594067D01*
X95784417Y-60800000D01*
X95355583Y-60800000D01*
X95335300Y-60594066D01*
X95275232Y-60396046D01*
X95177685Y-60213550D01*
X95102355Y-60121759D01*
X95046410Y-60053589D01*
X94928677Y-59956969D01*
X94886450Y-59922315D01*
X94703954Y-59824768D01*
X94505934Y-59764700D01*
X94505932Y-59764699D01*
X94505934Y-59764699D01*
X94300000Y-59744417D01*
X94094067Y-59764699D01*
X93896043Y-59824769D01*
X93713546Y-59922317D01*
X93550564Y-60056072D01*
X93486254Y-60083384D01*
X93417387Y-60071593D01*
X93365827Y-60024440D01*
X93347900Y-59960218D01*
X93347900Y-53339998D01*
X94390318Y-53339998D01*
X94390318Y-53340001D01*
X94410955Y-53496760D01*
X94410956Y-53496762D01*
X94471464Y-53642841D01*
X94567718Y-53768282D01*
X94693159Y-53864536D01*
X94839238Y-53925044D01*
X94917619Y-53935363D01*
X94995999Y-53945682D01*
X94996000Y-53945682D01*
X94996001Y-53945682D01*
X95048254Y-53938802D01*
X95152762Y-53925044D01*
X95298841Y-53864536D01*
X95424282Y-53768282D01*
X95520536Y-53642841D01*
X95581044Y-53496762D01*
X95601682Y-53340000D01*
X95581044Y-53183238D01*
X95520536Y-53037159D01*
X95424282Y-52911718D01*
X95424280Y-52911716D01*
X95424279Y-52911715D01*
X95370012Y-52870074D01*
X95328810Y-52813646D01*
X95321500Y-52771699D01*
X95321500Y-46186887D01*
X95341185Y-46119848D01*
X95357814Y-46099211D01*
X97009652Y-44447372D01*
X97009657Y-44447369D01*
X97019860Y-44437165D01*
X97019862Y-44437165D01*
X97080465Y-44376562D01*
X97123318Y-44302338D01*
X97145501Y-44219552D01*
X97145501Y-44133847D01*
X97145501Y-44126252D01*
X97145500Y-44126234D01*
X97145500Y-44090583D01*
X97165185Y-44023544D01*
X97217989Y-43977789D01*
X97222049Y-43976021D01*
X97223945Y-43975234D01*
X97223954Y-43975232D01*
X97406450Y-43877685D01*
X97566410Y-43746410D01*
X97697685Y-43586450D01*
X97795232Y-43403954D01*
X97855300Y-43205934D01*
X97875583Y-43000000D01*
X98304417Y-43000000D01*
X98324699Y-43205932D01*
X98324700Y-43205934D01*
X98384768Y-43403954D01*
X98482315Y-43586450D01*
X98482317Y-43586452D01*
X98613589Y-43746410D01*
X98686876Y-43806554D01*
X98773550Y-43877685D01*
X98956046Y-43975232D01*
X99154066Y-44035300D01*
X99154065Y-44035300D01*
X99172529Y-44037118D01*
X99360000Y-44055583D01*
X99565934Y-44035300D01*
X99763954Y-43975232D01*
X99946450Y-43877685D01*
X100106410Y-43746410D01*
X100237685Y-43586450D01*
X100335232Y-43403954D01*
X100395300Y-43205934D01*
X100415583Y-43000000D01*
X100395300Y-42794066D01*
X100335232Y-42596046D01*
X100237685Y-42413550D01*
X100166696Y-42327049D01*
X100106410Y-42253589D01*
X99956121Y-42130252D01*
X99946450Y-42122315D01*
X99763954Y-42024768D01*
X99565934Y-41964700D01*
X99565932Y-41964699D01*
X99565934Y-41964699D01*
X99360000Y-41944417D01*
X99154067Y-41964699D01*
X99019736Y-42005448D01*
X98964476Y-42022211D01*
X98956043Y-42024769D01*
X98919128Y-42044501D01*
X98773550Y-42122315D01*
X98773548Y-42122316D01*
X98773547Y-42122317D01*
X98613589Y-42253589D01*
X98482317Y-42413547D01*
X98384769Y-42596043D01*
X98324699Y-42794067D01*
X98304417Y-43000000D01*
X97875583Y-43000000D01*
X97855300Y-42794066D01*
X97795232Y-42596046D01*
X97697685Y-42413550D01*
X97626696Y-42327049D01*
X97566410Y-42253589D01*
X97416121Y-42130252D01*
X97406450Y-42122315D01*
X97223954Y-42024768D01*
X97025934Y-41964700D01*
X97025932Y-41964699D01*
X97025934Y-41964699D01*
X96820000Y-41944417D01*
X96614067Y-41964699D01*
X96479736Y-42005448D01*
X96424476Y-42022211D01*
X96416043Y-42024769D01*
X96379128Y-42044501D01*
X96233550Y-42122315D01*
X96233548Y-42122316D01*
X96233547Y-42122317D01*
X96073589Y-42253589D01*
X95942317Y-42413547D01*
X95844769Y-42596043D01*
X95784699Y-42794067D01*
X95764417Y-43000000D01*
X95784699Y-43205932D01*
X95784700Y-43205934D01*
X95844768Y-43403954D01*
X95942315Y-43586450D01*
X95942317Y-43586452D01*
X96073589Y-43746410D01*
X96146876Y-43806554D01*
X96233550Y-43877685D01*
X96363150Y-43946958D01*
X96412993Y-43995919D01*
X96428453Y-44064057D01*
X96404621Y-44129737D01*
X96392376Y-44143996D01*
X94735537Y-45800835D01*
X94735533Y-45800841D01*
X94692681Y-45875061D01*
X94692682Y-45875062D01*
X94670500Y-45957847D01*
X94670500Y-52771699D01*
X94650815Y-52838738D01*
X94621988Y-52870074D01*
X94567720Y-52911715D01*
X94471463Y-53037160D01*
X94410956Y-53183237D01*
X94410955Y-53183239D01*
X94390318Y-53339998D01*
X93347900Y-53339998D01*
X93347900Y-45620489D01*
X93367585Y-45553450D01*
X93384219Y-45532808D01*
X93955880Y-44961147D01*
X94540465Y-44376562D01*
X94583318Y-44302339D01*
X94605500Y-44219553D01*
X94605500Y-44133847D01*
X94605500Y-44090583D01*
X94625185Y-44023544D01*
X94677989Y-43977789D01*
X94682049Y-43976021D01*
X94683945Y-43975234D01*
X94683954Y-43975232D01*
X94866450Y-43877685D01*
X95026410Y-43746410D01*
X95157685Y-43586450D01*
X95255232Y-43403954D01*
X95315300Y-43205934D01*
X95335583Y-43000000D01*
X95315300Y-42794066D01*
X95255232Y-42596046D01*
X95157685Y-42413550D01*
X95086696Y-42327049D01*
X95026410Y-42253589D01*
X94876121Y-42130252D01*
X94866450Y-42122315D01*
X94683954Y-42024768D01*
X94485934Y-41964700D01*
X94485932Y-41964699D01*
X94485934Y-41964699D01*
X94280000Y-41944417D01*
X94074067Y-41964699D01*
X93939736Y-42005448D01*
X93884476Y-42022211D01*
X93876043Y-42024769D01*
X93839128Y-42044501D01*
X93693550Y-42122315D01*
X93693548Y-42122316D01*
X93693547Y-42122317D01*
X93533589Y-42253589D01*
X93462054Y-42340757D01*
X93404308Y-42380092D01*
X93334463Y-42381963D01*
X93274695Y-42345776D01*
X93243979Y-42283020D01*
X93242200Y-42262093D01*
X93242200Y-42016488D01*
X93261885Y-41949449D01*
X93278519Y-41928807D01*
X94332507Y-40874819D01*
X94393830Y-40841334D01*
X94420188Y-40838500D01*
X108271811Y-40838500D01*
X108338850Y-40858185D01*
X108359492Y-40874819D01*
X109158181Y-41673507D01*
X109191666Y-41734830D01*
X109194500Y-41761188D01*
X109194500Y-41909417D01*
X109174815Y-41976456D01*
X109122011Y-42022211D01*
X109117951Y-42023979D01*
X109116045Y-42024768D01*
X109079128Y-42044501D01*
X108933550Y-42122315D01*
X108933548Y-42122316D01*
X108933547Y-42122317D01*
X108773589Y-42253589D01*
X108642317Y-42413547D01*
X108544769Y-42596043D01*
X108484699Y-42794067D01*
X108464417Y-43000000D01*
X108484699Y-43205932D01*
X108484700Y-43205934D01*
X108544768Y-43403954D01*
X108642315Y-43586450D01*
X108642317Y-43586452D01*
X108773589Y-43746410D01*
X108846876Y-43806554D01*
X108933550Y-43877685D01*
X109116046Y-43975232D01*
X109314066Y-44035300D01*
X109314065Y-44035300D01*
X109332529Y-44037118D01*
X109520000Y-44055583D01*
X109725934Y-44035300D01*
X109923954Y-43975232D01*
X110106450Y-43877685D01*
X110266410Y-43746410D01*
X110397685Y-43586450D01*
X110495232Y-43403954D01*
X110555300Y-43205934D01*
X110575583Y-43000000D01*
X111004417Y-43000000D01*
X111024699Y-43205932D01*
X111024700Y-43205934D01*
X111084768Y-43403954D01*
X111182315Y-43586450D01*
X111182317Y-43586452D01*
X111313589Y-43746410D01*
X111386876Y-43806554D01*
X111473550Y-43877685D01*
X111629817Y-43961212D01*
X111661419Y-43978104D01*
X111660859Y-43979150D01*
X111710349Y-44019023D01*
X111732421Y-44085315D01*
X111732500Y-44089754D01*
X111732500Y-48389884D01*
X111732500Y-48476116D01*
X111754819Y-48559410D01*
X111797935Y-48634090D01*
X115434935Y-52271090D01*
X115495910Y-52332065D01*
X115570590Y-52375181D01*
X115653884Y-52397500D01*
X115653886Y-52397500D01*
X121328113Y-52397500D01*
X121328116Y-52397500D01*
X121328118Y-52397499D01*
X121335244Y-52396561D01*
X121351432Y-52395500D01*
X124019811Y-52395500D01*
X124086850Y-52415185D01*
X124107492Y-52431819D01*
X126367988Y-54692314D01*
X126401473Y-54753637D01*
X126403246Y-54796179D01*
X126394318Y-54863997D01*
X126394318Y-54864001D01*
X126414955Y-55020760D01*
X126414956Y-55020762D01*
X126475464Y-55166841D01*
X126571718Y-55292282D01*
X126697159Y-55388536D01*
X126843238Y-55449044D01*
X126921619Y-55459363D01*
X126999999Y-55469682D01*
X127000000Y-55469682D01*
X127000001Y-55469682D01*
X127052254Y-55462802D01*
X127156762Y-55449044D01*
X127302841Y-55388536D01*
X127428282Y-55292282D01*
X127524536Y-55166841D01*
X127585044Y-55020762D01*
X127605682Y-54864000D01*
X127585044Y-54707238D01*
X127524536Y-54561159D01*
X127428282Y-54435718D01*
X127302841Y-54339464D01*
X127156762Y-54278956D01*
X127156760Y-54278955D01*
X127000001Y-54258318D01*
X126999997Y-54258318D01*
X126932179Y-54267246D01*
X126863144Y-54256480D01*
X126828314Y-54231988D01*
X125633486Y-53037160D01*
X124405862Y-51809535D01*
X124368750Y-51788108D01*
X124331640Y-51766682D01*
X124290246Y-51755591D01*
X124248853Y-51744500D01*
X124248852Y-51744500D01*
X121351432Y-51744500D01*
X121335244Y-51743439D01*
X121328118Y-51742500D01*
X121328116Y-51742500D01*
X121328113Y-51742500D01*
X115884017Y-51742500D01*
X115816978Y-51722815D01*
X115796336Y-51706181D01*
X112423819Y-48333664D01*
X112390334Y-48272341D01*
X112387500Y-48245983D01*
X112387500Y-44089754D01*
X112407185Y-44022715D01*
X112458608Y-43978155D01*
X112458581Y-43978104D01*
X112458810Y-43977981D01*
X112459989Y-43976960D01*
X112463936Y-43975241D01*
X112463951Y-43975232D01*
X112463954Y-43975232D01*
X112646450Y-43877685D01*
X112806410Y-43746410D01*
X112937685Y-43586450D01*
X113035232Y-43403954D01*
X113095300Y-43205934D01*
X113115583Y-43000000D01*
X113544417Y-43000000D01*
X113564699Y-43205932D01*
X113564700Y-43205934D01*
X113624768Y-43403954D01*
X113722315Y-43586450D01*
X113722317Y-43586452D01*
X113853589Y-43746410D01*
X113926876Y-43806554D01*
X114013550Y-43877685D01*
X114169817Y-43961212D01*
X114201419Y-43978104D01*
X114200859Y-43979150D01*
X114250349Y-44019023D01*
X114272421Y-44085315D01*
X114272500Y-44089754D01*
X114272500Y-48262884D01*
X114272500Y-48349116D01*
X114294819Y-48432410D01*
X114337935Y-48507090D01*
X116862785Y-51031940D01*
X116923760Y-51092915D01*
X116998440Y-51136031D01*
X117081734Y-51158350D01*
X117081736Y-51158350D01*
X121297263Y-51158350D01*
X121297266Y-51158350D01*
X121297268Y-51158349D01*
X121304394Y-51157411D01*
X121320582Y-51156350D01*
X125193661Y-51156350D01*
X125260700Y-51176035D01*
X125281342Y-51192669D01*
X127827881Y-53739208D01*
X127861366Y-53800531D01*
X127864200Y-53826889D01*
X127864200Y-103721552D01*
X127886382Y-103804340D01*
X127887241Y-103805827D01*
X127929235Y-103878562D01*
X134327738Y-110277065D01*
X134401961Y-110319918D01*
X134484747Y-110342100D01*
X134570453Y-110342100D01*
X136878901Y-110342100D01*
X136945940Y-110361785D01*
X136977276Y-110390613D01*
X137018918Y-110444882D01*
X137144359Y-110541136D01*
X137290438Y-110601644D01*
X137368819Y-110611963D01*
X137447199Y-110622282D01*
X137447200Y-110622282D01*
X137447201Y-110622282D01*
X137499454Y-110615402D01*
X137603962Y-110601644D01*
X137750041Y-110541136D01*
X137875482Y-110444882D01*
X137971736Y-110319441D01*
X138032244Y-110173362D01*
X138052882Y-110016600D01*
X138047581Y-109976338D01*
X138032244Y-109859839D01*
X138032244Y-109859838D01*
X137971736Y-109713759D01*
X137875482Y-109588318D01*
X137750041Y-109492064D01*
X137603962Y-109431556D01*
X137603960Y-109431555D01*
X137447201Y-109410918D01*
X137447199Y-109410918D01*
X137290439Y-109431555D01*
X137290437Y-109431556D01*
X137144360Y-109492063D01*
X137018916Y-109588319D01*
X136977277Y-109642586D01*
X136920849Y-109683789D01*
X136878901Y-109691100D01*
X134713789Y-109691100D01*
X134646750Y-109671415D01*
X134626108Y-109654781D01*
X128551519Y-103580192D01*
X128518034Y-103518869D01*
X128515200Y-103492511D01*
X128515200Y-53597849D01*
X128515200Y-53597847D01*
X128493018Y-53515062D01*
X128493018Y-53515061D01*
X128450165Y-53440838D01*
X125579712Y-50570385D01*
X125542600Y-50548958D01*
X125505490Y-50527532D01*
X125464096Y-50516441D01*
X125422703Y-50505350D01*
X125422702Y-50505350D01*
X121320582Y-50505350D01*
X121304394Y-50504289D01*
X121297268Y-50503350D01*
X121297266Y-50503350D01*
X121297263Y-50503350D01*
X117311867Y-50503350D01*
X117244828Y-50483665D01*
X117224186Y-50467031D01*
X114963819Y-48206664D01*
X114930334Y-48145341D01*
X114927500Y-48118983D01*
X114927500Y-44089754D01*
X114947185Y-44022715D01*
X114998608Y-43978155D01*
X114998581Y-43978104D01*
X114998810Y-43977981D01*
X114999989Y-43976960D01*
X115003936Y-43975241D01*
X115003951Y-43975232D01*
X115003954Y-43975232D01*
X115186450Y-43877685D01*
X115346410Y-43746410D01*
X115477685Y-43586450D01*
X115575232Y-43403954D01*
X115635300Y-43205934D01*
X115655583Y-43000000D01*
X116084417Y-43000000D01*
X116104699Y-43205932D01*
X116104700Y-43205934D01*
X116164768Y-43403954D01*
X116262315Y-43586450D01*
X116262317Y-43586452D01*
X116393589Y-43746410D01*
X116466876Y-43806554D01*
X116553550Y-43877685D01*
X116709817Y-43961212D01*
X116741419Y-43978104D01*
X116740859Y-43979150D01*
X116790349Y-44019023D01*
X116812421Y-44085315D01*
X116812500Y-44089754D01*
X116812500Y-47754884D01*
X116812500Y-47841116D01*
X116834819Y-47924410D01*
X116877935Y-47999090D01*
X118767785Y-49888940D01*
X118828760Y-49949915D01*
X118903440Y-49993031D01*
X118986734Y-50015350D01*
X118986735Y-50015350D01*
X118986736Y-50015350D01*
X122694263Y-50015350D01*
X122694266Y-50015350D01*
X122694268Y-50015349D01*
X122701394Y-50014411D01*
X122717582Y-50013350D01*
X126209661Y-50013350D01*
X126276700Y-50033035D01*
X126297342Y-50049669D01*
X128924181Y-52676508D01*
X128957666Y-52737831D01*
X128960500Y-52764189D01*
X128960500Y-101811147D01*
X128960500Y-101896853D01*
X128962570Y-101904577D01*
X128982682Y-101979640D01*
X129004108Y-102016750D01*
X129025535Y-102053862D01*
X129025537Y-102053864D01*
X134470690Y-107499017D01*
X134504175Y-107560340D01*
X134499191Y-107630032D01*
X134481385Y-107662184D01*
X134395464Y-107774157D01*
X134334956Y-107920237D01*
X134334955Y-107920239D01*
X134314318Y-108076998D01*
X134314318Y-108077001D01*
X134334955Y-108233760D01*
X134334956Y-108233762D01*
X134395464Y-108379841D01*
X134491718Y-108505282D01*
X134617159Y-108601536D01*
X134763238Y-108662044D01*
X134841619Y-108672363D01*
X134919999Y-108682682D01*
X134920000Y-108682682D01*
X134920001Y-108682682D01*
X134972254Y-108675802D01*
X135076762Y-108662044D01*
X135222841Y-108601536D01*
X135348282Y-108505282D01*
X135444536Y-108379841D01*
X135505044Y-108233762D01*
X135525682Y-108077000D01*
X135505044Y-107920238D01*
X135444536Y-107774159D01*
X135348282Y-107648718D01*
X135348280Y-107648716D01*
X135348279Y-107648715D01*
X135294012Y-107607074D01*
X135252810Y-107550646D01*
X135245500Y-107508699D01*
X135245500Y-107445149D01*
X135245500Y-107445147D01*
X135223318Y-107362362D01*
X135223318Y-107362361D01*
X135180465Y-107288138D01*
X129647819Y-101755492D01*
X129614334Y-101694169D01*
X129611500Y-101667811D01*
X129611500Y-100803293D01*
X129631185Y-100736254D01*
X129683989Y-100690499D01*
X129753147Y-100680555D01*
X129816703Y-100709580D01*
X129850060Y-100755839D01*
X129883364Y-100836241D01*
X129979618Y-100961682D01*
X130105059Y-101057936D01*
X130251138Y-101118444D01*
X130329519Y-101128763D01*
X130407899Y-101139082D01*
X130407900Y-101139082D01*
X130407901Y-101139082D01*
X130460154Y-101132202D01*
X130564662Y-101118444D01*
X130710741Y-101057936D01*
X130836182Y-100961682D01*
X130932436Y-100836241D01*
X130992944Y-100690162D01*
X131013582Y-100533400D01*
X130992944Y-100376638D01*
X130932436Y-100230559D01*
X130836182Y-100105118D01*
X130836180Y-100105116D01*
X130836179Y-100105115D01*
X130803013Y-100079666D01*
X130761810Y-100023238D01*
X130754500Y-99981291D01*
X130754500Y-74821831D01*
X131827497Y-74821831D01*
X131827497Y-75178168D01*
X131867391Y-75532238D01*
X131867393Y-75532250D01*
X131946683Y-75879644D01*
X131946684Y-75879646D01*
X132064371Y-76215978D01*
X132218974Y-76537014D01*
X132218976Y-76537017D01*
X132408554Y-76838729D01*
X132630721Y-77117317D01*
X132882683Y-77369279D01*
X133161271Y-77591446D01*
X133462983Y-77781024D01*
X133784023Y-77935629D01*
X134120355Y-78053316D01*
X134467749Y-78132607D01*
X134821832Y-78172502D01*
X134821833Y-78172503D01*
X135178164Y-78172503D01*
X135178167Y-78172503D01*
X135178167Y-78172502D01*
X135532251Y-78132607D01*
X135879645Y-78053316D01*
X136215977Y-77935629D01*
X136537017Y-77781024D01*
X136838729Y-77591446D01*
X137117317Y-77369279D01*
X137369279Y-77117317D01*
X137591446Y-76838729D01*
X137781024Y-76537017D01*
X137935629Y-76215977D01*
X138053316Y-75879645D01*
X138132607Y-75532251D01*
X138132608Y-75532239D01*
X138132609Y-75532236D01*
X138172502Y-75178169D01*
X138172503Y-75178164D01*
X138175000Y-75000000D01*
X138172503Y-74821836D01*
X138132608Y-74467761D01*
X138132608Y-74467758D01*
X138132607Y-74467749D01*
X138053316Y-74120355D01*
X137935629Y-73784023D01*
X137781024Y-73462983D01*
X137591446Y-73161271D01*
X137369279Y-72882683D01*
X137117317Y-72630721D01*
X136838729Y-72408554D01*
X136537017Y-72218976D01*
X136537014Y-72218974D01*
X136215978Y-72064371D01*
X135879646Y-71946684D01*
X135879644Y-71946683D01*
X135611541Y-71885490D01*
X135532251Y-71867393D01*
X135532247Y-71867392D01*
X135532238Y-71867391D01*
X135178168Y-71827497D01*
X135178164Y-71827497D01*
X134821836Y-71827497D01*
X134821831Y-71827497D01*
X134467761Y-71867391D01*
X134467749Y-71867393D01*
X134120355Y-71946683D01*
X134120353Y-71946684D01*
X133784021Y-72064371D01*
X133462985Y-72218974D01*
X133161272Y-72408553D01*
X132882683Y-72630720D01*
X132630720Y-72882683D01*
X132408553Y-73161272D01*
X132218974Y-73462985D01*
X132064371Y-73784021D01*
X131946684Y-74120353D01*
X131946683Y-74120355D01*
X131867393Y-74467749D01*
X131867391Y-74467761D01*
X131827497Y-74821831D01*
X130754500Y-74821831D01*
X130754500Y-49898555D01*
X130754501Y-49898542D01*
X130754501Y-49802848D01*
X130754501Y-49802847D01*
X130732318Y-49720061D01*
X130710891Y-49682950D01*
X130689465Y-49645838D01*
X130628862Y-49585235D01*
X130628861Y-49585234D01*
X130624531Y-49580904D01*
X130624520Y-49580894D01*
X125187623Y-44143996D01*
X125154138Y-44082673D01*
X125159122Y-44012981D01*
X125200994Y-43957048D01*
X125216843Y-43946961D01*
X125346450Y-43877685D01*
X125506410Y-43746410D01*
X125637685Y-43586450D01*
X125735232Y-43403954D01*
X125795300Y-43205934D01*
X125815583Y-43000000D01*
X125795300Y-42794066D01*
X125735232Y-42596046D01*
X125637685Y-42413550D01*
X125566696Y-42327049D01*
X125506410Y-42253589D01*
X125356121Y-42130252D01*
X125346450Y-42122315D01*
X125163954Y-42024768D01*
X124965934Y-41964700D01*
X124965932Y-41964699D01*
X124965934Y-41964699D01*
X124760000Y-41944417D01*
X124554067Y-41964699D01*
X124419736Y-42005448D01*
X124364476Y-42022211D01*
X124356043Y-42024769D01*
X124319128Y-42044501D01*
X124173550Y-42122315D01*
X124173548Y-42122316D01*
X124173547Y-42122317D01*
X124013589Y-42253589D01*
X123882317Y-42413547D01*
X123784769Y-42596043D01*
X123724699Y-42794067D01*
X123704417Y-43000000D01*
X123724699Y-43205932D01*
X123724700Y-43205934D01*
X123784768Y-43403954D01*
X123882315Y-43586450D01*
X123882317Y-43586452D01*
X124013589Y-43746410D01*
X124086876Y-43806554D01*
X124173550Y-43877685D01*
X124356046Y-43975232D01*
X124356051Y-43975233D01*
X124357951Y-43976021D01*
X124358796Y-43976701D01*
X124361419Y-43978104D01*
X124361153Y-43978601D01*
X124412355Y-44019862D01*
X124434421Y-44086156D01*
X124434500Y-44090583D01*
X124434500Y-44133847D01*
X124434500Y-44219553D01*
X124440421Y-44241650D01*
X124456682Y-44302340D01*
X124478108Y-44339450D01*
X124499535Y-44376562D01*
X127288814Y-47165841D01*
X130067181Y-49944207D01*
X130100666Y-50005530D01*
X130103500Y-50031888D01*
X130103500Y-99948910D01*
X130083815Y-100015949D01*
X130054989Y-100047283D01*
X130012788Y-100079666D01*
X129979618Y-100105118D01*
X129883363Y-100230560D01*
X129850061Y-100310959D01*
X129806220Y-100365362D01*
X129739925Y-100387427D01*
X129672226Y-100370148D01*
X129624616Y-100319010D01*
X129611500Y-100263506D01*
X129611500Y-52535149D01*
X129611500Y-52535147D01*
X129589318Y-52452362D01*
X129557644Y-52397500D01*
X129546469Y-52378144D01*
X129546463Y-52378136D01*
X126595714Y-49427387D01*
X126595712Y-49427385D01*
X126558600Y-49405958D01*
X126521490Y-49384532D01*
X126480096Y-49373441D01*
X126438703Y-49362350D01*
X126438702Y-49362350D01*
X122717582Y-49362350D01*
X122701394Y-49361289D01*
X122694268Y-49360350D01*
X122694266Y-49360350D01*
X122694263Y-49360350D01*
X119216867Y-49360350D01*
X119149828Y-49340665D01*
X119129186Y-49324031D01*
X117503819Y-47698664D01*
X117470334Y-47637341D01*
X117467500Y-47610983D01*
X117467500Y-44089754D01*
X117487185Y-44022715D01*
X117538608Y-43978155D01*
X117538581Y-43978104D01*
X117538810Y-43977981D01*
X117539989Y-43976960D01*
X117543936Y-43975241D01*
X117543951Y-43975232D01*
X117543954Y-43975232D01*
X117726450Y-43877685D01*
X117886410Y-43746410D01*
X118017685Y-43586450D01*
X118115232Y-43403954D01*
X118175300Y-43205934D01*
X118195583Y-43000000D01*
X118624417Y-43000000D01*
X118644699Y-43205932D01*
X118644700Y-43205934D01*
X118704768Y-43403954D01*
X118802315Y-43586450D01*
X118802317Y-43586452D01*
X118933589Y-43746410D01*
X119006876Y-43806554D01*
X119093550Y-43877685D01*
X119276046Y-43975232D01*
X119276051Y-43975233D01*
X119277951Y-43976021D01*
X119278796Y-43976701D01*
X119281419Y-43978104D01*
X119281153Y-43978601D01*
X119332355Y-44019862D01*
X119354421Y-44086156D01*
X119354500Y-44090583D01*
X119354500Y-46415567D01*
X119353439Y-46431754D01*
X119352500Y-46438883D01*
X119352500Y-46438884D01*
X119352500Y-46992884D01*
X119352500Y-47079116D01*
X119374819Y-47162410D01*
X119417935Y-47237090D01*
X120641935Y-48461090D01*
X120702910Y-48522065D01*
X120777590Y-48565181D01*
X120860884Y-48587500D01*
X120860886Y-48587500D01*
X122852113Y-48587500D01*
X122852116Y-48587500D01*
X122852118Y-48587499D01*
X122859244Y-48586561D01*
X122875432Y-48585500D01*
X124780701Y-48585500D01*
X124847740Y-48605185D01*
X124879076Y-48634013D01*
X124920718Y-48688282D01*
X125046159Y-48784536D01*
X125192238Y-48845044D01*
X125270619Y-48855363D01*
X125348999Y-48865682D01*
X125349000Y-48865682D01*
X125349001Y-48865682D01*
X125401254Y-48858802D01*
X125505762Y-48845044D01*
X125651841Y-48784536D01*
X125777282Y-48688282D01*
X125873536Y-48562841D01*
X125934044Y-48416762D01*
X125947802Y-48312254D01*
X125954682Y-48260001D01*
X125954682Y-48259998D01*
X125934044Y-48103239D01*
X125934044Y-48103238D01*
X125873536Y-47957159D01*
X125777282Y-47831718D01*
X125651841Y-47735464D01*
X125505762Y-47674956D01*
X125505760Y-47674955D01*
X125349001Y-47654318D01*
X125348999Y-47654318D01*
X125192239Y-47674955D01*
X125192237Y-47674956D01*
X125046160Y-47735463D01*
X124920716Y-47831719D01*
X124879077Y-47885986D01*
X124822649Y-47927189D01*
X124780701Y-47934500D01*
X122875432Y-47934500D01*
X122859244Y-47933439D01*
X122852118Y-47932500D01*
X122852116Y-47932500D01*
X122852113Y-47932500D01*
X121091017Y-47932500D01*
X121023978Y-47912815D01*
X121003336Y-47896181D01*
X120043819Y-46936664D01*
X120010334Y-46875341D01*
X120007500Y-46848983D01*
X120007500Y-46438885D01*
X120006561Y-46431754D01*
X120005500Y-46415567D01*
X120005500Y-44090583D01*
X120025185Y-44023544D01*
X120077989Y-43977789D01*
X120082049Y-43976021D01*
X120083945Y-43975234D01*
X120083954Y-43975232D01*
X120266450Y-43877685D01*
X120426410Y-43746410D01*
X120557685Y-43586450D01*
X120655232Y-43403954D01*
X120715300Y-43205934D01*
X120735583Y-43000000D01*
X121164417Y-43000000D01*
X121184699Y-43205932D01*
X121184700Y-43205934D01*
X121244768Y-43403954D01*
X121342315Y-43586450D01*
X121342317Y-43586452D01*
X121473589Y-43746410D01*
X121546876Y-43806554D01*
X121633550Y-43877685D01*
X121816046Y-43975232D01*
X121816051Y-43975233D01*
X121817951Y-43976021D01*
X121818796Y-43976701D01*
X121821419Y-43978104D01*
X121821153Y-43978601D01*
X121872355Y-44019862D01*
X121894421Y-44086156D01*
X121894500Y-44090583D01*
X121894500Y-45046852D01*
X121916682Y-45129640D01*
X121917996Y-45131915D01*
X121959535Y-45203862D01*
X121959536Y-45203863D01*
X123446988Y-46691315D01*
X123480473Y-46752638D01*
X123482246Y-46795181D01*
X123473318Y-46862998D01*
X123473318Y-46863001D01*
X123493955Y-47019760D01*
X123493956Y-47019762D01*
X123554464Y-47165841D01*
X123650718Y-47291282D01*
X123776159Y-47387536D01*
X123922238Y-47448044D01*
X124000619Y-47458363D01*
X124078999Y-47468682D01*
X124079000Y-47468682D01*
X124079001Y-47468682D01*
X124131254Y-47461802D01*
X124235762Y-47448044D01*
X124381841Y-47387536D01*
X124507282Y-47291282D01*
X124603536Y-47165841D01*
X124664044Y-47019762D01*
X124677802Y-46915254D01*
X124684682Y-46863001D01*
X124684682Y-46862998D01*
X124664044Y-46706239D01*
X124664044Y-46706238D01*
X124603536Y-46560159D01*
X124507282Y-46434718D01*
X124381841Y-46338464D01*
X124235762Y-46277956D01*
X124235760Y-46277955D01*
X124079001Y-46257318D01*
X124078999Y-46257318D01*
X124011181Y-46266246D01*
X123942145Y-46255480D01*
X123907315Y-46230988D01*
X122581819Y-44905492D01*
X122548334Y-44844169D01*
X122545500Y-44817811D01*
X122545500Y-44090583D01*
X122565185Y-44023544D01*
X122617989Y-43977789D01*
X122622049Y-43976021D01*
X122623945Y-43975234D01*
X122623954Y-43975232D01*
X122806450Y-43877685D01*
X122966410Y-43746410D01*
X123097685Y-43586450D01*
X123195232Y-43403954D01*
X123255300Y-43205934D01*
X123275583Y-43000000D01*
X123255300Y-42794066D01*
X123195232Y-42596046D01*
X123097685Y-42413550D01*
X123026696Y-42327049D01*
X122966410Y-42253589D01*
X122816121Y-42130252D01*
X122806450Y-42122315D01*
X122623954Y-42024768D01*
X122425934Y-41964700D01*
X122425932Y-41964699D01*
X122425934Y-41964699D01*
X122220000Y-41944417D01*
X122014067Y-41964699D01*
X121879736Y-42005448D01*
X121824476Y-42022211D01*
X121816043Y-42024769D01*
X121779128Y-42044501D01*
X121633550Y-42122315D01*
X121633548Y-42122316D01*
X121633547Y-42122317D01*
X121473589Y-42253589D01*
X121342317Y-42413547D01*
X121244769Y-42596043D01*
X121184699Y-42794067D01*
X121164417Y-43000000D01*
X120735583Y-43000000D01*
X120715300Y-42794066D01*
X120655232Y-42596046D01*
X120557685Y-42413550D01*
X120486696Y-42327049D01*
X120426410Y-42253589D01*
X120276121Y-42130252D01*
X120266450Y-42122315D01*
X120083954Y-42024768D01*
X119885934Y-41964700D01*
X119885932Y-41964699D01*
X119885934Y-41964699D01*
X119680000Y-41944417D01*
X119474067Y-41964699D01*
X119339736Y-42005448D01*
X119284476Y-42022211D01*
X119276043Y-42024769D01*
X119239128Y-42044501D01*
X119093550Y-42122315D01*
X119093548Y-42122316D01*
X119093547Y-42122317D01*
X118933589Y-42253589D01*
X118802317Y-42413547D01*
X118704769Y-42596043D01*
X118644699Y-42794067D01*
X118624417Y-43000000D01*
X118195583Y-43000000D01*
X118175300Y-42794066D01*
X118115232Y-42596046D01*
X118017685Y-42413550D01*
X117946696Y-42327049D01*
X117886410Y-42253589D01*
X117736121Y-42130252D01*
X117726450Y-42122315D01*
X117543954Y-42024768D01*
X117345934Y-41964700D01*
X117345932Y-41964699D01*
X117345934Y-41964699D01*
X117140000Y-41944417D01*
X116934067Y-41964699D01*
X116799736Y-42005448D01*
X116744476Y-42022211D01*
X116736043Y-42024769D01*
X116699128Y-42044501D01*
X116553550Y-42122315D01*
X116553548Y-42122316D01*
X116553547Y-42122317D01*
X116393589Y-42253589D01*
X116262317Y-42413547D01*
X116164769Y-42596043D01*
X116104699Y-42794067D01*
X116084417Y-43000000D01*
X115655583Y-43000000D01*
X115635300Y-42794066D01*
X115575232Y-42596046D01*
X115477685Y-42413550D01*
X115406696Y-42327049D01*
X115346410Y-42253589D01*
X115196121Y-42130252D01*
X115186450Y-42122315D01*
X115003954Y-42024768D01*
X114805934Y-41964700D01*
X114805932Y-41964699D01*
X114805934Y-41964699D01*
X114600000Y-41944417D01*
X114394067Y-41964699D01*
X114259736Y-42005448D01*
X114204476Y-42022211D01*
X114196043Y-42024769D01*
X114159128Y-42044501D01*
X114013550Y-42122315D01*
X114013548Y-42122316D01*
X114013547Y-42122317D01*
X113853589Y-42253589D01*
X113722317Y-42413547D01*
X113624769Y-42596043D01*
X113564699Y-42794067D01*
X113544417Y-43000000D01*
X113115583Y-43000000D01*
X113095300Y-42794066D01*
X113035232Y-42596046D01*
X112937685Y-42413550D01*
X112866696Y-42327049D01*
X112806410Y-42253589D01*
X112656121Y-42130252D01*
X112646450Y-42122315D01*
X112463954Y-42024768D01*
X112265934Y-41964700D01*
X112265932Y-41964699D01*
X112265934Y-41964699D01*
X112060000Y-41944417D01*
X111854067Y-41964699D01*
X111719736Y-42005448D01*
X111664476Y-42022211D01*
X111656043Y-42024769D01*
X111619128Y-42044501D01*
X111473550Y-42122315D01*
X111473548Y-42122316D01*
X111473547Y-42122317D01*
X111313589Y-42253589D01*
X111182317Y-42413547D01*
X111084769Y-42596043D01*
X111024699Y-42794067D01*
X111004417Y-43000000D01*
X110575583Y-43000000D01*
X110555300Y-42794066D01*
X110495232Y-42596046D01*
X110397685Y-42413550D01*
X110326696Y-42327049D01*
X110266410Y-42253589D01*
X110116121Y-42130252D01*
X110106450Y-42122315D01*
X109923954Y-42024768D01*
X109922049Y-42023979D01*
X109921203Y-42023298D01*
X109918581Y-42021896D01*
X109918846Y-42021398D01*
X109867645Y-41980138D01*
X109845579Y-41913844D01*
X109845500Y-41909417D01*
X109845500Y-41532148D01*
X109845500Y-41532147D01*
X109844116Y-41526982D01*
X109823318Y-41449361D01*
X109801891Y-41412250D01*
X109780465Y-41375138D01*
X109719862Y-41314535D01*
X109719861Y-41314534D01*
X109715531Y-41310204D01*
X109715520Y-41310194D01*
X108657864Y-40252537D01*
X108657863Y-40252536D01*
X108657862Y-40252535D01*
X108620750Y-40231108D01*
X108583640Y-40209682D01*
X108542246Y-40198591D01*
X108500853Y-40187500D01*
X108500852Y-40187500D01*
X99889972Y-40187500D01*
X99822933Y-40167815D01*
X99777178Y-40115011D01*
X99767234Y-40045853D01*
X99791597Y-39988013D01*
X99809820Y-39964264D01*
X99838536Y-39926841D01*
X99899044Y-39780762D01*
X99909677Y-39699994D01*
X130095202Y-39699994D01*
X130095202Y-39700005D01*
X130114361Y-39931218D01*
X130171317Y-40156135D01*
X130264515Y-40368606D01*
X130391418Y-40562846D01*
X130391422Y-40562851D01*
X130407524Y-40580341D01*
X130407525Y-40580341D01*
X131019726Y-39968141D01*
X131059890Y-40037708D01*
X131162292Y-40140110D01*
X131231857Y-40180273D01*
X130621676Y-40790454D01*
X130731649Y-40876050D01*
X130935697Y-40986476D01*
X130935706Y-40986479D01*
X131155139Y-41061811D01*
X131383993Y-41100000D01*
X131616007Y-41100000D01*
X131844860Y-41061811D01*
X132064293Y-40986479D01*
X132064302Y-40986476D01*
X132268353Y-40876048D01*
X132378322Y-40790455D01*
X132378322Y-40790454D01*
X131768141Y-40180273D01*
X131837708Y-40140110D01*
X131940110Y-40037708D01*
X131980273Y-39968141D01*
X132592473Y-40580342D01*
X132592474Y-40580341D01*
X132608584Y-40562843D01*
X132735483Y-40368609D01*
X132828682Y-40156135D01*
X132885638Y-39931218D01*
X132904798Y-39700005D01*
X132904798Y-39699994D01*
X136595202Y-39699994D01*
X136595202Y-39700005D01*
X136614361Y-39931218D01*
X136671317Y-40156135D01*
X136764515Y-40368606D01*
X136891418Y-40562846D01*
X136891422Y-40562851D01*
X136907524Y-40580341D01*
X136907525Y-40580341D01*
X137519726Y-39968141D01*
X137559890Y-40037708D01*
X137662292Y-40140110D01*
X137731857Y-40180273D01*
X137121676Y-40790454D01*
X137231649Y-40876050D01*
X137435697Y-40986476D01*
X137435706Y-40986479D01*
X137655139Y-41061811D01*
X137883993Y-41100000D01*
X138116007Y-41100000D01*
X138344860Y-41061811D01*
X138564293Y-40986479D01*
X138564302Y-40986476D01*
X138768353Y-40876048D01*
X138878322Y-40790455D01*
X138878322Y-40790454D01*
X138268141Y-40180273D01*
X138337708Y-40140110D01*
X138440110Y-40037708D01*
X138480273Y-39968141D01*
X139092473Y-40580342D01*
X139092474Y-40580341D01*
X139108584Y-40562843D01*
X139235483Y-40368609D01*
X139328682Y-40156135D01*
X139385638Y-39931218D01*
X139404798Y-39700005D01*
X139404798Y-39699994D01*
X139385638Y-39468781D01*
X139328682Y-39243864D01*
X139235484Y-39031393D01*
X139108581Y-38837153D01*
X139108577Y-38837148D01*
X139092474Y-38819657D01*
X139092473Y-38819657D01*
X138480273Y-39431857D01*
X138440110Y-39362292D01*
X138337708Y-39259890D01*
X138268141Y-39219726D01*
X138878322Y-38609544D01*
X138878322Y-38609543D01*
X138768349Y-38523948D01*
X138564302Y-38413523D01*
X138564293Y-38413520D01*
X138344860Y-38338188D01*
X138116007Y-38300000D01*
X137883993Y-38300000D01*
X137655139Y-38338188D01*
X137435706Y-38413520D01*
X137435697Y-38413523D01*
X137231646Y-38523951D01*
X137121676Y-38609543D01*
X137121676Y-38609544D01*
X137731858Y-39219726D01*
X137662292Y-39259890D01*
X137559890Y-39362292D01*
X137519726Y-39431858D01*
X136907525Y-38819657D01*
X136907524Y-38819657D01*
X136891414Y-38837157D01*
X136764516Y-39031390D01*
X136671317Y-39243864D01*
X136614361Y-39468781D01*
X136595202Y-39699994D01*
X132904798Y-39699994D01*
X132885638Y-39468781D01*
X132828682Y-39243864D01*
X132735484Y-39031393D01*
X132608581Y-38837153D01*
X132608577Y-38837148D01*
X132592474Y-38819657D01*
X132592473Y-38819657D01*
X131980273Y-39431857D01*
X131940110Y-39362292D01*
X131837708Y-39259890D01*
X131768141Y-39219726D01*
X132378322Y-38609544D01*
X132378322Y-38609543D01*
X132268349Y-38523948D01*
X132064302Y-38413523D01*
X132064293Y-38413520D01*
X131844860Y-38338188D01*
X131616007Y-38300000D01*
X131383993Y-38300000D01*
X131155139Y-38338188D01*
X130935706Y-38413520D01*
X130935697Y-38413523D01*
X130731646Y-38523951D01*
X130621676Y-38609543D01*
X130621676Y-38609544D01*
X131231858Y-39219726D01*
X131162292Y-39259890D01*
X131059890Y-39362292D01*
X131019726Y-39431858D01*
X130407525Y-38819657D01*
X130407524Y-38819657D01*
X130391414Y-38837157D01*
X130264516Y-39031390D01*
X130171317Y-39243864D01*
X130114361Y-39468781D01*
X130095202Y-39699994D01*
X99909677Y-39699994D01*
X99919682Y-39624000D01*
X99899044Y-39467238D01*
X99838536Y-39321159D01*
X99742282Y-39195718D01*
X99616841Y-39099464D01*
X99470762Y-39038956D01*
X99470760Y-39038955D01*
X99314001Y-39018318D01*
X99313999Y-39018318D01*
X99157239Y-39038955D01*
X99157234Y-39038957D01*
X99011163Y-39099461D01*
X99011162Y-39099461D01*
X98985128Y-39119437D01*
X98950672Y-39145876D01*
X98885506Y-39171070D01*
X98875188Y-39171500D01*
X89492147Y-39171500D01*
X89409359Y-39193682D01*
X89335138Y-39236535D01*
X89335135Y-39236537D01*
X87739237Y-40832435D01*
X87739233Y-40832441D01*
X87696381Y-40906661D01*
X87696382Y-40906662D01*
X87674200Y-40989447D01*
X87674200Y-42233336D01*
X87654515Y-42300375D01*
X87601711Y-42346130D01*
X87532553Y-42356074D01*
X87468997Y-42327049D01*
X87454347Y-42312001D01*
X87406410Y-42253590D01*
X87329177Y-42190207D01*
X87246450Y-42122315D01*
X87063954Y-42024768D01*
X86865934Y-41964700D01*
X86865932Y-41964699D01*
X86865934Y-41964699D01*
X86660000Y-41944417D01*
X86454067Y-41964699D01*
X86319736Y-42005448D01*
X86264476Y-42022211D01*
X86256043Y-42024769D01*
X86219128Y-42044501D01*
X86073550Y-42122315D01*
X86073548Y-42122316D01*
X86073547Y-42122317D01*
X85913589Y-42253589D01*
X85782317Y-42413547D01*
X85684769Y-42596043D01*
X85624699Y-42794067D01*
X85604417Y-43000000D01*
X85624699Y-43205932D01*
X85624700Y-43205934D01*
X85684768Y-43403954D01*
X85782315Y-43586450D01*
X85782317Y-43586452D01*
X85913589Y-43746410D01*
X85986876Y-43806554D01*
X86073550Y-43877685D01*
X86256046Y-43975232D01*
X86454066Y-44035300D01*
X86454065Y-44035300D01*
X86472529Y-44037118D01*
X86660000Y-44055583D01*
X86865934Y-44035300D01*
X87063954Y-43975232D01*
X87246450Y-43877685D01*
X87406410Y-43746410D01*
X87454346Y-43687998D01*
X87512091Y-43648664D01*
X87581936Y-43646793D01*
X87641705Y-43682980D01*
X87672421Y-43745735D01*
X87674200Y-43766663D01*
X87674200Y-60008965D01*
X87654515Y-60076004D01*
X87601711Y-60121759D01*
X87532553Y-60131703D01*
X87468997Y-60102678D01*
X87454347Y-60087631D01*
X87426408Y-60053588D01*
X87312635Y-59960218D01*
X87266450Y-59922315D01*
X87083954Y-59824768D01*
X86885934Y-59764700D01*
X86885932Y-59764699D01*
X86885934Y-59764699D01*
X86680000Y-59744417D01*
X86474067Y-59764699D01*
X86276043Y-59824769D01*
X86188114Y-59871769D01*
X86093550Y-59922315D01*
X86093548Y-59922316D01*
X86093547Y-59922317D01*
X85933589Y-60053589D01*
X85802317Y-60213547D01*
X85704769Y-60396043D01*
X85644699Y-60594067D01*
X85624417Y-60800000D01*
X85644699Y-61005932D01*
X85644700Y-61005934D01*
X85704768Y-61203954D01*
X85802315Y-61386450D01*
X85835911Y-61427387D01*
X85933589Y-61546410D01*
X85990565Y-61593168D01*
X86093550Y-61677685D01*
X86276046Y-61775232D01*
X86474066Y-61835300D01*
X86474065Y-61835300D01*
X86492529Y-61837118D01*
X86680000Y-61855583D01*
X86885934Y-61835300D01*
X87083954Y-61775232D01*
X87266450Y-61677685D01*
X87426410Y-61546410D01*
X87454346Y-61512370D01*
X87512092Y-61473035D01*
X87581937Y-61471164D01*
X87641705Y-61507351D01*
X87672421Y-61570107D01*
X87674200Y-61591034D01*
X87674200Y-61715952D01*
X87696382Y-61798740D01*
X87708577Y-61819862D01*
X87739235Y-61872962D01*
X87783619Y-61917346D01*
X87794681Y-61928407D01*
X87828166Y-61989730D01*
X87831000Y-62016089D01*
X87831000Y-63723271D01*
X87811315Y-63790310D01*
X87758511Y-63836065D01*
X87689353Y-63846009D01*
X87659548Y-63837832D01*
X87577765Y-63803957D01*
X87577760Y-63803955D01*
X87421001Y-63783318D01*
X87420999Y-63783318D01*
X87264239Y-63803955D01*
X87264237Y-63803956D01*
X87118160Y-63864463D01*
X86992718Y-63960718D01*
X86896463Y-64086160D01*
X86835956Y-64232237D01*
X86835955Y-64232239D01*
X86815318Y-64388998D01*
X86815318Y-64389001D01*
X86824246Y-64456817D01*
X86813480Y-64525852D01*
X86788989Y-64560683D01*
X86607534Y-64742139D01*
X86607533Y-64742141D01*
X86564681Y-64816361D01*
X86564682Y-64816362D01*
X86542500Y-64899147D01*
X86542500Y-97476811D01*
X86522815Y-97543850D01*
X86506181Y-97564492D01*
X80599537Y-103471135D01*
X80599533Y-103471141D01*
X80556681Y-103545361D01*
X80556682Y-103545362D01*
X80534500Y-103628147D01*
X80534500Y-111075500D01*
X80514815Y-111142539D01*
X80462011Y-111188294D01*
X80410500Y-111199500D01*
X80303384Y-111199500D01*
X80284145Y-111201248D01*
X80232807Y-111205913D01*
X80070393Y-111256522D01*
X79924811Y-111344530D01*
X79804530Y-111464811D01*
X79716522Y-111610393D01*
X79665913Y-111772807D01*
X79659500Y-111843386D01*
X79659500Y-116843000D01*
X79639815Y-116910039D01*
X79587011Y-116955794D01*
X79535500Y-116967000D01*
X79004500Y-116967000D01*
X78937461Y-116947315D01*
X78891706Y-116894511D01*
X78880500Y-116843000D01*
X78880500Y-111843386D01*
X78874086Y-111772807D01*
X78874086Y-111772804D01*
X78823478Y-111610394D01*
X78735472Y-111464815D01*
X78735470Y-111464813D01*
X78735469Y-111464811D01*
X78615188Y-111344530D01*
X78469606Y-111256522D01*
X78377830Y-111227924D01*
X78307196Y-111205914D01*
X78307194Y-111205913D01*
X78307192Y-111205913D01*
X78257778Y-111201423D01*
X78236616Y-111199500D01*
X77448124Y-111199500D01*
X77381085Y-111179815D01*
X77335330Y-111127011D01*
X77325386Y-111057853D01*
X77354411Y-110994297D01*
X77372637Y-110977124D01*
X77465482Y-110905882D01*
X77561736Y-110780441D01*
X77622244Y-110634362D01*
X77642882Y-110477600D01*
X77638574Y-110444881D01*
X77622244Y-110320839D01*
X77622244Y-110320838D01*
X77561736Y-110174759D01*
X77465482Y-110049318D01*
X77465480Y-110049316D01*
X77465479Y-110049315D01*
X77411212Y-110007674D01*
X77370010Y-109951246D01*
X77362700Y-109909299D01*
X77362700Y-74821831D01*
X78827497Y-74821831D01*
X78827497Y-75178168D01*
X78867391Y-75532238D01*
X78867393Y-75532250D01*
X78946683Y-75879644D01*
X78946684Y-75879646D01*
X79064371Y-76215978D01*
X79218974Y-76537014D01*
X79218976Y-76537017D01*
X79408554Y-76838729D01*
X79630721Y-77117317D01*
X79882683Y-77369279D01*
X80161271Y-77591446D01*
X80462983Y-77781024D01*
X80784023Y-77935629D01*
X81120355Y-78053316D01*
X81467749Y-78132607D01*
X81821832Y-78172502D01*
X81821833Y-78172503D01*
X82178164Y-78172503D01*
X82178167Y-78172503D01*
X82178167Y-78172502D01*
X82532251Y-78132607D01*
X82879645Y-78053316D01*
X83215977Y-77935629D01*
X83537017Y-77781024D01*
X83838729Y-77591446D01*
X84117317Y-77369279D01*
X84369279Y-77117317D01*
X84591446Y-76838729D01*
X84781024Y-76537017D01*
X84935629Y-76215977D01*
X85053316Y-75879645D01*
X85132607Y-75532251D01*
X85132608Y-75532239D01*
X85132609Y-75532236D01*
X85172502Y-75178169D01*
X85172503Y-75178164D01*
X85175000Y-75000000D01*
X85172503Y-74821836D01*
X85132608Y-74467761D01*
X85132608Y-74467758D01*
X85132607Y-74467749D01*
X85053316Y-74120355D01*
X84935629Y-73784023D01*
X84781024Y-73462983D01*
X84591446Y-73161271D01*
X84369279Y-72882683D01*
X84117317Y-72630721D01*
X83838729Y-72408554D01*
X83537017Y-72218976D01*
X83537014Y-72218974D01*
X83215978Y-72064371D01*
X82879646Y-71946684D01*
X82879644Y-71946683D01*
X82611541Y-71885490D01*
X82532251Y-71867393D01*
X82532247Y-71867392D01*
X82532238Y-71867391D01*
X82178168Y-71827497D01*
X82178164Y-71827497D01*
X81821836Y-71827497D01*
X81821831Y-71827497D01*
X81467761Y-71867391D01*
X81467749Y-71867393D01*
X81120355Y-71946683D01*
X81120353Y-71946684D01*
X80784021Y-72064371D01*
X80462985Y-72218974D01*
X80161272Y-72408553D01*
X79882683Y-72630720D01*
X79630720Y-72882683D01*
X79408553Y-73161272D01*
X79218974Y-73462985D01*
X79064371Y-73784021D01*
X78946684Y-74120353D01*
X78946683Y-74120355D01*
X78867393Y-74467749D01*
X78867391Y-74467761D01*
X78827497Y-74821831D01*
X77362700Y-74821831D01*
X77362700Y-64185689D01*
X77382385Y-64118650D01*
X77399019Y-64098008D01*
X77942892Y-63554135D01*
X79320465Y-62176562D01*
X79363318Y-62102339D01*
X79385500Y-62019553D01*
X79385500Y-61933847D01*
X79385500Y-61890583D01*
X79405185Y-61823544D01*
X79457989Y-61777789D01*
X79462049Y-61776021D01*
X79463945Y-61775234D01*
X79463954Y-61775232D01*
X79646450Y-61677685D01*
X79806410Y-61546410D01*
X79937685Y-61386450D01*
X80035232Y-61203954D01*
X80095300Y-61005934D01*
X80115583Y-60800000D01*
X80544417Y-60800000D01*
X80564699Y-61005932D01*
X80564700Y-61005934D01*
X80624768Y-61203954D01*
X80722315Y-61386450D01*
X80755911Y-61427387D01*
X80853589Y-61546410D01*
X80910565Y-61593168D01*
X81013550Y-61677685D01*
X81196046Y-61775232D01*
X81394066Y-61835300D01*
X81394065Y-61835300D01*
X81412529Y-61837118D01*
X81600000Y-61855583D01*
X81805934Y-61835300D01*
X82003954Y-61775232D01*
X82186450Y-61677685D01*
X82346410Y-61546410D01*
X82477685Y-61386450D01*
X82575232Y-61203954D01*
X82635300Y-61005934D01*
X82655583Y-60800000D01*
X83084417Y-60800000D01*
X83104699Y-61005932D01*
X83104700Y-61005934D01*
X83164768Y-61203954D01*
X83262315Y-61386450D01*
X83295911Y-61427387D01*
X83393589Y-61546410D01*
X83450565Y-61593168D01*
X83553550Y-61677685D01*
X83736046Y-61775232D01*
X83934066Y-61835300D01*
X83934065Y-61835300D01*
X83952529Y-61837118D01*
X84140000Y-61855583D01*
X84345934Y-61835300D01*
X84543954Y-61775232D01*
X84726450Y-61677685D01*
X84886410Y-61546410D01*
X85017685Y-61386450D01*
X85115232Y-61203954D01*
X85175300Y-61005934D01*
X85195583Y-60800000D01*
X85175300Y-60594066D01*
X85115232Y-60396046D01*
X85017685Y-60213550D01*
X84942355Y-60121759D01*
X84886410Y-60053589D01*
X84768677Y-59956969D01*
X84726450Y-59922315D01*
X84543954Y-59824768D01*
X84345934Y-59764700D01*
X84345932Y-59764699D01*
X84345934Y-59764699D01*
X84140000Y-59744417D01*
X83934067Y-59764699D01*
X83736043Y-59824769D01*
X83648114Y-59871769D01*
X83553550Y-59922315D01*
X83553548Y-59922316D01*
X83553547Y-59922317D01*
X83393589Y-60053589D01*
X83262317Y-60213547D01*
X83164769Y-60396043D01*
X83104699Y-60594067D01*
X83084417Y-60800000D01*
X82655583Y-60800000D01*
X82635300Y-60594066D01*
X82575232Y-60396046D01*
X82477685Y-60213550D01*
X82402355Y-60121759D01*
X82346410Y-60053589D01*
X82228677Y-59956969D01*
X82186450Y-59922315D01*
X82003954Y-59824768D01*
X81805934Y-59764700D01*
X81805932Y-59764699D01*
X81805934Y-59764699D01*
X81600000Y-59744417D01*
X81394067Y-59764699D01*
X81196043Y-59824769D01*
X81108114Y-59871769D01*
X81013550Y-59922315D01*
X81013548Y-59922316D01*
X81013547Y-59922317D01*
X80853589Y-60053589D01*
X80722317Y-60213547D01*
X80624769Y-60396043D01*
X80564699Y-60594067D01*
X80544417Y-60800000D01*
X80115583Y-60800000D01*
X80095300Y-60594066D01*
X80035232Y-60396046D01*
X79937685Y-60213550D01*
X79862355Y-60121759D01*
X79806410Y-60053589D01*
X79688677Y-59956969D01*
X79646450Y-59922315D01*
X79463954Y-59824768D01*
X79265934Y-59764700D01*
X79265932Y-59764699D01*
X79265934Y-59764699D01*
X79060000Y-59744417D01*
X78854067Y-59764699D01*
X78656043Y-59824769D01*
X78568114Y-59871769D01*
X78473550Y-59922315D01*
X78473548Y-59922316D01*
X78473547Y-59922317D01*
X78313589Y-60053589D01*
X78182317Y-60213547D01*
X78084769Y-60396043D01*
X78024699Y-60594067D01*
X78004417Y-60800000D01*
X78024699Y-61005932D01*
X78024700Y-61005934D01*
X78084768Y-61203954D01*
X78182315Y-61386450D01*
X78215911Y-61427387D01*
X78313589Y-61546410D01*
X78370565Y-61593168D01*
X78473550Y-61677685D01*
X78603150Y-61746958D01*
X78652993Y-61795919D01*
X78668453Y-61864057D01*
X78644621Y-61929737D01*
X78632376Y-61943996D01*
X76776737Y-63799635D01*
X76776733Y-63799641D01*
X76733882Y-63873859D01*
X76732446Y-63879219D01*
X76716110Y-63940189D01*
X76711700Y-63956647D01*
X76711700Y-109909299D01*
X76692015Y-109976338D01*
X76663188Y-110007674D01*
X76608920Y-110049315D01*
X76512663Y-110174760D01*
X76452156Y-110320837D01*
X76452155Y-110320839D01*
X76431518Y-110477598D01*
X76431518Y-110477601D01*
X76452155Y-110634360D01*
X76452156Y-110634362D01*
X76512664Y-110780441D01*
X76608918Y-110905882D01*
X76734359Y-111002136D01*
X76850132Y-111050090D01*
X76904534Y-111093931D01*
X76926599Y-111160225D01*
X76909320Y-111227924D01*
X76866829Y-111270767D01*
X76744814Y-111344528D01*
X76744810Y-111344531D01*
X76624530Y-111464811D01*
X76536522Y-111610393D01*
X76485913Y-111772807D01*
X76479500Y-111843386D01*
X76479500Y-116321500D01*
X76459815Y-116388539D01*
X76407011Y-116434294D01*
X76355500Y-116445500D01*
X75824500Y-116445500D01*
X75757461Y-116425815D01*
X75711706Y-116373011D01*
X75700500Y-116321500D01*
X75700500Y-111843386D01*
X75694086Y-111772807D01*
X75694086Y-111772804D01*
X75643478Y-111610394D01*
X75555472Y-111464815D01*
X75555470Y-111464813D01*
X75555469Y-111464811D01*
X75435188Y-111344530D01*
X75289606Y-111256522D01*
X75127196Y-111205914D01*
X75067276Y-111200468D01*
X75002295Y-111174798D01*
X74961507Y-111118070D01*
X74954500Y-111076978D01*
X74954500Y-109365166D01*
X74954500Y-109365164D01*
X74923527Y-109249569D01*
X74863691Y-109145930D01*
X74779070Y-109061309D01*
X74779069Y-109061308D01*
X74774739Y-109056978D01*
X74774728Y-109056968D01*
X74150819Y-108433059D01*
X74117334Y-108371736D01*
X74114500Y-108345378D01*
X74114500Y-59930247D01*
X75469500Y-59930247D01*
X75469500Y-61669752D01*
X75481131Y-61728229D01*
X75481132Y-61728230D01*
X75525447Y-61794552D01*
X75591769Y-61838867D01*
X75591770Y-61838868D01*
X75650247Y-61850499D01*
X75650250Y-61850500D01*
X75650252Y-61850500D01*
X77389750Y-61850500D01*
X77389751Y-61850499D01*
X77404568Y-61847552D01*
X77448229Y-61838868D01*
X77448229Y-61838867D01*
X77448231Y-61838867D01*
X77514552Y-61794552D01*
X77558867Y-61728231D01*
X77558867Y-61728229D01*
X77558868Y-61728229D01*
X77570499Y-61669752D01*
X77570500Y-61669750D01*
X77570500Y-59930249D01*
X77570499Y-59930247D01*
X77558868Y-59871770D01*
X77558867Y-59871769D01*
X77514552Y-59805447D01*
X77448230Y-59761132D01*
X77448229Y-59761131D01*
X77389752Y-59749500D01*
X77389748Y-59749500D01*
X75650252Y-59749500D01*
X75650247Y-59749500D01*
X75591770Y-59761131D01*
X75591769Y-59761132D01*
X75525447Y-59805447D01*
X75481132Y-59871769D01*
X75481131Y-59871770D01*
X75469500Y-59930247D01*
X74114500Y-59930247D01*
X74114500Y-42130247D01*
X75449500Y-42130247D01*
X75449500Y-43869752D01*
X75461131Y-43928229D01*
X75461132Y-43928230D01*
X75505447Y-43994552D01*
X75571769Y-44038867D01*
X75571770Y-44038868D01*
X75630247Y-44050499D01*
X75630250Y-44050500D01*
X75630252Y-44050500D01*
X77369750Y-44050500D01*
X77369751Y-44050499D01*
X77384568Y-44047552D01*
X77428229Y-44038868D01*
X77428229Y-44038867D01*
X77428231Y-44038867D01*
X77494552Y-43994552D01*
X77538867Y-43928231D01*
X77538867Y-43928229D01*
X77538868Y-43928229D01*
X77550499Y-43869752D01*
X77550500Y-43869750D01*
X77550500Y-42130249D01*
X77550499Y-42130247D01*
X77538868Y-42071770D01*
X77538867Y-42071769D01*
X77494552Y-42005447D01*
X77428230Y-41961132D01*
X77428229Y-41961131D01*
X77369752Y-41949500D01*
X77369748Y-41949500D01*
X75630252Y-41949500D01*
X75630247Y-41949500D01*
X75571770Y-41961131D01*
X75571769Y-41961132D01*
X75505447Y-42005447D01*
X75461132Y-42071769D01*
X75461131Y-42071770D01*
X75449500Y-42130247D01*
X74114500Y-42130247D01*
X74114500Y-36010247D01*
X77358500Y-36010247D01*
X77358500Y-37649752D01*
X77370131Y-37708229D01*
X77370132Y-37708230D01*
X77414447Y-37774552D01*
X77480769Y-37818867D01*
X77480770Y-37818868D01*
X77539247Y-37830499D01*
X77539250Y-37830500D01*
X77539252Y-37830500D01*
X77780500Y-37830500D01*
X77847539Y-37850185D01*
X77893294Y-37902989D01*
X77904500Y-37954500D01*
X77904500Y-39002551D01*
X77904499Y-39002569D01*
X77904499Y-39129835D01*
X77925977Y-39209995D01*
X77935471Y-39245427D01*
X77935474Y-39245434D01*
X77995306Y-39349066D01*
X77995311Y-39349072D01*
X78086995Y-39440756D01*
X78087001Y-39440761D01*
X78549181Y-39902941D01*
X78582666Y-39964264D01*
X78585500Y-39990622D01*
X78585500Y-41977462D01*
X78565815Y-42044501D01*
X78519955Y-42086819D01*
X78453549Y-42122315D01*
X78293589Y-42253589D01*
X78162317Y-42413547D01*
X78064769Y-42596043D01*
X78004699Y-42794067D01*
X77984417Y-43000000D01*
X78004699Y-43205932D01*
X78004700Y-43205934D01*
X78064768Y-43403954D01*
X78162315Y-43586450D01*
X78162317Y-43586452D01*
X78293589Y-43746410D01*
X78366876Y-43806554D01*
X78453550Y-43877685D01*
X78636046Y-43975232D01*
X78834066Y-44035300D01*
X78834065Y-44035300D01*
X78852529Y-44037118D01*
X79040000Y-44055583D01*
X79245934Y-44035300D01*
X79443954Y-43975232D01*
X79626450Y-43877685D01*
X79786410Y-43746410D01*
X79917685Y-43586450D01*
X80015232Y-43403954D01*
X80075300Y-43205934D01*
X80095583Y-43000000D01*
X80080809Y-42849999D01*
X80338347Y-42849999D01*
X80338348Y-42850000D01*
X81102555Y-42850000D01*
X81080000Y-42934174D01*
X81080000Y-43065826D01*
X81102555Y-43150000D01*
X80338348Y-43150000D01*
X80344287Y-43217885D01*
X80344289Y-43217894D01*
X80400894Y-43429150D01*
X80400898Y-43429159D01*
X80493333Y-43627387D01*
X80618787Y-43806554D01*
X80773445Y-43961212D01*
X80952612Y-44086666D01*
X81150840Y-44179101D01*
X81150849Y-44179105D01*
X81362110Y-44235711D01*
X81430000Y-44241650D01*
X81430000Y-43477445D01*
X81514174Y-43500000D01*
X81645826Y-43500000D01*
X81730000Y-43477445D01*
X81730000Y-44241650D01*
X81797887Y-44235711D01*
X81797891Y-44235711D01*
X82009150Y-44179105D01*
X82009159Y-44179101D01*
X82207387Y-44086666D01*
X82386554Y-43961212D01*
X82541212Y-43806554D01*
X82666666Y-43627387D01*
X82759101Y-43429159D01*
X82759105Y-43429150D01*
X82815710Y-43217894D01*
X82815712Y-43217885D01*
X82821652Y-43150000D01*
X82057445Y-43150000D01*
X82080000Y-43065826D01*
X82080000Y-43000000D01*
X83064417Y-43000000D01*
X83084699Y-43205932D01*
X83084700Y-43205934D01*
X83144768Y-43403954D01*
X83242315Y-43586450D01*
X83242317Y-43586452D01*
X83373589Y-43746410D01*
X83446876Y-43806554D01*
X83533550Y-43877685D01*
X83716046Y-43975232D01*
X83914066Y-44035300D01*
X83914065Y-44035300D01*
X83932529Y-44037118D01*
X84120000Y-44055583D01*
X84325934Y-44035300D01*
X84523954Y-43975232D01*
X84706450Y-43877685D01*
X84866410Y-43746410D01*
X84997685Y-43586450D01*
X85095232Y-43403954D01*
X85155300Y-43205934D01*
X85175583Y-43000000D01*
X85155300Y-42794066D01*
X85095232Y-42596046D01*
X84997685Y-42413550D01*
X84926696Y-42327049D01*
X84866410Y-42253589D01*
X84716121Y-42130252D01*
X84706450Y-42122315D01*
X84523954Y-42024768D01*
X84325934Y-41964700D01*
X84325932Y-41964699D01*
X84325934Y-41964699D01*
X84120000Y-41944417D01*
X83914067Y-41964699D01*
X83779736Y-42005448D01*
X83724476Y-42022211D01*
X83716043Y-42024769D01*
X83679128Y-42044501D01*
X83533550Y-42122315D01*
X83533548Y-42122316D01*
X83533547Y-42122317D01*
X83373589Y-42253589D01*
X83242317Y-42413547D01*
X83144769Y-42596043D01*
X83084699Y-42794067D01*
X83064417Y-43000000D01*
X82080000Y-43000000D01*
X82080000Y-42934174D01*
X82057445Y-42850000D01*
X82821652Y-42850000D01*
X82821652Y-42849999D01*
X82815712Y-42782114D01*
X82815710Y-42782105D01*
X82759105Y-42570849D01*
X82759101Y-42570840D01*
X82666666Y-42372612D01*
X82666664Y-42372608D01*
X82541216Y-42193450D01*
X82541211Y-42193444D01*
X82386554Y-42038787D01*
X82207387Y-41913333D01*
X82009159Y-41820898D01*
X82009150Y-41820894D01*
X81797894Y-41764289D01*
X81797885Y-41764287D01*
X81730000Y-41758347D01*
X81730000Y-42522554D01*
X81645826Y-42500000D01*
X81514174Y-42500000D01*
X81430000Y-42522554D01*
X81430000Y-41758348D01*
X81429999Y-41758347D01*
X81362114Y-41764287D01*
X81362105Y-41764289D01*
X81150849Y-41820894D01*
X81150840Y-41820898D01*
X80952612Y-41913333D01*
X80952608Y-41913335D01*
X80773450Y-42038783D01*
X80773444Y-42038788D01*
X80618788Y-42193444D01*
X80618783Y-42193450D01*
X80493335Y-42372608D01*
X80493333Y-42372612D01*
X80400898Y-42570840D01*
X80400894Y-42570849D01*
X80344289Y-42782105D01*
X80344287Y-42782114D01*
X80338347Y-42849999D01*
X80080809Y-42849999D01*
X80075300Y-42794066D01*
X80015232Y-42596046D01*
X79917685Y-42413550D01*
X79846696Y-42327049D01*
X79786410Y-42253589D01*
X79626450Y-42122315D01*
X79560045Y-42086819D01*
X79510201Y-42037856D01*
X79494500Y-41977462D01*
X79494500Y-39691166D01*
X79494500Y-39691164D01*
X79463527Y-39575569D01*
X79403691Y-39471930D01*
X79319070Y-39387309D01*
X79319069Y-39387308D01*
X79314739Y-39382978D01*
X79314728Y-39382968D01*
X78849819Y-38918059D01*
X78816334Y-38856736D01*
X78813500Y-38830378D01*
X78813500Y-37954500D01*
X78833185Y-37887461D01*
X78885989Y-37841706D01*
X78937500Y-37830500D01*
X79178750Y-37830500D01*
X79178751Y-37830499D01*
X79193568Y-37827552D01*
X79237229Y-37818868D01*
X79237229Y-37818867D01*
X79237231Y-37818867D01*
X79303552Y-37774552D01*
X79347867Y-37708231D01*
X79347867Y-37708229D01*
X79347868Y-37708229D01*
X79359499Y-37649752D01*
X79359500Y-37649750D01*
X79359500Y-36010249D01*
X79359499Y-36010247D01*
X79347868Y-35951770D01*
X79347867Y-35951769D01*
X79303552Y-35885447D01*
X79237230Y-35841132D01*
X79237229Y-35841131D01*
X79178752Y-35829500D01*
X79178748Y-35829500D01*
X77539252Y-35829500D01*
X77539247Y-35829500D01*
X77480770Y-35841131D01*
X77480769Y-35841132D01*
X77414447Y-35885447D01*
X77370132Y-35951769D01*
X77370131Y-35951770D01*
X77358500Y-36010247D01*
X74114500Y-36010247D01*
X74114500Y-35926622D01*
X74134185Y-35859583D01*
X74150819Y-35838941D01*
X75970941Y-34018819D01*
X76032264Y-33985334D01*
X76058622Y-33982500D01*
X84723378Y-33982500D01*
X84790417Y-34002185D01*
X84811059Y-34018819D01*
X85488181Y-34695941D01*
X85521666Y-34757264D01*
X85524500Y-34783622D01*
X85524500Y-35864157D01*
X85504815Y-35931196D01*
X85458956Y-35973514D01*
X85420458Y-35994092D01*
X85268116Y-36119116D01*
X85143090Y-36271460D01*
X85143086Y-36271467D01*
X85050188Y-36445266D01*
X84992975Y-36633870D01*
X84973659Y-36830000D01*
X84992975Y-37026129D01*
X85050188Y-37214733D01*
X85143086Y-37388532D01*
X85143090Y-37388539D01*
X85268116Y-37540883D01*
X85420460Y-37665909D01*
X85420467Y-37665913D01*
X85594266Y-37758811D01*
X85594269Y-37758811D01*
X85594273Y-37758814D01*
X85782868Y-37816024D01*
X85979000Y-37835341D01*
X86175132Y-37816024D01*
X86363727Y-37758814D01*
X86423715Y-37726750D01*
X86537532Y-37665913D01*
X86537538Y-37665910D01*
X86689883Y-37540883D01*
X86814910Y-37388538D01*
X86835485Y-37350044D01*
X86884447Y-37300202D01*
X86944842Y-37284500D01*
X121715500Y-37284500D01*
X121782539Y-37304185D01*
X121828294Y-37356989D01*
X121839500Y-37408500D01*
X121839500Y-37726752D01*
X121851131Y-37785229D01*
X121851132Y-37785230D01*
X121895447Y-37851552D01*
X121961769Y-37895867D01*
X121961770Y-37895868D01*
X122020247Y-37907499D01*
X122020250Y-37907500D01*
X122020252Y-37907500D01*
X123059750Y-37907500D01*
X123059751Y-37907499D01*
X123074568Y-37904552D01*
X123118229Y-37895868D01*
X123118231Y-37895867D01*
X123121108Y-37893945D01*
X123128335Y-37891681D01*
X123129513Y-37891194D01*
X123129556Y-37891299D01*
X123187785Y-37873066D01*
X123255165Y-37891550D01*
X123258892Y-37893945D01*
X123261768Y-37895867D01*
X123261770Y-37895868D01*
X123320247Y-37907499D01*
X123320250Y-37907500D01*
X123320252Y-37907500D01*
X124359750Y-37907500D01*
X124359751Y-37907499D01*
X124374568Y-37904552D01*
X124418229Y-37895868D01*
X124418229Y-37895867D01*
X124418231Y-37895867D01*
X124484552Y-37851552D01*
X124528867Y-37785231D01*
X124528867Y-37785229D01*
X124528868Y-37785229D01*
X124540499Y-37726752D01*
X124540500Y-37726750D01*
X124540500Y-37535500D01*
X124560185Y-37468461D01*
X124612989Y-37422706D01*
X124664500Y-37411500D01*
X125420794Y-37411500D01*
X125487833Y-37431185D01*
X125496268Y-37437115D01*
X125554159Y-37481536D01*
X125700238Y-37542044D01*
X125778619Y-37552363D01*
X125856999Y-37562682D01*
X125857000Y-37562682D01*
X125857001Y-37562682D01*
X125909254Y-37555802D01*
X126013762Y-37542044D01*
X126159841Y-37481536D01*
X126285282Y-37385282D01*
X126381536Y-37259841D01*
X126442044Y-37113762D01*
X126462682Y-36957000D01*
X126442044Y-36800238D01*
X126381536Y-36654159D01*
X126285282Y-36528718D01*
X126159841Y-36432464D01*
X126013762Y-36371956D01*
X126013760Y-36371955D01*
X125857001Y-36351318D01*
X125856999Y-36351318D01*
X125700239Y-36371955D01*
X125700237Y-36371956D01*
X125554160Y-36432463D01*
X125554159Y-36432464D01*
X125496278Y-36476876D01*
X125431111Y-36502070D01*
X125420794Y-36502500D01*
X124664500Y-36502500D01*
X124597461Y-36482815D01*
X124551706Y-36430011D01*
X124540500Y-36378500D01*
X124540500Y-36187249D01*
X124540499Y-36187247D01*
X124528868Y-36128770D01*
X124528867Y-36128769D01*
X124484552Y-36062447D01*
X124418230Y-36018132D01*
X124418229Y-36018131D01*
X124359752Y-36006500D01*
X124359748Y-36006500D01*
X123320252Y-36006500D01*
X123320247Y-36006500D01*
X123261770Y-36018131D01*
X123261768Y-36018132D01*
X123258887Y-36020058D01*
X123251655Y-36022322D01*
X123250487Y-36022806D01*
X123250443Y-36022701D01*
X123192209Y-36040933D01*
X123124829Y-36022446D01*
X123121113Y-36020058D01*
X123118231Y-36018132D01*
X123118229Y-36018131D01*
X123059752Y-36006500D01*
X123059748Y-36006500D01*
X122020252Y-36006500D01*
X122020247Y-36006500D01*
X121961770Y-36018131D01*
X121961769Y-36018132D01*
X121895447Y-36062447D01*
X121851132Y-36128769D01*
X121851131Y-36128770D01*
X121839500Y-36187247D01*
X121839500Y-36251500D01*
X121819815Y-36318539D01*
X121767011Y-36364294D01*
X121715500Y-36375500D01*
X86944842Y-36375500D01*
X86877803Y-36355815D01*
X86835485Y-36309955D01*
X86814910Y-36271462D01*
X86798528Y-36251500D01*
X86689883Y-36119116D01*
X86537541Y-35994092D01*
X86537539Y-35994091D01*
X86537538Y-35994090D01*
X86516591Y-35982893D01*
X86499044Y-35973514D01*
X86449201Y-35924551D01*
X86433500Y-35864157D01*
X86433500Y-35199999D01*
X130294357Y-35199999D01*
X130294357Y-35200000D01*
X130314884Y-35421535D01*
X130314885Y-35421537D01*
X130375769Y-35635523D01*
X130375775Y-35635538D01*
X130474938Y-35834683D01*
X130474943Y-35834691D01*
X130609020Y-36012238D01*
X130773437Y-36162123D01*
X130773439Y-36162125D01*
X130962595Y-36279245D01*
X130962596Y-36279245D01*
X130962599Y-36279247D01*
X131170060Y-36359618D01*
X131388757Y-36400500D01*
X131388759Y-36400500D01*
X131611241Y-36400500D01*
X131611243Y-36400500D01*
X131829940Y-36359618D01*
X132037401Y-36279247D01*
X132226562Y-36162124D01*
X132379386Y-36022806D01*
X132390979Y-36012238D01*
X132392482Y-36010249D01*
X132525058Y-35834689D01*
X132624229Y-35635528D01*
X132685115Y-35421536D01*
X132705643Y-35200000D01*
X132705643Y-35199999D01*
X136794357Y-35199999D01*
X136794357Y-35200000D01*
X136814884Y-35421535D01*
X136814885Y-35421537D01*
X136875769Y-35635523D01*
X136875775Y-35635538D01*
X136974938Y-35834683D01*
X136974943Y-35834691D01*
X137109020Y-36012238D01*
X137273437Y-36162123D01*
X137273439Y-36162125D01*
X137462595Y-36279245D01*
X137462596Y-36279245D01*
X137462599Y-36279247D01*
X137670060Y-36359618D01*
X137888757Y-36400500D01*
X137888759Y-36400500D01*
X138111241Y-36400500D01*
X138111243Y-36400500D01*
X138329940Y-36359618D01*
X138537401Y-36279247D01*
X138726562Y-36162124D01*
X138879386Y-36022806D01*
X138890979Y-36012238D01*
X138892482Y-36010249D01*
X139025058Y-35834689D01*
X139124229Y-35635528D01*
X139185115Y-35421536D01*
X139205643Y-35200000D01*
X139185115Y-34978464D01*
X139124229Y-34764472D01*
X139120640Y-34757264D01*
X139025061Y-34565316D01*
X139025056Y-34565308D01*
X138890979Y-34387761D01*
X138726562Y-34237876D01*
X138726560Y-34237874D01*
X138537404Y-34120754D01*
X138537398Y-34120752D01*
X138329940Y-34040382D01*
X138111243Y-33999500D01*
X137888757Y-33999500D01*
X137670060Y-34040382D01*
X137538864Y-34091207D01*
X137462601Y-34120752D01*
X137462595Y-34120754D01*
X137273439Y-34237874D01*
X137273437Y-34237876D01*
X137109020Y-34387761D01*
X136974943Y-34565308D01*
X136974938Y-34565316D01*
X136875775Y-34764461D01*
X136875769Y-34764476D01*
X136814885Y-34978462D01*
X136814884Y-34978464D01*
X136794357Y-35199999D01*
X132705643Y-35199999D01*
X132685115Y-34978464D01*
X132624229Y-34764472D01*
X132620640Y-34757264D01*
X132525061Y-34565316D01*
X132525056Y-34565308D01*
X132390979Y-34387761D01*
X132226562Y-34237876D01*
X132226560Y-34237874D01*
X132037404Y-34120754D01*
X132037398Y-34120752D01*
X131829940Y-34040382D01*
X131611243Y-33999500D01*
X131388757Y-33999500D01*
X131170060Y-34040382D01*
X131038864Y-34091207D01*
X130962601Y-34120752D01*
X130962595Y-34120754D01*
X130773439Y-34237874D01*
X130773437Y-34237876D01*
X130609020Y-34387761D01*
X130474943Y-34565308D01*
X130474938Y-34565316D01*
X130375775Y-34764461D01*
X130375769Y-34764476D01*
X130314885Y-34978462D01*
X130314884Y-34978464D01*
X130294357Y-35199999D01*
X86433500Y-35199999D01*
X86433500Y-34613838D01*
X86433501Y-34613825D01*
X86433501Y-34484165D01*
X86402527Y-34368570D01*
X86402527Y-34368568D01*
X86376144Y-34322872D01*
X86342691Y-34264930D01*
X86258070Y-34180309D01*
X86258069Y-34180308D01*
X86253739Y-34175978D01*
X86253728Y-34175968D01*
X85333761Y-33256001D01*
X85333759Y-33255998D01*
X85242072Y-33164311D01*
X85242066Y-33164306D01*
X85138434Y-33104474D01*
X85138429Y-33104472D01*
X85114003Y-33097926D01*
X85114003Y-33097927D01*
X85068419Y-33085713D01*
X85022836Y-33073499D01*
X84903164Y-33073499D01*
X84895568Y-33073499D01*
X84895552Y-33073500D01*
X75886448Y-33073500D01*
X75886432Y-33073499D01*
X75878836Y-33073499D01*
X75759164Y-33073499D01*
X75667997Y-33097927D01*
X75658518Y-33100466D01*
X75643570Y-33104472D01*
X75643565Y-33104474D01*
X75539933Y-33164306D01*
X75539927Y-33164311D01*
X73296311Y-35407927D01*
X73296307Y-35407933D01*
X73236472Y-35511568D01*
X73236473Y-35511568D01*
X73236473Y-35511570D01*
X73205499Y-35627165D01*
X73205499Y-35756825D01*
X73205500Y-35756838D01*
X73205500Y-108517551D01*
X73205499Y-108517569D01*
X73205499Y-108644835D01*
X73229926Y-108736000D01*
X73236472Y-108760429D01*
X73236474Y-108760434D01*
X73296306Y-108864066D01*
X73296311Y-108864072D01*
X73387995Y-108955756D01*
X73388001Y-108955761D01*
X74009181Y-109576941D01*
X74042666Y-109638264D01*
X74045500Y-109664622D01*
X74045500Y-111076978D01*
X74025815Y-111144017D01*
X73973011Y-111189772D01*
X73932724Y-111200468D01*
X73872804Y-111205914D01*
X73764530Y-111239652D01*
X73710393Y-111256522D01*
X73564811Y-111344530D01*
X73444530Y-111464811D01*
X73356522Y-111610393D01*
X73305913Y-111772807D01*
X73299500Y-111843386D01*
X73299500Y-116843000D01*
X73279815Y-116910039D01*
X73227011Y-116955794D01*
X73175500Y-116967000D01*
X72124000Y-116967000D01*
X72056961Y-116947315D01*
X72011206Y-116894511D01*
X72000000Y-116843000D01*
X72000000Y-32914489D01*
X72000020Y-32912278D01*
X72000030Y-32911716D01*
X72002409Y-32778289D01*
X72003650Y-32762872D01*
X72041948Y-32496499D01*
X72045709Y-32479214D01*
X72121210Y-32222081D01*
X72127391Y-32205512D01*
X72127393Y-32205508D01*
X72238720Y-31961734D01*
X72247185Y-31946232D01*
X72392084Y-31720764D01*
X72402670Y-31706622D01*
X72578177Y-31504076D01*
X72590676Y-31491577D01*
X72793222Y-31316070D01*
X72807364Y-31305484D01*
X73032832Y-31160585D01*
X73048334Y-31152120D01*
X73292112Y-31040790D01*
X73308681Y-31034610D01*
X73565818Y-30959107D01*
X73583099Y-30955348D01*
X73849472Y-30917050D01*
X73864889Y-30915809D01*
X73998879Y-30913420D01*
X74001090Y-30913400D01*
X141998933Y-30913400D01*
X142001135Y-30913419D01*
G37*
G04 #@! TD.AperFunction*
G04 #@! TA.AperFunction,Conductor*
G36*
X87791496Y-64963973D02*
G01*
X87827148Y-65024062D01*
X87831000Y-65054728D01*
X87831000Y-99363311D01*
X87811315Y-99430350D01*
X87794681Y-99450992D01*
X83779537Y-103466135D01*
X83779535Y-103466138D01*
X83736681Y-103540361D01*
X83735341Y-103545365D01*
X83714500Y-103623145D01*
X83714500Y-111075500D01*
X83694815Y-111142539D01*
X83642011Y-111188294D01*
X83590500Y-111199500D01*
X83483384Y-111199500D01*
X83464145Y-111201248D01*
X83412807Y-111205913D01*
X83250393Y-111256522D01*
X83104811Y-111344530D01*
X82984530Y-111464811D01*
X82896522Y-111610393D01*
X82845913Y-111772807D01*
X82839500Y-111843386D01*
X82839500Y-116843000D01*
X82819815Y-116910039D01*
X82767011Y-116955794D01*
X82715500Y-116967000D01*
X82184500Y-116967000D01*
X82117461Y-116947315D01*
X82071706Y-116894511D01*
X82060500Y-116843000D01*
X82060500Y-111843386D01*
X82054086Y-111772807D01*
X82054086Y-111772804D01*
X82003478Y-111610394D01*
X81915472Y-111464815D01*
X81915470Y-111464813D01*
X81915469Y-111464811D01*
X81795188Y-111344530D01*
X81649606Y-111256522D01*
X81557830Y-111227924D01*
X81487196Y-111205914D01*
X81487194Y-111205913D01*
X81487192Y-111205913D01*
X81437778Y-111201423D01*
X81416616Y-111199500D01*
X81416613Y-111199500D01*
X81309500Y-111199500D01*
X81242461Y-111179815D01*
X81196706Y-111127011D01*
X81185500Y-111075500D01*
X81185500Y-103857189D01*
X81205185Y-103790150D01*
X81221819Y-103769508D01*
X84163982Y-100827345D01*
X87128465Y-97862862D01*
X87171318Y-97788639D01*
X87193500Y-97705853D01*
X87193500Y-97620147D01*
X87193500Y-65128189D01*
X87213185Y-65061150D01*
X87229819Y-65040508D01*
X87249316Y-65021011D01*
X87310639Y-64987526D01*
X87353181Y-64985753D01*
X87421000Y-64994682D01*
X87577762Y-64974044D01*
X87659548Y-64940166D01*
X87729016Y-64932698D01*
X87791496Y-64963973D01*
G37*
G04 #@! TD.AperFunction*
G04 #@! TA.AperFunction,Conductor*
G36*
X89370000Y-62041650D02*
G01*
X89437887Y-62035711D01*
X89437891Y-62035711D01*
X89649150Y-61979105D01*
X89649159Y-61979101D01*
X89847387Y-61886666D01*
X90021776Y-61764558D01*
X90087982Y-61742231D01*
X90155750Y-61759241D01*
X90203563Y-61810189D01*
X90216900Y-61866133D01*
X90216900Y-62179411D01*
X90197215Y-62246450D01*
X90180581Y-62267092D01*
X88893537Y-63554135D01*
X88893533Y-63554141D01*
X88850681Y-63628361D01*
X88850682Y-63628362D01*
X88828500Y-63711147D01*
X88828500Y-101447710D01*
X88808815Y-101514749D01*
X88792181Y-101535391D01*
X88496713Y-101830858D01*
X88484529Y-101841545D01*
X88478808Y-101845935D01*
X87018910Y-103305835D01*
X86957936Y-103366808D01*
X86957934Y-103366811D01*
X86914819Y-103441489D01*
X86892500Y-103524785D01*
X86892500Y-111075500D01*
X86872815Y-111142539D01*
X86820011Y-111188294D01*
X86768500Y-111199500D01*
X86663384Y-111199500D01*
X86644145Y-111201248D01*
X86592807Y-111205913D01*
X86430393Y-111256522D01*
X86284811Y-111344530D01*
X86164530Y-111464811D01*
X86076522Y-111610393D01*
X86025913Y-111772807D01*
X86019500Y-111843386D01*
X86019500Y-116843000D01*
X85999815Y-116910039D01*
X85947011Y-116955794D01*
X85895500Y-116967000D01*
X85364500Y-116967000D01*
X85297461Y-116947315D01*
X85251706Y-116894511D01*
X85240500Y-116843000D01*
X85240500Y-111843386D01*
X85234086Y-111772807D01*
X85234086Y-111772804D01*
X85183478Y-111610394D01*
X85095472Y-111464815D01*
X85095470Y-111464813D01*
X85095469Y-111464811D01*
X84975188Y-111344530D01*
X84829606Y-111256522D01*
X84737830Y-111227924D01*
X84667196Y-111205914D01*
X84667194Y-111205913D01*
X84667192Y-111205913D01*
X84617778Y-111201423D01*
X84596616Y-111199500D01*
X84596613Y-111199500D01*
X84489500Y-111199500D01*
X84422461Y-111179815D01*
X84376706Y-111127011D01*
X84365500Y-111075500D01*
X84365500Y-103852189D01*
X84385185Y-103785150D01*
X84401819Y-103764508D01*
X86406792Y-101759535D01*
X88416965Y-99749362D01*
X88459818Y-99675139D01*
X88482000Y-99592353D01*
X88482000Y-99506647D01*
X88482000Y-62029728D01*
X88501685Y-61962689D01*
X88554489Y-61916934D01*
X88623647Y-61906990D01*
X88658405Y-61917346D01*
X88790840Y-61979101D01*
X88790849Y-61979105D01*
X89002110Y-62035711D01*
X89070000Y-62041650D01*
X89070000Y-61277445D01*
X89154174Y-61300000D01*
X89285826Y-61300000D01*
X89370000Y-61277445D01*
X89370000Y-62041650D01*
G37*
G04 #@! TD.AperFunction*
G04 #@! TA.AperFunction,Conductor*
G36*
X92627413Y-61540880D02*
G01*
X92678973Y-61588033D01*
X92696900Y-61652255D01*
X92696900Y-100898567D01*
X92695839Y-100914754D01*
X92694900Y-100921883D01*
X92694900Y-100921884D01*
X92694900Y-101008116D01*
X92717219Y-101091410D01*
X92760334Y-101166088D01*
X92760336Y-101166091D01*
X93216181Y-101621936D01*
X93249666Y-101683259D01*
X93252500Y-101709617D01*
X93252500Y-111075500D01*
X93232815Y-111142539D01*
X93180011Y-111188294D01*
X93128500Y-111199500D01*
X93023384Y-111199500D01*
X93004145Y-111201248D01*
X92952807Y-111205913D01*
X92790393Y-111256522D01*
X92644811Y-111344530D01*
X92524530Y-111464811D01*
X92436522Y-111610393D01*
X92385913Y-111772807D01*
X92379500Y-111843386D01*
X92379500Y-116843000D01*
X92359815Y-116910039D01*
X92307011Y-116955794D01*
X92255500Y-116967000D01*
X91724500Y-116967000D01*
X91657461Y-116947315D01*
X91611706Y-116894511D01*
X91600500Y-116843000D01*
X91600500Y-111843386D01*
X91594086Y-111772807D01*
X91594086Y-111772804D01*
X91543478Y-111610394D01*
X91455472Y-111464815D01*
X91455470Y-111464813D01*
X91455469Y-111464811D01*
X91335188Y-111344530D01*
X91189606Y-111256522D01*
X91097830Y-111227924D01*
X91027196Y-111205914D01*
X91027194Y-111205913D01*
X91027192Y-111205913D01*
X90977778Y-111201423D01*
X90956616Y-111199500D01*
X90956613Y-111199500D01*
X90849500Y-111199500D01*
X90782461Y-111179815D01*
X90736706Y-111127011D01*
X90725500Y-111075500D01*
X90725500Y-64957298D01*
X90745185Y-64890259D01*
X90774010Y-64858925D01*
X90828282Y-64817282D01*
X90924536Y-64691841D01*
X90985044Y-64545762D01*
X91005682Y-64389000D01*
X90985044Y-64232238D01*
X90924536Y-64086159D01*
X90828282Y-63960718D01*
X90702841Y-63864464D01*
X90556762Y-63803956D01*
X90556760Y-63803955D01*
X90400001Y-63783318D01*
X90399999Y-63783318D01*
X90243239Y-63803955D01*
X90243237Y-63803956D01*
X90097160Y-63864463D01*
X89971718Y-63960718D01*
X89875463Y-64086160D01*
X89814956Y-64232237D01*
X89814955Y-64232239D01*
X89794318Y-64388998D01*
X89794318Y-64389001D01*
X89814955Y-64545760D01*
X89814956Y-64545762D01*
X89875464Y-64691841D01*
X89971718Y-64817282D01*
X90025987Y-64858924D01*
X90067189Y-64915349D01*
X90074500Y-64957298D01*
X90074500Y-111075500D01*
X90054815Y-111142539D01*
X90002011Y-111188294D01*
X89950500Y-111199500D01*
X89843384Y-111199500D01*
X89824145Y-111201248D01*
X89772807Y-111205913D01*
X89610393Y-111256522D01*
X89464811Y-111344530D01*
X89344530Y-111464811D01*
X89256522Y-111610393D01*
X89205913Y-111772807D01*
X89199500Y-111843386D01*
X89199500Y-116843000D01*
X89179815Y-116910039D01*
X89127011Y-116955794D01*
X89075500Y-116967000D01*
X88544500Y-116967000D01*
X88477461Y-116947315D01*
X88431706Y-116894511D01*
X88420500Y-116843000D01*
X88420500Y-111843386D01*
X88414086Y-111772807D01*
X88414086Y-111772804D01*
X88363478Y-111610394D01*
X88275472Y-111464815D01*
X88275470Y-111464813D01*
X88275469Y-111464811D01*
X88155188Y-111344530D01*
X88009606Y-111256522D01*
X87917830Y-111227924D01*
X87847196Y-111205914D01*
X87847194Y-111205913D01*
X87847192Y-111205913D01*
X87797778Y-111201423D01*
X87776616Y-111199500D01*
X87776613Y-111199500D01*
X87671500Y-111199500D01*
X87604461Y-111179815D01*
X87558706Y-111127011D01*
X87547500Y-111075500D01*
X87547500Y-103754917D01*
X87567185Y-103687878D01*
X87583819Y-103667236D01*
X88941961Y-102309094D01*
X88941965Y-102309090D01*
X88941967Y-102309085D01*
X88946336Y-102303392D01*
X88957033Y-102291192D01*
X89343652Y-101904572D01*
X89343657Y-101904569D01*
X89353860Y-101894365D01*
X89353862Y-101894365D01*
X89414465Y-101833762D01*
X89457318Y-101759538D01*
X89465672Y-101728361D01*
X89479501Y-101676753D01*
X89479501Y-101591047D01*
X89479501Y-101583452D01*
X89479500Y-101583434D01*
X89479500Y-63940189D01*
X89499185Y-63873150D01*
X89515819Y-63852508D01*
X89814192Y-63554135D01*
X90802865Y-62565462D01*
X90845718Y-62491239D01*
X90867900Y-62408453D01*
X90867900Y-62322747D01*
X90867900Y-61689021D01*
X90887585Y-61621982D01*
X90940389Y-61576227D01*
X91009547Y-61566283D01*
X91070565Y-61593168D01*
X91163883Y-61669752D01*
X91173550Y-61677685D01*
X91356046Y-61775232D01*
X91554066Y-61835300D01*
X91554065Y-61835300D01*
X91572529Y-61837118D01*
X91760000Y-61855583D01*
X91965934Y-61835300D01*
X92163954Y-61775232D01*
X92346450Y-61677685D01*
X92478355Y-61569434D01*
X92494235Y-61556402D01*
X92558545Y-61529089D01*
X92627413Y-61540880D01*
G37*
G04 #@! TD.AperFunction*
G04 #@! TA.AperFunction,Conductor*
G36*
X98730429Y-39842185D02*
G01*
X98776184Y-39894989D01*
X98777951Y-39899047D01*
X98783437Y-39912292D01*
X98789464Y-39926841D01*
X98836405Y-39988016D01*
X98861598Y-40053182D01*
X98847560Y-40121627D01*
X98798746Y-40171617D01*
X98738028Y-40187500D01*
X94284465Y-40187500D01*
X94284449Y-40187499D01*
X94276853Y-40187499D01*
X94191148Y-40187499D01*
X94110743Y-40209044D01*
X94110742Y-40209043D01*
X94108366Y-40209680D01*
X94108355Y-40209685D01*
X94034144Y-40252530D01*
X94034136Y-40252536D01*
X92656237Y-41630435D01*
X92656233Y-41630441D01*
X92613381Y-41704661D01*
X92613382Y-41704662D01*
X92591200Y-41787447D01*
X92591200Y-42077413D01*
X92571515Y-42144452D01*
X92518711Y-42190207D01*
X92449553Y-42200151D01*
X92388536Y-42173267D01*
X92336121Y-42130252D01*
X92326450Y-42122315D01*
X92143954Y-42024768D01*
X91945934Y-41964700D01*
X91945932Y-41964699D01*
X91945934Y-41964699D01*
X91740000Y-41944417D01*
X91534067Y-41964699D01*
X91399736Y-42005448D01*
X91344476Y-42022211D01*
X91336043Y-42024769D01*
X91299128Y-42044501D01*
X91153550Y-42122315D01*
X91153548Y-42122316D01*
X91153547Y-42122317D01*
X90993589Y-42253589D01*
X90862317Y-42413547D01*
X90764769Y-42596043D01*
X90704699Y-42794067D01*
X90684417Y-43000000D01*
X90704699Y-43205932D01*
X90704700Y-43205934D01*
X90764768Y-43403954D01*
X90862315Y-43586450D01*
X90862317Y-43586452D01*
X90993589Y-43746410D01*
X91066876Y-43806554D01*
X91153550Y-43877685D01*
X91336046Y-43975232D01*
X91534066Y-44035300D01*
X91534065Y-44035300D01*
X91552529Y-44037118D01*
X91740000Y-44055583D01*
X91945934Y-44035300D01*
X92027353Y-44010601D01*
X92097219Y-44009978D01*
X92156332Y-44047226D01*
X92185923Y-44110519D01*
X92176598Y-44179764D01*
X92151029Y-44216943D01*
X90281937Y-46086035D01*
X90281933Y-46086041D01*
X90239081Y-46160262D01*
X90239080Y-46160262D01*
X90228284Y-46200560D01*
X90216900Y-46243045D01*
X90216900Y-59733866D01*
X90197215Y-59800905D01*
X90144411Y-59846660D01*
X90075253Y-59856604D01*
X90021777Y-59835441D01*
X89847392Y-59713335D01*
X89847388Y-59713333D01*
X89649159Y-59620898D01*
X89649150Y-59620894D01*
X89437894Y-59564289D01*
X89437885Y-59564287D01*
X89370000Y-59558347D01*
X89370000Y-60322554D01*
X89285826Y-60300000D01*
X89154174Y-60300000D01*
X89070000Y-60322554D01*
X89070000Y-59558348D01*
X89069999Y-59558347D01*
X89002114Y-59564287D01*
X89002105Y-59564289D01*
X88790849Y-59620894D01*
X88790840Y-59620898D01*
X88592612Y-59713333D01*
X88592608Y-59713336D01*
X88520323Y-59763950D01*
X88454117Y-59786277D01*
X88386349Y-59769267D01*
X88338537Y-59718318D01*
X88325200Y-59662375D01*
X88325200Y-44151628D01*
X88344885Y-44084589D01*
X88397689Y-44038834D01*
X88466847Y-44028890D01*
X88520325Y-44050054D01*
X88572611Y-44086666D01*
X88770840Y-44179101D01*
X88770849Y-44179105D01*
X88982110Y-44235711D01*
X89050000Y-44241650D01*
X89050000Y-43477445D01*
X89134174Y-43500000D01*
X89265826Y-43500000D01*
X89350000Y-43477445D01*
X89350000Y-44241650D01*
X89417887Y-44235711D01*
X89417891Y-44235711D01*
X89629150Y-44179105D01*
X89629159Y-44179101D01*
X89827387Y-44086666D01*
X90006554Y-43961212D01*
X90161212Y-43806554D01*
X90286666Y-43627387D01*
X90379101Y-43429159D01*
X90379105Y-43429150D01*
X90435710Y-43217894D01*
X90435712Y-43217885D01*
X90441652Y-43150000D01*
X89677445Y-43150000D01*
X89700000Y-43065826D01*
X89700000Y-42934174D01*
X89677445Y-42850000D01*
X90441652Y-42850000D01*
X90441652Y-42849999D01*
X90435712Y-42782114D01*
X90435710Y-42782105D01*
X90379105Y-42570849D01*
X90379101Y-42570840D01*
X90286666Y-42372612D01*
X90286664Y-42372608D01*
X90161216Y-42193450D01*
X90161211Y-42193444D01*
X90006554Y-42038787D01*
X89827387Y-41913333D01*
X89629159Y-41820898D01*
X89629150Y-41820894D01*
X89417894Y-41764289D01*
X89417885Y-41764287D01*
X89350000Y-41758347D01*
X89350000Y-42522554D01*
X89265826Y-42500000D01*
X89134174Y-42500000D01*
X89050000Y-42522554D01*
X89050000Y-41758348D01*
X89049999Y-41758347D01*
X88982114Y-41764287D01*
X88982105Y-41764289D01*
X88770849Y-41820894D01*
X88770840Y-41820898D01*
X88572612Y-41913333D01*
X88572608Y-41913336D01*
X88520323Y-41949946D01*
X88454117Y-41972273D01*
X88386349Y-41955262D01*
X88338537Y-41904314D01*
X88325200Y-41848371D01*
X88325200Y-41218489D01*
X88344885Y-41151450D01*
X88361519Y-41130808D01*
X89633508Y-39858819D01*
X89694831Y-39825334D01*
X89721189Y-39822500D01*
X98663390Y-39822500D01*
X98730429Y-39842185D01*
G37*
G04 #@! TD.AperFunction*
G04 #@! TA.AperFunction,Conductor*
G36*
X93447403Y-43644193D02*
G01*
X93462050Y-43659238D01*
X93471594Y-43670867D01*
X93533589Y-43746410D01*
X93606876Y-43806554D01*
X93693550Y-43877685D01*
X93823150Y-43946958D01*
X93872993Y-43995919D01*
X93888453Y-44064057D01*
X93864621Y-44129737D01*
X93852376Y-44143996D01*
X92761937Y-45234435D01*
X92761935Y-45234438D01*
X92719082Y-45308659D01*
X92696900Y-45391447D01*
X92696900Y-59947744D01*
X92677215Y-60014783D01*
X92624411Y-60060538D01*
X92555253Y-60070482D01*
X92494236Y-60043598D01*
X92382401Y-59951819D01*
X92346450Y-59922315D01*
X92163954Y-59824768D01*
X91965934Y-59764700D01*
X91965932Y-59764699D01*
X91965934Y-59764699D01*
X91760000Y-59744417D01*
X91554067Y-59764699D01*
X91356043Y-59824769D01*
X91173546Y-59922317D01*
X91070564Y-60006832D01*
X91006254Y-60034144D01*
X90937387Y-60022353D01*
X90885827Y-59975200D01*
X90867900Y-59910978D01*
X90867900Y-46472089D01*
X90887585Y-46405050D01*
X90904219Y-46384408D01*
X92017566Y-45271061D01*
X93177165Y-44111462D01*
X93220018Y-44037239D01*
X93242200Y-43954453D01*
X93242200Y-43868747D01*
X93242200Y-43737906D01*
X93261885Y-43670867D01*
X93314689Y-43625112D01*
X93383847Y-43615168D01*
X93447403Y-43644193D01*
G37*
G04 #@! TD.AperFunction*
G04 #@! TD*
M02*
