G04 #@! TF.GenerationSoftware,KiCad,Pcbnew,8.0.5*
G04 #@! TF.CreationDate,2024-10-04T03:51:19+02:00*
G04 #@! TF.ProjectId,SD-10005v,53442d31-3030-4303-9576-2e6b69636164,rev?*
G04 #@! TF.SameCoordinates,Original*
G04 #@! TF.FileFunction,Copper,L2,Bot*
G04 #@! TF.FilePolarity,Positive*
%FSLAX46Y46*%
G04 Gerber Fmt 4.6, Leading zero omitted, Abs format (unit mm)*
G04 Created by KiCad (PCBNEW 8.0.5) date 2024-10-04 03:51:19*
%MOMM*%
%LPD*%
G01*
G04 APERTURE LIST*
G04 Aperture macros list*
%AMRoundRect*
0 Rectangle with rounded corners*
0 $1 Rounding radius*
0 $2 $3 $4 $5 $6 $7 $8 $9 X,Y pos of 4 corners*
0 Add a 4 corners polygon primitive as box body*
4,1,4,$2,$3,$4,$5,$6,$7,$8,$9,$2,$3,0*
0 Add four circle primitives for the rounded corners*
1,1,$1+$1,$2,$3*
1,1,$1+$1,$4,$5*
1,1,$1+$1,$6,$7*
1,1,$1+$1,$8,$9*
0 Add four rect primitives between the rounded corners*
20,1,$1+$1,$2,$3,$4,$5,0*
20,1,$1+$1,$4,$5,$6,$7,0*
20,1,$1+$1,$6,$7,$8,$9,0*
20,1,$1+$1,$8,$9,$2,$3,0*%
G04 Aperture macros list end*
G04 #@! TA.AperFunction,ComponentPad*
%ADD10R,1.700000X1.700000*%
G04 #@! TD*
G04 #@! TA.AperFunction,ComponentPad*
%ADD11O,1.700000X1.700000*%
G04 #@! TD*
G04 #@! TA.AperFunction,ComponentPad*
%ADD12R,1.600000X1.600000*%
G04 #@! TD*
G04 #@! TA.AperFunction,ComponentPad*
%ADD13O,1.600000X1.600000*%
G04 #@! TD*
G04 #@! TA.AperFunction,ComponentPad*
%ADD14C,2.000000*%
G04 #@! TD*
G04 #@! TA.AperFunction,ConnectorPad*
%ADD15RoundRect,0.500000X-0.500000X-5.000000X0.500000X-5.000000X0.500000X5.000000X-0.500000X5.000000X0*%
G04 #@! TD*
G04 #@! TA.AperFunction,ViaPad*
%ADD16C,0.800000*%
G04 #@! TD*
G04 #@! TA.AperFunction,Conductor*
%ADD17C,0.250000*%
G04 #@! TD*
G04 #@! TA.AperFunction,Conductor*
%ADD18C,0.254000*%
G04 #@! TD*
G04 APERTURE END LIST*
D10*
G04 #@! TO.P,J1,1,Pin_1*
G04 #@! TO.N,A0*
X76520000Y-60800000D03*
D11*
G04 #@! TO.P,J1,2,Pin_2*
G04 #@! TO.N,A1*
X79060000Y-60800000D03*
G04 #@! TO.P,J1,3,Pin_3*
G04 #@! TO.N,A2*
X81600000Y-60800000D03*
G04 #@! TO.P,J1,4,Pin_4*
G04 #@! TO.N,A3*
X84140000Y-60800000D03*
G04 #@! TO.P,J1,5,Pin_5*
G04 #@! TO.N,A4*
X86680000Y-60800000D03*
G04 #@! TO.P,J1,6,Pin_6*
G04 #@! TO.N,GND*
X89220000Y-60800000D03*
G04 #@! TO.P,J1,7,Pin_7*
G04 #@! TO.N,A5*
X91760000Y-60800000D03*
G04 #@! TO.P,J1,8,Pin_8*
G04 #@! TO.N,A6*
X94300000Y-60800000D03*
G04 #@! TO.P,J1,9,Pin_9*
G04 #@! TO.N,A7*
X96840000Y-60800000D03*
G04 #@! TO.P,J1,10,Pin_10*
G04 #@! TO.N,A8*
X99380000Y-60800000D03*
G04 #@! TO.P,J1,11,Pin_11*
G04 #@! TO.N,A9*
X101920000Y-60800000D03*
G04 #@! TO.P,J1,12,Pin_12*
G04 #@! TO.N,A10*
X104460000Y-60800000D03*
G04 #@! TO.P,J1,13,Pin_13*
G04 #@! TO.N,A11*
X107000000Y-60800000D03*
G04 #@! TO.P,J1,14,Pin_14*
G04 #@! TO.N,A12*
X109540000Y-60800000D03*
G04 #@! TO.P,J1,15,Pin_15*
G04 #@! TO.N,GND*
X112080000Y-60800000D03*
G04 #@! TO.P,J1,16,Pin_16*
G04 #@! TO.N,A13*
X114620000Y-60800000D03*
G04 #@! TO.P,J1,17,Pin_17*
G04 #@! TO.N,A14*
X117160000Y-60800000D03*
G04 #@! TO.P,J1,18,Pin_18*
G04 #@! TO.N,A15*
X119700000Y-60800000D03*
G04 #@! TO.P,J1,19,Pin_19*
G04 #@! TO.N,D0*
X122240000Y-60800000D03*
G04 #@! TO.P,J1,20,Pin_20*
G04 #@! TO.N,D1*
X124780000Y-60800000D03*
G04 #@! TD*
D12*
G04 #@! TO.P,D1,1,K*
G04 #@! TO.N,Net-(D1-K)*
X78359000Y-36830000D03*
D13*
G04 #@! TO.P,D1,2,A*
G04 #@! TO.N,+5V*
X85979000Y-36830000D03*
G04 #@! TD*
D10*
G04 #@! TO.P,J2,1,Pin_1*
G04 #@! TO.N,unconnected-(J2-Pin_1-Pad1)*
X76500000Y-43000000D03*
D11*
G04 #@! TO.P,J2,2,Pin_2*
G04 #@! TO.N,Net-(D1-K)*
X79040000Y-43000000D03*
G04 #@! TO.P,J2,3,Pin_3*
G04 #@! TO.N,GND*
X81580000Y-43000000D03*
G04 #@! TO.P,J2,4,Pin_4*
G04 #@! TO.N,unconnected-(J2-Pin_4-Pad4)*
X84120000Y-43000000D03*
G04 #@! TO.P,J2,5,Pin_5*
G04 #@! TO.N,unconnected-(J2-Pin_5-Pad5)*
X86660000Y-43000000D03*
G04 #@! TO.P,J2,6,Pin_6*
G04 #@! TO.N,GND*
X89200000Y-43000000D03*
G04 #@! TO.P,J2,7,Pin_7*
G04 #@! TO.N,RST*
X91740000Y-43000000D03*
G04 #@! TO.P,J2,8,Pin_8*
G04 #@! TO.N,~{IOR}*
X94280000Y-43000000D03*
G04 #@! TO.P,J2,9,Pin_9*
G04 #@! TO.N,~{DSRAM}*
X96820000Y-43000000D03*
G04 #@! TO.P,J2,10,Pin_10*
G04 #@! TO.N,~{CEROM2}*
X99360000Y-43000000D03*
G04 #@! TO.P,J2,11,Pin_11*
G04 #@! TO.N,~{MREQ}*
X101900000Y-43000000D03*
G04 #@! TO.P,J2,12,Pin_12*
G04 #@! TO.N,GND*
X104440000Y-43000000D03*
G04 #@! TO.P,J2,13,Pin_13*
G04 #@! TO.N,~{MEMW}*
X106980000Y-43000000D03*
G04 #@! TO.P,J2,14,Pin_14*
G04 #@! TO.N,~{MEMR}*
X109520000Y-43000000D03*
G04 #@! TO.P,J2,15,Pin_15*
G04 #@! TO.N,D7*
X112060000Y-43000000D03*
G04 #@! TO.P,J2,16,Pin_16*
G04 #@! TO.N,D6*
X114600000Y-43000000D03*
G04 #@! TO.P,J2,17,Pin_17*
G04 #@! TO.N,D5*
X117140000Y-43000000D03*
G04 #@! TO.P,J2,18,Pin_18*
G04 #@! TO.N,D4*
X119680000Y-43000000D03*
G04 #@! TO.P,J2,19,Pin_19*
G04 #@! TO.N,D3*
X122220000Y-43000000D03*
G04 #@! TO.P,J2,20,Pin_20*
G04 #@! TO.N,D2*
X124760000Y-43000000D03*
G04 #@! TD*
D14*
G04 #@! TO.P,SW1,1,1*
G04 #@! TO.N,RST*
X131500000Y-35200000D03*
X138000000Y-35200000D03*
G04 #@! TO.P,SW1,2,2*
G04 #@! TO.N,GND*
X131500000Y-39700000D03*
X138000000Y-39700000D03*
G04 #@! TD*
D15*
G04 #@! TO.P,CON1,A1,A0*
G04 #@! TO.N,A0*
X74500000Y-116900000D03*
G04 #@! TO.P,CON1,A2,A1*
G04 #@! TO.N,A1*
X77680000Y-116900000D03*
G04 #@! TO.P,CON1,A3,A2*
G04 #@! TO.N,A2*
X80860000Y-116900000D03*
G04 #@! TO.P,CON1,A4,A3*
G04 #@! TO.N,A3*
X84040000Y-116900000D03*
G04 #@! TO.P,CON1,A5,A4*
G04 #@! TO.N,A4*
X87220000Y-116900000D03*
G04 #@! TO.P,CON1,A6,A5*
G04 #@! TO.N,A5*
X90400000Y-116900000D03*
G04 #@! TO.P,CON1,A7,A6*
G04 #@! TO.N,A6*
X93580000Y-116900000D03*
G04 #@! TO.P,CON1,A8,A7*
G04 #@! TO.N,A7*
X96760000Y-116900000D03*
G04 #@! TO.P,CON1,A9,A8*
G04 #@! TO.N,A8*
X99940000Y-116900000D03*
G04 #@! TO.P,CON1,A10,A9*
G04 #@! TO.N,A9*
X103120000Y-116900000D03*
G04 #@! TO.P,CON1,A11,A10*
G04 #@! TO.N,A10*
X106300000Y-116900000D03*
G04 #@! TO.P,CON1,A12,A11*
G04 #@! TO.N,A11*
X109480000Y-116900000D03*
G04 #@! TO.P,CON1,A13,A12*
G04 #@! TO.N,A12*
X112660000Y-116900000D03*
G04 #@! TO.P,CON1,A14,A13*
G04 #@! TO.N,A13*
X115840000Y-116900000D03*
G04 #@! TO.P,CON1,A15,D0*
G04 #@! TO.N,D0*
X119020000Y-116900000D03*
G04 #@! TO.P,CON1,A16,D1*
G04 #@! TO.N,D1*
X122200000Y-116900000D03*
G04 #@! TO.P,CON1,A17,D2*
G04 #@! TO.N,D2*
X125380000Y-116900000D03*
G04 #@! TO.P,CON1,A18,D3*
G04 #@! TO.N,D3*
X128560000Y-116900000D03*
G04 #@! TO.P,CON1,A19,D4*
G04 #@! TO.N,D4*
X131740000Y-116900000D03*
G04 #@! TO.P,CON1,A20,D5*
G04 #@! TO.N,D5*
X134920000Y-116900000D03*
G04 #@! TO.P,CON1,A21,D6*
G04 #@! TO.N,D6*
X138100000Y-116900000D03*
G04 #@! TO.P,CON1,A22,D7*
G04 #@! TO.N,D7*
X141280000Y-116900000D03*
G04 #@! TD*
D16*
G04 #@! TO.N,GND*
X124206000Y-45339000D03*
X121158000Y-45339000D03*
X118491000Y-45339000D03*
X115951000Y-45339000D03*
X142875000Y-110109000D03*
X139700000Y-110109000D03*
X133223000Y-110109000D03*
X130048000Y-110109000D03*
X126873000Y-110109000D03*
X123698000Y-110109000D03*
X72898000Y-110109000D03*
X79248000Y-110109000D03*
X120523000Y-110109000D03*
X117348000Y-110109000D03*
X114173000Y-110109000D03*
X111125000Y-110109000D03*
X107823000Y-110109000D03*
X104775000Y-110109000D03*
X101473000Y-110109000D03*
X98298000Y-110109000D03*
X95250000Y-110109000D03*
X91948000Y-110109000D03*
X88773000Y-110109000D03*
X85725000Y-110109000D03*
X82423000Y-110109000D03*
X85344000Y-97409000D03*
X82423000Y-99822000D03*
G04 #@! TO.N,A1*
X77037200Y-110477600D03*
G04 #@! TO.N,D2*
X130407900Y-100533400D03*
G04 #@! TO.N,D3*
X124079000Y-46863000D03*
G04 #@! TO.N,D4*
X125349000Y-48260000D03*
G04 #@! TO.N,D5*
X134920000Y-108077000D03*
G04 #@! TO.N,D6*
X137447200Y-110016600D03*
G04 #@! TO.N,D7*
X127000000Y-54864000D03*
G04 #@! TO.N,~{MEMW}*
X90400000Y-64389000D03*
G04 #@! TO.N,~{CEROM2}*
X99314000Y-39624000D03*
G04 #@! TO.N,GND*
X118364000Y-63500000D03*
X91948000Y-46609000D03*
X104648000Y-63500000D03*
X113284000Y-45339000D03*
X95123000Y-63500000D03*
X107188000Y-63500000D03*
X75692000Y-64516000D03*
X133223000Y-66548000D03*
X125222000Y-63500000D03*
X122047000Y-63500000D03*
X109728000Y-63500000D03*
X96647000Y-38227000D03*
X98298000Y-63500000D03*
X113411000Y-63500000D03*
X101600000Y-63500000D03*
G04 #@! TO.N,~{DSRAM}*
X94996000Y-53340000D03*
X87421000Y-64389000D03*
X125857000Y-36957000D03*
G04 #@! TD*
D17*
G04 #@! TO.N,D3*
X128560000Y-106426000D02*
X128560000Y-116900000D01*
D18*
X131174600Y-89772600D02*
X132080000Y-90678000D01*
X132080000Y-90678000D02*
X132080000Y-102906000D01*
X132080000Y-102906000D02*
X128560000Y-106426000D01*
G04 #@! TO.N,D4*
X131740000Y-87872200D02*
X133223000Y-89355200D01*
X133223000Y-89355200D02*
X133223000Y-105537000D01*
X133223000Y-105537000D02*
X131740000Y-107020000D01*
X131740000Y-107020000D02*
X131740000Y-116900000D01*
D17*
G04 #@! TO.N,D5*
X134920000Y-108077000D02*
X134920000Y-116900000D01*
G04 #@! TO.N,D7*
X127000000Y-54864000D02*
X141280000Y-69144000D01*
X141280000Y-69144000D02*
X141280000Y-116900000D01*
G04 #@! TO.N,~{CEROM2}*
X99314000Y-39624000D02*
X99360000Y-39670000D01*
X99360000Y-39670000D02*
X99360000Y-43000000D01*
G04 #@! TO.N,~{DSRAM}*
X96820000Y-43000000D02*
X96820000Y-39578000D01*
X125730000Y-36830000D02*
X125857000Y-36957000D01*
X96820000Y-39578000D02*
X99568000Y-36830000D01*
X99568000Y-36830000D02*
X125730000Y-36830000D01*
D18*
G04 #@! TO.N,A2*
X80860000Y-116900000D02*
X80860000Y-80098000D01*
X78232000Y-65344700D02*
X78685497Y-64891203D01*
X80860000Y-80098000D02*
X78232000Y-77470000D01*
X78232000Y-77470000D02*
X78232000Y-65344700D01*
D17*
X78685497Y-64891203D02*
X81600000Y-61976700D01*
X81600000Y-61976700D02*
X81600000Y-60800000D01*
G04 #@! TO.N,A5*
X91760000Y-96266000D02*
X91760000Y-61976700D01*
D18*
X91760000Y-96266000D02*
X90400000Y-97626000D01*
X90400000Y-97626000D02*
X90400000Y-116900000D01*
D17*
G04 #@! TO.N,A4*
X86680000Y-61976700D02*
X86680000Y-102743000D01*
D18*
X86680000Y-102743000D02*
X87220000Y-103283000D01*
X87220000Y-103283000D02*
X87220000Y-116900000D01*
D17*
G04 #@! TO.N,A3*
X85504700Y-63341400D02*
X85504700Y-78740000D01*
D18*
X85504700Y-78740000D02*
X84040000Y-80204700D01*
X84040000Y-80204700D02*
X84040000Y-116900000D01*
D17*
X84140000Y-60800000D02*
X84140000Y-61976700D01*
X84140000Y-61976700D02*
X85504700Y-63341400D01*
G04 #@! TO.N,A0*
X74500000Y-63996700D02*
X76520000Y-61976700D01*
X76520000Y-60800000D02*
X76520000Y-61976700D01*
X74500000Y-116900000D02*
X74500000Y-63996700D01*
G04 #@! TO.N,A1*
X77680000Y-111120400D02*
X77037200Y-110477600D01*
X77680000Y-116900000D02*
X77680000Y-111120400D01*
G04 #@! TO.N,A4*
X86680000Y-60800000D02*
X86680000Y-61976700D01*
G04 #@! TO.N,A5*
X91760000Y-60800000D02*
X91760000Y-61976700D01*
G04 #@! TO.N,A6*
X93580000Y-62696700D02*
X94300000Y-61976700D01*
X94300000Y-60800000D02*
X94300000Y-61976700D01*
X93580000Y-116900000D02*
X93580000Y-62696700D01*
G04 #@! TO.N,A7*
X96760000Y-116900000D02*
X96840000Y-116820000D01*
X96840000Y-116820000D02*
X96840000Y-60800000D01*
G04 #@! TO.N,A8*
X99940000Y-116900000D02*
X99940000Y-62536700D01*
X99940000Y-62536700D02*
X99380000Y-61976700D01*
X99380000Y-60800000D02*
X99380000Y-61976700D01*
G04 #@! TO.N,A9*
X101920000Y-60800000D02*
X101920000Y-61976700D01*
X103120000Y-63176700D02*
X101920000Y-61976700D01*
X103120000Y-116900000D02*
X103120000Y-63176700D01*
G04 #@! TO.N,A10*
X106300000Y-116900000D02*
X106300000Y-63816700D01*
X104460000Y-60800000D02*
X104460000Y-61976700D01*
X106300000Y-63816700D02*
X104460000Y-61976700D01*
G04 #@! TO.N,A11*
X109480000Y-116900000D02*
X109480000Y-64456700D01*
X109480000Y-64456700D02*
X107000000Y-61976700D01*
X107000000Y-60800000D02*
X107000000Y-61976700D01*
G04 #@! TO.N,A12*
X112660000Y-65096700D02*
X109540000Y-61976700D01*
X112660000Y-116900000D02*
X112660000Y-65096700D01*
X109540000Y-60800000D02*
X109540000Y-61976700D01*
G04 #@! TO.N,A13*
X114620000Y-60800000D02*
X114620000Y-61976700D01*
X115840000Y-63196700D02*
X114620000Y-61976700D01*
X115840000Y-116900000D02*
X115840000Y-63196700D01*
G04 #@! TO.N,D0*
X119020000Y-116900000D02*
X119020000Y-65196700D01*
X119020000Y-65196700D02*
X122240000Y-61976700D01*
X122240000Y-60800000D02*
X122240000Y-61976700D01*
G04 #@! TO.N,D1*
X124780000Y-60800000D02*
X124780000Y-61976700D01*
X122200000Y-116900000D02*
X122200000Y-64556700D01*
X122200000Y-64556700D02*
X124780000Y-61976700D01*
G04 #@! TO.N,D2*
X125380000Y-105561300D02*
X130407900Y-100533400D01*
X125380000Y-116900000D02*
X125380000Y-105561300D01*
G04 #@! TO.N,D6*
X138100000Y-116900000D02*
X137447200Y-116247200D01*
X137447200Y-116247200D02*
X137447200Y-110016600D01*
G04 #@! TO.N,~{MEMW}*
X90400000Y-64389000D02*
X90400000Y-60480200D01*
X90400000Y-60480200D02*
X106980000Y-43900200D01*
X106980000Y-43900200D02*
X106980000Y-43000000D01*
G04 #@! TO.N,~{DSRAM}*
X87421000Y-64389000D02*
X87950000Y-63860000D01*
X87950000Y-63860000D02*
X87950000Y-60380800D01*
X87950000Y-60380800D02*
X94990800Y-53340000D01*
X94990800Y-53340000D02*
X94996000Y-53340000D01*
G04 #@! TO.N,RST*
X138000000Y-35200000D02*
X131500000Y-35200000D01*
X98277000Y-35200000D02*
X91740000Y-41737000D01*
X131500000Y-35200000D02*
X98277000Y-35200000D01*
X91740000Y-41737000D02*
X91740000Y-43000000D01*
G04 #@! TO.N,D3*
X124079000Y-46863000D02*
X124079000Y-55626000D01*
X124079000Y-55626000D02*
X127000000Y-58547000D01*
X127000000Y-85598000D02*
X131174600Y-89772600D01*
X127000000Y-58547000D02*
X127000000Y-85598000D01*
G04 #@! TO.N,D4*
X125349000Y-48260000D02*
X125349000Y-55118000D01*
X128564200Y-84696400D02*
X131740000Y-87872200D01*
X125349000Y-55118000D02*
X128564200Y-58333200D01*
X128564200Y-58333200D02*
X128564200Y-84696400D01*
G04 #@! TD*
G04 #@! TA.AperFunction,Conductor*
G04 #@! TO.N,GND*
G36*
X142001135Y-30913419D02*
G01*
X142135104Y-30915800D01*
X142150549Y-30917042D01*
X142416910Y-30955340D01*
X142434193Y-30959100D01*
X142691324Y-31034601D01*
X142707897Y-31040783D01*
X142951669Y-31152111D01*
X142967193Y-31160588D01*
X143192634Y-31305472D01*
X143206797Y-31316074D01*
X143409327Y-31491569D01*
X143421837Y-31504079D01*
X143597329Y-31706608D01*
X143607931Y-31720772D01*
X143752817Y-31946219D01*
X143761290Y-31961734D01*
X143872618Y-32205508D01*
X143878800Y-32222084D01*
X143954300Y-32479214D01*
X143958061Y-32496502D01*
X143996358Y-32762863D01*
X143997600Y-32778298D01*
X143999980Y-32911716D01*
X144000000Y-32913928D01*
X144000000Y-116843000D01*
X143980315Y-116910039D01*
X143927511Y-116955794D01*
X143876000Y-116967000D01*
X142604500Y-116967000D01*
X142537461Y-116947315D01*
X142491706Y-116894511D01*
X142480500Y-116843000D01*
X142480500Y-111843386D01*
X142474086Y-111772807D01*
X142474086Y-111772804D01*
X142423478Y-111610394D01*
X142335472Y-111464815D01*
X142335470Y-111464813D01*
X142335469Y-111464811D01*
X142215188Y-111344530D01*
X142069606Y-111256522D01*
X141977830Y-111227924D01*
X141907196Y-111205914D01*
X141907194Y-111205913D01*
X141907192Y-111205913D01*
X141857778Y-111201423D01*
X141836616Y-111199500D01*
X141836613Y-111199500D01*
X141729500Y-111199500D01*
X141662461Y-111179815D01*
X141616706Y-111127011D01*
X141605500Y-111075500D01*
X141605500Y-69196855D01*
X141605501Y-69196842D01*
X141605501Y-69101148D01*
X141605501Y-69101147D01*
X141583318Y-69018361D01*
X141561891Y-68981250D01*
X141540465Y-68944138D01*
X141479862Y-68883535D01*
X141479861Y-68883534D01*
X141475531Y-68879204D01*
X141475520Y-68879194D01*
X127632011Y-55035685D01*
X127598526Y-54974362D01*
X127596753Y-54931818D01*
X127605682Y-54864000D01*
X127605682Y-54863998D01*
X127585044Y-54707239D01*
X127585044Y-54707238D01*
X127524536Y-54561159D01*
X127428282Y-54435718D01*
X127302841Y-54339464D01*
X127156762Y-54278956D01*
X127156760Y-54278955D01*
X127000001Y-54258318D01*
X126999999Y-54258318D01*
X126843239Y-54278955D01*
X126843237Y-54278956D01*
X126697160Y-54339463D01*
X126571718Y-54435718D01*
X126475463Y-54561160D01*
X126414956Y-54707237D01*
X126414955Y-54707239D01*
X126394318Y-54863998D01*
X126394318Y-54864001D01*
X126414955Y-55020760D01*
X126414956Y-55020762D01*
X126475464Y-55166841D01*
X126571718Y-55292282D01*
X126697159Y-55388536D01*
X126843238Y-55449044D01*
X126871548Y-55452771D01*
X126999999Y-55469682D01*
X127000000Y-55469682D01*
X127000001Y-55469682D01*
X127035708Y-55464980D01*
X127067818Y-55460753D01*
X127136853Y-55471518D01*
X127171685Y-55496011D01*
X140918181Y-69242507D01*
X140951666Y-69303830D01*
X140954500Y-69330188D01*
X140954500Y-111075500D01*
X140934815Y-111142539D01*
X140882011Y-111188294D01*
X140830500Y-111199500D01*
X140723384Y-111199500D01*
X140704145Y-111201248D01*
X140652807Y-111205913D01*
X140490393Y-111256522D01*
X140344811Y-111344530D01*
X140224530Y-111464811D01*
X140136522Y-111610393D01*
X140085913Y-111772807D01*
X140079500Y-111843386D01*
X140079500Y-116843000D01*
X140059815Y-116910039D01*
X140007011Y-116955794D01*
X139955500Y-116967000D01*
X139424500Y-116967000D01*
X139357461Y-116947315D01*
X139311706Y-116894511D01*
X139300500Y-116843000D01*
X139300500Y-111843386D01*
X139294086Y-111772807D01*
X139294086Y-111772804D01*
X139243478Y-111610394D01*
X139155472Y-111464815D01*
X139155470Y-111464813D01*
X139155469Y-111464811D01*
X139035188Y-111344530D01*
X138889606Y-111256522D01*
X138797830Y-111227924D01*
X138727196Y-111205914D01*
X138727194Y-111205913D01*
X138727192Y-111205913D01*
X138677778Y-111201423D01*
X138656616Y-111199500D01*
X138656613Y-111199500D01*
X137896700Y-111199500D01*
X137829661Y-111179815D01*
X137783906Y-111127011D01*
X137772700Y-111075500D01*
X137772700Y-110584898D01*
X137792385Y-110517859D01*
X137821210Y-110486525D01*
X137875482Y-110444882D01*
X137971736Y-110319441D01*
X138032244Y-110173362D01*
X138052882Y-110016600D01*
X138032244Y-109859838D01*
X137971736Y-109713759D01*
X137875482Y-109588318D01*
X137750041Y-109492064D01*
X137603962Y-109431556D01*
X137603960Y-109431555D01*
X137447201Y-109410918D01*
X137447199Y-109410918D01*
X137290439Y-109431555D01*
X137290437Y-109431556D01*
X137144360Y-109492063D01*
X137018918Y-109588318D01*
X136922663Y-109713760D01*
X136862156Y-109859837D01*
X136862155Y-109859839D01*
X136841518Y-110016598D01*
X136841518Y-110016601D01*
X136862155Y-110173360D01*
X136862156Y-110173362D01*
X136922664Y-110319441D01*
X137018918Y-110444882D01*
X137073187Y-110486524D01*
X137114389Y-110542949D01*
X137121700Y-110584898D01*
X137121700Y-111336280D01*
X137102015Y-111403319D01*
X137085381Y-111423961D01*
X137044531Y-111464810D01*
X137044530Y-111464811D01*
X136956522Y-111610393D01*
X136905913Y-111772807D01*
X136899500Y-111843386D01*
X136899500Y-116843000D01*
X136879815Y-116910039D01*
X136827011Y-116955794D01*
X136775500Y-116967000D01*
X136244500Y-116967000D01*
X136177461Y-116947315D01*
X136131706Y-116894511D01*
X136120500Y-116843000D01*
X136120500Y-111843386D01*
X136114086Y-111772807D01*
X136114086Y-111772804D01*
X136063478Y-111610394D01*
X135975472Y-111464815D01*
X135975470Y-111464813D01*
X135975469Y-111464811D01*
X135855188Y-111344530D01*
X135709606Y-111256522D01*
X135617830Y-111227924D01*
X135547196Y-111205914D01*
X135547194Y-111205913D01*
X135547192Y-111205913D01*
X135497778Y-111201423D01*
X135476616Y-111199500D01*
X135476613Y-111199500D01*
X135369500Y-111199500D01*
X135302461Y-111179815D01*
X135256706Y-111127011D01*
X135245500Y-111075500D01*
X135245500Y-108645298D01*
X135265185Y-108578259D01*
X135294010Y-108546925D01*
X135348282Y-108505282D01*
X135444536Y-108379841D01*
X135505044Y-108233762D01*
X135525682Y-108077000D01*
X135505044Y-107920238D01*
X135444536Y-107774159D01*
X135348282Y-107648718D01*
X135222841Y-107552464D01*
X135076762Y-107491956D01*
X135076760Y-107491955D01*
X134920001Y-107471318D01*
X134919999Y-107471318D01*
X134763239Y-107491955D01*
X134763237Y-107491956D01*
X134617160Y-107552463D01*
X134491718Y-107648718D01*
X134395463Y-107774160D01*
X134334956Y-107920237D01*
X134334955Y-107920239D01*
X134314318Y-108076998D01*
X134314318Y-108077001D01*
X134334955Y-108233760D01*
X134334956Y-108233762D01*
X134395464Y-108379841D01*
X134491718Y-108505282D01*
X134545987Y-108546924D01*
X134587189Y-108603349D01*
X134594500Y-108645298D01*
X134594500Y-111075500D01*
X134574815Y-111142539D01*
X134522011Y-111188294D01*
X134470500Y-111199500D01*
X134363384Y-111199500D01*
X134344145Y-111201248D01*
X134292807Y-111205913D01*
X134130393Y-111256522D01*
X133984811Y-111344530D01*
X133864530Y-111464811D01*
X133776522Y-111610393D01*
X133725913Y-111772807D01*
X133719500Y-111843386D01*
X133719500Y-116843000D01*
X133699815Y-116910039D01*
X133647011Y-116955794D01*
X133595500Y-116967000D01*
X133064500Y-116967000D01*
X132997461Y-116947315D01*
X132951706Y-116894511D01*
X132940500Y-116843000D01*
X132940500Y-111843386D01*
X132934086Y-111772807D01*
X132934086Y-111772804D01*
X132883478Y-111610394D01*
X132795472Y-111464815D01*
X132795470Y-111464813D01*
X132795469Y-111464811D01*
X132675188Y-111344530D01*
X132529606Y-111256522D01*
X132437830Y-111227924D01*
X132367196Y-111205914D01*
X132367194Y-111205913D01*
X132367192Y-111205913D01*
X132317778Y-111201423D01*
X132296616Y-111199500D01*
X132296613Y-111199500D01*
X132191500Y-111199500D01*
X132124461Y-111179815D01*
X132078706Y-111127011D01*
X132067500Y-111075500D01*
X132067500Y-107207017D01*
X132087185Y-107139978D01*
X132103819Y-107119336D01*
X132754039Y-106469116D01*
X133485065Y-105738090D01*
X133528181Y-105663410D01*
X133550500Y-105580116D01*
X133550500Y-105493884D01*
X133550500Y-89312084D01*
X133528181Y-89228790D01*
X133485065Y-89154110D01*
X133424090Y-89093135D01*
X131941090Y-87610135D01*
X131941086Y-87610132D01*
X131935376Y-87605751D01*
X131923186Y-87595059D01*
X128926019Y-84597892D01*
X128892534Y-84536569D01*
X128889700Y-84510211D01*
X128889700Y-74821831D01*
X131827497Y-74821831D01*
X131827497Y-75178168D01*
X131867391Y-75532238D01*
X131867393Y-75532250D01*
X131946683Y-75879644D01*
X131946684Y-75879646D01*
X132064371Y-76215978D01*
X132218974Y-76537014D01*
X132218976Y-76537017D01*
X132408554Y-76838729D01*
X132630721Y-77117317D01*
X132882683Y-77369279D01*
X133161271Y-77591446D01*
X133462983Y-77781024D01*
X133784023Y-77935629D01*
X134120355Y-78053316D01*
X134467749Y-78132607D01*
X134821832Y-78172502D01*
X134821833Y-78172503D01*
X135178164Y-78172503D01*
X135178167Y-78172503D01*
X135178167Y-78172502D01*
X135532251Y-78132607D01*
X135879645Y-78053316D01*
X136215977Y-77935629D01*
X136537017Y-77781024D01*
X136838729Y-77591446D01*
X137117317Y-77369279D01*
X137369279Y-77117317D01*
X137591446Y-76838729D01*
X137781024Y-76537017D01*
X137935629Y-76215977D01*
X138053316Y-75879645D01*
X138132607Y-75532251D01*
X138132608Y-75532239D01*
X138132609Y-75532236D01*
X138172502Y-75178169D01*
X138172503Y-75178164D01*
X138175000Y-75000000D01*
X138172503Y-74821836D01*
X138132608Y-74467761D01*
X138132608Y-74467758D01*
X138132607Y-74467749D01*
X138053316Y-74120355D01*
X137935629Y-73784023D01*
X137781024Y-73462983D01*
X137591446Y-73161271D01*
X137369279Y-72882683D01*
X137117317Y-72630721D01*
X136838729Y-72408554D01*
X136537017Y-72218976D01*
X136537014Y-72218974D01*
X136215978Y-72064371D01*
X135879646Y-71946684D01*
X135879644Y-71946683D01*
X135611541Y-71885490D01*
X135532251Y-71867393D01*
X135532247Y-71867392D01*
X135532238Y-71867391D01*
X135178168Y-71827497D01*
X135178164Y-71827497D01*
X134821836Y-71827497D01*
X134821831Y-71827497D01*
X134467761Y-71867391D01*
X134467749Y-71867393D01*
X134120355Y-71946683D01*
X134120353Y-71946684D01*
X133784021Y-72064371D01*
X133462985Y-72218974D01*
X133161272Y-72408553D01*
X132882683Y-72630720D01*
X132630720Y-72882683D01*
X132408553Y-73161272D01*
X132218974Y-73462985D01*
X132064371Y-73784021D01*
X131946684Y-74120353D01*
X131946683Y-74120355D01*
X131867393Y-74467749D01*
X131867391Y-74467761D01*
X131827497Y-74821831D01*
X128889700Y-74821831D01*
X128889700Y-58290349D01*
X128889700Y-58290347D01*
X128867518Y-58207562D01*
X128867514Y-58207555D01*
X128824669Y-58133344D01*
X128824663Y-58133336D01*
X125710819Y-55019492D01*
X125677334Y-54958169D01*
X125674500Y-54931811D01*
X125674500Y-48828298D01*
X125694185Y-48761259D01*
X125723010Y-48729925D01*
X125777282Y-48688282D01*
X125873536Y-48562841D01*
X125934044Y-48416762D01*
X125954682Y-48260000D01*
X125934044Y-48103238D01*
X125873536Y-47957159D01*
X125777282Y-47831718D01*
X125651841Y-47735464D01*
X125505762Y-47674956D01*
X125505760Y-47674955D01*
X125349001Y-47654318D01*
X125348999Y-47654318D01*
X125192239Y-47674955D01*
X125192237Y-47674956D01*
X125046160Y-47735463D01*
X124920718Y-47831718D01*
X124824463Y-47957160D01*
X124763956Y-48103237D01*
X124763955Y-48103239D01*
X124743318Y-48259998D01*
X124743318Y-48260001D01*
X124763955Y-48416760D01*
X124763956Y-48416762D01*
X124824464Y-48562841D01*
X124920718Y-48688282D01*
X124974987Y-48729924D01*
X125016189Y-48786349D01*
X125023500Y-48828298D01*
X125023500Y-55075147D01*
X125023500Y-55160853D01*
X125034591Y-55202246D01*
X125045682Y-55243640D01*
X125067108Y-55280750D01*
X125088535Y-55317862D01*
X125088537Y-55317864D01*
X128202381Y-58431708D01*
X128235866Y-58493031D01*
X128238700Y-58519389D01*
X128238700Y-84739252D01*
X128260882Y-84822040D01*
X128282308Y-84859150D01*
X128303735Y-84896262D01*
X128303737Y-84896264D01*
X131462859Y-88055386D01*
X131473551Y-88067576D01*
X131477932Y-88073286D01*
X131477935Y-88073290D01*
X131477938Y-88073293D01*
X132859181Y-89454536D01*
X132892666Y-89515859D01*
X132895500Y-89542217D01*
X132895500Y-105349983D01*
X132875815Y-105417022D01*
X132859181Y-105437664D01*
X131477936Y-106818908D01*
X131477934Y-106818911D01*
X131434819Y-106893589D01*
X131412500Y-106976885D01*
X131412500Y-111075500D01*
X131392815Y-111142539D01*
X131340011Y-111188294D01*
X131288500Y-111199500D01*
X131183384Y-111199500D01*
X131164145Y-111201248D01*
X131112807Y-111205913D01*
X130950393Y-111256522D01*
X130804811Y-111344530D01*
X130684530Y-111464811D01*
X130596522Y-111610393D01*
X130545913Y-111772807D01*
X130539500Y-111843386D01*
X130539500Y-116843000D01*
X130519815Y-116910039D01*
X130467011Y-116955794D01*
X130415500Y-116967000D01*
X129884500Y-116967000D01*
X129817461Y-116947315D01*
X129771706Y-116894511D01*
X129760500Y-116843000D01*
X129760500Y-111843386D01*
X129754086Y-111772807D01*
X129754086Y-111772804D01*
X129703478Y-111610394D01*
X129615472Y-111464815D01*
X129615470Y-111464813D01*
X129615469Y-111464811D01*
X129495188Y-111344530D01*
X129349606Y-111256522D01*
X129257830Y-111227924D01*
X129187196Y-111205914D01*
X129187194Y-111205913D01*
X129187192Y-111205913D01*
X129137778Y-111201423D01*
X129116616Y-111199500D01*
X129116613Y-111199500D01*
X129009500Y-111199500D01*
X128942461Y-111179815D01*
X128896706Y-111127011D01*
X128885500Y-111075500D01*
X128885500Y-106615017D01*
X128905185Y-106547978D01*
X128921819Y-106527336D01*
X130099172Y-105349983D01*
X132342065Y-103107090D01*
X132385181Y-103032410D01*
X132407500Y-102949116D01*
X132407500Y-102862884D01*
X132407500Y-90634884D01*
X132385181Y-90551590D01*
X132342065Y-90476910D01*
X132281090Y-90415935D01*
X131375690Y-89510535D01*
X131375686Y-89510532D01*
X131369976Y-89506151D01*
X131357786Y-89495459D01*
X127361819Y-85499492D01*
X127328334Y-85438169D01*
X127325500Y-85411811D01*
X127325500Y-58504149D01*
X127325500Y-58504147D01*
X127303318Y-58421362D01*
X127303318Y-58421361D01*
X127277158Y-58376052D01*
X127260465Y-58347138D01*
X127199862Y-58286535D01*
X127199861Y-58286534D01*
X127195531Y-58282204D01*
X127195520Y-58282194D01*
X124440819Y-55527492D01*
X124407334Y-55466169D01*
X124404500Y-55439811D01*
X124404500Y-47431298D01*
X124424185Y-47364259D01*
X124453010Y-47332925D01*
X124507282Y-47291282D01*
X124603536Y-47165841D01*
X124664044Y-47019762D01*
X124684682Y-46863000D01*
X124664044Y-46706238D01*
X124603536Y-46560159D01*
X124507282Y-46434718D01*
X124381841Y-46338464D01*
X124235762Y-46277956D01*
X124235760Y-46277955D01*
X124079001Y-46257318D01*
X124078999Y-46257318D01*
X123922239Y-46277955D01*
X123922237Y-46277956D01*
X123776160Y-46338463D01*
X123650718Y-46434718D01*
X123554463Y-46560160D01*
X123493956Y-46706237D01*
X123493955Y-46706239D01*
X123473318Y-46862998D01*
X123473318Y-46863001D01*
X123493955Y-47019760D01*
X123493956Y-47019762D01*
X123554464Y-47165841D01*
X123650718Y-47291282D01*
X123704987Y-47332924D01*
X123746189Y-47389349D01*
X123753500Y-47431298D01*
X123753500Y-55668852D01*
X123775682Y-55751640D01*
X123797108Y-55788750D01*
X123818535Y-55825862D01*
X123818536Y-55825863D01*
X123818537Y-55825864D01*
X126638181Y-58645507D01*
X126671666Y-58706830D01*
X126674500Y-58733188D01*
X126674500Y-85640852D01*
X126696682Y-85723640D01*
X126718108Y-85760750D01*
X126739535Y-85797862D01*
X126739537Y-85797864D01*
X130897459Y-89955786D01*
X130908151Y-89967976D01*
X130912532Y-89973686D01*
X130912535Y-89973690D01*
X130912538Y-89973693D01*
X131716181Y-90777336D01*
X131749666Y-90838659D01*
X131752500Y-90865017D01*
X131752500Y-102718983D01*
X131732815Y-102786022D01*
X131716181Y-102806664D01*
X128297936Y-106224908D01*
X128297934Y-106224911D01*
X128254819Y-106299589D01*
X128232500Y-106382885D01*
X128232500Y-106469116D01*
X128233439Y-106476248D01*
X128234500Y-106492435D01*
X128234500Y-111075500D01*
X128214815Y-111142539D01*
X128162011Y-111188294D01*
X128110500Y-111199500D01*
X128003384Y-111199500D01*
X127984145Y-111201248D01*
X127932807Y-111205913D01*
X127770393Y-111256522D01*
X127624811Y-111344530D01*
X127504530Y-111464811D01*
X127416522Y-111610393D01*
X127365913Y-111772807D01*
X127359500Y-111843386D01*
X127359500Y-116843000D01*
X127339815Y-116910039D01*
X127287011Y-116955794D01*
X127235500Y-116967000D01*
X126704500Y-116967000D01*
X126637461Y-116947315D01*
X126591706Y-116894511D01*
X126580500Y-116843000D01*
X126580500Y-111843386D01*
X126574086Y-111772807D01*
X126574086Y-111772804D01*
X126523478Y-111610394D01*
X126435472Y-111464815D01*
X126435470Y-111464813D01*
X126435469Y-111464811D01*
X126315188Y-111344530D01*
X126169606Y-111256522D01*
X126077830Y-111227924D01*
X126007196Y-111205914D01*
X126007194Y-111205913D01*
X126007192Y-111205913D01*
X125957778Y-111201423D01*
X125936616Y-111199500D01*
X125936613Y-111199500D01*
X125829500Y-111199500D01*
X125762461Y-111179815D01*
X125716706Y-111127011D01*
X125705500Y-111075500D01*
X125705500Y-105747488D01*
X125725185Y-105680449D01*
X125741814Y-105659812D01*
X130236216Y-101165409D01*
X130297537Y-101131926D01*
X130340081Y-101130153D01*
X130407899Y-101139082D01*
X130407900Y-101139082D01*
X130407901Y-101139082D01*
X130460154Y-101132202D01*
X130564662Y-101118444D01*
X130710741Y-101057936D01*
X130836182Y-100961682D01*
X130932436Y-100836241D01*
X130992944Y-100690162D01*
X131013582Y-100533400D01*
X130992944Y-100376638D01*
X130932436Y-100230559D01*
X130836182Y-100105118D01*
X130710741Y-100008864D01*
X130564662Y-99948356D01*
X130564660Y-99948355D01*
X130407901Y-99927718D01*
X130407899Y-99927718D01*
X130251139Y-99948355D01*
X130251137Y-99948356D01*
X130105060Y-100008863D01*
X129979618Y-100105118D01*
X129883363Y-100230560D01*
X129822856Y-100376637D01*
X129822855Y-100376639D01*
X129802218Y-100533398D01*
X129802218Y-100533401D01*
X129811146Y-100601217D01*
X129800380Y-100670252D01*
X129775888Y-100705083D01*
X125119537Y-105361435D01*
X125119533Y-105361441D01*
X125076681Y-105435661D01*
X125076682Y-105435662D01*
X125054500Y-105518447D01*
X125054500Y-111075500D01*
X125034815Y-111142539D01*
X124982011Y-111188294D01*
X124930500Y-111199500D01*
X124823384Y-111199500D01*
X124804145Y-111201248D01*
X124752807Y-111205913D01*
X124590393Y-111256522D01*
X124444811Y-111344530D01*
X124324530Y-111464811D01*
X124236522Y-111610393D01*
X124185913Y-111772807D01*
X124179500Y-111843386D01*
X124179500Y-116843000D01*
X124159815Y-116910039D01*
X124107011Y-116955794D01*
X124055500Y-116967000D01*
X123524500Y-116967000D01*
X123457461Y-116947315D01*
X123411706Y-116894511D01*
X123400500Y-116843000D01*
X123400500Y-111843386D01*
X123394086Y-111772807D01*
X123394086Y-111772804D01*
X123343478Y-111610394D01*
X123255472Y-111464815D01*
X123255470Y-111464813D01*
X123255469Y-111464811D01*
X123135188Y-111344530D01*
X122989606Y-111256522D01*
X122897830Y-111227924D01*
X122827196Y-111205914D01*
X122827194Y-111205913D01*
X122827192Y-111205913D01*
X122777778Y-111201423D01*
X122756616Y-111199500D01*
X122756613Y-111199500D01*
X122649500Y-111199500D01*
X122582461Y-111179815D01*
X122536706Y-111127011D01*
X122525500Y-111075500D01*
X122525500Y-64742889D01*
X122545185Y-64675850D01*
X122561819Y-64655208D01*
X123777119Y-63439908D01*
X125040465Y-62176562D01*
X125083318Y-62102339D01*
X125105500Y-62019553D01*
X125105500Y-61933847D01*
X125105500Y-61890583D01*
X125125185Y-61823544D01*
X125177989Y-61777789D01*
X125182049Y-61776021D01*
X125183945Y-61775234D01*
X125183954Y-61775232D01*
X125366450Y-61677685D01*
X125526410Y-61546410D01*
X125657685Y-61386450D01*
X125755232Y-61203954D01*
X125815300Y-61005934D01*
X125835583Y-60800000D01*
X125815300Y-60594066D01*
X125755232Y-60396046D01*
X125657685Y-60213550D01*
X125605702Y-60150209D01*
X125526410Y-60053589D01*
X125376121Y-59930252D01*
X125366450Y-59922315D01*
X125183954Y-59824768D01*
X124985934Y-59764700D01*
X124985932Y-59764699D01*
X124985934Y-59764699D01*
X124780000Y-59744417D01*
X124574067Y-59764699D01*
X124376043Y-59824769D01*
X124288114Y-59871769D01*
X124193550Y-59922315D01*
X124193548Y-59922316D01*
X124193547Y-59922317D01*
X124033589Y-60053589D01*
X123902317Y-60213547D01*
X123804769Y-60396043D01*
X123744699Y-60594067D01*
X123724417Y-60800000D01*
X123744699Y-61005932D01*
X123744700Y-61005934D01*
X123804768Y-61203954D01*
X123902315Y-61386450D01*
X123902317Y-61386452D01*
X124033589Y-61546410D01*
X124076708Y-61581796D01*
X124193550Y-61677685D01*
X124323150Y-61746958D01*
X124372993Y-61795919D01*
X124388453Y-61864057D01*
X124364621Y-61929737D01*
X124352376Y-61943996D01*
X121939537Y-64356835D01*
X121939533Y-64356841D01*
X121896681Y-64431061D01*
X121896682Y-64431062D01*
X121874500Y-64513847D01*
X121874500Y-111075500D01*
X121854815Y-111142539D01*
X121802011Y-111188294D01*
X121750500Y-111199500D01*
X121643384Y-111199500D01*
X121624145Y-111201248D01*
X121572807Y-111205913D01*
X121410393Y-111256522D01*
X121264811Y-111344530D01*
X121144530Y-111464811D01*
X121056522Y-111610393D01*
X121005913Y-111772807D01*
X120999500Y-111843386D01*
X120999500Y-116843000D01*
X120979815Y-116910039D01*
X120927011Y-116955794D01*
X120875500Y-116967000D01*
X120344500Y-116967000D01*
X120277461Y-116947315D01*
X120231706Y-116894511D01*
X120220500Y-116843000D01*
X120220500Y-111843386D01*
X120214086Y-111772807D01*
X120214086Y-111772804D01*
X120163478Y-111610394D01*
X120075472Y-111464815D01*
X120075470Y-111464813D01*
X120075469Y-111464811D01*
X119955188Y-111344530D01*
X119809606Y-111256522D01*
X119717830Y-111227924D01*
X119647196Y-111205914D01*
X119647194Y-111205913D01*
X119647192Y-111205913D01*
X119597778Y-111201423D01*
X119576616Y-111199500D01*
X119576613Y-111199500D01*
X119469500Y-111199500D01*
X119402461Y-111179815D01*
X119356706Y-111127011D01*
X119345500Y-111075500D01*
X119345500Y-65382887D01*
X119365185Y-65315848D01*
X119381814Y-65295211D01*
X122429652Y-62247372D01*
X122429657Y-62247369D01*
X122439860Y-62237165D01*
X122439862Y-62237165D01*
X122500465Y-62176562D01*
X122521891Y-62139450D01*
X122543318Y-62102339D01*
X122565501Y-62019553D01*
X122565501Y-61933847D01*
X122565501Y-61926252D01*
X122565500Y-61926234D01*
X122565500Y-61890583D01*
X122585185Y-61823544D01*
X122637989Y-61777789D01*
X122642049Y-61776021D01*
X122643945Y-61775234D01*
X122643954Y-61775232D01*
X122826450Y-61677685D01*
X122986410Y-61546410D01*
X123117685Y-61386450D01*
X123215232Y-61203954D01*
X123275300Y-61005934D01*
X123295583Y-60800000D01*
X123275300Y-60594066D01*
X123215232Y-60396046D01*
X123117685Y-60213550D01*
X123065702Y-60150209D01*
X122986410Y-60053589D01*
X122836121Y-59930252D01*
X122826450Y-59922315D01*
X122643954Y-59824768D01*
X122445934Y-59764700D01*
X122445932Y-59764699D01*
X122445934Y-59764699D01*
X122240000Y-59744417D01*
X122034067Y-59764699D01*
X121836043Y-59824769D01*
X121748114Y-59871769D01*
X121653550Y-59922315D01*
X121653548Y-59922316D01*
X121653547Y-59922317D01*
X121493589Y-60053589D01*
X121362317Y-60213547D01*
X121264769Y-60396043D01*
X121204699Y-60594067D01*
X121184417Y-60800000D01*
X121204699Y-61005932D01*
X121204700Y-61005934D01*
X121264768Y-61203954D01*
X121362315Y-61386450D01*
X121362317Y-61386452D01*
X121493589Y-61546410D01*
X121536708Y-61581796D01*
X121653550Y-61677685D01*
X121783150Y-61746958D01*
X121832993Y-61795919D01*
X121848453Y-61864057D01*
X121824621Y-61929737D01*
X121812376Y-61943996D01*
X118759537Y-64996835D01*
X118759533Y-64996841D01*
X118716681Y-65071061D01*
X118716682Y-65071062D01*
X118694500Y-65153847D01*
X118694500Y-111075500D01*
X118674815Y-111142539D01*
X118622011Y-111188294D01*
X118570500Y-111199500D01*
X118463384Y-111199500D01*
X118444145Y-111201248D01*
X118392807Y-111205913D01*
X118230393Y-111256522D01*
X118084811Y-111344530D01*
X117964530Y-111464811D01*
X117876522Y-111610393D01*
X117825913Y-111772807D01*
X117819500Y-111843386D01*
X117819500Y-116843000D01*
X117799815Y-116910039D01*
X117747011Y-116955794D01*
X117695500Y-116967000D01*
X117164500Y-116967000D01*
X117097461Y-116947315D01*
X117051706Y-116894511D01*
X117040500Y-116843000D01*
X117040500Y-111843386D01*
X117034086Y-111772807D01*
X117034086Y-111772804D01*
X116983478Y-111610394D01*
X116895472Y-111464815D01*
X116895470Y-111464813D01*
X116895469Y-111464811D01*
X116775188Y-111344530D01*
X116629606Y-111256522D01*
X116537830Y-111227924D01*
X116467196Y-111205914D01*
X116467194Y-111205913D01*
X116467192Y-111205913D01*
X116417778Y-111201423D01*
X116396616Y-111199500D01*
X116396613Y-111199500D01*
X116289500Y-111199500D01*
X116222461Y-111179815D01*
X116176706Y-111127011D01*
X116165500Y-111075500D01*
X116165500Y-63249555D01*
X116165501Y-63249542D01*
X116165501Y-63153849D01*
X116162201Y-63141535D01*
X116143318Y-63071062D01*
X116143317Y-63071061D01*
X116143317Y-63071059D01*
X116143315Y-63071056D01*
X116124278Y-63038083D01*
X116124276Y-63038081D01*
X116100465Y-62996838D01*
X116039862Y-62936235D01*
X116039861Y-62936234D01*
X116035531Y-62931904D01*
X116035520Y-62931894D01*
X115047623Y-61943996D01*
X115014138Y-61882673D01*
X115019122Y-61812981D01*
X115060994Y-61757048D01*
X115076843Y-61746961D01*
X115206450Y-61677685D01*
X115366410Y-61546410D01*
X115497685Y-61386450D01*
X115595232Y-61203954D01*
X115655300Y-61005934D01*
X115675583Y-60800000D01*
X116104417Y-60800000D01*
X116124699Y-61005932D01*
X116124700Y-61005934D01*
X116184768Y-61203954D01*
X116282315Y-61386450D01*
X116282317Y-61386452D01*
X116413589Y-61546410D01*
X116456708Y-61581796D01*
X116573550Y-61677685D01*
X116756046Y-61775232D01*
X116954066Y-61835300D01*
X116954065Y-61835300D01*
X116972529Y-61837118D01*
X117160000Y-61855583D01*
X117365934Y-61835300D01*
X117563954Y-61775232D01*
X117746450Y-61677685D01*
X117906410Y-61546410D01*
X118037685Y-61386450D01*
X118135232Y-61203954D01*
X118195300Y-61005934D01*
X118215583Y-60800000D01*
X118644417Y-60800000D01*
X118664699Y-61005932D01*
X118664700Y-61005934D01*
X118724768Y-61203954D01*
X118822315Y-61386450D01*
X118822317Y-61386452D01*
X118953589Y-61546410D01*
X118996708Y-61581796D01*
X119113550Y-61677685D01*
X119296046Y-61775232D01*
X119494066Y-61835300D01*
X119494065Y-61835300D01*
X119512529Y-61837118D01*
X119700000Y-61855583D01*
X119905934Y-61835300D01*
X120103954Y-61775232D01*
X120286450Y-61677685D01*
X120446410Y-61546410D01*
X120577685Y-61386450D01*
X120675232Y-61203954D01*
X120735300Y-61005934D01*
X120755583Y-60800000D01*
X120735300Y-60594066D01*
X120675232Y-60396046D01*
X120577685Y-60213550D01*
X120525702Y-60150209D01*
X120446410Y-60053589D01*
X120296121Y-59930252D01*
X120286450Y-59922315D01*
X120103954Y-59824768D01*
X119905934Y-59764700D01*
X119905932Y-59764699D01*
X119905934Y-59764699D01*
X119700000Y-59744417D01*
X119494067Y-59764699D01*
X119296043Y-59824769D01*
X119208114Y-59871769D01*
X119113550Y-59922315D01*
X119113548Y-59922316D01*
X119113547Y-59922317D01*
X118953589Y-60053589D01*
X118822317Y-60213547D01*
X118724769Y-60396043D01*
X118664699Y-60594067D01*
X118644417Y-60800000D01*
X118215583Y-60800000D01*
X118195300Y-60594066D01*
X118135232Y-60396046D01*
X118037685Y-60213550D01*
X117985702Y-60150209D01*
X117906410Y-60053589D01*
X117756121Y-59930252D01*
X117746450Y-59922315D01*
X117563954Y-59824768D01*
X117365934Y-59764700D01*
X117365932Y-59764699D01*
X117365934Y-59764699D01*
X117160000Y-59744417D01*
X116954067Y-59764699D01*
X116756043Y-59824769D01*
X116668114Y-59871769D01*
X116573550Y-59922315D01*
X116573548Y-59922316D01*
X116573547Y-59922317D01*
X116413589Y-60053589D01*
X116282317Y-60213547D01*
X116184769Y-60396043D01*
X116124699Y-60594067D01*
X116104417Y-60800000D01*
X115675583Y-60800000D01*
X115655300Y-60594066D01*
X115595232Y-60396046D01*
X115497685Y-60213550D01*
X115445702Y-60150209D01*
X115366410Y-60053589D01*
X115216121Y-59930252D01*
X115206450Y-59922315D01*
X115023954Y-59824768D01*
X114825934Y-59764700D01*
X114825932Y-59764699D01*
X114825934Y-59764699D01*
X114620000Y-59744417D01*
X114414067Y-59764699D01*
X114216043Y-59824769D01*
X114128114Y-59871769D01*
X114033550Y-59922315D01*
X114033548Y-59922316D01*
X114033547Y-59922317D01*
X113873589Y-60053589D01*
X113742317Y-60213547D01*
X113644769Y-60396043D01*
X113584699Y-60594067D01*
X113564417Y-60800000D01*
X113584699Y-61005932D01*
X113584700Y-61005934D01*
X113644768Y-61203954D01*
X113742315Y-61386450D01*
X113742317Y-61386452D01*
X113873589Y-61546410D01*
X113916708Y-61581796D01*
X114033550Y-61677685D01*
X114216046Y-61775232D01*
X114216051Y-61775233D01*
X114217951Y-61776021D01*
X114218796Y-61776701D01*
X114221419Y-61778104D01*
X114221153Y-61778601D01*
X114272355Y-61819862D01*
X114294421Y-61886156D01*
X114294500Y-61890583D01*
X114294500Y-61933847D01*
X114294500Y-62019553D01*
X114300421Y-62041650D01*
X114316682Y-62102340D01*
X114316683Y-62102341D01*
X114359535Y-62176562D01*
X114359536Y-62176563D01*
X114359537Y-62176564D01*
X115478181Y-63295207D01*
X115511666Y-63356530D01*
X115514500Y-63382888D01*
X115514500Y-111075500D01*
X115494815Y-111142539D01*
X115442011Y-111188294D01*
X115390500Y-111199500D01*
X115283384Y-111199500D01*
X115264145Y-111201248D01*
X115212807Y-111205913D01*
X115050393Y-111256522D01*
X114904811Y-111344530D01*
X114784530Y-111464811D01*
X114696522Y-111610393D01*
X114645913Y-111772807D01*
X114639500Y-111843386D01*
X114639500Y-116843000D01*
X114619815Y-116910039D01*
X114567011Y-116955794D01*
X114515500Y-116967000D01*
X113984500Y-116967000D01*
X113917461Y-116947315D01*
X113871706Y-116894511D01*
X113860500Y-116843000D01*
X113860500Y-111843386D01*
X113854086Y-111772807D01*
X113854086Y-111772804D01*
X113803478Y-111610394D01*
X113715472Y-111464815D01*
X113715470Y-111464813D01*
X113715469Y-111464811D01*
X113595188Y-111344530D01*
X113449606Y-111256522D01*
X113357830Y-111227924D01*
X113287196Y-111205914D01*
X113287194Y-111205913D01*
X113287192Y-111205913D01*
X113237778Y-111201423D01*
X113216616Y-111199500D01*
X113216613Y-111199500D01*
X113109500Y-111199500D01*
X113042461Y-111179815D01*
X112996706Y-111127011D01*
X112985500Y-111075500D01*
X112985500Y-65053849D01*
X112985500Y-65053847D01*
X112963318Y-64971062D01*
X112930106Y-64913536D01*
X112920469Y-64896844D01*
X112920463Y-64896836D01*
X109967623Y-61943996D01*
X109934138Y-61882673D01*
X109939122Y-61812981D01*
X109980994Y-61757048D01*
X109996843Y-61746961D01*
X110126450Y-61677685D01*
X110286410Y-61546410D01*
X110417685Y-61386450D01*
X110515232Y-61203954D01*
X110575300Y-61005934D01*
X110595583Y-60800000D01*
X110580809Y-60649999D01*
X110838347Y-60649999D01*
X110838348Y-60650000D01*
X111602555Y-60650000D01*
X111580000Y-60734174D01*
X111580000Y-60865826D01*
X111602555Y-60950000D01*
X110838348Y-60950000D01*
X110844287Y-61017885D01*
X110844289Y-61017894D01*
X110900894Y-61229150D01*
X110900898Y-61229159D01*
X110993333Y-61427387D01*
X111118787Y-61606554D01*
X111273445Y-61761212D01*
X111452612Y-61886666D01*
X111650840Y-61979101D01*
X111650849Y-61979105D01*
X111862110Y-62035711D01*
X111930000Y-62041650D01*
X111930000Y-61277445D01*
X112014174Y-61300000D01*
X112145826Y-61300000D01*
X112230000Y-61277445D01*
X112230000Y-62041650D01*
X112297887Y-62035711D01*
X112297891Y-62035711D01*
X112509150Y-61979105D01*
X112509159Y-61979101D01*
X112707387Y-61886666D01*
X112886554Y-61761212D01*
X113041212Y-61606554D01*
X113166666Y-61427387D01*
X113259101Y-61229159D01*
X113259105Y-61229150D01*
X113315710Y-61017894D01*
X113315712Y-61017885D01*
X113321652Y-60950000D01*
X112557445Y-60950000D01*
X112580000Y-60865826D01*
X112580000Y-60734174D01*
X112557445Y-60650000D01*
X113321652Y-60650000D01*
X113321652Y-60649999D01*
X113315712Y-60582114D01*
X113315710Y-60582105D01*
X113259105Y-60370849D01*
X113259101Y-60370840D01*
X113166666Y-60172612D01*
X113166664Y-60172608D01*
X113041216Y-59993450D01*
X113041211Y-59993444D01*
X112886554Y-59838787D01*
X112707387Y-59713333D01*
X112509159Y-59620898D01*
X112509150Y-59620894D01*
X112297894Y-59564289D01*
X112297885Y-59564287D01*
X112230000Y-59558347D01*
X112230000Y-60322554D01*
X112145826Y-60300000D01*
X112014174Y-60300000D01*
X111930000Y-60322554D01*
X111930000Y-59558348D01*
X111929999Y-59558347D01*
X111862114Y-59564287D01*
X111862105Y-59564289D01*
X111650849Y-59620894D01*
X111650840Y-59620898D01*
X111452612Y-59713333D01*
X111452608Y-59713335D01*
X111273450Y-59838783D01*
X111273444Y-59838788D01*
X111118788Y-59993444D01*
X111118783Y-59993450D01*
X110993335Y-60172608D01*
X110993333Y-60172612D01*
X110900898Y-60370840D01*
X110900894Y-60370849D01*
X110844289Y-60582105D01*
X110844287Y-60582114D01*
X110838347Y-60649999D01*
X110580809Y-60649999D01*
X110575300Y-60594066D01*
X110515232Y-60396046D01*
X110417685Y-60213550D01*
X110365702Y-60150209D01*
X110286410Y-60053589D01*
X110136121Y-59930252D01*
X110126450Y-59922315D01*
X109943954Y-59824768D01*
X109745934Y-59764700D01*
X109745932Y-59764699D01*
X109745934Y-59764699D01*
X109540000Y-59744417D01*
X109334067Y-59764699D01*
X109136043Y-59824769D01*
X109048114Y-59871769D01*
X108953550Y-59922315D01*
X108953548Y-59922316D01*
X108953547Y-59922317D01*
X108793589Y-60053589D01*
X108662317Y-60213547D01*
X108564769Y-60396043D01*
X108504699Y-60594067D01*
X108484417Y-60800000D01*
X108504699Y-61005932D01*
X108504700Y-61005934D01*
X108564768Y-61203954D01*
X108662315Y-61386450D01*
X108662317Y-61386452D01*
X108793589Y-61546410D01*
X108836708Y-61581796D01*
X108953550Y-61677685D01*
X109136046Y-61775232D01*
X109136051Y-61775233D01*
X109137951Y-61776021D01*
X109138796Y-61776701D01*
X109141419Y-61778104D01*
X109141153Y-61778601D01*
X109192355Y-61819862D01*
X109214421Y-61886156D01*
X109214500Y-61890583D01*
X109214500Y-61933847D01*
X109214500Y-62019553D01*
X109220421Y-62041650D01*
X109236682Y-62102340D01*
X109236683Y-62102341D01*
X109279535Y-62176562D01*
X109279536Y-62176563D01*
X109279537Y-62176564D01*
X112298181Y-65195208D01*
X112331666Y-65256531D01*
X112334500Y-65282889D01*
X112334500Y-111075500D01*
X112314815Y-111142539D01*
X112262011Y-111188294D01*
X112210500Y-111199500D01*
X112103384Y-111199500D01*
X112084145Y-111201248D01*
X112032807Y-111205913D01*
X111870393Y-111256522D01*
X111724811Y-111344530D01*
X111604530Y-111464811D01*
X111516522Y-111610393D01*
X111465913Y-111772807D01*
X111459500Y-111843386D01*
X111459500Y-116843000D01*
X111439815Y-116910039D01*
X111387011Y-116955794D01*
X111335500Y-116967000D01*
X110804500Y-116967000D01*
X110737461Y-116947315D01*
X110691706Y-116894511D01*
X110680500Y-116843000D01*
X110680500Y-111843386D01*
X110674086Y-111772807D01*
X110674086Y-111772804D01*
X110623478Y-111610394D01*
X110535472Y-111464815D01*
X110535470Y-111464813D01*
X110535469Y-111464811D01*
X110415188Y-111344530D01*
X110269606Y-111256522D01*
X110177830Y-111227924D01*
X110107196Y-111205914D01*
X110107194Y-111205913D01*
X110107192Y-111205913D01*
X110057778Y-111201423D01*
X110036616Y-111199500D01*
X110036613Y-111199500D01*
X109929500Y-111199500D01*
X109862461Y-111179815D01*
X109816706Y-111127011D01*
X109805500Y-111075500D01*
X109805500Y-64509555D01*
X109805501Y-64509542D01*
X109805501Y-64413848D01*
X109783317Y-64331059D01*
X109783316Y-64331058D01*
X109740467Y-64256841D01*
X109740466Y-64256840D01*
X109740465Y-64256838D01*
X109679862Y-64196235D01*
X109679861Y-64196234D01*
X109675531Y-64191904D01*
X109675520Y-64191894D01*
X107427623Y-61943996D01*
X107394138Y-61882673D01*
X107399122Y-61812981D01*
X107440994Y-61757048D01*
X107456843Y-61746961D01*
X107586450Y-61677685D01*
X107746410Y-61546410D01*
X107877685Y-61386450D01*
X107975232Y-61203954D01*
X108035300Y-61005934D01*
X108055583Y-60800000D01*
X108035300Y-60594066D01*
X107975232Y-60396046D01*
X107877685Y-60213550D01*
X107825702Y-60150209D01*
X107746410Y-60053589D01*
X107596121Y-59930252D01*
X107586450Y-59922315D01*
X107403954Y-59824768D01*
X107205934Y-59764700D01*
X107205932Y-59764699D01*
X107205934Y-59764699D01*
X107000000Y-59744417D01*
X106794067Y-59764699D01*
X106596043Y-59824769D01*
X106508114Y-59871769D01*
X106413550Y-59922315D01*
X106413548Y-59922316D01*
X106413547Y-59922317D01*
X106253589Y-60053589D01*
X106122317Y-60213547D01*
X106024769Y-60396043D01*
X105964699Y-60594067D01*
X105944417Y-60800000D01*
X105964699Y-61005932D01*
X105964700Y-61005934D01*
X106024768Y-61203954D01*
X106122315Y-61386450D01*
X106122317Y-61386452D01*
X106253589Y-61546410D01*
X106296708Y-61581796D01*
X106413550Y-61677685D01*
X106596046Y-61775232D01*
X106596051Y-61775233D01*
X106597951Y-61776021D01*
X106598796Y-61776701D01*
X106601419Y-61778104D01*
X106601153Y-61778601D01*
X106652355Y-61819862D01*
X106674421Y-61886156D01*
X106674500Y-61890583D01*
X106674500Y-61933847D01*
X106674500Y-62019553D01*
X106680421Y-62041650D01*
X106696682Y-62102340D01*
X106696683Y-62102341D01*
X106739535Y-62176562D01*
X107945861Y-63382888D01*
X109118181Y-64555207D01*
X109151666Y-64616530D01*
X109154500Y-64642888D01*
X109154500Y-111075500D01*
X109134815Y-111142539D01*
X109082011Y-111188294D01*
X109030500Y-111199500D01*
X108923384Y-111199500D01*
X108904145Y-111201248D01*
X108852807Y-111205913D01*
X108690393Y-111256522D01*
X108544811Y-111344530D01*
X108424530Y-111464811D01*
X108336522Y-111610393D01*
X108285913Y-111772807D01*
X108279500Y-111843386D01*
X108279500Y-116843000D01*
X108259815Y-116910039D01*
X108207011Y-116955794D01*
X108155500Y-116967000D01*
X107624500Y-116967000D01*
X107557461Y-116947315D01*
X107511706Y-116894511D01*
X107500500Y-116843000D01*
X107500500Y-111843386D01*
X107494086Y-111772807D01*
X107494086Y-111772804D01*
X107443478Y-111610394D01*
X107355472Y-111464815D01*
X107355470Y-111464813D01*
X107355469Y-111464811D01*
X107235188Y-111344530D01*
X107089606Y-111256522D01*
X106997830Y-111227924D01*
X106927196Y-111205914D01*
X106927194Y-111205913D01*
X106927192Y-111205913D01*
X106877778Y-111201423D01*
X106856616Y-111199500D01*
X106856613Y-111199500D01*
X106749500Y-111199500D01*
X106682461Y-111179815D01*
X106636706Y-111127011D01*
X106625500Y-111075500D01*
X106625500Y-63773849D01*
X106625500Y-63773847D01*
X106603318Y-63691062D01*
X106603318Y-63691061D01*
X106560465Y-63616838D01*
X104887623Y-61943996D01*
X104854138Y-61882673D01*
X104859122Y-61812981D01*
X104900994Y-61757048D01*
X104916843Y-61746961D01*
X105046450Y-61677685D01*
X105206410Y-61546410D01*
X105337685Y-61386450D01*
X105435232Y-61203954D01*
X105495300Y-61005934D01*
X105515583Y-60800000D01*
X105495300Y-60594066D01*
X105435232Y-60396046D01*
X105337685Y-60213550D01*
X105285702Y-60150209D01*
X105206410Y-60053589D01*
X105056121Y-59930252D01*
X105046450Y-59922315D01*
X104863954Y-59824768D01*
X104665934Y-59764700D01*
X104665932Y-59764699D01*
X104665934Y-59764699D01*
X104460000Y-59744417D01*
X104254067Y-59764699D01*
X104056043Y-59824769D01*
X103968114Y-59871769D01*
X103873550Y-59922315D01*
X103873548Y-59922316D01*
X103873547Y-59922317D01*
X103713589Y-60053589D01*
X103582317Y-60213547D01*
X103484769Y-60396043D01*
X103424699Y-60594067D01*
X103404417Y-60800000D01*
X103424699Y-61005932D01*
X103424700Y-61005934D01*
X103484768Y-61203954D01*
X103582315Y-61386450D01*
X103582317Y-61386452D01*
X103713589Y-61546410D01*
X103756708Y-61581796D01*
X103873550Y-61677685D01*
X104056046Y-61775232D01*
X104056051Y-61775233D01*
X104057951Y-61776021D01*
X104058796Y-61776701D01*
X104061419Y-61778104D01*
X104061153Y-61778601D01*
X104112355Y-61819862D01*
X104134421Y-61886156D01*
X104134500Y-61890583D01*
X104134500Y-61933847D01*
X104134500Y-62019553D01*
X104140421Y-62041650D01*
X104156682Y-62102340D01*
X104156683Y-62102341D01*
X104199535Y-62176562D01*
X104199536Y-62176563D01*
X104199537Y-62176564D01*
X105938181Y-63915208D01*
X105971666Y-63976531D01*
X105974500Y-64002889D01*
X105974500Y-111075500D01*
X105954815Y-111142539D01*
X105902011Y-111188294D01*
X105850500Y-111199500D01*
X105743384Y-111199500D01*
X105724145Y-111201248D01*
X105672807Y-111205913D01*
X105510393Y-111256522D01*
X105364811Y-111344530D01*
X105244530Y-111464811D01*
X105156522Y-111610393D01*
X105105913Y-111772807D01*
X105099500Y-111843386D01*
X105099500Y-116843000D01*
X105079815Y-116910039D01*
X105027011Y-116955794D01*
X104975500Y-116967000D01*
X104444500Y-116967000D01*
X104377461Y-116947315D01*
X104331706Y-116894511D01*
X104320500Y-116843000D01*
X104320500Y-111843386D01*
X104314086Y-111772807D01*
X104314086Y-111772804D01*
X104263478Y-111610394D01*
X104175472Y-111464815D01*
X104175470Y-111464813D01*
X104175469Y-111464811D01*
X104055188Y-111344530D01*
X103909606Y-111256522D01*
X103817830Y-111227924D01*
X103747196Y-111205914D01*
X103747194Y-111205913D01*
X103747192Y-111205913D01*
X103697778Y-111201423D01*
X103676616Y-111199500D01*
X103676613Y-111199500D01*
X103569500Y-111199500D01*
X103502461Y-111179815D01*
X103456706Y-111127011D01*
X103445500Y-111075500D01*
X103445500Y-63133849D01*
X103445500Y-63133847D01*
X103423318Y-63051061D01*
X103380465Y-62976838D01*
X102347623Y-61943996D01*
X102314138Y-61882673D01*
X102319122Y-61812981D01*
X102360994Y-61757048D01*
X102376843Y-61746961D01*
X102506450Y-61677685D01*
X102666410Y-61546410D01*
X102797685Y-61386450D01*
X102895232Y-61203954D01*
X102955300Y-61005934D01*
X102975583Y-60800000D01*
X102955300Y-60594066D01*
X102895232Y-60396046D01*
X102797685Y-60213550D01*
X102745702Y-60150209D01*
X102666410Y-60053589D01*
X102516121Y-59930252D01*
X102506450Y-59922315D01*
X102323954Y-59824768D01*
X102125934Y-59764700D01*
X102125932Y-59764699D01*
X102125934Y-59764699D01*
X101920000Y-59744417D01*
X101714067Y-59764699D01*
X101516043Y-59824769D01*
X101428114Y-59871769D01*
X101333550Y-59922315D01*
X101333548Y-59922316D01*
X101333547Y-59922317D01*
X101173589Y-60053589D01*
X101042317Y-60213547D01*
X100944769Y-60396043D01*
X100884699Y-60594067D01*
X100864417Y-60800000D01*
X100884699Y-61005932D01*
X100884700Y-61005934D01*
X100944768Y-61203954D01*
X101042315Y-61386450D01*
X101042317Y-61386452D01*
X101173589Y-61546410D01*
X101216708Y-61581796D01*
X101333550Y-61677685D01*
X101516046Y-61775232D01*
X101516051Y-61775233D01*
X101517951Y-61776021D01*
X101518796Y-61776701D01*
X101521419Y-61778104D01*
X101521153Y-61778601D01*
X101572355Y-61819862D01*
X101594421Y-61886156D01*
X101594500Y-61890583D01*
X101594500Y-61933847D01*
X101594500Y-62019553D01*
X101600421Y-62041650D01*
X101616682Y-62102340D01*
X101616683Y-62102341D01*
X101659535Y-62176562D01*
X101659536Y-62176563D01*
X101659537Y-62176564D01*
X102758181Y-63275208D01*
X102791666Y-63336531D01*
X102794500Y-63362889D01*
X102794500Y-111075500D01*
X102774815Y-111142539D01*
X102722011Y-111188294D01*
X102670500Y-111199500D01*
X102563384Y-111199500D01*
X102544145Y-111201248D01*
X102492807Y-111205913D01*
X102330393Y-111256522D01*
X102184811Y-111344530D01*
X102064530Y-111464811D01*
X101976522Y-111610393D01*
X101925913Y-111772807D01*
X101919500Y-111843386D01*
X101919500Y-116843000D01*
X101899815Y-116910039D01*
X101847011Y-116955794D01*
X101795500Y-116967000D01*
X101264500Y-116967000D01*
X101197461Y-116947315D01*
X101151706Y-116894511D01*
X101140500Y-116843000D01*
X101140500Y-111843386D01*
X101134086Y-111772807D01*
X101134086Y-111772804D01*
X101083478Y-111610394D01*
X100995472Y-111464815D01*
X100995470Y-111464813D01*
X100995469Y-111464811D01*
X100875188Y-111344530D01*
X100729606Y-111256522D01*
X100637830Y-111227924D01*
X100567196Y-111205914D01*
X100567194Y-111205913D01*
X100567192Y-111205913D01*
X100517778Y-111201423D01*
X100496616Y-111199500D01*
X100496613Y-111199500D01*
X100389500Y-111199500D01*
X100322461Y-111179815D01*
X100276706Y-111127011D01*
X100265500Y-111075500D01*
X100265500Y-62589555D01*
X100265501Y-62589542D01*
X100265501Y-62493848D01*
X100243317Y-62411059D01*
X100243316Y-62411058D01*
X100200467Y-62336841D01*
X100200466Y-62336840D01*
X100200465Y-62336838D01*
X100139862Y-62276235D01*
X100139861Y-62276234D01*
X100135531Y-62271904D01*
X100135520Y-62271894D01*
X99807623Y-61943996D01*
X99774138Y-61882673D01*
X99779122Y-61812981D01*
X99820994Y-61757048D01*
X99836843Y-61746961D01*
X99966450Y-61677685D01*
X100126410Y-61546410D01*
X100257685Y-61386450D01*
X100355232Y-61203954D01*
X100415300Y-61005934D01*
X100435583Y-60800000D01*
X100415300Y-60594066D01*
X100355232Y-60396046D01*
X100257685Y-60213550D01*
X100205702Y-60150209D01*
X100126410Y-60053589D01*
X99976121Y-59930252D01*
X99966450Y-59922315D01*
X99783954Y-59824768D01*
X99585934Y-59764700D01*
X99585932Y-59764699D01*
X99585934Y-59764699D01*
X99380000Y-59744417D01*
X99174067Y-59764699D01*
X98976043Y-59824769D01*
X98888114Y-59871769D01*
X98793550Y-59922315D01*
X98793548Y-59922316D01*
X98793547Y-59922317D01*
X98633589Y-60053589D01*
X98502317Y-60213547D01*
X98404769Y-60396043D01*
X98344699Y-60594067D01*
X98324417Y-60800000D01*
X98344699Y-61005932D01*
X98344700Y-61005934D01*
X98404768Y-61203954D01*
X98502315Y-61386450D01*
X98502317Y-61386452D01*
X98633589Y-61546410D01*
X98676708Y-61581796D01*
X98793550Y-61677685D01*
X98976046Y-61775232D01*
X98976051Y-61775233D01*
X98977951Y-61776021D01*
X98978796Y-61776701D01*
X98981419Y-61778104D01*
X98981153Y-61778601D01*
X99032355Y-61819862D01*
X99054421Y-61886156D01*
X99054500Y-61890583D01*
X99054500Y-61933847D01*
X99054500Y-62019553D01*
X99060421Y-62041650D01*
X99076682Y-62102340D01*
X99076683Y-62102341D01*
X99119535Y-62176562D01*
X99354035Y-62411062D01*
X99578181Y-62635207D01*
X99611666Y-62696530D01*
X99614500Y-62722888D01*
X99614500Y-111075500D01*
X99594815Y-111142539D01*
X99542011Y-111188294D01*
X99490500Y-111199500D01*
X99383384Y-111199500D01*
X99364145Y-111201248D01*
X99312807Y-111205913D01*
X99150393Y-111256522D01*
X99004811Y-111344530D01*
X98884530Y-111464811D01*
X98796522Y-111610393D01*
X98745913Y-111772807D01*
X98739500Y-111843386D01*
X98739500Y-116843000D01*
X98719815Y-116910039D01*
X98667011Y-116955794D01*
X98615500Y-116967000D01*
X98084500Y-116967000D01*
X98017461Y-116947315D01*
X97971706Y-116894511D01*
X97960500Y-116843000D01*
X97960500Y-111843386D01*
X97954086Y-111772807D01*
X97954086Y-111772804D01*
X97903478Y-111610394D01*
X97815472Y-111464815D01*
X97815470Y-111464813D01*
X97815469Y-111464811D01*
X97695188Y-111344530D01*
X97549606Y-111256522D01*
X97457830Y-111227924D01*
X97387196Y-111205914D01*
X97387194Y-111205913D01*
X97387192Y-111205913D01*
X97337778Y-111201423D01*
X97316616Y-111199500D01*
X97316613Y-111199500D01*
X97289500Y-111199500D01*
X97222461Y-111179815D01*
X97176706Y-111127011D01*
X97165500Y-111075500D01*
X97165500Y-61890583D01*
X97185185Y-61823544D01*
X97237989Y-61777789D01*
X97242049Y-61776021D01*
X97243945Y-61775234D01*
X97243954Y-61775232D01*
X97426450Y-61677685D01*
X97586410Y-61546410D01*
X97717685Y-61386450D01*
X97815232Y-61203954D01*
X97875300Y-61005934D01*
X97895583Y-60800000D01*
X97875300Y-60594066D01*
X97815232Y-60396046D01*
X97717685Y-60213550D01*
X97665702Y-60150209D01*
X97586410Y-60053589D01*
X97436121Y-59930252D01*
X97426450Y-59922315D01*
X97243954Y-59824768D01*
X97045934Y-59764700D01*
X97045932Y-59764699D01*
X97045934Y-59764699D01*
X96840000Y-59744417D01*
X96634067Y-59764699D01*
X96436043Y-59824769D01*
X96348114Y-59871769D01*
X96253550Y-59922315D01*
X96253548Y-59922316D01*
X96253547Y-59922317D01*
X96093589Y-60053589D01*
X95962317Y-60213547D01*
X95864769Y-60396043D01*
X95804699Y-60594067D01*
X95784417Y-60800000D01*
X95804699Y-61005932D01*
X95804700Y-61005934D01*
X95864768Y-61203954D01*
X95962315Y-61386450D01*
X95962317Y-61386452D01*
X96093589Y-61546410D01*
X96136708Y-61581796D01*
X96253550Y-61677685D01*
X96436046Y-61775232D01*
X96436051Y-61775233D01*
X96437951Y-61776021D01*
X96438796Y-61776701D01*
X96441419Y-61778104D01*
X96441153Y-61778601D01*
X96492355Y-61819862D01*
X96514421Y-61886156D01*
X96514500Y-61890583D01*
X96514500Y-111075500D01*
X96494815Y-111142539D01*
X96442011Y-111188294D01*
X96390500Y-111199500D01*
X96203384Y-111199500D01*
X96184145Y-111201248D01*
X96132807Y-111205913D01*
X95970393Y-111256522D01*
X95824811Y-111344530D01*
X95704530Y-111464811D01*
X95616522Y-111610393D01*
X95565913Y-111772807D01*
X95559500Y-111843386D01*
X95559500Y-116843000D01*
X95539815Y-116910039D01*
X95487011Y-116955794D01*
X95435500Y-116967000D01*
X94904500Y-116967000D01*
X94837461Y-116947315D01*
X94791706Y-116894511D01*
X94780500Y-116843000D01*
X94780500Y-111843386D01*
X94774086Y-111772807D01*
X94774086Y-111772804D01*
X94723478Y-111610394D01*
X94635472Y-111464815D01*
X94635470Y-111464813D01*
X94635469Y-111464811D01*
X94515188Y-111344530D01*
X94369606Y-111256522D01*
X94277830Y-111227924D01*
X94207196Y-111205914D01*
X94207194Y-111205913D01*
X94207192Y-111205913D01*
X94157778Y-111201423D01*
X94136616Y-111199500D01*
X94136613Y-111199500D01*
X94029500Y-111199500D01*
X93962461Y-111179815D01*
X93916706Y-111127011D01*
X93905500Y-111075500D01*
X93905500Y-62882887D01*
X93925185Y-62815848D01*
X93941815Y-62795210D01*
X94489652Y-62247372D01*
X94489657Y-62247369D01*
X94499860Y-62237165D01*
X94499862Y-62237165D01*
X94560465Y-62176562D01*
X94581891Y-62139450D01*
X94603318Y-62102339D01*
X94625501Y-62019553D01*
X94625501Y-61933847D01*
X94625501Y-61926252D01*
X94625500Y-61926234D01*
X94625500Y-61890583D01*
X94645185Y-61823544D01*
X94697989Y-61777789D01*
X94702049Y-61776021D01*
X94703945Y-61775234D01*
X94703954Y-61775232D01*
X94886450Y-61677685D01*
X95046410Y-61546410D01*
X95177685Y-61386450D01*
X95275232Y-61203954D01*
X95335300Y-61005934D01*
X95355583Y-60800000D01*
X95335300Y-60594066D01*
X95275232Y-60396046D01*
X95177685Y-60213550D01*
X95125702Y-60150209D01*
X95046410Y-60053589D01*
X94896121Y-59930252D01*
X94886450Y-59922315D01*
X94703954Y-59824768D01*
X94505934Y-59764700D01*
X94505932Y-59764699D01*
X94505934Y-59764699D01*
X94300000Y-59744417D01*
X94094067Y-59764699D01*
X93896043Y-59824769D01*
X93808114Y-59871769D01*
X93713550Y-59922315D01*
X93713548Y-59922316D01*
X93713547Y-59922317D01*
X93553589Y-60053589D01*
X93422317Y-60213547D01*
X93324769Y-60396043D01*
X93264699Y-60594067D01*
X93244417Y-60800000D01*
X93264699Y-61005932D01*
X93264700Y-61005934D01*
X93324768Y-61203954D01*
X93422315Y-61386450D01*
X93422317Y-61386452D01*
X93553589Y-61546410D01*
X93596708Y-61581796D01*
X93713550Y-61677685D01*
X93843150Y-61746958D01*
X93892993Y-61795919D01*
X93908453Y-61864057D01*
X93884621Y-61929737D01*
X93872376Y-61943996D01*
X93319537Y-62496835D01*
X93319533Y-62496841D01*
X93276681Y-62571061D01*
X93276682Y-62571062D01*
X93254500Y-62653847D01*
X93254500Y-111075500D01*
X93234815Y-111142539D01*
X93182011Y-111188294D01*
X93130500Y-111199500D01*
X93023384Y-111199500D01*
X93004145Y-111201248D01*
X92952807Y-111205913D01*
X92790393Y-111256522D01*
X92644811Y-111344530D01*
X92524530Y-111464811D01*
X92436522Y-111610393D01*
X92385913Y-111772807D01*
X92379500Y-111843386D01*
X92379500Y-116843000D01*
X92359815Y-116910039D01*
X92307011Y-116955794D01*
X92255500Y-116967000D01*
X91724500Y-116967000D01*
X91657461Y-116947315D01*
X91611706Y-116894511D01*
X91600500Y-116843000D01*
X91600500Y-111843386D01*
X91594086Y-111772807D01*
X91594086Y-111772804D01*
X91543478Y-111610394D01*
X91455472Y-111464815D01*
X91455470Y-111464813D01*
X91455469Y-111464811D01*
X91335188Y-111344530D01*
X91189606Y-111256522D01*
X91097830Y-111227924D01*
X91027196Y-111205914D01*
X91027194Y-111205913D01*
X91027192Y-111205913D01*
X90977778Y-111201423D01*
X90956616Y-111199500D01*
X90956613Y-111199500D01*
X90851500Y-111199500D01*
X90784461Y-111179815D01*
X90738706Y-111127011D01*
X90727500Y-111075500D01*
X90727500Y-97813017D01*
X90747185Y-97745978D01*
X90763819Y-97725336D01*
X91125220Y-97363935D01*
X92022065Y-96467090D01*
X92065181Y-96392411D01*
X92087500Y-96309116D01*
X92087500Y-96222884D01*
X92087499Y-96222883D01*
X92086561Y-96215754D01*
X92085500Y-96199567D01*
X92085500Y-61890583D01*
X92105185Y-61823544D01*
X92157989Y-61777789D01*
X92162049Y-61776021D01*
X92163945Y-61775234D01*
X92163954Y-61775232D01*
X92346450Y-61677685D01*
X92506410Y-61546410D01*
X92637685Y-61386450D01*
X92735232Y-61203954D01*
X92795300Y-61005934D01*
X92815583Y-60800000D01*
X92795300Y-60594066D01*
X92735232Y-60396046D01*
X92637685Y-60213550D01*
X92585702Y-60150209D01*
X92506410Y-60053589D01*
X92356121Y-59930252D01*
X92346450Y-59922315D01*
X92163954Y-59824768D01*
X91965934Y-59764700D01*
X91965932Y-59764699D01*
X91965934Y-59764699D01*
X91871716Y-59755420D01*
X91806928Y-59729259D01*
X91766570Y-59672224D01*
X91763453Y-59602424D01*
X91796187Y-59544338D01*
X107240465Y-44100062D01*
X107272872Y-44043930D01*
X107323437Y-43995717D01*
X107344258Y-43987272D01*
X107383954Y-43975232D01*
X107566450Y-43877685D01*
X107726410Y-43746410D01*
X107857685Y-43586450D01*
X107955232Y-43403954D01*
X108015300Y-43205934D01*
X108035583Y-43000000D01*
X108464417Y-43000000D01*
X108484699Y-43205932D01*
X108484700Y-43205934D01*
X108544768Y-43403954D01*
X108642315Y-43586450D01*
X108642317Y-43586452D01*
X108773589Y-43746410D01*
X108846876Y-43806554D01*
X108933550Y-43877685D01*
X109116046Y-43975232D01*
X109314066Y-44035300D01*
X109314065Y-44035300D01*
X109332529Y-44037118D01*
X109520000Y-44055583D01*
X109725934Y-44035300D01*
X109923954Y-43975232D01*
X110106450Y-43877685D01*
X110266410Y-43746410D01*
X110397685Y-43586450D01*
X110495232Y-43403954D01*
X110555300Y-43205934D01*
X110575583Y-43000000D01*
X111004417Y-43000000D01*
X111024699Y-43205932D01*
X111024700Y-43205934D01*
X111084768Y-43403954D01*
X111182315Y-43586450D01*
X111182317Y-43586452D01*
X111313589Y-43746410D01*
X111386876Y-43806554D01*
X111473550Y-43877685D01*
X111656046Y-43975232D01*
X111854066Y-44035300D01*
X111854065Y-44035300D01*
X111872529Y-44037118D01*
X112060000Y-44055583D01*
X112265934Y-44035300D01*
X112463954Y-43975232D01*
X112646450Y-43877685D01*
X112806410Y-43746410D01*
X112937685Y-43586450D01*
X113035232Y-43403954D01*
X113095300Y-43205934D01*
X113115583Y-43000000D01*
X113544417Y-43000000D01*
X113564699Y-43205932D01*
X113564700Y-43205934D01*
X113624768Y-43403954D01*
X113722315Y-43586450D01*
X113722317Y-43586452D01*
X113853589Y-43746410D01*
X113926876Y-43806554D01*
X114013550Y-43877685D01*
X114196046Y-43975232D01*
X114394066Y-44035300D01*
X114394065Y-44035300D01*
X114412529Y-44037118D01*
X114600000Y-44055583D01*
X114805934Y-44035300D01*
X115003954Y-43975232D01*
X115186450Y-43877685D01*
X115346410Y-43746410D01*
X115477685Y-43586450D01*
X115575232Y-43403954D01*
X115635300Y-43205934D01*
X115655583Y-43000000D01*
X116084417Y-43000000D01*
X116104699Y-43205932D01*
X116104700Y-43205934D01*
X116164768Y-43403954D01*
X116262315Y-43586450D01*
X116262317Y-43586452D01*
X116393589Y-43746410D01*
X116466876Y-43806554D01*
X116553550Y-43877685D01*
X116736046Y-43975232D01*
X116934066Y-44035300D01*
X116934065Y-44035300D01*
X116952529Y-44037118D01*
X117140000Y-44055583D01*
X117345934Y-44035300D01*
X117543954Y-43975232D01*
X117726450Y-43877685D01*
X117886410Y-43746410D01*
X118017685Y-43586450D01*
X118115232Y-43403954D01*
X118175300Y-43205934D01*
X118195583Y-43000000D01*
X118624417Y-43000000D01*
X118644699Y-43205932D01*
X118644700Y-43205934D01*
X118704768Y-43403954D01*
X118802315Y-43586450D01*
X118802317Y-43586452D01*
X118933589Y-43746410D01*
X119006876Y-43806554D01*
X119093550Y-43877685D01*
X119276046Y-43975232D01*
X119474066Y-44035300D01*
X119474065Y-44035300D01*
X119492529Y-44037118D01*
X119680000Y-44055583D01*
X119885934Y-44035300D01*
X120083954Y-43975232D01*
X120266450Y-43877685D01*
X120426410Y-43746410D01*
X120557685Y-43586450D01*
X120655232Y-43403954D01*
X120715300Y-43205934D01*
X120735583Y-43000000D01*
X121164417Y-43000000D01*
X121184699Y-43205932D01*
X121184700Y-43205934D01*
X121244768Y-43403954D01*
X121342315Y-43586450D01*
X121342317Y-43586452D01*
X121473589Y-43746410D01*
X121546876Y-43806554D01*
X121633550Y-43877685D01*
X121816046Y-43975232D01*
X122014066Y-44035300D01*
X122014065Y-44035300D01*
X122032529Y-44037118D01*
X122220000Y-44055583D01*
X122425934Y-44035300D01*
X122623954Y-43975232D01*
X122806450Y-43877685D01*
X122966410Y-43746410D01*
X123097685Y-43586450D01*
X123195232Y-43403954D01*
X123255300Y-43205934D01*
X123275583Y-43000000D01*
X123704417Y-43000000D01*
X123724699Y-43205932D01*
X123724700Y-43205934D01*
X123784768Y-43403954D01*
X123882315Y-43586450D01*
X123882317Y-43586452D01*
X124013589Y-43746410D01*
X124086876Y-43806554D01*
X124173550Y-43877685D01*
X124356046Y-43975232D01*
X124554066Y-44035300D01*
X124554065Y-44035300D01*
X124572529Y-44037118D01*
X124760000Y-44055583D01*
X124965934Y-44035300D01*
X125163954Y-43975232D01*
X125346450Y-43877685D01*
X125506410Y-43746410D01*
X125637685Y-43586450D01*
X125735232Y-43403954D01*
X125795300Y-43205934D01*
X125815583Y-43000000D01*
X125795300Y-42794066D01*
X125735232Y-42596046D01*
X125637685Y-42413550D01*
X125585702Y-42350209D01*
X125506410Y-42253589D01*
X125356121Y-42130252D01*
X125346450Y-42122315D01*
X125163954Y-42024768D01*
X124965934Y-41964700D01*
X124965932Y-41964699D01*
X124965934Y-41964699D01*
X124760000Y-41944417D01*
X124554067Y-41964699D01*
X124419736Y-42005448D01*
X124364476Y-42022211D01*
X124356043Y-42024769D01*
X124268114Y-42071769D01*
X124173550Y-42122315D01*
X124173548Y-42122316D01*
X124173547Y-42122317D01*
X124013589Y-42253589D01*
X123882317Y-42413547D01*
X123784769Y-42596043D01*
X123724699Y-42794067D01*
X123704417Y-43000000D01*
X123275583Y-43000000D01*
X123255300Y-42794066D01*
X123195232Y-42596046D01*
X123097685Y-42413550D01*
X123045702Y-42350209D01*
X122966410Y-42253589D01*
X122816121Y-42130252D01*
X122806450Y-42122315D01*
X122623954Y-42024768D01*
X122425934Y-41964700D01*
X122425932Y-41964699D01*
X122425934Y-41964699D01*
X122220000Y-41944417D01*
X122014067Y-41964699D01*
X121879736Y-42005448D01*
X121824476Y-42022211D01*
X121816043Y-42024769D01*
X121728114Y-42071769D01*
X121633550Y-42122315D01*
X121633548Y-42122316D01*
X121633547Y-42122317D01*
X121473589Y-42253589D01*
X121342317Y-42413547D01*
X121244769Y-42596043D01*
X121184699Y-42794067D01*
X121164417Y-43000000D01*
X120735583Y-43000000D01*
X120715300Y-42794066D01*
X120655232Y-42596046D01*
X120557685Y-42413550D01*
X120505702Y-42350209D01*
X120426410Y-42253589D01*
X120276121Y-42130252D01*
X120266450Y-42122315D01*
X120083954Y-42024768D01*
X119885934Y-41964700D01*
X119885932Y-41964699D01*
X119885934Y-41964699D01*
X119680000Y-41944417D01*
X119474067Y-41964699D01*
X119339736Y-42005448D01*
X119284476Y-42022211D01*
X119276043Y-42024769D01*
X119188114Y-42071769D01*
X119093550Y-42122315D01*
X119093548Y-42122316D01*
X119093547Y-42122317D01*
X118933589Y-42253589D01*
X118802317Y-42413547D01*
X118704769Y-42596043D01*
X118644699Y-42794067D01*
X118624417Y-43000000D01*
X118195583Y-43000000D01*
X118175300Y-42794066D01*
X118115232Y-42596046D01*
X118017685Y-42413550D01*
X117965702Y-42350209D01*
X117886410Y-42253589D01*
X117736121Y-42130252D01*
X117726450Y-42122315D01*
X117543954Y-42024768D01*
X117345934Y-41964700D01*
X117345932Y-41964699D01*
X117345934Y-41964699D01*
X117140000Y-41944417D01*
X116934067Y-41964699D01*
X116799736Y-42005448D01*
X116744476Y-42022211D01*
X116736043Y-42024769D01*
X116648114Y-42071769D01*
X116553550Y-42122315D01*
X116553548Y-42122316D01*
X116553547Y-42122317D01*
X116393589Y-42253589D01*
X116262317Y-42413547D01*
X116164769Y-42596043D01*
X116104699Y-42794067D01*
X116084417Y-43000000D01*
X115655583Y-43000000D01*
X115635300Y-42794066D01*
X115575232Y-42596046D01*
X115477685Y-42413550D01*
X115425702Y-42350209D01*
X115346410Y-42253589D01*
X115196121Y-42130252D01*
X115186450Y-42122315D01*
X115003954Y-42024768D01*
X114805934Y-41964700D01*
X114805932Y-41964699D01*
X114805934Y-41964699D01*
X114600000Y-41944417D01*
X114394067Y-41964699D01*
X114259736Y-42005448D01*
X114204476Y-42022211D01*
X114196043Y-42024769D01*
X114108114Y-42071769D01*
X114013550Y-42122315D01*
X114013548Y-42122316D01*
X114013547Y-42122317D01*
X113853589Y-42253589D01*
X113722317Y-42413547D01*
X113624769Y-42596043D01*
X113564699Y-42794067D01*
X113544417Y-43000000D01*
X113115583Y-43000000D01*
X113095300Y-42794066D01*
X113035232Y-42596046D01*
X112937685Y-42413550D01*
X112885702Y-42350209D01*
X112806410Y-42253589D01*
X112656121Y-42130252D01*
X112646450Y-42122315D01*
X112463954Y-42024768D01*
X112265934Y-41964700D01*
X112265932Y-41964699D01*
X112265934Y-41964699D01*
X112060000Y-41944417D01*
X111854067Y-41964699D01*
X111719736Y-42005448D01*
X111664476Y-42022211D01*
X111656043Y-42024769D01*
X111568114Y-42071769D01*
X111473550Y-42122315D01*
X111473548Y-42122316D01*
X111473547Y-42122317D01*
X111313589Y-42253589D01*
X111182317Y-42413547D01*
X111084769Y-42596043D01*
X111024699Y-42794067D01*
X111004417Y-43000000D01*
X110575583Y-43000000D01*
X110555300Y-42794066D01*
X110495232Y-42596046D01*
X110397685Y-42413550D01*
X110345702Y-42350209D01*
X110266410Y-42253589D01*
X110116121Y-42130252D01*
X110106450Y-42122315D01*
X109923954Y-42024768D01*
X109725934Y-41964700D01*
X109725932Y-41964699D01*
X109725934Y-41964699D01*
X109520000Y-41944417D01*
X109314067Y-41964699D01*
X109179736Y-42005448D01*
X109124476Y-42022211D01*
X109116043Y-42024769D01*
X109028114Y-42071769D01*
X108933550Y-42122315D01*
X108933548Y-42122316D01*
X108933547Y-42122317D01*
X108773589Y-42253589D01*
X108642317Y-42413547D01*
X108544769Y-42596043D01*
X108484699Y-42794067D01*
X108464417Y-43000000D01*
X108035583Y-43000000D01*
X108015300Y-42794066D01*
X107955232Y-42596046D01*
X107857685Y-42413550D01*
X107805702Y-42350209D01*
X107726410Y-42253589D01*
X107576121Y-42130252D01*
X107566450Y-42122315D01*
X107383954Y-42024768D01*
X107185934Y-41964700D01*
X107185932Y-41964699D01*
X107185934Y-41964699D01*
X106980000Y-41944417D01*
X106774067Y-41964699D01*
X106639736Y-42005448D01*
X106584476Y-42022211D01*
X106576043Y-42024769D01*
X106488114Y-42071769D01*
X106393550Y-42122315D01*
X106393548Y-42122316D01*
X106393547Y-42122317D01*
X106233589Y-42253589D01*
X106102317Y-42413547D01*
X106004769Y-42596043D01*
X105944699Y-42794067D01*
X105924417Y-43000000D01*
X105944699Y-43205932D01*
X105944700Y-43205934D01*
X106004768Y-43403954D01*
X106102315Y-43586450D01*
X106102317Y-43586452D01*
X106233590Y-43746410D01*
X106369430Y-43857891D01*
X106408764Y-43915636D01*
X106410635Y-43985481D01*
X106378446Y-44041425D01*
X90386695Y-60033176D01*
X90325372Y-60066661D01*
X90255680Y-60061677D01*
X90199747Y-60019805D01*
X90197440Y-60016620D01*
X90181214Y-59993448D01*
X90181209Y-59993442D01*
X90026554Y-59838787D01*
X89847387Y-59713333D01*
X89649159Y-59620898D01*
X89649150Y-59620894D01*
X89478894Y-59575275D01*
X89419233Y-59538910D01*
X89388704Y-59476063D01*
X89396999Y-59406688D01*
X89423302Y-59367824D01*
X94819721Y-53971404D01*
X94881042Y-53937921D01*
X94923582Y-53936148D01*
X94996000Y-53945682D01*
X94996001Y-53945682D01*
X95068418Y-53936148D01*
X95152762Y-53925044D01*
X95298841Y-53864536D01*
X95424282Y-53768282D01*
X95520536Y-53642841D01*
X95581044Y-53496762D01*
X95601682Y-53340000D01*
X95581044Y-53183238D01*
X95520536Y-53037159D01*
X95424282Y-52911718D01*
X95298841Y-52815464D01*
X95152762Y-52754956D01*
X95152760Y-52754955D01*
X94996001Y-52734318D01*
X94995999Y-52734318D01*
X94839239Y-52754955D01*
X94839237Y-52754956D01*
X94693160Y-52815463D01*
X94567718Y-52911718D01*
X94471463Y-53037160D01*
X94410956Y-53183237D01*
X94410955Y-53183239D01*
X94390318Y-53339998D01*
X94390318Y-53340001D01*
X94398641Y-53403222D01*
X94387875Y-53472257D01*
X94363383Y-53507088D01*
X87699158Y-60171314D01*
X87637835Y-60204799D01*
X87568143Y-60199815D01*
X87515623Y-60162297D01*
X87426410Y-60053589D01*
X87276121Y-59930252D01*
X87266450Y-59922315D01*
X87083954Y-59824768D01*
X86885934Y-59764700D01*
X86885932Y-59764699D01*
X86885934Y-59764699D01*
X86680000Y-59744417D01*
X86474067Y-59764699D01*
X86276043Y-59824769D01*
X86188114Y-59871769D01*
X86093550Y-59922315D01*
X86093548Y-59922316D01*
X86093547Y-59922317D01*
X85933589Y-60053589D01*
X85802317Y-60213547D01*
X85704769Y-60396043D01*
X85644699Y-60594067D01*
X85624417Y-60800000D01*
X85644699Y-61005932D01*
X85644700Y-61005934D01*
X85704768Y-61203954D01*
X85802315Y-61386450D01*
X85802317Y-61386452D01*
X85933589Y-61546410D01*
X85976708Y-61581796D01*
X86093550Y-61677685D01*
X86276046Y-61775232D01*
X86276051Y-61775233D01*
X86277951Y-61776021D01*
X86278796Y-61776701D01*
X86281419Y-61778104D01*
X86281153Y-61778601D01*
X86332355Y-61819862D01*
X86354421Y-61886156D01*
X86354500Y-61890583D01*
X86354500Y-102676567D01*
X86353439Y-102692754D01*
X86352500Y-102699883D01*
X86352500Y-102699884D01*
X86352500Y-102786116D01*
X86358006Y-102806664D01*
X86374819Y-102869410D01*
X86417934Y-102944088D01*
X86417936Y-102944091D01*
X86856181Y-103382336D01*
X86889666Y-103443659D01*
X86892500Y-103470017D01*
X86892500Y-111075500D01*
X86872815Y-111142539D01*
X86820011Y-111188294D01*
X86768500Y-111199500D01*
X86663384Y-111199500D01*
X86644145Y-111201248D01*
X86592807Y-111205913D01*
X86430393Y-111256522D01*
X86284811Y-111344530D01*
X86164530Y-111464811D01*
X86076522Y-111610393D01*
X86025913Y-111772807D01*
X86019500Y-111843386D01*
X86019500Y-116843000D01*
X85999815Y-116910039D01*
X85947011Y-116955794D01*
X85895500Y-116967000D01*
X85364500Y-116967000D01*
X85297461Y-116947315D01*
X85251706Y-116894511D01*
X85240500Y-116843000D01*
X85240500Y-111843386D01*
X85234086Y-111772807D01*
X85234086Y-111772804D01*
X85183478Y-111610394D01*
X85095472Y-111464815D01*
X85095470Y-111464813D01*
X85095469Y-111464811D01*
X84975188Y-111344530D01*
X84829606Y-111256522D01*
X84737830Y-111227924D01*
X84667196Y-111205914D01*
X84667194Y-111205913D01*
X84667192Y-111205913D01*
X84617778Y-111201423D01*
X84596616Y-111199500D01*
X84596613Y-111199500D01*
X84491500Y-111199500D01*
X84424461Y-111179815D01*
X84378706Y-111127011D01*
X84367500Y-111075500D01*
X84367500Y-80391717D01*
X84387185Y-80324678D01*
X84403819Y-80304036D01*
X84871920Y-79835935D01*
X85766765Y-78941090D01*
X85809881Y-78866410D01*
X85832200Y-78783116D01*
X85832200Y-78696884D01*
X85832199Y-78696883D01*
X85831261Y-78689754D01*
X85830200Y-78673567D01*
X85830200Y-63298549D01*
X85830200Y-63298547D01*
X85808018Y-63215762D01*
X85808018Y-63215761D01*
X85765165Y-63141538D01*
X84567623Y-61943996D01*
X84534138Y-61882673D01*
X84539122Y-61812981D01*
X84580994Y-61757048D01*
X84596843Y-61746961D01*
X84726450Y-61677685D01*
X84886410Y-61546410D01*
X85017685Y-61386450D01*
X85115232Y-61203954D01*
X85175300Y-61005934D01*
X85195583Y-60800000D01*
X85175300Y-60594066D01*
X85115232Y-60396046D01*
X85017685Y-60213550D01*
X84965702Y-60150209D01*
X84886410Y-60053589D01*
X84736121Y-59930252D01*
X84726450Y-59922315D01*
X84543954Y-59824768D01*
X84345934Y-59764700D01*
X84345932Y-59764699D01*
X84345934Y-59764699D01*
X84140000Y-59744417D01*
X83934067Y-59764699D01*
X83736043Y-59824769D01*
X83648114Y-59871769D01*
X83553550Y-59922315D01*
X83553548Y-59922316D01*
X83553547Y-59922317D01*
X83393589Y-60053589D01*
X83262317Y-60213547D01*
X83164769Y-60396043D01*
X83104699Y-60594067D01*
X83084417Y-60800000D01*
X83104699Y-61005932D01*
X83104700Y-61005934D01*
X83164768Y-61203954D01*
X83262315Y-61386450D01*
X83262317Y-61386452D01*
X83393589Y-61546410D01*
X83436708Y-61581796D01*
X83553550Y-61677685D01*
X83736046Y-61775232D01*
X83736051Y-61775233D01*
X83737951Y-61776021D01*
X83738796Y-61776701D01*
X83741419Y-61778104D01*
X83741153Y-61778601D01*
X83792355Y-61819862D01*
X83814421Y-61886156D01*
X83814500Y-61890583D01*
X83814500Y-61933847D01*
X83814500Y-62019553D01*
X83820421Y-62041650D01*
X83836682Y-62102340D01*
X83836683Y-62102341D01*
X83879535Y-62176562D01*
X83879536Y-62176563D01*
X83879537Y-62176564D01*
X85142881Y-63439908D01*
X85176366Y-63501231D01*
X85179200Y-63527589D01*
X85179200Y-73750296D01*
X85159515Y-73817335D01*
X85106711Y-73863090D01*
X85037553Y-73873034D01*
X84973997Y-73844009D01*
X84938159Y-73791251D01*
X84935632Y-73784030D01*
X84935629Y-73784023D01*
X84781025Y-73462985D01*
X84781024Y-73462983D01*
X84591446Y-73161271D01*
X84369279Y-72882683D01*
X84117317Y-72630721D01*
X83838729Y-72408554D01*
X83537017Y-72218976D01*
X83537014Y-72218974D01*
X83215978Y-72064371D01*
X82879646Y-71946684D01*
X82879644Y-71946683D01*
X82611541Y-71885490D01*
X82532251Y-71867393D01*
X82532247Y-71867392D01*
X82532238Y-71867391D01*
X82178168Y-71827497D01*
X82178164Y-71827497D01*
X81821836Y-71827497D01*
X81821831Y-71827497D01*
X81467761Y-71867391D01*
X81467749Y-71867393D01*
X81120355Y-71946683D01*
X81120353Y-71946684D01*
X80784021Y-72064371D01*
X80462985Y-72218974D01*
X80161272Y-72408553D01*
X79882683Y-72630720D01*
X79630720Y-72882683D01*
X79408553Y-73161272D01*
X79218974Y-73462985D01*
X79064371Y-73784021D01*
X78946684Y-74120353D01*
X78946683Y-74120355D01*
X78867393Y-74467749D01*
X78867391Y-74467761D01*
X78827497Y-74821831D01*
X78827497Y-75178168D01*
X78867391Y-75532238D01*
X78867393Y-75532250D01*
X78946683Y-75879644D01*
X78946684Y-75879646D01*
X79064371Y-76215978D01*
X79218974Y-76537014D01*
X79218976Y-76537017D01*
X79408554Y-76838729D01*
X79630721Y-77117317D01*
X79882683Y-77369279D01*
X80161271Y-77591446D01*
X80462983Y-77781024D01*
X80784023Y-77935629D01*
X81120355Y-78053316D01*
X81467749Y-78132607D01*
X81821832Y-78172502D01*
X81821833Y-78172503D01*
X82178164Y-78172503D01*
X82178167Y-78172503D01*
X82178167Y-78172502D01*
X82532251Y-78132607D01*
X82879645Y-78053316D01*
X83215977Y-77935629D01*
X83537017Y-77781024D01*
X83838729Y-77591446D01*
X84117317Y-77369279D01*
X84369279Y-77117317D01*
X84591446Y-76838729D01*
X84781024Y-76537017D01*
X84935629Y-76215977D01*
X84938157Y-76208749D01*
X84978878Y-76151974D01*
X85043830Y-76126225D01*
X85112392Y-76139680D01*
X85162796Y-76188066D01*
X85179200Y-76249703D01*
X85179200Y-78550983D01*
X85159515Y-78618022D01*
X85142881Y-78638664D01*
X83777936Y-80003608D01*
X83777934Y-80003611D01*
X83734819Y-80078289D01*
X83712500Y-80161585D01*
X83712500Y-111075500D01*
X83692815Y-111142539D01*
X83640011Y-111188294D01*
X83588500Y-111199500D01*
X83483384Y-111199500D01*
X83464145Y-111201248D01*
X83412807Y-111205913D01*
X83250393Y-111256522D01*
X83104811Y-111344530D01*
X82984530Y-111464811D01*
X82896522Y-111610393D01*
X82845913Y-111772807D01*
X82839500Y-111843386D01*
X82839500Y-116843000D01*
X82819815Y-116910039D01*
X82767011Y-116955794D01*
X82715500Y-116967000D01*
X82184500Y-116967000D01*
X82117461Y-116947315D01*
X82071706Y-116894511D01*
X82060500Y-116843000D01*
X82060500Y-111843386D01*
X82054086Y-111772807D01*
X82054086Y-111772804D01*
X82003478Y-111610394D01*
X81915472Y-111464815D01*
X81915470Y-111464813D01*
X81915469Y-111464811D01*
X81795188Y-111344530D01*
X81649606Y-111256522D01*
X81557830Y-111227924D01*
X81487196Y-111205914D01*
X81487194Y-111205913D01*
X81487192Y-111205913D01*
X81437778Y-111201423D01*
X81416616Y-111199500D01*
X81416613Y-111199500D01*
X81311500Y-111199500D01*
X81244461Y-111179815D01*
X81198706Y-111127011D01*
X81187500Y-111075500D01*
X81187500Y-80054885D01*
X81173761Y-80003611D01*
X81165181Y-79971590D01*
X81122065Y-79896910D01*
X81061090Y-79835935D01*
X78595819Y-77370664D01*
X78562334Y-77309341D01*
X78559500Y-77282983D01*
X78559500Y-65531717D01*
X78579185Y-65464678D01*
X78595819Y-65444036D01*
X78947558Y-65092297D01*
X78947562Y-65092293D01*
X78947564Y-65092288D01*
X78951933Y-65086595D01*
X78962629Y-65074396D01*
X81789652Y-62247372D01*
X81789657Y-62247369D01*
X81799860Y-62237165D01*
X81799862Y-62237165D01*
X81860465Y-62176562D01*
X81903318Y-62102338D01*
X81925501Y-62019553D01*
X81925501Y-61933847D01*
X81925501Y-61926252D01*
X81925500Y-61926234D01*
X81925500Y-61890583D01*
X81945185Y-61823544D01*
X81997989Y-61777789D01*
X82002049Y-61776021D01*
X82003945Y-61775234D01*
X82003954Y-61775232D01*
X82186450Y-61677685D01*
X82346410Y-61546410D01*
X82477685Y-61386450D01*
X82575232Y-61203954D01*
X82635300Y-61005934D01*
X82655583Y-60800000D01*
X82635300Y-60594066D01*
X82575232Y-60396046D01*
X82477685Y-60213550D01*
X82425702Y-60150209D01*
X82346410Y-60053589D01*
X82196121Y-59930252D01*
X82186450Y-59922315D01*
X82003954Y-59824768D01*
X81805934Y-59764700D01*
X81805932Y-59764699D01*
X81805934Y-59764699D01*
X81600000Y-59744417D01*
X81394067Y-59764699D01*
X81196043Y-59824769D01*
X81108114Y-59871769D01*
X81013550Y-59922315D01*
X81013548Y-59922316D01*
X81013547Y-59922317D01*
X80853589Y-60053589D01*
X80722317Y-60213547D01*
X80624769Y-60396043D01*
X80564699Y-60594067D01*
X80544417Y-60800000D01*
X80564699Y-61005932D01*
X80564700Y-61005934D01*
X80624768Y-61203954D01*
X80722315Y-61386450D01*
X80722317Y-61386452D01*
X80853589Y-61546410D01*
X80896708Y-61581796D01*
X81013550Y-61677685D01*
X81143150Y-61746958D01*
X81192993Y-61795919D01*
X81208453Y-61864057D01*
X81184621Y-61929737D01*
X81172376Y-61943996D01*
X78502310Y-64614061D01*
X78490126Y-64624748D01*
X78484405Y-64629138D01*
X78030910Y-65082635D01*
X77969936Y-65143608D01*
X77969934Y-65143611D01*
X77926819Y-65218289D01*
X77926819Y-65218290D01*
X77904500Y-65301584D01*
X77904500Y-77426884D01*
X77904500Y-77513116D01*
X77925489Y-77591446D01*
X77926819Y-77596410D01*
X77969934Y-77671088D01*
X77969936Y-77671091D01*
X80496181Y-80197336D01*
X80529666Y-80258659D01*
X80532500Y-80285017D01*
X80532500Y-111075500D01*
X80512815Y-111142539D01*
X80460011Y-111188294D01*
X80408500Y-111199500D01*
X80303384Y-111199500D01*
X80284145Y-111201248D01*
X80232807Y-111205913D01*
X80070393Y-111256522D01*
X79924811Y-111344530D01*
X79804530Y-111464811D01*
X79716522Y-111610393D01*
X79665913Y-111772807D01*
X79659500Y-111843386D01*
X79659500Y-116843000D01*
X79639815Y-116910039D01*
X79587011Y-116955794D01*
X79535500Y-116967000D01*
X79004500Y-116967000D01*
X78937461Y-116947315D01*
X78891706Y-116894511D01*
X78880500Y-116843000D01*
X78880500Y-111843386D01*
X78874086Y-111772807D01*
X78874086Y-111772804D01*
X78823478Y-111610394D01*
X78735472Y-111464815D01*
X78735470Y-111464813D01*
X78735469Y-111464811D01*
X78615188Y-111344530D01*
X78469606Y-111256522D01*
X78377830Y-111227924D01*
X78307196Y-111205914D01*
X78307194Y-111205913D01*
X78307192Y-111205913D01*
X78257778Y-111201423D01*
X78236616Y-111199500D01*
X78236613Y-111199500D01*
X78129500Y-111199500D01*
X78062461Y-111179815D01*
X78016706Y-111127011D01*
X78007667Y-111085461D01*
X78006561Y-111085607D01*
X78005500Y-111077554D01*
X78005500Y-111077547D01*
X77983318Y-110994762D01*
X77983314Y-110994755D01*
X77940469Y-110920544D01*
X77940463Y-110920536D01*
X77669211Y-110649284D01*
X77635726Y-110587961D01*
X77633953Y-110545416D01*
X77642882Y-110477599D01*
X77642882Y-110477598D01*
X77622244Y-110320839D01*
X77622244Y-110320838D01*
X77561736Y-110174759D01*
X77465482Y-110049318D01*
X77340041Y-109953064D01*
X77193962Y-109892556D01*
X77193960Y-109892555D01*
X77037201Y-109871918D01*
X77037199Y-109871918D01*
X76880439Y-109892555D01*
X76880437Y-109892556D01*
X76734360Y-109953063D01*
X76608918Y-110049318D01*
X76512663Y-110174760D01*
X76452156Y-110320837D01*
X76452155Y-110320839D01*
X76431518Y-110477598D01*
X76431518Y-110477601D01*
X76452155Y-110634360D01*
X76452156Y-110634362D01*
X76512664Y-110780441D01*
X76608918Y-110905882D01*
X76734359Y-111002136D01*
X76850132Y-111050090D01*
X76904534Y-111093931D01*
X76926599Y-111160225D01*
X76909320Y-111227924D01*
X76866829Y-111270767D01*
X76744814Y-111344528D01*
X76744810Y-111344531D01*
X76624530Y-111464811D01*
X76536522Y-111610393D01*
X76485913Y-111772807D01*
X76479500Y-111843386D01*
X76479500Y-116843000D01*
X76459815Y-116910039D01*
X76407011Y-116955794D01*
X76355500Y-116967000D01*
X75824500Y-116967000D01*
X75757461Y-116947315D01*
X75711706Y-116894511D01*
X75700500Y-116843000D01*
X75700500Y-111843386D01*
X75694086Y-111772807D01*
X75694086Y-111772804D01*
X75643478Y-111610394D01*
X75555472Y-111464815D01*
X75555470Y-111464813D01*
X75555469Y-111464811D01*
X75435188Y-111344530D01*
X75289606Y-111256522D01*
X75197830Y-111227924D01*
X75127196Y-111205914D01*
X75127194Y-111205913D01*
X75127192Y-111205913D01*
X75077778Y-111201423D01*
X75056616Y-111199500D01*
X75056613Y-111199500D01*
X74949500Y-111199500D01*
X74882461Y-111179815D01*
X74836706Y-111127011D01*
X74825500Y-111075500D01*
X74825500Y-64182889D01*
X74845185Y-64115850D01*
X74861819Y-64095208D01*
X75815492Y-63141535D01*
X76780465Y-62176562D01*
X76818282Y-62111059D01*
X76818284Y-62111058D01*
X76823317Y-62102339D01*
X76823318Y-62102338D01*
X76845500Y-62019553D01*
X76845500Y-61974500D01*
X76865185Y-61907461D01*
X76917989Y-61861706D01*
X76969500Y-61850500D01*
X77389750Y-61850500D01*
X77389751Y-61850499D01*
X77404568Y-61847552D01*
X77448229Y-61838868D01*
X77448229Y-61838867D01*
X77448231Y-61838867D01*
X77514552Y-61794552D01*
X77558867Y-61728231D01*
X77558867Y-61728229D01*
X77558868Y-61728229D01*
X77570499Y-61669752D01*
X77570500Y-61669750D01*
X77570500Y-60800000D01*
X78004417Y-60800000D01*
X78024699Y-61005932D01*
X78024700Y-61005934D01*
X78084768Y-61203954D01*
X78182315Y-61386450D01*
X78182317Y-61386452D01*
X78313589Y-61546410D01*
X78356708Y-61581796D01*
X78473550Y-61677685D01*
X78656046Y-61775232D01*
X78854066Y-61835300D01*
X78854065Y-61835300D01*
X78872529Y-61837118D01*
X79060000Y-61855583D01*
X79265934Y-61835300D01*
X79463954Y-61775232D01*
X79646450Y-61677685D01*
X79806410Y-61546410D01*
X79937685Y-61386450D01*
X80035232Y-61203954D01*
X80095300Y-61005934D01*
X80115583Y-60800000D01*
X80095300Y-60594066D01*
X80035232Y-60396046D01*
X79937685Y-60213550D01*
X79885702Y-60150209D01*
X79806410Y-60053589D01*
X79656121Y-59930252D01*
X79646450Y-59922315D01*
X79463954Y-59824768D01*
X79265934Y-59764700D01*
X79265932Y-59764699D01*
X79265934Y-59764699D01*
X79060000Y-59744417D01*
X78854067Y-59764699D01*
X78656043Y-59824769D01*
X78568114Y-59871769D01*
X78473550Y-59922315D01*
X78473548Y-59922316D01*
X78473547Y-59922317D01*
X78313589Y-60053589D01*
X78182317Y-60213547D01*
X78084769Y-60396043D01*
X78024699Y-60594067D01*
X78004417Y-60800000D01*
X77570500Y-60800000D01*
X77570500Y-59930249D01*
X77570499Y-59930247D01*
X77558868Y-59871770D01*
X77558867Y-59871769D01*
X77514552Y-59805447D01*
X77448230Y-59761132D01*
X77448229Y-59761131D01*
X77389752Y-59749500D01*
X77389748Y-59749500D01*
X75650252Y-59749500D01*
X75650247Y-59749500D01*
X75591770Y-59761131D01*
X75591769Y-59761132D01*
X75525447Y-59805447D01*
X75481132Y-59871769D01*
X75481131Y-59871770D01*
X75469500Y-59930247D01*
X75469500Y-61669752D01*
X75481131Y-61728229D01*
X75481132Y-61728230D01*
X75525447Y-61794552D01*
X75591769Y-61838867D01*
X75591770Y-61838868D01*
X75650247Y-61850499D01*
X75650250Y-61850500D01*
X75650252Y-61850500D01*
X75886511Y-61850500D01*
X75953550Y-61870185D01*
X75999305Y-61922989D01*
X76009249Y-61992147D01*
X75980224Y-62055703D01*
X75974192Y-62062181D01*
X74239537Y-63796835D01*
X74239535Y-63796838D01*
X74196682Y-63871059D01*
X74174500Y-63953847D01*
X74174500Y-111075500D01*
X74154815Y-111142539D01*
X74102011Y-111188294D01*
X74050500Y-111199500D01*
X73943384Y-111199500D01*
X73924145Y-111201248D01*
X73872807Y-111205913D01*
X73710393Y-111256522D01*
X73564811Y-111344530D01*
X73444530Y-111464811D01*
X73356522Y-111610393D01*
X73305913Y-111772807D01*
X73299500Y-111843386D01*
X73299500Y-116843000D01*
X73279815Y-116910039D01*
X73227011Y-116955794D01*
X73175500Y-116967000D01*
X72124000Y-116967000D01*
X72056961Y-116947315D01*
X72011206Y-116894511D01*
X72000000Y-116843000D01*
X72000000Y-42130247D01*
X75449500Y-42130247D01*
X75449500Y-43869752D01*
X75461131Y-43928229D01*
X75461132Y-43928230D01*
X75505447Y-43994552D01*
X75571769Y-44038867D01*
X75571770Y-44038868D01*
X75630247Y-44050499D01*
X75630250Y-44050500D01*
X75630252Y-44050500D01*
X77369750Y-44050500D01*
X77369751Y-44050499D01*
X77384568Y-44047552D01*
X77428229Y-44038868D01*
X77428229Y-44038867D01*
X77428231Y-44038867D01*
X77494552Y-43994552D01*
X77538867Y-43928231D01*
X77538867Y-43928229D01*
X77538868Y-43928229D01*
X77550499Y-43869752D01*
X77550500Y-43869750D01*
X77550500Y-43000000D01*
X77984417Y-43000000D01*
X78004699Y-43205932D01*
X78004700Y-43205934D01*
X78064768Y-43403954D01*
X78162315Y-43586450D01*
X78162317Y-43586452D01*
X78293589Y-43746410D01*
X78366876Y-43806554D01*
X78453550Y-43877685D01*
X78636046Y-43975232D01*
X78834066Y-44035300D01*
X78834065Y-44035300D01*
X78852529Y-44037118D01*
X79040000Y-44055583D01*
X79245934Y-44035300D01*
X79443954Y-43975232D01*
X79626450Y-43877685D01*
X79786410Y-43746410D01*
X79917685Y-43586450D01*
X80015232Y-43403954D01*
X80075300Y-43205934D01*
X80095583Y-43000000D01*
X80080809Y-42849999D01*
X80338347Y-42849999D01*
X80338348Y-42850000D01*
X81102555Y-42850000D01*
X81080000Y-42934174D01*
X81080000Y-43065826D01*
X81102555Y-43150000D01*
X80338348Y-43150000D01*
X80344287Y-43217885D01*
X80344289Y-43217894D01*
X80400894Y-43429150D01*
X80400898Y-43429159D01*
X80493333Y-43627387D01*
X80618787Y-43806554D01*
X80773445Y-43961212D01*
X80952612Y-44086666D01*
X81150840Y-44179101D01*
X81150849Y-44179105D01*
X81362110Y-44235711D01*
X81430000Y-44241650D01*
X81430000Y-43477445D01*
X81514174Y-43500000D01*
X81645826Y-43500000D01*
X81730000Y-43477445D01*
X81730000Y-44241650D01*
X81797887Y-44235711D01*
X81797891Y-44235711D01*
X82009150Y-44179105D01*
X82009159Y-44179101D01*
X82207387Y-44086666D01*
X82386554Y-43961212D01*
X82541212Y-43806554D01*
X82666666Y-43627387D01*
X82759101Y-43429159D01*
X82759105Y-43429150D01*
X82815710Y-43217894D01*
X82815712Y-43217885D01*
X82821652Y-43150000D01*
X82057445Y-43150000D01*
X82080000Y-43065826D01*
X82080000Y-43000000D01*
X83064417Y-43000000D01*
X83084699Y-43205932D01*
X83084700Y-43205934D01*
X83144768Y-43403954D01*
X83242315Y-43586450D01*
X83242317Y-43586452D01*
X83373589Y-43746410D01*
X83446876Y-43806554D01*
X83533550Y-43877685D01*
X83716046Y-43975232D01*
X83914066Y-44035300D01*
X83914065Y-44035300D01*
X83932529Y-44037118D01*
X84120000Y-44055583D01*
X84325934Y-44035300D01*
X84523954Y-43975232D01*
X84706450Y-43877685D01*
X84866410Y-43746410D01*
X84997685Y-43586450D01*
X85095232Y-43403954D01*
X85155300Y-43205934D01*
X85175583Y-43000000D01*
X85604417Y-43000000D01*
X85624699Y-43205932D01*
X85624700Y-43205934D01*
X85684768Y-43403954D01*
X85782315Y-43586450D01*
X85782317Y-43586452D01*
X85913589Y-43746410D01*
X85986876Y-43806554D01*
X86073550Y-43877685D01*
X86256046Y-43975232D01*
X86454066Y-44035300D01*
X86454065Y-44035300D01*
X86472529Y-44037118D01*
X86660000Y-44055583D01*
X86865934Y-44035300D01*
X87063954Y-43975232D01*
X87246450Y-43877685D01*
X87406410Y-43746410D01*
X87537685Y-43586450D01*
X87635232Y-43403954D01*
X87695300Y-43205934D01*
X87715583Y-43000000D01*
X87700809Y-42849999D01*
X87958347Y-42849999D01*
X87958348Y-42850000D01*
X88722555Y-42850000D01*
X88700000Y-42934174D01*
X88700000Y-43065826D01*
X88722555Y-43150000D01*
X87958348Y-43150000D01*
X87964287Y-43217885D01*
X87964289Y-43217894D01*
X88020894Y-43429150D01*
X88020898Y-43429159D01*
X88113333Y-43627387D01*
X88238787Y-43806554D01*
X88393445Y-43961212D01*
X88572612Y-44086666D01*
X88770840Y-44179101D01*
X88770849Y-44179105D01*
X88982110Y-44235711D01*
X89050000Y-44241650D01*
X89050000Y-43477445D01*
X89134174Y-43500000D01*
X89265826Y-43500000D01*
X89350000Y-43477445D01*
X89350000Y-44241650D01*
X89417887Y-44235711D01*
X89417891Y-44235711D01*
X89629150Y-44179105D01*
X89629159Y-44179101D01*
X89827387Y-44086666D01*
X90006554Y-43961212D01*
X90161212Y-43806554D01*
X90286666Y-43627387D01*
X90379101Y-43429159D01*
X90379105Y-43429150D01*
X90435710Y-43217894D01*
X90435712Y-43217885D01*
X90441652Y-43150000D01*
X89677445Y-43150000D01*
X89700000Y-43065826D01*
X89700000Y-43000000D01*
X90684417Y-43000000D01*
X90704699Y-43205932D01*
X90704700Y-43205934D01*
X90764768Y-43403954D01*
X90862315Y-43586450D01*
X90862317Y-43586452D01*
X90993589Y-43746410D01*
X91066876Y-43806554D01*
X91153550Y-43877685D01*
X91336046Y-43975232D01*
X91534066Y-44035300D01*
X91534065Y-44035300D01*
X91552529Y-44037118D01*
X91740000Y-44055583D01*
X91945934Y-44035300D01*
X92143954Y-43975232D01*
X92326450Y-43877685D01*
X92486410Y-43746410D01*
X92617685Y-43586450D01*
X92715232Y-43403954D01*
X92775300Y-43205934D01*
X92795583Y-43000000D01*
X93224417Y-43000000D01*
X93244699Y-43205932D01*
X93244700Y-43205934D01*
X93304768Y-43403954D01*
X93402315Y-43586450D01*
X93402317Y-43586452D01*
X93533589Y-43746410D01*
X93606876Y-43806554D01*
X93693550Y-43877685D01*
X93876046Y-43975232D01*
X94074066Y-44035300D01*
X94074065Y-44035300D01*
X94092529Y-44037118D01*
X94280000Y-44055583D01*
X94485934Y-44035300D01*
X94683954Y-43975232D01*
X94866450Y-43877685D01*
X95026410Y-43746410D01*
X95157685Y-43586450D01*
X95255232Y-43403954D01*
X95315300Y-43205934D01*
X95335583Y-43000000D01*
X95764417Y-43000000D01*
X95784699Y-43205932D01*
X95784700Y-43205934D01*
X95844768Y-43403954D01*
X95942315Y-43586450D01*
X95942317Y-43586452D01*
X96073589Y-43746410D01*
X96146876Y-43806554D01*
X96233550Y-43877685D01*
X96416046Y-43975232D01*
X96614066Y-44035300D01*
X96614065Y-44035300D01*
X96632529Y-44037118D01*
X96820000Y-44055583D01*
X97025934Y-44035300D01*
X97223954Y-43975232D01*
X97406450Y-43877685D01*
X97566410Y-43746410D01*
X97697685Y-43586450D01*
X97795232Y-43403954D01*
X97855300Y-43205934D01*
X97875583Y-43000000D01*
X98304417Y-43000000D01*
X98324699Y-43205932D01*
X98324700Y-43205934D01*
X98384768Y-43403954D01*
X98482315Y-43586450D01*
X98482317Y-43586452D01*
X98613589Y-43746410D01*
X98686876Y-43806554D01*
X98773550Y-43877685D01*
X98956046Y-43975232D01*
X99154066Y-44035300D01*
X99154065Y-44035300D01*
X99172529Y-44037118D01*
X99360000Y-44055583D01*
X99565934Y-44035300D01*
X99763954Y-43975232D01*
X99946450Y-43877685D01*
X100106410Y-43746410D01*
X100237685Y-43586450D01*
X100335232Y-43403954D01*
X100395300Y-43205934D01*
X100415583Y-43000000D01*
X100844417Y-43000000D01*
X100864699Y-43205932D01*
X100864700Y-43205934D01*
X100924768Y-43403954D01*
X101022315Y-43586450D01*
X101022317Y-43586452D01*
X101153589Y-43746410D01*
X101226876Y-43806554D01*
X101313550Y-43877685D01*
X101496046Y-43975232D01*
X101694066Y-44035300D01*
X101694065Y-44035300D01*
X101712529Y-44037118D01*
X101900000Y-44055583D01*
X102105934Y-44035300D01*
X102303954Y-43975232D01*
X102486450Y-43877685D01*
X102646410Y-43746410D01*
X102777685Y-43586450D01*
X102875232Y-43403954D01*
X102935300Y-43205934D01*
X102955583Y-43000000D01*
X102940809Y-42849999D01*
X103198347Y-42849999D01*
X103198348Y-42850000D01*
X103962555Y-42850000D01*
X103940000Y-42934174D01*
X103940000Y-43065826D01*
X103962555Y-43150000D01*
X103198348Y-43150000D01*
X103204287Y-43217885D01*
X103204289Y-43217894D01*
X103260894Y-43429150D01*
X103260898Y-43429159D01*
X103353333Y-43627387D01*
X103478787Y-43806554D01*
X103633445Y-43961212D01*
X103812612Y-44086666D01*
X104010840Y-44179101D01*
X104010849Y-44179105D01*
X104222110Y-44235711D01*
X104290000Y-44241650D01*
X104290000Y-43477445D01*
X104374174Y-43500000D01*
X104505826Y-43500000D01*
X104590000Y-43477445D01*
X104590000Y-44241650D01*
X104657887Y-44235711D01*
X104657891Y-44235711D01*
X104869150Y-44179105D01*
X104869159Y-44179101D01*
X105067387Y-44086666D01*
X105246554Y-43961212D01*
X105401212Y-43806554D01*
X105526666Y-43627387D01*
X105619101Y-43429159D01*
X105619105Y-43429150D01*
X105675710Y-43217894D01*
X105675712Y-43217885D01*
X105681652Y-43150000D01*
X104917445Y-43150000D01*
X104940000Y-43065826D01*
X104940000Y-42934174D01*
X104917445Y-42850000D01*
X105681652Y-42850000D01*
X105681652Y-42849999D01*
X105675712Y-42782114D01*
X105675710Y-42782105D01*
X105619105Y-42570849D01*
X105619101Y-42570840D01*
X105526666Y-42372612D01*
X105526664Y-42372608D01*
X105401216Y-42193450D01*
X105401211Y-42193444D01*
X105246554Y-42038787D01*
X105067387Y-41913333D01*
X104869159Y-41820898D01*
X104869150Y-41820894D01*
X104657894Y-41764289D01*
X104657885Y-41764287D01*
X104590000Y-41758347D01*
X104590000Y-42522554D01*
X104505826Y-42500000D01*
X104374174Y-42500000D01*
X104290000Y-42522554D01*
X104290000Y-41758348D01*
X104289999Y-41758347D01*
X104222114Y-41764287D01*
X104222105Y-41764289D01*
X104010849Y-41820894D01*
X104010840Y-41820898D01*
X103812612Y-41913333D01*
X103812608Y-41913335D01*
X103633450Y-42038783D01*
X103633444Y-42038788D01*
X103478788Y-42193444D01*
X103478783Y-42193450D01*
X103353335Y-42372608D01*
X103353333Y-42372612D01*
X103260898Y-42570840D01*
X103260894Y-42570849D01*
X103204289Y-42782105D01*
X103204287Y-42782114D01*
X103198347Y-42849999D01*
X102940809Y-42849999D01*
X102935300Y-42794066D01*
X102875232Y-42596046D01*
X102777685Y-42413550D01*
X102725702Y-42350209D01*
X102646410Y-42253589D01*
X102496121Y-42130252D01*
X102486450Y-42122315D01*
X102303954Y-42024768D01*
X102105934Y-41964700D01*
X102105932Y-41964699D01*
X102105934Y-41964699D01*
X101900000Y-41944417D01*
X101694067Y-41964699D01*
X101559736Y-42005448D01*
X101504476Y-42022211D01*
X101496043Y-42024769D01*
X101408114Y-42071769D01*
X101313550Y-42122315D01*
X101313548Y-42122316D01*
X101313547Y-42122317D01*
X101153589Y-42253589D01*
X101022317Y-42413547D01*
X100924769Y-42596043D01*
X100864699Y-42794067D01*
X100844417Y-43000000D01*
X100415583Y-43000000D01*
X100395300Y-42794066D01*
X100335232Y-42596046D01*
X100237685Y-42413550D01*
X100185702Y-42350209D01*
X100106410Y-42253589D01*
X99956121Y-42130252D01*
X99946450Y-42122315D01*
X99763954Y-42024768D01*
X99762049Y-42023979D01*
X99761203Y-42023298D01*
X99758581Y-42021896D01*
X99758846Y-42021398D01*
X99707645Y-41980138D01*
X99685579Y-41913844D01*
X99685500Y-41909417D01*
X99685500Y-40157001D01*
X99705185Y-40089962D01*
X99734014Y-40058625D01*
X99742282Y-40052282D01*
X99838536Y-39926841D01*
X99899044Y-39780762D01*
X99909677Y-39699994D01*
X130095202Y-39699994D01*
X130095202Y-39700005D01*
X130114361Y-39931218D01*
X130171317Y-40156135D01*
X130264515Y-40368606D01*
X130391418Y-40562846D01*
X130391422Y-40562851D01*
X130407524Y-40580341D01*
X130407525Y-40580341D01*
X131019726Y-39968141D01*
X131059890Y-40037708D01*
X131162292Y-40140110D01*
X131231857Y-40180273D01*
X130621676Y-40790454D01*
X130731649Y-40876050D01*
X130935697Y-40986476D01*
X130935706Y-40986479D01*
X131155139Y-41061811D01*
X131383993Y-41100000D01*
X131616007Y-41100000D01*
X131844860Y-41061811D01*
X132064293Y-40986479D01*
X132064302Y-40986476D01*
X132268353Y-40876048D01*
X132378322Y-40790455D01*
X132378322Y-40790454D01*
X131768141Y-40180273D01*
X131837708Y-40140110D01*
X131940110Y-40037708D01*
X131980273Y-39968141D01*
X132592473Y-40580342D01*
X132592474Y-40580341D01*
X132608584Y-40562843D01*
X132735483Y-40368609D01*
X132828682Y-40156135D01*
X132885638Y-39931218D01*
X132904798Y-39700005D01*
X132904798Y-39699994D01*
X136595202Y-39699994D01*
X136595202Y-39700005D01*
X136614361Y-39931218D01*
X136671317Y-40156135D01*
X136764515Y-40368606D01*
X136891418Y-40562846D01*
X136891422Y-40562851D01*
X136907524Y-40580341D01*
X136907525Y-40580341D01*
X137519726Y-39968141D01*
X137559890Y-40037708D01*
X137662292Y-40140110D01*
X137731857Y-40180273D01*
X137121676Y-40790454D01*
X137231649Y-40876050D01*
X137435697Y-40986476D01*
X137435706Y-40986479D01*
X137655139Y-41061811D01*
X137883993Y-41100000D01*
X138116007Y-41100000D01*
X138344860Y-41061811D01*
X138564293Y-40986479D01*
X138564302Y-40986476D01*
X138768353Y-40876048D01*
X138878322Y-40790455D01*
X138878322Y-40790454D01*
X138268141Y-40180273D01*
X138337708Y-40140110D01*
X138440110Y-40037708D01*
X138480273Y-39968141D01*
X139092473Y-40580342D01*
X139092474Y-40580341D01*
X139108584Y-40562843D01*
X139235483Y-40368609D01*
X139328682Y-40156135D01*
X139385638Y-39931218D01*
X139404798Y-39700005D01*
X139404798Y-39699994D01*
X139385638Y-39468781D01*
X139328682Y-39243864D01*
X139235484Y-39031393D01*
X139108581Y-38837153D01*
X139108577Y-38837148D01*
X139092474Y-38819657D01*
X139092473Y-38819657D01*
X138480273Y-39431857D01*
X138440110Y-39362292D01*
X138337708Y-39259890D01*
X138268141Y-39219726D01*
X138878322Y-38609544D01*
X138878322Y-38609543D01*
X138768349Y-38523948D01*
X138564302Y-38413523D01*
X138564293Y-38413520D01*
X138344860Y-38338188D01*
X138116007Y-38300000D01*
X137883993Y-38300000D01*
X137655139Y-38338188D01*
X137435706Y-38413520D01*
X137435697Y-38413523D01*
X137231646Y-38523951D01*
X137121676Y-38609543D01*
X137121676Y-38609544D01*
X137731858Y-39219726D01*
X137662292Y-39259890D01*
X137559890Y-39362292D01*
X137519726Y-39431858D01*
X136907525Y-38819657D01*
X136907524Y-38819657D01*
X136891414Y-38837157D01*
X136764516Y-39031390D01*
X136671317Y-39243864D01*
X136614361Y-39468781D01*
X136595202Y-39699994D01*
X132904798Y-39699994D01*
X132885638Y-39468781D01*
X132828682Y-39243864D01*
X132735484Y-39031393D01*
X132608581Y-38837153D01*
X132608577Y-38837148D01*
X132592474Y-38819657D01*
X132592473Y-38819657D01*
X131980273Y-39431857D01*
X131940110Y-39362292D01*
X131837708Y-39259890D01*
X131768141Y-39219726D01*
X132378322Y-38609544D01*
X132378322Y-38609543D01*
X132268349Y-38523948D01*
X132064302Y-38413523D01*
X132064293Y-38413520D01*
X131844860Y-38338188D01*
X131616007Y-38300000D01*
X131383993Y-38300000D01*
X131155139Y-38338188D01*
X130935706Y-38413520D01*
X130935697Y-38413523D01*
X130731646Y-38523951D01*
X130621676Y-38609543D01*
X130621676Y-38609544D01*
X131231858Y-39219726D01*
X131162292Y-39259890D01*
X131059890Y-39362292D01*
X131019726Y-39431858D01*
X130407525Y-38819657D01*
X130407524Y-38819657D01*
X130391414Y-38837157D01*
X130264516Y-39031390D01*
X130171317Y-39243864D01*
X130114361Y-39468781D01*
X130095202Y-39699994D01*
X99909677Y-39699994D01*
X99919682Y-39624000D01*
X99899044Y-39467238D01*
X99838536Y-39321159D01*
X99742282Y-39195718D01*
X99616841Y-39099464D01*
X99470762Y-39038956D01*
X99470760Y-39038955D01*
X99314001Y-39018318D01*
X99313999Y-39018318D01*
X99157239Y-39038955D01*
X99157237Y-39038956D01*
X99011160Y-39099463D01*
X98885718Y-39195718D01*
X98789463Y-39321160D01*
X98728956Y-39467237D01*
X98728955Y-39467239D01*
X98708318Y-39623998D01*
X98708318Y-39624001D01*
X98728955Y-39780760D01*
X98728956Y-39780762D01*
X98783437Y-39912292D01*
X98789464Y-39926841D01*
X98792823Y-39931218D01*
X98885719Y-40052283D01*
X98985986Y-40129220D01*
X99027189Y-40185648D01*
X99034500Y-40227596D01*
X99034500Y-41909417D01*
X99014815Y-41976456D01*
X98962011Y-42022211D01*
X98957951Y-42023979D01*
X98956045Y-42024768D01*
X98868114Y-42071769D01*
X98773550Y-42122315D01*
X98773548Y-42122316D01*
X98773547Y-42122317D01*
X98613589Y-42253589D01*
X98482317Y-42413547D01*
X98384769Y-42596043D01*
X98324699Y-42794067D01*
X98304417Y-43000000D01*
X97875583Y-43000000D01*
X97855300Y-42794066D01*
X97795232Y-42596046D01*
X97697685Y-42413550D01*
X97645702Y-42350209D01*
X97566410Y-42253589D01*
X97416121Y-42130252D01*
X97406450Y-42122315D01*
X97223954Y-42024768D01*
X97222049Y-42023979D01*
X97221203Y-42023298D01*
X97218581Y-42021896D01*
X97218846Y-42021398D01*
X97167645Y-41980138D01*
X97145579Y-41913844D01*
X97145500Y-41909417D01*
X97145500Y-39764189D01*
X97165185Y-39697150D01*
X97181819Y-39676508D01*
X99666508Y-37191819D01*
X99727831Y-37158334D01*
X99754189Y-37155500D01*
X125206390Y-37155500D01*
X125273429Y-37175185D01*
X125319184Y-37227989D01*
X125320951Y-37232047D01*
X125332462Y-37259838D01*
X125332463Y-37259839D01*
X125332464Y-37259841D01*
X125428718Y-37385282D01*
X125554159Y-37481536D01*
X125700238Y-37542044D01*
X125778619Y-37552363D01*
X125856999Y-37562682D01*
X125857000Y-37562682D01*
X125857001Y-37562682D01*
X125909254Y-37555802D01*
X126013762Y-37542044D01*
X126159841Y-37481536D01*
X126285282Y-37385282D01*
X126381536Y-37259841D01*
X126442044Y-37113762D01*
X126462682Y-36957000D01*
X126442044Y-36800238D01*
X126381536Y-36654159D01*
X126285282Y-36528718D01*
X126159841Y-36432464D01*
X126013762Y-36371956D01*
X126013760Y-36371955D01*
X125857001Y-36351318D01*
X125856999Y-36351318D01*
X125700239Y-36371955D01*
X125700234Y-36371957D01*
X125554163Y-36432461D01*
X125554162Y-36432461D01*
X125537475Y-36445266D01*
X125493672Y-36478876D01*
X125428506Y-36504070D01*
X125418188Y-36504500D01*
X99525147Y-36504500D01*
X99442359Y-36526682D01*
X99368138Y-36569535D01*
X99368135Y-36569537D01*
X96559537Y-39378135D01*
X96559533Y-39378141D01*
X96516681Y-39452362D01*
X96516680Y-39452363D01*
X96505050Y-39495772D01*
X96494500Y-39535145D01*
X96494500Y-41909417D01*
X96474815Y-41976456D01*
X96422011Y-42022211D01*
X96417951Y-42023979D01*
X96416045Y-42024768D01*
X96328114Y-42071769D01*
X96233550Y-42122315D01*
X96233548Y-42122316D01*
X96233547Y-42122317D01*
X96073589Y-42253589D01*
X95942317Y-42413547D01*
X95844769Y-42596043D01*
X95784699Y-42794067D01*
X95764417Y-43000000D01*
X95335583Y-43000000D01*
X95315300Y-42794066D01*
X95255232Y-42596046D01*
X95157685Y-42413550D01*
X95105702Y-42350209D01*
X95026410Y-42253589D01*
X94876121Y-42130252D01*
X94866450Y-42122315D01*
X94683954Y-42024768D01*
X94485934Y-41964700D01*
X94485932Y-41964699D01*
X94485934Y-41964699D01*
X94280000Y-41944417D01*
X94074067Y-41964699D01*
X93939736Y-42005448D01*
X93884476Y-42022211D01*
X93876043Y-42024769D01*
X93788114Y-42071769D01*
X93693550Y-42122315D01*
X93693548Y-42122316D01*
X93693547Y-42122317D01*
X93533589Y-42253589D01*
X93402317Y-42413547D01*
X93304769Y-42596043D01*
X93244699Y-42794067D01*
X93224417Y-43000000D01*
X92795583Y-43000000D01*
X92775300Y-42794066D01*
X92715232Y-42596046D01*
X92617685Y-42413550D01*
X92565702Y-42350209D01*
X92486410Y-42253589D01*
X92336121Y-42130252D01*
X92326450Y-42122315D01*
X92143954Y-42024768D01*
X92140611Y-42022981D01*
X92090767Y-41974018D01*
X92075307Y-41905880D01*
X92099139Y-41840201D01*
X92111377Y-41825949D01*
X98375508Y-35561819D01*
X98436831Y-35528334D01*
X98463189Y-35525500D01*
X130250825Y-35525500D01*
X130317864Y-35545185D01*
X130363619Y-35597989D01*
X130370091Y-35615565D01*
X130375768Y-35635519D01*
X130375775Y-35635537D01*
X130474936Y-35834679D01*
X130474943Y-35834691D01*
X130609020Y-36012238D01*
X130773437Y-36162123D01*
X130773439Y-36162125D01*
X130962595Y-36279245D01*
X130962596Y-36279245D01*
X130962599Y-36279247D01*
X131170060Y-36359618D01*
X131388757Y-36400500D01*
X131388759Y-36400500D01*
X131611241Y-36400500D01*
X131611243Y-36400500D01*
X131829940Y-36359618D01*
X132037401Y-36279247D01*
X132226562Y-36162124D01*
X132390981Y-36012236D01*
X132525058Y-35834689D01*
X132624229Y-35635528D01*
X132629909Y-35615564D01*
X132667189Y-35556472D01*
X132730498Y-35526915D01*
X132749175Y-35525500D01*
X136750825Y-35525500D01*
X136817864Y-35545185D01*
X136863619Y-35597989D01*
X136870091Y-35615565D01*
X136875768Y-35635519D01*
X136875775Y-35635537D01*
X136974936Y-35834679D01*
X136974943Y-35834691D01*
X137109020Y-36012238D01*
X137273437Y-36162123D01*
X137273439Y-36162125D01*
X137462595Y-36279245D01*
X137462596Y-36279245D01*
X137462599Y-36279247D01*
X137670060Y-36359618D01*
X137888757Y-36400500D01*
X137888759Y-36400500D01*
X138111241Y-36400500D01*
X138111243Y-36400500D01*
X138329940Y-36359618D01*
X138537401Y-36279247D01*
X138726562Y-36162124D01*
X138890981Y-36012236D01*
X139025058Y-35834689D01*
X139124229Y-35635528D01*
X139185115Y-35421536D01*
X139205643Y-35200000D01*
X139185115Y-34978464D01*
X139124229Y-34764472D01*
X139124224Y-34764461D01*
X139025061Y-34565316D01*
X139025056Y-34565308D01*
X138890979Y-34387761D01*
X138726562Y-34237876D01*
X138726560Y-34237874D01*
X138537404Y-34120754D01*
X138537398Y-34120752D01*
X138329940Y-34040382D01*
X138111243Y-33999500D01*
X137888757Y-33999500D01*
X137670060Y-34040382D01*
X137538864Y-34091207D01*
X137462601Y-34120752D01*
X137462595Y-34120754D01*
X137273439Y-34237874D01*
X137273437Y-34237876D01*
X137109020Y-34387761D01*
X136974943Y-34565308D01*
X136974936Y-34565320D01*
X136875775Y-34764462D01*
X136875768Y-34764480D01*
X136870091Y-34784435D01*
X136832811Y-34843528D01*
X136769502Y-34873085D01*
X136750825Y-34874500D01*
X132749175Y-34874500D01*
X132682136Y-34854815D01*
X132636381Y-34802011D01*
X132629909Y-34784435D01*
X132624231Y-34764480D01*
X132624229Y-34764472D01*
X132620441Y-34756866D01*
X132525063Y-34565320D01*
X132525056Y-34565308D01*
X132390979Y-34387761D01*
X132226562Y-34237876D01*
X132226560Y-34237874D01*
X132037404Y-34120754D01*
X132037398Y-34120752D01*
X131829940Y-34040382D01*
X131611243Y-33999500D01*
X131388757Y-33999500D01*
X131170060Y-34040382D01*
X131038864Y-34091207D01*
X130962601Y-34120752D01*
X130962595Y-34120754D01*
X130773439Y-34237874D01*
X130773437Y-34237876D01*
X130609020Y-34387761D01*
X130474943Y-34565308D01*
X130474936Y-34565320D01*
X130375775Y-34764462D01*
X130375768Y-34764480D01*
X130370091Y-34784435D01*
X130332811Y-34843528D01*
X130269502Y-34873085D01*
X130250825Y-34874500D01*
X98234147Y-34874500D01*
X98151359Y-34896682D01*
X98077138Y-34939535D01*
X98077135Y-34939537D01*
X91479537Y-41537135D01*
X91479533Y-41537141D01*
X91436681Y-41611361D01*
X91436682Y-41611362D01*
X91414500Y-41694147D01*
X91414500Y-41909417D01*
X91394815Y-41976456D01*
X91342011Y-42022211D01*
X91337951Y-42023979D01*
X91336045Y-42024768D01*
X91248114Y-42071769D01*
X91153550Y-42122315D01*
X91153548Y-42122316D01*
X91153547Y-42122317D01*
X90993589Y-42253589D01*
X90862317Y-42413547D01*
X90764769Y-42596043D01*
X90704699Y-42794067D01*
X90684417Y-43000000D01*
X89700000Y-43000000D01*
X89700000Y-42934174D01*
X89677445Y-42850000D01*
X90441652Y-42850000D01*
X90441652Y-42849999D01*
X90435712Y-42782114D01*
X90435710Y-42782105D01*
X90379105Y-42570849D01*
X90379101Y-42570840D01*
X90286666Y-42372612D01*
X90286664Y-42372608D01*
X90161216Y-42193450D01*
X90161211Y-42193444D01*
X90006554Y-42038787D01*
X89827387Y-41913333D01*
X89629159Y-41820898D01*
X89629150Y-41820894D01*
X89417894Y-41764289D01*
X89417885Y-41764287D01*
X89350000Y-41758347D01*
X89350000Y-42522554D01*
X89265826Y-42500000D01*
X89134174Y-42500000D01*
X89050000Y-42522554D01*
X89050000Y-41758348D01*
X89049999Y-41758347D01*
X88982114Y-41764287D01*
X88982105Y-41764289D01*
X88770849Y-41820894D01*
X88770840Y-41820898D01*
X88572612Y-41913333D01*
X88572608Y-41913335D01*
X88393450Y-42038783D01*
X88393444Y-42038788D01*
X88238788Y-42193444D01*
X88238783Y-42193450D01*
X88113335Y-42372608D01*
X88113333Y-42372612D01*
X88020898Y-42570840D01*
X88020894Y-42570849D01*
X87964289Y-42782105D01*
X87964287Y-42782114D01*
X87958347Y-42849999D01*
X87700809Y-42849999D01*
X87695300Y-42794066D01*
X87635232Y-42596046D01*
X87537685Y-42413550D01*
X87485702Y-42350209D01*
X87406410Y-42253589D01*
X87256121Y-42130252D01*
X87246450Y-42122315D01*
X87063954Y-42024768D01*
X86865934Y-41964700D01*
X86865932Y-41964699D01*
X86865934Y-41964699D01*
X86660000Y-41944417D01*
X86454067Y-41964699D01*
X86319736Y-42005448D01*
X86264476Y-42022211D01*
X86256043Y-42024769D01*
X86168114Y-42071769D01*
X86073550Y-42122315D01*
X86073548Y-42122316D01*
X86073547Y-42122317D01*
X85913589Y-42253589D01*
X85782317Y-42413547D01*
X85684769Y-42596043D01*
X85624699Y-42794067D01*
X85604417Y-43000000D01*
X85175583Y-43000000D01*
X85155300Y-42794066D01*
X85095232Y-42596046D01*
X84997685Y-42413550D01*
X84945702Y-42350209D01*
X84866410Y-42253589D01*
X84716121Y-42130252D01*
X84706450Y-42122315D01*
X84523954Y-42024768D01*
X84325934Y-41964700D01*
X84325932Y-41964699D01*
X84325934Y-41964699D01*
X84120000Y-41944417D01*
X83914067Y-41964699D01*
X83779736Y-42005448D01*
X83724476Y-42022211D01*
X83716043Y-42024769D01*
X83628114Y-42071769D01*
X83533550Y-42122315D01*
X83533548Y-42122316D01*
X83533547Y-42122317D01*
X83373589Y-42253589D01*
X83242317Y-42413547D01*
X83144769Y-42596043D01*
X83084699Y-42794067D01*
X83064417Y-43000000D01*
X82080000Y-43000000D01*
X82080000Y-42934174D01*
X82057445Y-42850000D01*
X82821652Y-42850000D01*
X82821652Y-42849999D01*
X82815712Y-42782114D01*
X82815710Y-42782105D01*
X82759105Y-42570849D01*
X82759101Y-42570840D01*
X82666666Y-42372612D01*
X82666664Y-42372608D01*
X82541216Y-42193450D01*
X82541211Y-42193444D01*
X82386554Y-42038787D01*
X82207387Y-41913333D01*
X82009159Y-41820898D01*
X82009150Y-41820894D01*
X81797894Y-41764289D01*
X81797885Y-41764287D01*
X81730000Y-41758347D01*
X81730000Y-42522554D01*
X81645826Y-42500000D01*
X81514174Y-42500000D01*
X81430000Y-42522554D01*
X81430000Y-41758348D01*
X81429999Y-41758347D01*
X81362114Y-41764287D01*
X81362105Y-41764289D01*
X81150849Y-41820894D01*
X81150840Y-41820898D01*
X80952612Y-41913333D01*
X80952608Y-41913335D01*
X80773450Y-42038783D01*
X80773444Y-42038788D01*
X80618788Y-42193444D01*
X80618783Y-42193450D01*
X80493335Y-42372608D01*
X80493333Y-42372612D01*
X80400898Y-42570840D01*
X80400894Y-42570849D01*
X80344289Y-42782105D01*
X80344287Y-42782114D01*
X80338347Y-42849999D01*
X80080809Y-42849999D01*
X80075300Y-42794066D01*
X80015232Y-42596046D01*
X79917685Y-42413550D01*
X79865702Y-42350209D01*
X79786410Y-42253589D01*
X79636121Y-42130252D01*
X79626450Y-42122315D01*
X79443954Y-42024768D01*
X79245934Y-41964700D01*
X79245932Y-41964699D01*
X79245934Y-41964699D01*
X79040000Y-41944417D01*
X78834067Y-41964699D01*
X78699736Y-42005448D01*
X78644476Y-42022211D01*
X78636043Y-42024769D01*
X78548114Y-42071769D01*
X78453550Y-42122315D01*
X78453548Y-42122316D01*
X78453547Y-42122317D01*
X78293589Y-42253589D01*
X78162317Y-42413547D01*
X78064769Y-42596043D01*
X78004699Y-42794067D01*
X77984417Y-43000000D01*
X77550500Y-43000000D01*
X77550500Y-42130249D01*
X77550499Y-42130247D01*
X77538868Y-42071770D01*
X77538867Y-42071769D01*
X77494552Y-42005447D01*
X77428230Y-41961132D01*
X77428229Y-41961131D01*
X77369752Y-41949500D01*
X77369748Y-41949500D01*
X75630252Y-41949500D01*
X75630247Y-41949500D01*
X75571770Y-41961131D01*
X75571769Y-41961132D01*
X75505447Y-42005447D01*
X75461132Y-42071769D01*
X75461131Y-42071770D01*
X75449500Y-42130247D01*
X72000000Y-42130247D01*
X72000000Y-36010247D01*
X77358500Y-36010247D01*
X77358500Y-37649752D01*
X77370131Y-37708229D01*
X77370132Y-37708230D01*
X77414447Y-37774552D01*
X77480769Y-37818867D01*
X77480770Y-37818868D01*
X77539247Y-37830499D01*
X77539250Y-37830500D01*
X77539252Y-37830500D01*
X79178750Y-37830500D01*
X79178751Y-37830499D01*
X79193568Y-37827552D01*
X79237229Y-37818868D01*
X79237229Y-37818867D01*
X79237231Y-37818867D01*
X79303552Y-37774552D01*
X79347867Y-37708231D01*
X79347867Y-37708229D01*
X79347868Y-37708229D01*
X79359499Y-37649752D01*
X79359500Y-37649750D01*
X79359500Y-36830000D01*
X84973659Y-36830000D01*
X84992975Y-37026129D01*
X85050188Y-37214733D01*
X85143086Y-37388532D01*
X85143090Y-37388539D01*
X85268116Y-37540883D01*
X85420460Y-37665909D01*
X85420467Y-37665913D01*
X85594266Y-37758811D01*
X85594269Y-37758811D01*
X85594273Y-37758814D01*
X85782868Y-37816024D01*
X85979000Y-37835341D01*
X86175132Y-37816024D01*
X86363727Y-37758814D01*
X86537538Y-37665910D01*
X86689883Y-37540883D01*
X86814910Y-37388538D01*
X86907814Y-37214727D01*
X86965024Y-37026132D01*
X86984341Y-36830000D01*
X86965024Y-36633868D01*
X86907814Y-36445273D01*
X86907811Y-36445269D01*
X86907811Y-36445266D01*
X86814913Y-36271467D01*
X86814909Y-36271460D01*
X86689883Y-36119116D01*
X86537539Y-35994090D01*
X86537532Y-35994086D01*
X86363733Y-35901188D01*
X86363727Y-35901186D01*
X86175132Y-35843976D01*
X86175129Y-35843975D01*
X85979000Y-35824659D01*
X85782870Y-35843975D01*
X85594266Y-35901188D01*
X85420467Y-35994086D01*
X85420460Y-35994090D01*
X85268116Y-36119116D01*
X85143090Y-36271460D01*
X85143086Y-36271467D01*
X85050188Y-36445266D01*
X84992975Y-36633870D01*
X84973659Y-36830000D01*
X79359500Y-36830000D01*
X79359500Y-36010249D01*
X79359499Y-36010247D01*
X79347868Y-35951770D01*
X79347867Y-35951769D01*
X79303552Y-35885447D01*
X79237230Y-35841132D01*
X79237229Y-35841131D01*
X79178752Y-35829500D01*
X79178748Y-35829500D01*
X77539252Y-35829500D01*
X77539247Y-35829500D01*
X77480770Y-35841131D01*
X77480769Y-35841132D01*
X77414447Y-35885447D01*
X77370132Y-35951769D01*
X77370131Y-35951770D01*
X77358500Y-36010247D01*
X72000000Y-36010247D01*
X72000000Y-32914489D01*
X72000020Y-32912278D01*
X72000030Y-32911716D01*
X72002409Y-32778289D01*
X72003650Y-32762872D01*
X72041948Y-32496499D01*
X72045709Y-32479214D01*
X72121210Y-32222081D01*
X72127391Y-32205512D01*
X72127393Y-32205508D01*
X72238720Y-31961734D01*
X72247185Y-31946232D01*
X72392084Y-31720764D01*
X72402670Y-31706622D01*
X72578177Y-31504076D01*
X72590676Y-31491577D01*
X72793222Y-31316070D01*
X72807364Y-31305484D01*
X73032832Y-31160585D01*
X73048334Y-31152120D01*
X73292112Y-31040790D01*
X73308681Y-31034610D01*
X73565818Y-30959107D01*
X73583099Y-30955348D01*
X73849472Y-30917050D01*
X73864889Y-30915809D01*
X73998879Y-30913420D01*
X74001090Y-30913400D01*
X141998933Y-30913400D01*
X142001135Y-30913419D01*
G37*
G04 #@! TD.AperFunction*
G04 #@! TA.AperFunction,Conductor*
G36*
X89370000Y-62041650D02*
G01*
X89437887Y-62035711D01*
X89437891Y-62035711D01*
X89649150Y-61979105D01*
X89649159Y-61979101D01*
X89847388Y-61886666D01*
X89847394Y-61886662D01*
X89879376Y-61864269D01*
X89945582Y-61841941D01*
X90013349Y-61858951D01*
X90061163Y-61909898D01*
X90074500Y-61965843D01*
X90074500Y-63820699D01*
X90054815Y-63887738D01*
X90025988Y-63919074D01*
X89971720Y-63960715D01*
X89875463Y-64086160D01*
X89814956Y-64232237D01*
X89814955Y-64232239D01*
X89794318Y-64388998D01*
X89794318Y-64389001D01*
X89814955Y-64545760D01*
X89814956Y-64545762D01*
X89849491Y-64629138D01*
X89875464Y-64691841D01*
X89971718Y-64817282D01*
X90097159Y-64913536D01*
X90243238Y-64974044D01*
X90321619Y-64984363D01*
X90399999Y-64994682D01*
X90400000Y-64994682D01*
X90400001Y-64994682D01*
X90452254Y-64987802D01*
X90556762Y-64974044D01*
X90702841Y-64913536D01*
X90828282Y-64817282D01*
X90924536Y-64691841D01*
X90985044Y-64545762D01*
X91005682Y-64389000D01*
X91001447Y-64356835D01*
X90985044Y-64232239D01*
X90985044Y-64232238D01*
X90924536Y-64086159D01*
X90828282Y-63960718D01*
X90828280Y-63960716D01*
X90828279Y-63960715D01*
X90774012Y-63919074D01*
X90732810Y-63862646D01*
X90725500Y-63820699D01*
X90725500Y-61541928D01*
X90745185Y-61474889D01*
X90797989Y-61429134D01*
X90867147Y-61419190D01*
X90930703Y-61448215D01*
X90945354Y-61463264D01*
X91013589Y-61546410D01*
X91056708Y-61581796D01*
X91173550Y-61677685D01*
X91356046Y-61775232D01*
X91356051Y-61775233D01*
X91357951Y-61776021D01*
X91358796Y-61776701D01*
X91361419Y-61778104D01*
X91361153Y-61778601D01*
X91412355Y-61819862D01*
X91434421Y-61886156D01*
X91434500Y-61890583D01*
X91434500Y-96076983D01*
X91414815Y-96144022D01*
X91398181Y-96164664D01*
X90137936Y-97424908D01*
X90137934Y-97424911D01*
X90094819Y-97499589D01*
X90072500Y-97582885D01*
X90072500Y-111075500D01*
X90052815Y-111142539D01*
X90000011Y-111188294D01*
X89948500Y-111199500D01*
X89843384Y-111199500D01*
X89824145Y-111201248D01*
X89772807Y-111205913D01*
X89610393Y-111256522D01*
X89464811Y-111344530D01*
X89344530Y-111464811D01*
X89256522Y-111610393D01*
X89205913Y-111772807D01*
X89199500Y-111843386D01*
X89199500Y-116843000D01*
X89179815Y-116910039D01*
X89127011Y-116955794D01*
X89075500Y-116967000D01*
X88544500Y-116967000D01*
X88477461Y-116947315D01*
X88431706Y-116894511D01*
X88420500Y-116843000D01*
X88420500Y-111843386D01*
X88414086Y-111772807D01*
X88414086Y-111772804D01*
X88363478Y-111610394D01*
X88275472Y-111464815D01*
X88275470Y-111464813D01*
X88275469Y-111464811D01*
X88155188Y-111344530D01*
X88009606Y-111256522D01*
X87917830Y-111227924D01*
X87847196Y-111205914D01*
X87847194Y-111205913D01*
X87847192Y-111205913D01*
X87797778Y-111201423D01*
X87776616Y-111199500D01*
X87776613Y-111199500D01*
X87671500Y-111199500D01*
X87604461Y-111179815D01*
X87558706Y-111127011D01*
X87547500Y-111075500D01*
X87547500Y-103239885D01*
X87547500Y-103239884D01*
X87525181Y-103156590D01*
X87482065Y-103081910D01*
X87421090Y-103020935D01*
X87041819Y-102641664D01*
X87008334Y-102580341D01*
X87005500Y-102553983D01*
X87005500Y-65052450D01*
X87025185Y-64985411D01*
X87077989Y-64939656D01*
X87147147Y-64929712D01*
X87176950Y-64937888D01*
X87264238Y-64974044D01*
X87342619Y-64984363D01*
X87420999Y-64994682D01*
X87421000Y-64994682D01*
X87421001Y-64994682D01*
X87473254Y-64987802D01*
X87577762Y-64974044D01*
X87723841Y-64913536D01*
X87849282Y-64817282D01*
X87945536Y-64691841D01*
X88006044Y-64545762D01*
X88026682Y-64389000D01*
X88017753Y-64321181D01*
X88028518Y-64252147D01*
X88053008Y-64217318D01*
X88210465Y-64059862D01*
X88253318Y-63985639D01*
X88275500Y-63902853D01*
X88275500Y-63817147D01*
X88275500Y-61902824D01*
X88295185Y-61835785D01*
X88347989Y-61790030D01*
X88417147Y-61780086D01*
X88470624Y-61801249D01*
X88592612Y-61886666D01*
X88790840Y-61979101D01*
X88790849Y-61979105D01*
X89002110Y-62035711D01*
X89070000Y-62041650D01*
X89070000Y-61277445D01*
X89154174Y-61300000D01*
X89285826Y-61300000D01*
X89370000Y-61277445D01*
X89370000Y-62041650D01*
G37*
G04 #@! TD.AperFunction*
G04 #@! TD*
M02*
