%TF.GenerationSoftware,KiCad,Pcbnew,8.0.5*%
%TF.CreationDate,2024-10-04T03:51:19+02:00*%
%TF.ProjectId,SD-10005v,53442d31-3030-4303-9576-2e6b69636164,rev?*%
%TF.SameCoordinates,Original*%
%TF.FileFunction,Drillmap*%
%TF.FilePolarity,Positive*%
%FSLAX45Y45*%
G04 Gerber Fmt 4.5, Leading zero omitted, Abs format (unit mm)*
G04 Created by KiCad (PCBNEW 8.0.5) date 2024-10-04 03:51:19*
%MOMM*%
%LPD*%
G01*
G04 APERTURE LIST*
%ADD10C,0.100000*%
%ADD11C,0.254000*%
%ADD12C,0.120000*%
%ADD13C,0.200000*%
%ADD14C,0.110000*%
G04 APERTURE END LIST*
D10*
X13817500Y-7500000D02*
G75*
G02*
X13182500Y-7500000I-317500J0D01*
G01*
X13182500Y-7500000D02*
G75*
G02*
X13817500Y-7500000I317500J0D01*
G01*
D11*
X7400000Y-3091340D02*
X14200001Y-3091340D01*
D10*
X8517500Y-7500000D02*
G75*
G02*
X7882500Y-7500000I-317500J0D01*
G01*
X7882500Y-7500000D02*
G75*
G02*
X8517500Y-7500000I317500J0D01*
G01*
D11*
X7200000Y-3291340D02*
G75*
G02*
X7400000Y-3091340I200000J0D01*
G01*
X14400000Y-11310000D02*
X14400000Y-3291339D01*
X14200001Y-3091340D02*
G75*
G02*
X14400000Y-3291340I-1J-200000D01*
G01*
X7200000Y-11310000D02*
X7200000Y-3291340D01*
D12*
X7200000Y-12210000D02*
X7200000Y-11310000D01*
X7400000Y-12410000D02*
X14180000Y-12410000D01*
X14200000Y-12410000D02*
X14180000Y-12410000D01*
X14400000Y-12210000D02*
X14400000Y-11310000D01*
X7400000Y-12410000D02*
G75*
G02*
X7200000Y-12210000I0J200000D01*
G01*
X14400000Y-12210000D02*
G75*
G02*
X14200000Y-12410000I-200000J0D01*
G01*
D13*
D10*
X7269800Y-10990900D02*
X7309800Y-11030900D01*
X7309800Y-10990900D02*
X7269800Y-11030900D01*
X7549200Y-6431600D02*
X7589200Y-6471600D01*
X7589200Y-6431600D02*
X7549200Y-6471600D01*
X7683720Y-11027760D02*
X7723720Y-11067760D01*
X7723720Y-11027760D02*
X7683720Y-11067760D01*
X7904800Y-10990900D02*
X7944800Y-11030900D01*
X7944800Y-10990900D02*
X7904800Y-11030900D01*
X8222300Y-9962200D02*
X8262300Y-10002200D01*
X8262300Y-9962200D02*
X8222300Y-10002200D01*
X8222300Y-10990900D02*
X8262300Y-11030900D01*
X8262300Y-10990900D02*
X8222300Y-11030900D01*
X8514400Y-9720900D02*
X8554400Y-9760900D01*
X8554400Y-9720900D02*
X8514400Y-9760900D01*
X8552500Y-10990900D02*
X8592500Y-11030900D01*
X8592500Y-10990900D02*
X8552500Y-11030900D01*
X8722100Y-6418900D02*
X8762100Y-6458900D01*
X8762100Y-6418900D02*
X8722100Y-6458900D01*
X8857300Y-10990900D02*
X8897300Y-11030900D01*
X8897300Y-10990900D02*
X8857300Y-11030900D01*
X9020000Y-6418900D02*
X9060000Y-6458900D01*
X9060000Y-6418900D02*
X9020000Y-6458900D01*
X9174800Y-4640900D02*
X9214800Y-4680900D01*
X9214800Y-4640900D02*
X9174800Y-4680900D01*
X9174800Y-10990900D02*
X9214800Y-11030900D01*
X9214800Y-10990900D02*
X9174800Y-11030900D01*
X9479600Y-5314000D02*
X9519600Y-5354000D01*
X9519600Y-5314000D02*
X9479600Y-5354000D01*
X9492300Y-6330000D02*
X9532300Y-6370000D01*
X9532300Y-6330000D02*
X9492300Y-6370000D01*
X9505000Y-10990900D02*
X9545000Y-11030900D01*
X9545000Y-10990900D02*
X9505000Y-11030900D01*
X9644700Y-3802700D02*
X9684700Y-3842700D01*
X9684700Y-3802700D02*
X9644700Y-3842700D01*
X9809800Y-6330000D02*
X9849800Y-6370000D01*
X9849800Y-6330000D02*
X9809800Y-6370000D01*
X9809800Y-10990900D02*
X9849800Y-11030900D01*
X9849800Y-10990900D02*
X9809800Y-11030900D01*
X9911400Y-3942400D02*
X9951400Y-3982400D01*
X9951400Y-3942400D02*
X9911400Y-3982400D01*
X10127300Y-10990900D02*
X10167300Y-11030900D01*
X10167300Y-10990900D02*
X10127300Y-11030900D01*
X10140000Y-6330000D02*
X10180000Y-6370000D01*
X10180000Y-6330000D02*
X10140000Y-6370000D01*
X10444800Y-6330000D02*
X10484800Y-6370000D01*
X10484800Y-6330000D02*
X10444800Y-6370000D01*
X10457500Y-10990900D02*
X10497500Y-11030900D01*
X10497500Y-10990900D02*
X10457500Y-11030900D01*
X10698800Y-6330000D02*
X10738800Y-6370000D01*
X10738800Y-6330000D02*
X10698800Y-6370000D01*
X10762300Y-10990900D02*
X10802300Y-11030900D01*
X10802300Y-10990900D02*
X10762300Y-11030900D01*
X10952800Y-6330000D02*
X10992800Y-6370000D01*
X10992800Y-6330000D02*
X10952800Y-6370000D01*
X11092500Y-10990900D02*
X11132500Y-11030900D01*
X11132500Y-10990900D02*
X11092500Y-11030900D01*
X11308400Y-4513900D02*
X11348400Y-4553900D01*
X11348400Y-4513900D02*
X11308400Y-4553900D01*
X11321100Y-6330000D02*
X11361100Y-6370000D01*
X11361100Y-6330000D02*
X11321100Y-6370000D01*
X11397300Y-10990900D02*
X11437300Y-11030900D01*
X11437300Y-10990900D02*
X11397300Y-11030900D01*
X11575100Y-4513900D02*
X11615100Y-4553900D01*
X11615100Y-4513900D02*
X11575100Y-4553900D01*
X11714800Y-10990900D02*
X11754800Y-11030900D01*
X11754800Y-10990900D02*
X11714800Y-11030900D01*
X11816400Y-6330000D02*
X11856400Y-6370000D01*
X11856400Y-6330000D02*
X11816400Y-6370000D01*
X11829100Y-4513900D02*
X11869100Y-4553900D01*
X11869100Y-4513900D02*
X11829100Y-4553900D01*
X12032300Y-10990900D02*
X12072300Y-11030900D01*
X12072300Y-10990900D02*
X12032300Y-11030900D01*
X12095800Y-4513900D02*
X12135800Y-4553900D01*
X12135800Y-4513900D02*
X12095800Y-4553900D01*
X12184700Y-6330000D02*
X12224700Y-6370000D01*
X12224700Y-6330000D02*
X12184700Y-6370000D01*
X12349800Y-10990900D02*
X12389800Y-11030900D01*
X12389800Y-10990900D02*
X12349800Y-11030900D01*
X12387900Y-4666300D02*
X12427900Y-4706300D01*
X12427900Y-4666300D02*
X12387900Y-4706300D01*
X12400600Y-4513900D02*
X12440600Y-4553900D01*
X12440600Y-4513900D02*
X12400600Y-4553900D01*
X12502200Y-6330000D02*
X12542200Y-6370000D01*
X12542200Y-6330000D02*
X12502200Y-6370000D01*
X12514900Y-4806000D02*
X12554900Y-4846000D01*
X12554900Y-4806000D02*
X12514900Y-4846000D01*
X12565700Y-3675700D02*
X12605700Y-3715700D01*
X12605700Y-3675700D02*
X12565700Y-3715700D01*
X12667300Y-10990900D02*
X12707300Y-11030900D01*
X12707300Y-10990900D02*
X12667300Y-11030900D01*
X12680000Y-5466400D02*
X12720000Y-5506400D01*
X12720000Y-5466400D02*
X12680000Y-5506400D01*
X12984800Y-10990900D02*
X13024800Y-11030900D01*
X13024800Y-10990900D02*
X12984800Y-11030900D01*
X13020790Y-10033340D02*
X13060790Y-10073340D01*
X13060790Y-10033340D02*
X13020790Y-10073340D01*
X13302300Y-6634800D02*
X13342300Y-6674800D01*
X13342300Y-6634800D02*
X13302300Y-6674800D01*
X13302300Y-10990900D02*
X13342300Y-11030900D01*
X13342300Y-10990900D02*
X13302300Y-11030900D01*
X13472000Y-10787700D02*
X13512000Y-10827700D01*
X13512000Y-10787700D02*
X13472000Y-10827700D01*
X13724720Y-10981660D02*
X13764720Y-11021660D01*
X13764720Y-10981660D02*
X13724720Y-11021660D01*
X13950000Y-10990900D02*
X13990000Y-11030900D01*
X13990000Y-10990900D02*
X13950000Y-11030900D01*
X14267500Y-10990900D02*
X14307500Y-11030900D01*
X14307500Y-10990900D02*
X14267500Y-11030900D01*
X7875900Y-3683000D02*
G75*
G02*
X7795900Y-3683000I-40000J0D01*
G01*
X7795900Y-3683000D02*
G75*
G02*
X7875900Y-3683000I40000J0D01*
G01*
X8637900Y-3683000D02*
G75*
G02*
X8557900Y-3683000I-40000J0D01*
G01*
X8557900Y-3683000D02*
G75*
G02*
X8637900Y-3683000I40000J0D01*
G01*
X7650000Y-4250000D02*
X7650000Y-4350000D01*
X7600000Y-4300000D02*
X7700000Y-4300000D01*
X7652000Y-6030000D02*
X7652000Y-6130000D01*
X7602000Y-6080000D02*
X7702000Y-6080000D01*
X7904000Y-4250000D02*
X7904000Y-4350000D01*
X7854000Y-4300000D02*
X7954000Y-4300000D01*
X7906000Y-6030000D02*
X7906000Y-6130000D01*
X7856000Y-6080000D02*
X7956000Y-6080000D01*
X8158000Y-4250000D02*
X8158000Y-4350000D01*
X8108000Y-4300000D02*
X8208000Y-4300000D01*
X8160000Y-6030000D02*
X8160000Y-6130000D01*
X8110000Y-6080000D02*
X8210000Y-6080000D01*
X8412000Y-4250000D02*
X8412000Y-4350000D01*
X8362000Y-4300000D02*
X8462000Y-4300000D01*
X8414000Y-6030000D02*
X8414000Y-6130000D01*
X8364000Y-6080000D02*
X8464000Y-6080000D01*
X8666000Y-4250000D02*
X8666000Y-4350000D01*
X8616000Y-4300000D02*
X8716000Y-4300000D01*
X8668000Y-6030000D02*
X8668000Y-6130000D01*
X8618000Y-6080000D02*
X8718000Y-6080000D01*
X8920000Y-4250000D02*
X8920000Y-4350000D01*
X8870000Y-4300000D02*
X8970000Y-4300000D01*
X8922000Y-6030000D02*
X8922000Y-6130000D01*
X8872000Y-6080000D02*
X8972000Y-6080000D01*
X9174000Y-4250000D02*
X9174000Y-4350000D01*
X9124000Y-4300000D02*
X9224000Y-4300000D01*
X9176000Y-6030000D02*
X9176000Y-6130000D01*
X9126000Y-6080000D02*
X9226000Y-6080000D01*
X9428000Y-4250000D02*
X9428000Y-4350000D01*
X9378000Y-4300000D02*
X9478000Y-4300000D01*
X9430000Y-6030000D02*
X9430000Y-6130000D01*
X9380000Y-6080000D02*
X9480000Y-6080000D01*
X9682000Y-4250000D02*
X9682000Y-4350000D01*
X9632000Y-4300000D02*
X9732000Y-4300000D01*
X9684000Y-6030000D02*
X9684000Y-6130000D01*
X9634000Y-6080000D02*
X9734000Y-6080000D01*
X9936000Y-4250000D02*
X9936000Y-4350000D01*
X9886000Y-4300000D02*
X9986000Y-4300000D01*
X9938000Y-6030000D02*
X9938000Y-6130000D01*
X9888000Y-6080000D02*
X9988000Y-6080000D01*
X10190000Y-4250000D02*
X10190000Y-4350000D01*
X10140000Y-4300000D02*
X10240000Y-4300000D01*
X10192000Y-6030000D02*
X10192000Y-6130000D01*
X10142000Y-6080000D02*
X10242000Y-6080000D01*
X10444000Y-4250000D02*
X10444000Y-4350000D01*
X10394000Y-4300000D02*
X10494000Y-4300000D01*
X10446000Y-6030000D02*
X10446000Y-6130000D01*
X10396000Y-6080000D02*
X10496000Y-6080000D01*
X10698000Y-4250000D02*
X10698000Y-4350000D01*
X10648000Y-4300000D02*
X10748000Y-4300000D01*
X10700000Y-6030000D02*
X10700000Y-6130000D01*
X10650000Y-6080000D02*
X10750000Y-6080000D01*
X10952000Y-4250000D02*
X10952000Y-4350000D01*
X10902000Y-4300000D02*
X11002000Y-4300000D01*
X10954000Y-6030000D02*
X10954000Y-6130000D01*
X10904000Y-6080000D02*
X11004000Y-6080000D01*
X11206000Y-4250000D02*
X11206000Y-4350000D01*
X11156000Y-4300000D02*
X11256000Y-4300000D01*
X11208000Y-6030000D02*
X11208000Y-6130000D01*
X11158000Y-6080000D02*
X11258000Y-6080000D01*
X11460000Y-4250000D02*
X11460000Y-4350000D01*
X11410000Y-4300000D02*
X11510000Y-4300000D01*
X11462000Y-6030000D02*
X11462000Y-6130000D01*
X11412000Y-6080000D02*
X11512000Y-6080000D01*
X11714000Y-4250000D02*
X11714000Y-4350000D01*
X11664000Y-4300000D02*
X11764000Y-4300000D01*
X11716000Y-6030000D02*
X11716000Y-6130000D01*
X11666000Y-6080000D02*
X11766000Y-6080000D01*
X11968000Y-4250000D02*
X11968000Y-4350000D01*
X11918000Y-4300000D02*
X12018000Y-4300000D01*
X11970000Y-6030000D02*
X11970000Y-6130000D01*
X11920000Y-6080000D02*
X12020000Y-6080000D01*
X12222000Y-4250000D02*
X12222000Y-4350000D01*
X12172000Y-4300000D02*
X12272000Y-4300000D01*
X12224000Y-6030000D02*
X12224000Y-6130000D01*
X12174000Y-6080000D02*
X12274000Y-6080000D01*
X12476000Y-4250000D02*
X12476000Y-4350000D01*
X12426000Y-4300000D02*
X12526000Y-4300000D01*
X12478000Y-6030000D02*
X12478000Y-6130000D01*
X12428000Y-6080000D02*
X12528000Y-6080000D01*
D14*
X13188891Y-3558891D02*
X13188891Y-3481109D01*
X13111109Y-3481109D01*
X13111109Y-3558891D01*
X13188891Y-3558891D01*
X13188891Y-4008891D02*
X13188891Y-3931109D01*
X13111109Y-3931109D01*
X13111109Y-4008891D01*
X13188891Y-4008891D01*
X13838891Y-3558891D02*
X13838891Y-3481109D01*
X13761109Y-3481109D01*
X13761109Y-3558891D01*
X13838891Y-3558891D01*
X13838891Y-4008891D02*
X13838891Y-3931109D01*
X13761109Y-3931109D01*
X13761109Y-4008891D01*
X13838891Y-4008891D01*
D13*
X7448077Y-12727484D02*
X7448077Y-12527484D01*
X7448077Y-12527484D02*
X7495696Y-12527484D01*
X7495696Y-12527484D02*
X7524267Y-12537008D01*
X7524267Y-12537008D02*
X7543315Y-12556055D01*
X7543315Y-12556055D02*
X7552839Y-12575103D01*
X7552839Y-12575103D02*
X7562362Y-12613198D01*
X7562362Y-12613198D02*
X7562362Y-12641769D01*
X7562362Y-12641769D02*
X7552839Y-12679865D01*
X7552839Y-12679865D02*
X7543315Y-12698912D01*
X7543315Y-12698912D02*
X7524267Y-12717960D01*
X7524267Y-12717960D02*
X7495696Y-12727484D01*
X7495696Y-12727484D02*
X7448077Y-12727484D01*
X7648077Y-12727484D02*
X7648077Y-12594150D01*
X7648077Y-12632246D02*
X7657601Y-12613198D01*
X7657601Y-12613198D02*
X7667124Y-12603674D01*
X7667124Y-12603674D02*
X7686172Y-12594150D01*
X7686172Y-12594150D02*
X7705220Y-12594150D01*
X7771886Y-12727484D02*
X7771886Y-12594150D01*
X7771886Y-12527484D02*
X7762362Y-12537008D01*
X7762362Y-12537008D02*
X7771886Y-12546531D01*
X7771886Y-12546531D02*
X7781410Y-12537008D01*
X7781410Y-12537008D02*
X7771886Y-12527484D01*
X7771886Y-12527484D02*
X7771886Y-12546531D01*
X7895696Y-12727484D02*
X7876648Y-12717960D01*
X7876648Y-12717960D02*
X7867124Y-12698912D01*
X7867124Y-12698912D02*
X7867124Y-12527484D01*
X8000458Y-12727484D02*
X7981410Y-12717960D01*
X7981410Y-12717960D02*
X7971886Y-12698912D01*
X7971886Y-12698912D02*
X7971886Y-12527484D01*
X8229029Y-12727484D02*
X8229029Y-12527484D01*
X8229029Y-12527484D02*
X8295696Y-12670341D01*
X8295696Y-12670341D02*
X8362362Y-12527484D01*
X8362362Y-12527484D02*
X8362362Y-12727484D01*
X8543315Y-12727484D02*
X8543315Y-12622722D01*
X8543315Y-12622722D02*
X8533791Y-12603674D01*
X8533791Y-12603674D02*
X8514744Y-12594150D01*
X8514744Y-12594150D02*
X8476648Y-12594150D01*
X8476648Y-12594150D02*
X8457601Y-12603674D01*
X8543315Y-12717960D02*
X8524267Y-12727484D01*
X8524267Y-12727484D02*
X8476648Y-12727484D01*
X8476648Y-12727484D02*
X8457601Y-12717960D01*
X8457601Y-12717960D02*
X8448077Y-12698912D01*
X8448077Y-12698912D02*
X8448077Y-12679865D01*
X8448077Y-12679865D02*
X8457601Y-12660817D01*
X8457601Y-12660817D02*
X8476648Y-12651293D01*
X8476648Y-12651293D02*
X8524267Y-12651293D01*
X8524267Y-12651293D02*
X8543315Y-12641769D01*
X8638553Y-12594150D02*
X8638553Y-12794150D01*
X8638553Y-12603674D02*
X8657601Y-12594150D01*
X8657601Y-12594150D02*
X8695696Y-12594150D01*
X8695696Y-12594150D02*
X8714744Y-12603674D01*
X8714744Y-12603674D02*
X8724267Y-12613198D01*
X8724267Y-12613198D02*
X8733791Y-12632246D01*
X8733791Y-12632246D02*
X8733791Y-12689388D01*
X8733791Y-12689388D02*
X8724267Y-12708436D01*
X8724267Y-12708436D02*
X8714744Y-12717960D01*
X8714744Y-12717960D02*
X8695696Y-12727484D01*
X8695696Y-12727484D02*
X8657601Y-12727484D01*
X8657601Y-12727484D02*
X8638553Y-12717960D01*
X8819505Y-12708436D02*
X8829029Y-12717960D01*
X8829029Y-12717960D02*
X8819505Y-12727484D01*
X8819505Y-12727484D02*
X8809982Y-12717960D01*
X8809982Y-12717960D02*
X8819505Y-12708436D01*
X8819505Y-12708436D02*
X8819505Y-12727484D01*
X8819505Y-12603674D02*
X8829029Y-12613198D01*
X8829029Y-12613198D02*
X8819505Y-12622722D01*
X8819505Y-12622722D02*
X8809982Y-12613198D01*
X8809982Y-12613198D02*
X8819505Y-12603674D01*
X8819505Y-12603674D02*
X8819505Y-12622722D01*
D10*
X7147300Y-13036000D02*
X7187300Y-13076000D01*
X7187300Y-13036000D02*
X7147300Y-13076000D01*
D13*
X7486172Y-12947484D02*
X7505220Y-12947484D01*
X7505220Y-12947484D02*
X7524267Y-12957008D01*
X7524267Y-12957008D02*
X7533791Y-12966531D01*
X7533791Y-12966531D02*
X7543315Y-12985579D01*
X7543315Y-12985579D02*
X7552839Y-13023674D01*
X7552839Y-13023674D02*
X7552839Y-13071293D01*
X7552839Y-13071293D02*
X7543315Y-13109388D01*
X7543315Y-13109388D02*
X7533791Y-13128436D01*
X7533791Y-13128436D02*
X7524267Y-13137960D01*
X7524267Y-13137960D02*
X7505220Y-13147484D01*
X7505220Y-13147484D02*
X7486172Y-13147484D01*
X7486172Y-13147484D02*
X7467124Y-13137960D01*
X7467124Y-13137960D02*
X7457601Y-13128436D01*
X7457601Y-13128436D02*
X7448077Y-13109388D01*
X7448077Y-13109388D02*
X7438553Y-13071293D01*
X7438553Y-13071293D02*
X7438553Y-13023674D01*
X7438553Y-13023674D02*
X7448077Y-12985579D01*
X7448077Y-12985579D02*
X7457601Y-12966531D01*
X7457601Y-12966531D02*
X7467124Y-12957008D01*
X7467124Y-12957008D02*
X7486172Y-12947484D01*
X7638553Y-13128436D02*
X7648077Y-13137960D01*
X7648077Y-13137960D02*
X7638553Y-13147484D01*
X7638553Y-13147484D02*
X7629029Y-13137960D01*
X7629029Y-13137960D02*
X7638553Y-13128436D01*
X7638553Y-13128436D02*
X7638553Y-13147484D01*
X7819505Y-13014150D02*
X7819505Y-13147484D01*
X7771886Y-12937960D02*
X7724267Y-13080817D01*
X7724267Y-13080817D02*
X7848077Y-13080817D01*
X7962362Y-12947484D02*
X7981410Y-12947484D01*
X7981410Y-12947484D02*
X8000458Y-12957008D01*
X8000458Y-12957008D02*
X8009982Y-12966531D01*
X8009982Y-12966531D02*
X8019505Y-12985579D01*
X8019505Y-12985579D02*
X8029029Y-13023674D01*
X8029029Y-13023674D02*
X8029029Y-13071293D01*
X8029029Y-13071293D02*
X8019505Y-13109388D01*
X8019505Y-13109388D02*
X8009982Y-13128436D01*
X8009982Y-13128436D02*
X8000458Y-13137960D01*
X8000458Y-13137960D02*
X7981410Y-13147484D01*
X7981410Y-13147484D02*
X7962362Y-13147484D01*
X7962362Y-13147484D02*
X7943315Y-13137960D01*
X7943315Y-13137960D02*
X7933791Y-13128436D01*
X7933791Y-13128436D02*
X7924267Y-13109388D01*
X7924267Y-13109388D02*
X7914743Y-13071293D01*
X7914743Y-13071293D02*
X7914743Y-13023674D01*
X7914743Y-13023674D02*
X7924267Y-12985579D01*
X7924267Y-12985579D02*
X7933791Y-12966531D01*
X7933791Y-12966531D02*
X7943315Y-12957008D01*
X7943315Y-12957008D02*
X7962362Y-12947484D01*
X8152839Y-12947484D02*
X8171886Y-12947484D01*
X8171886Y-12947484D02*
X8190934Y-12957008D01*
X8190934Y-12957008D02*
X8200458Y-12966531D01*
X8200458Y-12966531D02*
X8209982Y-12985579D01*
X8209982Y-12985579D02*
X8219505Y-13023674D01*
X8219505Y-13023674D02*
X8219505Y-13071293D01*
X8219505Y-13071293D02*
X8209982Y-13109388D01*
X8209982Y-13109388D02*
X8200458Y-13128436D01*
X8200458Y-13128436D02*
X8190934Y-13137960D01*
X8190934Y-13137960D02*
X8171886Y-13147484D01*
X8171886Y-13147484D02*
X8152839Y-13147484D01*
X8152839Y-13147484D02*
X8133791Y-13137960D01*
X8133791Y-13137960D02*
X8124267Y-13128436D01*
X8124267Y-13128436D02*
X8114743Y-13109388D01*
X8114743Y-13109388D02*
X8105220Y-13071293D01*
X8105220Y-13071293D02*
X8105220Y-13023674D01*
X8105220Y-13023674D02*
X8114743Y-12985579D01*
X8114743Y-12985579D02*
X8124267Y-12966531D01*
X8124267Y-12966531D02*
X8133791Y-12957008D01*
X8133791Y-12957008D02*
X8152839Y-12947484D01*
X8305220Y-13147484D02*
X8305220Y-13014150D01*
X8305220Y-13033198D02*
X8314743Y-13023674D01*
X8314743Y-13023674D02*
X8333791Y-13014150D01*
X8333791Y-13014150D02*
X8362363Y-13014150D01*
X8362363Y-13014150D02*
X8381410Y-13023674D01*
X8381410Y-13023674D02*
X8390934Y-13042722D01*
X8390934Y-13042722D02*
X8390934Y-13147484D01*
X8390934Y-13042722D02*
X8400458Y-13023674D01*
X8400458Y-13023674D02*
X8419505Y-13014150D01*
X8419505Y-13014150D02*
X8448077Y-13014150D01*
X8448077Y-13014150D02*
X8467125Y-13023674D01*
X8467125Y-13023674D02*
X8476648Y-13042722D01*
X8476648Y-13042722D02*
X8476648Y-13147484D01*
X8571886Y-13147484D02*
X8571886Y-13014150D01*
X8571886Y-13033198D02*
X8581410Y-13023674D01*
X8581410Y-13023674D02*
X8600458Y-13014150D01*
X8600458Y-13014150D02*
X8629029Y-13014150D01*
X8629029Y-13014150D02*
X8648077Y-13023674D01*
X8648077Y-13023674D02*
X8657601Y-13042722D01*
X8657601Y-13042722D02*
X8657601Y-13147484D01*
X8657601Y-13042722D02*
X8667125Y-13023674D01*
X8667125Y-13023674D02*
X8686172Y-13014150D01*
X8686172Y-13014150D02*
X8714744Y-13014150D01*
X8714744Y-13014150D02*
X8733791Y-13023674D01*
X8733791Y-13023674D02*
X8743315Y-13042722D01*
X8743315Y-13042722D02*
X8743315Y-13147484D01*
X9133791Y-12937960D02*
X8962363Y-13195103D01*
X9390934Y-12947484D02*
X9409982Y-12947484D01*
X9409982Y-12947484D02*
X9429029Y-12957008D01*
X9429029Y-12957008D02*
X9438553Y-12966531D01*
X9438553Y-12966531D02*
X9448077Y-12985579D01*
X9448077Y-12985579D02*
X9457601Y-13023674D01*
X9457601Y-13023674D02*
X9457601Y-13071293D01*
X9457601Y-13071293D02*
X9448077Y-13109388D01*
X9448077Y-13109388D02*
X9438553Y-13128436D01*
X9438553Y-13128436D02*
X9429029Y-13137960D01*
X9429029Y-13137960D02*
X9409982Y-13147484D01*
X9409982Y-13147484D02*
X9390934Y-13147484D01*
X9390934Y-13147484D02*
X9371887Y-13137960D01*
X9371887Y-13137960D02*
X9362363Y-13128436D01*
X9362363Y-13128436D02*
X9352839Y-13109388D01*
X9352839Y-13109388D02*
X9343315Y-13071293D01*
X9343315Y-13071293D02*
X9343315Y-13023674D01*
X9343315Y-13023674D02*
X9352839Y-12985579D01*
X9352839Y-12985579D02*
X9362363Y-12966531D01*
X9362363Y-12966531D02*
X9371887Y-12957008D01*
X9371887Y-12957008D02*
X9390934Y-12947484D01*
X9543315Y-13128436D02*
X9552839Y-13137960D01*
X9552839Y-13137960D02*
X9543315Y-13147484D01*
X9543315Y-13147484D02*
X9533791Y-13137960D01*
X9533791Y-13137960D02*
X9543315Y-13128436D01*
X9543315Y-13128436D02*
X9543315Y-13147484D01*
X9676648Y-12947484D02*
X9695696Y-12947484D01*
X9695696Y-12947484D02*
X9714744Y-12957008D01*
X9714744Y-12957008D02*
X9724268Y-12966531D01*
X9724268Y-12966531D02*
X9733791Y-12985579D01*
X9733791Y-12985579D02*
X9743315Y-13023674D01*
X9743315Y-13023674D02*
X9743315Y-13071293D01*
X9743315Y-13071293D02*
X9733791Y-13109388D01*
X9733791Y-13109388D02*
X9724268Y-13128436D01*
X9724268Y-13128436D02*
X9714744Y-13137960D01*
X9714744Y-13137960D02*
X9695696Y-13147484D01*
X9695696Y-13147484D02*
X9676648Y-13147484D01*
X9676648Y-13147484D02*
X9657601Y-13137960D01*
X9657601Y-13137960D02*
X9648077Y-13128436D01*
X9648077Y-13128436D02*
X9638553Y-13109388D01*
X9638553Y-13109388D02*
X9629029Y-13071293D01*
X9629029Y-13071293D02*
X9629029Y-13023674D01*
X9629029Y-13023674D02*
X9638553Y-12985579D01*
X9638553Y-12985579D02*
X9648077Y-12966531D01*
X9648077Y-12966531D02*
X9657601Y-12957008D01*
X9657601Y-12957008D02*
X9676648Y-12947484D01*
X9933791Y-13147484D02*
X9819506Y-13147484D01*
X9876648Y-13147484D02*
X9876648Y-12947484D01*
X9876648Y-12947484D02*
X9857601Y-12976055D01*
X9857601Y-12976055D02*
X9838553Y-12995103D01*
X9838553Y-12995103D02*
X9819506Y-13004627D01*
X10114744Y-12947484D02*
X10019506Y-12947484D01*
X10019506Y-12947484D02*
X10009982Y-13042722D01*
X10009982Y-13042722D02*
X10019506Y-13033198D01*
X10019506Y-13033198D02*
X10038553Y-13023674D01*
X10038553Y-13023674D02*
X10086172Y-13023674D01*
X10086172Y-13023674D02*
X10105220Y-13033198D01*
X10105220Y-13033198D02*
X10114744Y-13042722D01*
X10114744Y-13042722D02*
X10124268Y-13061769D01*
X10124268Y-13061769D02*
X10124268Y-13109388D01*
X10124268Y-13109388D02*
X10114744Y-13128436D01*
X10114744Y-13128436D02*
X10105220Y-13137960D01*
X10105220Y-13137960D02*
X10086172Y-13147484D01*
X10086172Y-13147484D02*
X10038553Y-13147484D01*
X10038553Y-13147484D02*
X10019506Y-13137960D01*
X10019506Y-13137960D02*
X10009982Y-13128436D01*
X10190934Y-12947484D02*
X10324268Y-12947484D01*
X10324268Y-12947484D02*
X10238553Y-13147484D01*
X10390934Y-12947484D02*
X10390934Y-12985579D01*
X10467125Y-12947484D02*
X10467125Y-12985579D01*
X10762363Y-13223674D02*
X10752839Y-13214150D01*
X10752839Y-13214150D02*
X10733791Y-13185579D01*
X10733791Y-13185579D02*
X10724268Y-13166531D01*
X10724268Y-13166531D02*
X10714744Y-13137960D01*
X10714744Y-13137960D02*
X10705220Y-13090341D01*
X10705220Y-13090341D02*
X10705220Y-13052246D01*
X10705220Y-13052246D02*
X10714744Y-13004627D01*
X10714744Y-13004627D02*
X10724268Y-12976055D01*
X10724268Y-12976055D02*
X10733791Y-12957008D01*
X10733791Y-12957008D02*
X10752839Y-12928436D01*
X10752839Y-12928436D02*
X10762363Y-12918912D01*
X10933791Y-12947484D02*
X10838553Y-12947484D01*
X10838553Y-12947484D02*
X10829030Y-13042722D01*
X10829030Y-13042722D02*
X10838553Y-13033198D01*
X10838553Y-13033198D02*
X10857601Y-13023674D01*
X10857601Y-13023674D02*
X10905220Y-13023674D01*
X10905220Y-13023674D02*
X10924268Y-13033198D01*
X10924268Y-13033198D02*
X10933791Y-13042722D01*
X10933791Y-13042722D02*
X10943315Y-13061769D01*
X10943315Y-13061769D02*
X10943315Y-13109388D01*
X10943315Y-13109388D02*
X10933791Y-13128436D01*
X10933791Y-13128436D02*
X10924268Y-13137960D01*
X10924268Y-13137960D02*
X10905220Y-13147484D01*
X10905220Y-13147484D02*
X10857601Y-13147484D01*
X10857601Y-13147484D02*
X10838553Y-13137960D01*
X10838553Y-13137960D02*
X10829030Y-13128436D01*
X11114744Y-13014150D02*
X11114744Y-13147484D01*
X11067125Y-12937960D02*
X11019506Y-13080817D01*
X11019506Y-13080817D02*
X11143315Y-13080817D01*
X11371887Y-13147484D02*
X11371887Y-12947484D01*
X11457601Y-13147484D02*
X11457601Y-13042722D01*
X11457601Y-13042722D02*
X11448077Y-13023674D01*
X11448077Y-13023674D02*
X11429030Y-13014150D01*
X11429030Y-13014150D02*
X11400458Y-13014150D01*
X11400458Y-13014150D02*
X11381410Y-13023674D01*
X11381410Y-13023674D02*
X11371887Y-13033198D01*
X11581410Y-13147484D02*
X11562363Y-13137960D01*
X11562363Y-13137960D02*
X11552839Y-13128436D01*
X11552839Y-13128436D02*
X11543315Y-13109388D01*
X11543315Y-13109388D02*
X11543315Y-13052246D01*
X11543315Y-13052246D02*
X11552839Y-13033198D01*
X11552839Y-13033198D02*
X11562363Y-13023674D01*
X11562363Y-13023674D02*
X11581410Y-13014150D01*
X11581410Y-13014150D02*
X11609982Y-13014150D01*
X11609982Y-13014150D02*
X11629030Y-13023674D01*
X11629030Y-13023674D02*
X11638553Y-13033198D01*
X11638553Y-13033198D02*
X11648077Y-13052246D01*
X11648077Y-13052246D02*
X11648077Y-13109388D01*
X11648077Y-13109388D02*
X11638553Y-13128436D01*
X11638553Y-13128436D02*
X11629030Y-13137960D01*
X11629030Y-13137960D02*
X11609982Y-13147484D01*
X11609982Y-13147484D02*
X11581410Y-13147484D01*
X11762363Y-13147484D02*
X11743315Y-13137960D01*
X11743315Y-13137960D02*
X11733791Y-13118912D01*
X11733791Y-13118912D02*
X11733791Y-12947484D01*
X11914744Y-13137960D02*
X11895696Y-13147484D01*
X11895696Y-13147484D02*
X11857601Y-13147484D01*
X11857601Y-13147484D02*
X11838553Y-13137960D01*
X11838553Y-13137960D02*
X11829030Y-13118912D01*
X11829030Y-13118912D02*
X11829030Y-13042722D01*
X11829030Y-13042722D02*
X11838553Y-13023674D01*
X11838553Y-13023674D02*
X11857601Y-13014150D01*
X11857601Y-13014150D02*
X11895696Y-13014150D01*
X11895696Y-13014150D02*
X11914744Y-13023674D01*
X11914744Y-13023674D02*
X11924268Y-13042722D01*
X11924268Y-13042722D02*
X11924268Y-13061769D01*
X11924268Y-13061769D02*
X11829030Y-13080817D01*
X12000458Y-13137960D02*
X12019506Y-13147484D01*
X12019506Y-13147484D02*
X12057601Y-13147484D01*
X12057601Y-13147484D02*
X12076649Y-13137960D01*
X12076649Y-13137960D02*
X12086172Y-13118912D01*
X12086172Y-13118912D02*
X12086172Y-13109388D01*
X12086172Y-13109388D02*
X12076649Y-13090341D01*
X12076649Y-13090341D02*
X12057601Y-13080817D01*
X12057601Y-13080817D02*
X12029030Y-13080817D01*
X12029030Y-13080817D02*
X12009982Y-13071293D01*
X12009982Y-13071293D02*
X12000458Y-13052246D01*
X12000458Y-13052246D02*
X12000458Y-13042722D01*
X12000458Y-13042722D02*
X12009982Y-13023674D01*
X12009982Y-13023674D02*
X12029030Y-13014150D01*
X12029030Y-13014150D02*
X12057601Y-13014150D01*
X12057601Y-13014150D02*
X12076649Y-13023674D01*
X12152839Y-13223674D02*
X12162363Y-13214150D01*
X12162363Y-13214150D02*
X12181411Y-13185579D01*
X12181411Y-13185579D02*
X12190934Y-13166531D01*
X12190934Y-13166531D02*
X12200458Y-13137960D01*
X12200458Y-13137960D02*
X12209982Y-13090341D01*
X12209982Y-13090341D02*
X12209982Y-13052246D01*
X12209982Y-13052246D02*
X12200458Y-13004627D01*
X12200458Y-13004627D02*
X12190934Y-12976055D01*
X12190934Y-12976055D02*
X12181411Y-12957008D01*
X12181411Y-12957008D02*
X12162363Y-12928436D01*
X12162363Y-12928436D02*
X12152839Y-12918912D01*
D10*
X7187300Y-13320000D02*
G75*
G02*
X7107300Y-13320000I-40000J0D01*
G01*
X7107300Y-13320000D02*
G75*
G02*
X7187300Y-13320000I40000J0D01*
G01*
D13*
X7486172Y-13211484D02*
X7505220Y-13211484D01*
X7505220Y-13211484D02*
X7524267Y-13221008D01*
X7524267Y-13221008D02*
X7533791Y-13230531D01*
X7533791Y-13230531D02*
X7543315Y-13249579D01*
X7543315Y-13249579D02*
X7552839Y-13287674D01*
X7552839Y-13287674D02*
X7552839Y-13335293D01*
X7552839Y-13335293D02*
X7543315Y-13373388D01*
X7543315Y-13373388D02*
X7533791Y-13392436D01*
X7533791Y-13392436D02*
X7524267Y-13401960D01*
X7524267Y-13401960D02*
X7505220Y-13411484D01*
X7505220Y-13411484D02*
X7486172Y-13411484D01*
X7486172Y-13411484D02*
X7467124Y-13401960D01*
X7467124Y-13401960D02*
X7457601Y-13392436D01*
X7457601Y-13392436D02*
X7448077Y-13373388D01*
X7448077Y-13373388D02*
X7438553Y-13335293D01*
X7438553Y-13335293D02*
X7438553Y-13287674D01*
X7438553Y-13287674D02*
X7448077Y-13249579D01*
X7448077Y-13249579D02*
X7457601Y-13230531D01*
X7457601Y-13230531D02*
X7467124Y-13221008D01*
X7467124Y-13221008D02*
X7486172Y-13211484D01*
X7638553Y-13392436D02*
X7648077Y-13401960D01*
X7648077Y-13401960D02*
X7638553Y-13411484D01*
X7638553Y-13411484D02*
X7629029Y-13401960D01*
X7629029Y-13401960D02*
X7638553Y-13392436D01*
X7638553Y-13392436D02*
X7638553Y-13411484D01*
X7762362Y-13297198D02*
X7743315Y-13287674D01*
X7743315Y-13287674D02*
X7733791Y-13278150D01*
X7733791Y-13278150D02*
X7724267Y-13259103D01*
X7724267Y-13259103D02*
X7724267Y-13249579D01*
X7724267Y-13249579D02*
X7733791Y-13230531D01*
X7733791Y-13230531D02*
X7743315Y-13221008D01*
X7743315Y-13221008D02*
X7762362Y-13211484D01*
X7762362Y-13211484D02*
X7800458Y-13211484D01*
X7800458Y-13211484D02*
X7819505Y-13221008D01*
X7819505Y-13221008D02*
X7829029Y-13230531D01*
X7829029Y-13230531D02*
X7838553Y-13249579D01*
X7838553Y-13249579D02*
X7838553Y-13259103D01*
X7838553Y-13259103D02*
X7829029Y-13278150D01*
X7829029Y-13278150D02*
X7819505Y-13287674D01*
X7819505Y-13287674D02*
X7800458Y-13297198D01*
X7800458Y-13297198D02*
X7762362Y-13297198D01*
X7762362Y-13297198D02*
X7743315Y-13306722D01*
X7743315Y-13306722D02*
X7733791Y-13316246D01*
X7733791Y-13316246D02*
X7724267Y-13335293D01*
X7724267Y-13335293D02*
X7724267Y-13373388D01*
X7724267Y-13373388D02*
X7733791Y-13392436D01*
X7733791Y-13392436D02*
X7743315Y-13401960D01*
X7743315Y-13401960D02*
X7762362Y-13411484D01*
X7762362Y-13411484D02*
X7800458Y-13411484D01*
X7800458Y-13411484D02*
X7819505Y-13401960D01*
X7819505Y-13401960D02*
X7829029Y-13392436D01*
X7829029Y-13392436D02*
X7838553Y-13373388D01*
X7838553Y-13373388D02*
X7838553Y-13335293D01*
X7838553Y-13335293D02*
X7829029Y-13316246D01*
X7829029Y-13316246D02*
X7819505Y-13306722D01*
X7819505Y-13306722D02*
X7800458Y-13297198D01*
X7962362Y-13211484D02*
X7981410Y-13211484D01*
X7981410Y-13211484D02*
X8000458Y-13221008D01*
X8000458Y-13221008D02*
X8009982Y-13230531D01*
X8009982Y-13230531D02*
X8019505Y-13249579D01*
X8019505Y-13249579D02*
X8029029Y-13287674D01*
X8029029Y-13287674D02*
X8029029Y-13335293D01*
X8029029Y-13335293D02*
X8019505Y-13373388D01*
X8019505Y-13373388D02*
X8009982Y-13392436D01*
X8009982Y-13392436D02*
X8000458Y-13401960D01*
X8000458Y-13401960D02*
X7981410Y-13411484D01*
X7981410Y-13411484D02*
X7962362Y-13411484D01*
X7962362Y-13411484D02*
X7943315Y-13401960D01*
X7943315Y-13401960D02*
X7933791Y-13392436D01*
X7933791Y-13392436D02*
X7924267Y-13373388D01*
X7924267Y-13373388D02*
X7914743Y-13335293D01*
X7914743Y-13335293D02*
X7914743Y-13287674D01*
X7914743Y-13287674D02*
X7924267Y-13249579D01*
X7924267Y-13249579D02*
X7933791Y-13230531D01*
X7933791Y-13230531D02*
X7943315Y-13221008D01*
X7943315Y-13221008D02*
X7962362Y-13211484D01*
X8152839Y-13211484D02*
X8171886Y-13211484D01*
X8171886Y-13211484D02*
X8190934Y-13221008D01*
X8190934Y-13221008D02*
X8200458Y-13230531D01*
X8200458Y-13230531D02*
X8209982Y-13249579D01*
X8209982Y-13249579D02*
X8219505Y-13287674D01*
X8219505Y-13287674D02*
X8219505Y-13335293D01*
X8219505Y-13335293D02*
X8209982Y-13373388D01*
X8209982Y-13373388D02*
X8200458Y-13392436D01*
X8200458Y-13392436D02*
X8190934Y-13401960D01*
X8190934Y-13401960D02*
X8171886Y-13411484D01*
X8171886Y-13411484D02*
X8152839Y-13411484D01*
X8152839Y-13411484D02*
X8133791Y-13401960D01*
X8133791Y-13401960D02*
X8124267Y-13392436D01*
X8124267Y-13392436D02*
X8114743Y-13373388D01*
X8114743Y-13373388D02*
X8105220Y-13335293D01*
X8105220Y-13335293D02*
X8105220Y-13287674D01*
X8105220Y-13287674D02*
X8114743Y-13249579D01*
X8114743Y-13249579D02*
X8124267Y-13230531D01*
X8124267Y-13230531D02*
X8133791Y-13221008D01*
X8133791Y-13221008D02*
X8152839Y-13211484D01*
X8305220Y-13411484D02*
X8305220Y-13278150D01*
X8305220Y-13297198D02*
X8314743Y-13287674D01*
X8314743Y-13287674D02*
X8333791Y-13278150D01*
X8333791Y-13278150D02*
X8362363Y-13278150D01*
X8362363Y-13278150D02*
X8381410Y-13287674D01*
X8381410Y-13287674D02*
X8390934Y-13306722D01*
X8390934Y-13306722D02*
X8390934Y-13411484D01*
X8390934Y-13306722D02*
X8400458Y-13287674D01*
X8400458Y-13287674D02*
X8419505Y-13278150D01*
X8419505Y-13278150D02*
X8448077Y-13278150D01*
X8448077Y-13278150D02*
X8467125Y-13287674D01*
X8467125Y-13287674D02*
X8476648Y-13306722D01*
X8476648Y-13306722D02*
X8476648Y-13411484D01*
X8571886Y-13411484D02*
X8571886Y-13278150D01*
X8571886Y-13297198D02*
X8581410Y-13287674D01*
X8581410Y-13287674D02*
X8600458Y-13278150D01*
X8600458Y-13278150D02*
X8629029Y-13278150D01*
X8629029Y-13278150D02*
X8648077Y-13287674D01*
X8648077Y-13287674D02*
X8657601Y-13306722D01*
X8657601Y-13306722D02*
X8657601Y-13411484D01*
X8657601Y-13306722D02*
X8667125Y-13287674D01*
X8667125Y-13287674D02*
X8686172Y-13278150D01*
X8686172Y-13278150D02*
X8714744Y-13278150D01*
X8714744Y-13278150D02*
X8733791Y-13287674D01*
X8733791Y-13287674D02*
X8743315Y-13306722D01*
X8743315Y-13306722D02*
X8743315Y-13411484D01*
X9133791Y-13201960D02*
X8962363Y-13459103D01*
X9390934Y-13211484D02*
X9409982Y-13211484D01*
X9409982Y-13211484D02*
X9429029Y-13221008D01*
X9429029Y-13221008D02*
X9438553Y-13230531D01*
X9438553Y-13230531D02*
X9448077Y-13249579D01*
X9448077Y-13249579D02*
X9457601Y-13287674D01*
X9457601Y-13287674D02*
X9457601Y-13335293D01*
X9457601Y-13335293D02*
X9448077Y-13373388D01*
X9448077Y-13373388D02*
X9438553Y-13392436D01*
X9438553Y-13392436D02*
X9429029Y-13401960D01*
X9429029Y-13401960D02*
X9409982Y-13411484D01*
X9409982Y-13411484D02*
X9390934Y-13411484D01*
X9390934Y-13411484D02*
X9371887Y-13401960D01*
X9371887Y-13401960D02*
X9362363Y-13392436D01*
X9362363Y-13392436D02*
X9352839Y-13373388D01*
X9352839Y-13373388D02*
X9343315Y-13335293D01*
X9343315Y-13335293D02*
X9343315Y-13287674D01*
X9343315Y-13287674D02*
X9352839Y-13249579D01*
X9352839Y-13249579D02*
X9362363Y-13230531D01*
X9362363Y-13230531D02*
X9371887Y-13221008D01*
X9371887Y-13221008D02*
X9390934Y-13211484D01*
X9543315Y-13392436D02*
X9552839Y-13401960D01*
X9552839Y-13401960D02*
X9543315Y-13411484D01*
X9543315Y-13411484D02*
X9533791Y-13401960D01*
X9533791Y-13401960D02*
X9543315Y-13392436D01*
X9543315Y-13392436D02*
X9543315Y-13411484D01*
X9676648Y-13211484D02*
X9695696Y-13211484D01*
X9695696Y-13211484D02*
X9714744Y-13221008D01*
X9714744Y-13221008D02*
X9724268Y-13230531D01*
X9724268Y-13230531D02*
X9733791Y-13249579D01*
X9733791Y-13249579D02*
X9743315Y-13287674D01*
X9743315Y-13287674D02*
X9743315Y-13335293D01*
X9743315Y-13335293D02*
X9733791Y-13373388D01*
X9733791Y-13373388D02*
X9724268Y-13392436D01*
X9724268Y-13392436D02*
X9714744Y-13401960D01*
X9714744Y-13401960D02*
X9695696Y-13411484D01*
X9695696Y-13411484D02*
X9676648Y-13411484D01*
X9676648Y-13411484D02*
X9657601Y-13401960D01*
X9657601Y-13401960D02*
X9648077Y-13392436D01*
X9648077Y-13392436D02*
X9638553Y-13373388D01*
X9638553Y-13373388D02*
X9629029Y-13335293D01*
X9629029Y-13335293D02*
X9629029Y-13287674D01*
X9629029Y-13287674D02*
X9638553Y-13249579D01*
X9638553Y-13249579D02*
X9648077Y-13230531D01*
X9648077Y-13230531D02*
X9657601Y-13221008D01*
X9657601Y-13221008D02*
X9676648Y-13211484D01*
X9809982Y-13211484D02*
X9933791Y-13211484D01*
X9933791Y-13211484D02*
X9867125Y-13287674D01*
X9867125Y-13287674D02*
X9895696Y-13287674D01*
X9895696Y-13287674D02*
X9914744Y-13297198D01*
X9914744Y-13297198D02*
X9924268Y-13306722D01*
X9924268Y-13306722D02*
X9933791Y-13325769D01*
X9933791Y-13325769D02*
X9933791Y-13373388D01*
X9933791Y-13373388D02*
X9924268Y-13392436D01*
X9924268Y-13392436D02*
X9914744Y-13401960D01*
X9914744Y-13401960D02*
X9895696Y-13411484D01*
X9895696Y-13411484D02*
X9838553Y-13411484D01*
X9838553Y-13411484D02*
X9819506Y-13401960D01*
X9819506Y-13401960D02*
X9809982Y-13392436D01*
X10124268Y-13411484D02*
X10009982Y-13411484D01*
X10067125Y-13411484D02*
X10067125Y-13211484D01*
X10067125Y-13211484D02*
X10048077Y-13240055D01*
X10048077Y-13240055D02*
X10029029Y-13259103D01*
X10029029Y-13259103D02*
X10009982Y-13268627D01*
X10305220Y-13211484D02*
X10209982Y-13211484D01*
X10209982Y-13211484D02*
X10200458Y-13306722D01*
X10200458Y-13306722D02*
X10209982Y-13297198D01*
X10209982Y-13297198D02*
X10229029Y-13287674D01*
X10229029Y-13287674D02*
X10276649Y-13287674D01*
X10276649Y-13287674D02*
X10295696Y-13297198D01*
X10295696Y-13297198D02*
X10305220Y-13306722D01*
X10305220Y-13306722D02*
X10314744Y-13325769D01*
X10314744Y-13325769D02*
X10314744Y-13373388D01*
X10314744Y-13373388D02*
X10305220Y-13392436D01*
X10305220Y-13392436D02*
X10295696Y-13401960D01*
X10295696Y-13401960D02*
X10276649Y-13411484D01*
X10276649Y-13411484D02*
X10229029Y-13411484D01*
X10229029Y-13411484D02*
X10209982Y-13401960D01*
X10209982Y-13401960D02*
X10200458Y-13392436D01*
X10390934Y-13211484D02*
X10390934Y-13249579D01*
X10467125Y-13211484D02*
X10467125Y-13249579D01*
X10762363Y-13487674D02*
X10752839Y-13478150D01*
X10752839Y-13478150D02*
X10733791Y-13449579D01*
X10733791Y-13449579D02*
X10724268Y-13430531D01*
X10724268Y-13430531D02*
X10714744Y-13401960D01*
X10714744Y-13401960D02*
X10705220Y-13354341D01*
X10705220Y-13354341D02*
X10705220Y-13316246D01*
X10705220Y-13316246D02*
X10714744Y-13268627D01*
X10714744Y-13268627D02*
X10724268Y-13240055D01*
X10724268Y-13240055D02*
X10733791Y-13221008D01*
X10733791Y-13221008D02*
X10752839Y-13192436D01*
X10752839Y-13192436D02*
X10762363Y-13182912D01*
X10829030Y-13230531D02*
X10838553Y-13221008D01*
X10838553Y-13221008D02*
X10857601Y-13211484D01*
X10857601Y-13211484D02*
X10905220Y-13211484D01*
X10905220Y-13211484D02*
X10924268Y-13221008D01*
X10924268Y-13221008D02*
X10933791Y-13230531D01*
X10933791Y-13230531D02*
X10943315Y-13249579D01*
X10943315Y-13249579D02*
X10943315Y-13268627D01*
X10943315Y-13268627D02*
X10933791Y-13297198D01*
X10933791Y-13297198D02*
X10819506Y-13411484D01*
X10819506Y-13411484D02*
X10943315Y-13411484D01*
X11181411Y-13411484D02*
X11181411Y-13211484D01*
X11267125Y-13411484D02*
X11267125Y-13306722D01*
X11267125Y-13306722D02*
X11257601Y-13287674D01*
X11257601Y-13287674D02*
X11238553Y-13278150D01*
X11238553Y-13278150D02*
X11209982Y-13278150D01*
X11209982Y-13278150D02*
X11190934Y-13287674D01*
X11190934Y-13287674D02*
X11181411Y-13297198D01*
X11390934Y-13411484D02*
X11371887Y-13401960D01*
X11371887Y-13401960D02*
X11362363Y-13392436D01*
X11362363Y-13392436D02*
X11352839Y-13373388D01*
X11352839Y-13373388D02*
X11352839Y-13316246D01*
X11352839Y-13316246D02*
X11362363Y-13297198D01*
X11362363Y-13297198D02*
X11371887Y-13287674D01*
X11371887Y-13287674D02*
X11390934Y-13278150D01*
X11390934Y-13278150D02*
X11419506Y-13278150D01*
X11419506Y-13278150D02*
X11438553Y-13287674D01*
X11438553Y-13287674D02*
X11448077Y-13297198D01*
X11448077Y-13297198D02*
X11457601Y-13316246D01*
X11457601Y-13316246D02*
X11457601Y-13373388D01*
X11457601Y-13373388D02*
X11448077Y-13392436D01*
X11448077Y-13392436D02*
X11438553Y-13401960D01*
X11438553Y-13401960D02*
X11419506Y-13411484D01*
X11419506Y-13411484D02*
X11390934Y-13411484D01*
X11571887Y-13411484D02*
X11552839Y-13401960D01*
X11552839Y-13401960D02*
X11543315Y-13382912D01*
X11543315Y-13382912D02*
X11543315Y-13211484D01*
X11724268Y-13401960D02*
X11705220Y-13411484D01*
X11705220Y-13411484D02*
X11667125Y-13411484D01*
X11667125Y-13411484D02*
X11648077Y-13401960D01*
X11648077Y-13401960D02*
X11638553Y-13382912D01*
X11638553Y-13382912D02*
X11638553Y-13306722D01*
X11638553Y-13306722D02*
X11648077Y-13287674D01*
X11648077Y-13287674D02*
X11667125Y-13278150D01*
X11667125Y-13278150D02*
X11705220Y-13278150D01*
X11705220Y-13278150D02*
X11724268Y-13287674D01*
X11724268Y-13287674D02*
X11733791Y-13306722D01*
X11733791Y-13306722D02*
X11733791Y-13325769D01*
X11733791Y-13325769D02*
X11638553Y-13344817D01*
X11809982Y-13401960D02*
X11829030Y-13411484D01*
X11829030Y-13411484D02*
X11867125Y-13411484D01*
X11867125Y-13411484D02*
X11886172Y-13401960D01*
X11886172Y-13401960D02*
X11895696Y-13382912D01*
X11895696Y-13382912D02*
X11895696Y-13373388D01*
X11895696Y-13373388D02*
X11886172Y-13354341D01*
X11886172Y-13354341D02*
X11867125Y-13344817D01*
X11867125Y-13344817D02*
X11838553Y-13344817D01*
X11838553Y-13344817D02*
X11819506Y-13335293D01*
X11819506Y-13335293D02*
X11809982Y-13316246D01*
X11809982Y-13316246D02*
X11809982Y-13306722D01*
X11809982Y-13306722D02*
X11819506Y-13287674D01*
X11819506Y-13287674D02*
X11838553Y-13278150D01*
X11838553Y-13278150D02*
X11867125Y-13278150D01*
X11867125Y-13278150D02*
X11886172Y-13287674D01*
X11962363Y-13487674D02*
X11971887Y-13478150D01*
X11971887Y-13478150D02*
X11990934Y-13449579D01*
X11990934Y-13449579D02*
X12000458Y-13430531D01*
X12000458Y-13430531D02*
X12009982Y-13401960D01*
X12009982Y-13401960D02*
X12019506Y-13354341D01*
X12019506Y-13354341D02*
X12019506Y-13316246D01*
X12019506Y-13316246D02*
X12009982Y-13268627D01*
X12009982Y-13268627D02*
X12000458Y-13240055D01*
X12000458Y-13240055D02*
X11990934Y-13221008D01*
X11990934Y-13221008D02*
X11971887Y-13192436D01*
X11971887Y-13192436D02*
X11962363Y-13182912D01*
D10*
X7137300Y-13534000D02*
X7137300Y-13634000D01*
X7087300Y-13584000D02*
X7187300Y-13584000D01*
D13*
X7552839Y-13675484D02*
X7438553Y-13675484D01*
X7495696Y-13675484D02*
X7495696Y-13475484D01*
X7495696Y-13475484D02*
X7476648Y-13504055D01*
X7476648Y-13504055D02*
X7457601Y-13523103D01*
X7457601Y-13523103D02*
X7438553Y-13532627D01*
X7638553Y-13656436D02*
X7648077Y-13665960D01*
X7648077Y-13665960D02*
X7638553Y-13675484D01*
X7638553Y-13675484D02*
X7629029Y-13665960D01*
X7629029Y-13665960D02*
X7638553Y-13656436D01*
X7638553Y-13656436D02*
X7638553Y-13675484D01*
X7771886Y-13475484D02*
X7790934Y-13475484D01*
X7790934Y-13475484D02*
X7809982Y-13485008D01*
X7809982Y-13485008D02*
X7819505Y-13494531D01*
X7819505Y-13494531D02*
X7829029Y-13513579D01*
X7829029Y-13513579D02*
X7838553Y-13551674D01*
X7838553Y-13551674D02*
X7838553Y-13599293D01*
X7838553Y-13599293D02*
X7829029Y-13637388D01*
X7829029Y-13637388D02*
X7819505Y-13656436D01*
X7819505Y-13656436D02*
X7809982Y-13665960D01*
X7809982Y-13665960D02*
X7790934Y-13675484D01*
X7790934Y-13675484D02*
X7771886Y-13675484D01*
X7771886Y-13675484D02*
X7752839Y-13665960D01*
X7752839Y-13665960D02*
X7743315Y-13656436D01*
X7743315Y-13656436D02*
X7733791Y-13637388D01*
X7733791Y-13637388D02*
X7724267Y-13599293D01*
X7724267Y-13599293D02*
X7724267Y-13551674D01*
X7724267Y-13551674D02*
X7733791Y-13513579D01*
X7733791Y-13513579D02*
X7743315Y-13494531D01*
X7743315Y-13494531D02*
X7752839Y-13485008D01*
X7752839Y-13485008D02*
X7771886Y-13475484D01*
X7962362Y-13475484D02*
X7981410Y-13475484D01*
X7981410Y-13475484D02*
X8000458Y-13485008D01*
X8000458Y-13485008D02*
X8009982Y-13494531D01*
X8009982Y-13494531D02*
X8019505Y-13513579D01*
X8019505Y-13513579D02*
X8029029Y-13551674D01*
X8029029Y-13551674D02*
X8029029Y-13599293D01*
X8029029Y-13599293D02*
X8019505Y-13637388D01*
X8019505Y-13637388D02*
X8009982Y-13656436D01*
X8009982Y-13656436D02*
X8000458Y-13665960D01*
X8000458Y-13665960D02*
X7981410Y-13675484D01*
X7981410Y-13675484D02*
X7962362Y-13675484D01*
X7962362Y-13675484D02*
X7943315Y-13665960D01*
X7943315Y-13665960D02*
X7933791Y-13656436D01*
X7933791Y-13656436D02*
X7924267Y-13637388D01*
X7924267Y-13637388D02*
X7914743Y-13599293D01*
X7914743Y-13599293D02*
X7914743Y-13551674D01*
X7914743Y-13551674D02*
X7924267Y-13513579D01*
X7924267Y-13513579D02*
X7933791Y-13494531D01*
X7933791Y-13494531D02*
X7943315Y-13485008D01*
X7943315Y-13485008D02*
X7962362Y-13475484D01*
X8152839Y-13475484D02*
X8171886Y-13475484D01*
X8171886Y-13475484D02*
X8190934Y-13485008D01*
X8190934Y-13485008D02*
X8200458Y-13494531D01*
X8200458Y-13494531D02*
X8209982Y-13513579D01*
X8209982Y-13513579D02*
X8219505Y-13551674D01*
X8219505Y-13551674D02*
X8219505Y-13599293D01*
X8219505Y-13599293D02*
X8209982Y-13637388D01*
X8209982Y-13637388D02*
X8200458Y-13656436D01*
X8200458Y-13656436D02*
X8190934Y-13665960D01*
X8190934Y-13665960D02*
X8171886Y-13675484D01*
X8171886Y-13675484D02*
X8152839Y-13675484D01*
X8152839Y-13675484D02*
X8133791Y-13665960D01*
X8133791Y-13665960D02*
X8124267Y-13656436D01*
X8124267Y-13656436D02*
X8114743Y-13637388D01*
X8114743Y-13637388D02*
X8105220Y-13599293D01*
X8105220Y-13599293D02*
X8105220Y-13551674D01*
X8105220Y-13551674D02*
X8114743Y-13513579D01*
X8114743Y-13513579D02*
X8124267Y-13494531D01*
X8124267Y-13494531D02*
X8133791Y-13485008D01*
X8133791Y-13485008D02*
X8152839Y-13475484D01*
X8305220Y-13675484D02*
X8305220Y-13542150D01*
X8305220Y-13561198D02*
X8314743Y-13551674D01*
X8314743Y-13551674D02*
X8333791Y-13542150D01*
X8333791Y-13542150D02*
X8362363Y-13542150D01*
X8362363Y-13542150D02*
X8381410Y-13551674D01*
X8381410Y-13551674D02*
X8390934Y-13570722D01*
X8390934Y-13570722D02*
X8390934Y-13675484D01*
X8390934Y-13570722D02*
X8400458Y-13551674D01*
X8400458Y-13551674D02*
X8419505Y-13542150D01*
X8419505Y-13542150D02*
X8448077Y-13542150D01*
X8448077Y-13542150D02*
X8467125Y-13551674D01*
X8467125Y-13551674D02*
X8476648Y-13570722D01*
X8476648Y-13570722D02*
X8476648Y-13675484D01*
X8571886Y-13675484D02*
X8571886Y-13542150D01*
X8571886Y-13561198D02*
X8581410Y-13551674D01*
X8581410Y-13551674D02*
X8600458Y-13542150D01*
X8600458Y-13542150D02*
X8629029Y-13542150D01*
X8629029Y-13542150D02*
X8648077Y-13551674D01*
X8648077Y-13551674D02*
X8657601Y-13570722D01*
X8657601Y-13570722D02*
X8657601Y-13675484D01*
X8657601Y-13570722D02*
X8667125Y-13551674D01*
X8667125Y-13551674D02*
X8686172Y-13542150D01*
X8686172Y-13542150D02*
X8714744Y-13542150D01*
X8714744Y-13542150D02*
X8733791Y-13551674D01*
X8733791Y-13551674D02*
X8743315Y-13570722D01*
X8743315Y-13570722D02*
X8743315Y-13675484D01*
X9133791Y-13465960D02*
X8962363Y-13723103D01*
X9390934Y-13475484D02*
X9409982Y-13475484D01*
X9409982Y-13475484D02*
X9429029Y-13485008D01*
X9429029Y-13485008D02*
X9438553Y-13494531D01*
X9438553Y-13494531D02*
X9448077Y-13513579D01*
X9448077Y-13513579D02*
X9457601Y-13551674D01*
X9457601Y-13551674D02*
X9457601Y-13599293D01*
X9457601Y-13599293D02*
X9448077Y-13637388D01*
X9448077Y-13637388D02*
X9438553Y-13656436D01*
X9438553Y-13656436D02*
X9429029Y-13665960D01*
X9429029Y-13665960D02*
X9409982Y-13675484D01*
X9409982Y-13675484D02*
X9390934Y-13675484D01*
X9390934Y-13675484D02*
X9371887Y-13665960D01*
X9371887Y-13665960D02*
X9362363Y-13656436D01*
X9362363Y-13656436D02*
X9352839Y-13637388D01*
X9352839Y-13637388D02*
X9343315Y-13599293D01*
X9343315Y-13599293D02*
X9343315Y-13551674D01*
X9343315Y-13551674D02*
X9352839Y-13513579D01*
X9352839Y-13513579D02*
X9362363Y-13494531D01*
X9362363Y-13494531D02*
X9371887Y-13485008D01*
X9371887Y-13485008D02*
X9390934Y-13475484D01*
X9543315Y-13656436D02*
X9552839Y-13665960D01*
X9552839Y-13665960D02*
X9543315Y-13675484D01*
X9543315Y-13675484D02*
X9533791Y-13665960D01*
X9533791Y-13665960D02*
X9543315Y-13656436D01*
X9543315Y-13656436D02*
X9543315Y-13675484D01*
X9676648Y-13475484D02*
X9695696Y-13475484D01*
X9695696Y-13475484D02*
X9714744Y-13485008D01*
X9714744Y-13485008D02*
X9724268Y-13494531D01*
X9724268Y-13494531D02*
X9733791Y-13513579D01*
X9733791Y-13513579D02*
X9743315Y-13551674D01*
X9743315Y-13551674D02*
X9743315Y-13599293D01*
X9743315Y-13599293D02*
X9733791Y-13637388D01*
X9733791Y-13637388D02*
X9724268Y-13656436D01*
X9724268Y-13656436D02*
X9714744Y-13665960D01*
X9714744Y-13665960D02*
X9695696Y-13675484D01*
X9695696Y-13675484D02*
X9676648Y-13675484D01*
X9676648Y-13675484D02*
X9657601Y-13665960D01*
X9657601Y-13665960D02*
X9648077Y-13656436D01*
X9648077Y-13656436D02*
X9638553Y-13637388D01*
X9638553Y-13637388D02*
X9629029Y-13599293D01*
X9629029Y-13599293D02*
X9629029Y-13551674D01*
X9629029Y-13551674D02*
X9638553Y-13513579D01*
X9638553Y-13513579D02*
X9648077Y-13494531D01*
X9648077Y-13494531D02*
X9657601Y-13485008D01*
X9657601Y-13485008D02*
X9676648Y-13475484D01*
X9809982Y-13475484D02*
X9933791Y-13475484D01*
X9933791Y-13475484D02*
X9867125Y-13551674D01*
X9867125Y-13551674D02*
X9895696Y-13551674D01*
X9895696Y-13551674D02*
X9914744Y-13561198D01*
X9914744Y-13561198D02*
X9924268Y-13570722D01*
X9924268Y-13570722D02*
X9933791Y-13589769D01*
X9933791Y-13589769D02*
X9933791Y-13637388D01*
X9933791Y-13637388D02*
X9924268Y-13656436D01*
X9924268Y-13656436D02*
X9914744Y-13665960D01*
X9914744Y-13665960D02*
X9895696Y-13675484D01*
X9895696Y-13675484D02*
X9838553Y-13675484D01*
X9838553Y-13675484D02*
X9819506Y-13665960D01*
X9819506Y-13665960D02*
X9809982Y-13656436D01*
X10029029Y-13675484D02*
X10067125Y-13675484D01*
X10067125Y-13675484D02*
X10086172Y-13665960D01*
X10086172Y-13665960D02*
X10095696Y-13656436D01*
X10095696Y-13656436D02*
X10114744Y-13627865D01*
X10114744Y-13627865D02*
X10124268Y-13589769D01*
X10124268Y-13589769D02*
X10124268Y-13513579D01*
X10124268Y-13513579D02*
X10114744Y-13494531D01*
X10114744Y-13494531D02*
X10105220Y-13485008D01*
X10105220Y-13485008D02*
X10086172Y-13475484D01*
X10086172Y-13475484D02*
X10048077Y-13475484D01*
X10048077Y-13475484D02*
X10029029Y-13485008D01*
X10029029Y-13485008D02*
X10019506Y-13494531D01*
X10019506Y-13494531D02*
X10009982Y-13513579D01*
X10009982Y-13513579D02*
X10009982Y-13561198D01*
X10009982Y-13561198D02*
X10019506Y-13580246D01*
X10019506Y-13580246D02*
X10029029Y-13589769D01*
X10029029Y-13589769D02*
X10048077Y-13599293D01*
X10048077Y-13599293D02*
X10086172Y-13599293D01*
X10086172Y-13599293D02*
X10105220Y-13589769D01*
X10105220Y-13589769D02*
X10114744Y-13580246D01*
X10114744Y-13580246D02*
X10124268Y-13561198D01*
X10295696Y-13542150D02*
X10295696Y-13675484D01*
X10248077Y-13465960D02*
X10200458Y-13608817D01*
X10200458Y-13608817D02*
X10324268Y-13608817D01*
X10390934Y-13475484D02*
X10390934Y-13513579D01*
X10467125Y-13475484D02*
X10467125Y-13513579D01*
X10762363Y-13751674D02*
X10752839Y-13742150D01*
X10752839Y-13742150D02*
X10733791Y-13713579D01*
X10733791Y-13713579D02*
X10724268Y-13694531D01*
X10724268Y-13694531D02*
X10714744Y-13665960D01*
X10714744Y-13665960D02*
X10705220Y-13618341D01*
X10705220Y-13618341D02*
X10705220Y-13580246D01*
X10705220Y-13580246D02*
X10714744Y-13532627D01*
X10714744Y-13532627D02*
X10724268Y-13504055D01*
X10724268Y-13504055D02*
X10733791Y-13485008D01*
X10733791Y-13485008D02*
X10752839Y-13456436D01*
X10752839Y-13456436D02*
X10762363Y-13446912D01*
X10924268Y-13542150D02*
X10924268Y-13675484D01*
X10876649Y-13465960D02*
X10829030Y-13608817D01*
X10829030Y-13608817D02*
X10952839Y-13608817D01*
X11067125Y-13475484D02*
X11086172Y-13475484D01*
X11086172Y-13475484D02*
X11105220Y-13485008D01*
X11105220Y-13485008D02*
X11114744Y-13494531D01*
X11114744Y-13494531D02*
X11124268Y-13513579D01*
X11124268Y-13513579D02*
X11133791Y-13551674D01*
X11133791Y-13551674D02*
X11133791Y-13599293D01*
X11133791Y-13599293D02*
X11124268Y-13637388D01*
X11124268Y-13637388D02*
X11114744Y-13656436D01*
X11114744Y-13656436D02*
X11105220Y-13665960D01*
X11105220Y-13665960D02*
X11086172Y-13675484D01*
X11086172Y-13675484D02*
X11067125Y-13675484D01*
X11067125Y-13675484D02*
X11048077Y-13665960D01*
X11048077Y-13665960D02*
X11038553Y-13656436D01*
X11038553Y-13656436D02*
X11029030Y-13637388D01*
X11029030Y-13637388D02*
X11019506Y-13599293D01*
X11019506Y-13599293D02*
X11019506Y-13551674D01*
X11019506Y-13551674D02*
X11029030Y-13513579D01*
X11029030Y-13513579D02*
X11038553Y-13494531D01*
X11038553Y-13494531D02*
X11048077Y-13485008D01*
X11048077Y-13485008D02*
X11067125Y-13475484D01*
X11371887Y-13675484D02*
X11371887Y-13475484D01*
X11457601Y-13675484D02*
X11457601Y-13570722D01*
X11457601Y-13570722D02*
X11448077Y-13551674D01*
X11448077Y-13551674D02*
X11429030Y-13542150D01*
X11429030Y-13542150D02*
X11400458Y-13542150D01*
X11400458Y-13542150D02*
X11381410Y-13551674D01*
X11381410Y-13551674D02*
X11371887Y-13561198D01*
X11581410Y-13675484D02*
X11562363Y-13665960D01*
X11562363Y-13665960D02*
X11552839Y-13656436D01*
X11552839Y-13656436D02*
X11543315Y-13637388D01*
X11543315Y-13637388D02*
X11543315Y-13580246D01*
X11543315Y-13580246D02*
X11552839Y-13561198D01*
X11552839Y-13561198D02*
X11562363Y-13551674D01*
X11562363Y-13551674D02*
X11581410Y-13542150D01*
X11581410Y-13542150D02*
X11609982Y-13542150D01*
X11609982Y-13542150D02*
X11629030Y-13551674D01*
X11629030Y-13551674D02*
X11638553Y-13561198D01*
X11638553Y-13561198D02*
X11648077Y-13580246D01*
X11648077Y-13580246D02*
X11648077Y-13637388D01*
X11648077Y-13637388D02*
X11638553Y-13656436D01*
X11638553Y-13656436D02*
X11629030Y-13665960D01*
X11629030Y-13665960D02*
X11609982Y-13675484D01*
X11609982Y-13675484D02*
X11581410Y-13675484D01*
X11762363Y-13675484D02*
X11743315Y-13665960D01*
X11743315Y-13665960D02*
X11733791Y-13646912D01*
X11733791Y-13646912D02*
X11733791Y-13475484D01*
X11914744Y-13665960D02*
X11895696Y-13675484D01*
X11895696Y-13675484D02*
X11857601Y-13675484D01*
X11857601Y-13675484D02*
X11838553Y-13665960D01*
X11838553Y-13665960D02*
X11829030Y-13646912D01*
X11829030Y-13646912D02*
X11829030Y-13570722D01*
X11829030Y-13570722D02*
X11838553Y-13551674D01*
X11838553Y-13551674D02*
X11857601Y-13542150D01*
X11857601Y-13542150D02*
X11895696Y-13542150D01*
X11895696Y-13542150D02*
X11914744Y-13551674D01*
X11914744Y-13551674D02*
X11924268Y-13570722D01*
X11924268Y-13570722D02*
X11924268Y-13589769D01*
X11924268Y-13589769D02*
X11829030Y-13608817D01*
X12000458Y-13665960D02*
X12019506Y-13675484D01*
X12019506Y-13675484D02*
X12057601Y-13675484D01*
X12057601Y-13675484D02*
X12076649Y-13665960D01*
X12076649Y-13665960D02*
X12086172Y-13646912D01*
X12086172Y-13646912D02*
X12086172Y-13637388D01*
X12086172Y-13637388D02*
X12076649Y-13618341D01*
X12076649Y-13618341D02*
X12057601Y-13608817D01*
X12057601Y-13608817D02*
X12029030Y-13608817D01*
X12029030Y-13608817D02*
X12009982Y-13599293D01*
X12009982Y-13599293D02*
X12000458Y-13580246D01*
X12000458Y-13580246D02*
X12000458Y-13570722D01*
X12000458Y-13570722D02*
X12009982Y-13551674D01*
X12009982Y-13551674D02*
X12029030Y-13542150D01*
X12029030Y-13542150D02*
X12057601Y-13542150D01*
X12057601Y-13542150D02*
X12076649Y-13551674D01*
X12152839Y-13751674D02*
X12162363Y-13742150D01*
X12162363Y-13742150D02*
X12181411Y-13713579D01*
X12181411Y-13713579D02*
X12190934Y-13694531D01*
X12190934Y-13694531D02*
X12200458Y-13665960D01*
X12200458Y-13665960D02*
X12209982Y-13618341D01*
X12209982Y-13618341D02*
X12209982Y-13580246D01*
X12209982Y-13580246D02*
X12200458Y-13532627D01*
X12200458Y-13532627D02*
X12190934Y-13504055D01*
X12190934Y-13504055D02*
X12181411Y-13485008D01*
X12181411Y-13485008D02*
X12162363Y-13456436D01*
X12162363Y-13456436D02*
X12152839Y-13446912D01*
D14*
X7171191Y-13886891D02*
X7171191Y-13809109D01*
X7093409Y-13809109D01*
X7093409Y-13886891D01*
X7171191Y-13886891D01*
D13*
X7552839Y-13939484D02*
X7438553Y-13939484D01*
X7495696Y-13939484D02*
X7495696Y-13739484D01*
X7495696Y-13739484D02*
X7476648Y-13768055D01*
X7476648Y-13768055D02*
X7457601Y-13787103D01*
X7457601Y-13787103D02*
X7438553Y-13796627D01*
X7638553Y-13920436D02*
X7648077Y-13929960D01*
X7648077Y-13929960D02*
X7638553Y-13939484D01*
X7638553Y-13939484D02*
X7629029Y-13929960D01*
X7629029Y-13929960D02*
X7638553Y-13920436D01*
X7638553Y-13920436D02*
X7638553Y-13939484D01*
X7838553Y-13939484D02*
X7724267Y-13939484D01*
X7781410Y-13939484D02*
X7781410Y-13739484D01*
X7781410Y-13739484D02*
X7762362Y-13768055D01*
X7762362Y-13768055D02*
X7743315Y-13787103D01*
X7743315Y-13787103D02*
X7724267Y-13796627D01*
X7962362Y-13739484D02*
X7981410Y-13739484D01*
X7981410Y-13739484D02*
X8000458Y-13749008D01*
X8000458Y-13749008D02*
X8009982Y-13758531D01*
X8009982Y-13758531D02*
X8019505Y-13777579D01*
X8019505Y-13777579D02*
X8029029Y-13815674D01*
X8029029Y-13815674D02*
X8029029Y-13863293D01*
X8029029Y-13863293D02*
X8019505Y-13901388D01*
X8019505Y-13901388D02*
X8009982Y-13920436D01*
X8009982Y-13920436D02*
X8000458Y-13929960D01*
X8000458Y-13929960D02*
X7981410Y-13939484D01*
X7981410Y-13939484D02*
X7962362Y-13939484D01*
X7962362Y-13939484D02*
X7943315Y-13929960D01*
X7943315Y-13929960D02*
X7933791Y-13920436D01*
X7933791Y-13920436D02*
X7924267Y-13901388D01*
X7924267Y-13901388D02*
X7914743Y-13863293D01*
X7914743Y-13863293D02*
X7914743Y-13815674D01*
X7914743Y-13815674D02*
X7924267Y-13777579D01*
X7924267Y-13777579D02*
X7933791Y-13758531D01*
X7933791Y-13758531D02*
X7943315Y-13749008D01*
X7943315Y-13749008D02*
X7962362Y-13739484D01*
X8152839Y-13739484D02*
X8171886Y-13739484D01*
X8171886Y-13739484D02*
X8190934Y-13749008D01*
X8190934Y-13749008D02*
X8200458Y-13758531D01*
X8200458Y-13758531D02*
X8209982Y-13777579D01*
X8209982Y-13777579D02*
X8219505Y-13815674D01*
X8219505Y-13815674D02*
X8219505Y-13863293D01*
X8219505Y-13863293D02*
X8209982Y-13901388D01*
X8209982Y-13901388D02*
X8200458Y-13920436D01*
X8200458Y-13920436D02*
X8190934Y-13929960D01*
X8190934Y-13929960D02*
X8171886Y-13939484D01*
X8171886Y-13939484D02*
X8152839Y-13939484D01*
X8152839Y-13939484D02*
X8133791Y-13929960D01*
X8133791Y-13929960D02*
X8124267Y-13920436D01*
X8124267Y-13920436D02*
X8114743Y-13901388D01*
X8114743Y-13901388D02*
X8105220Y-13863293D01*
X8105220Y-13863293D02*
X8105220Y-13815674D01*
X8105220Y-13815674D02*
X8114743Y-13777579D01*
X8114743Y-13777579D02*
X8124267Y-13758531D01*
X8124267Y-13758531D02*
X8133791Y-13749008D01*
X8133791Y-13749008D02*
X8152839Y-13739484D01*
X8305220Y-13939484D02*
X8305220Y-13806150D01*
X8305220Y-13825198D02*
X8314743Y-13815674D01*
X8314743Y-13815674D02*
X8333791Y-13806150D01*
X8333791Y-13806150D02*
X8362363Y-13806150D01*
X8362363Y-13806150D02*
X8381410Y-13815674D01*
X8381410Y-13815674D02*
X8390934Y-13834722D01*
X8390934Y-13834722D02*
X8390934Y-13939484D01*
X8390934Y-13834722D02*
X8400458Y-13815674D01*
X8400458Y-13815674D02*
X8419505Y-13806150D01*
X8419505Y-13806150D02*
X8448077Y-13806150D01*
X8448077Y-13806150D02*
X8467125Y-13815674D01*
X8467125Y-13815674D02*
X8476648Y-13834722D01*
X8476648Y-13834722D02*
X8476648Y-13939484D01*
X8571886Y-13939484D02*
X8571886Y-13806150D01*
X8571886Y-13825198D02*
X8581410Y-13815674D01*
X8581410Y-13815674D02*
X8600458Y-13806150D01*
X8600458Y-13806150D02*
X8629029Y-13806150D01*
X8629029Y-13806150D02*
X8648077Y-13815674D01*
X8648077Y-13815674D02*
X8657601Y-13834722D01*
X8657601Y-13834722D02*
X8657601Y-13939484D01*
X8657601Y-13834722D02*
X8667125Y-13815674D01*
X8667125Y-13815674D02*
X8686172Y-13806150D01*
X8686172Y-13806150D02*
X8714744Y-13806150D01*
X8714744Y-13806150D02*
X8733791Y-13815674D01*
X8733791Y-13815674D02*
X8743315Y-13834722D01*
X8743315Y-13834722D02*
X8743315Y-13939484D01*
X9133791Y-13729960D02*
X8962363Y-13987103D01*
X9390934Y-13739484D02*
X9409982Y-13739484D01*
X9409982Y-13739484D02*
X9429029Y-13749008D01*
X9429029Y-13749008D02*
X9438553Y-13758531D01*
X9438553Y-13758531D02*
X9448077Y-13777579D01*
X9448077Y-13777579D02*
X9457601Y-13815674D01*
X9457601Y-13815674D02*
X9457601Y-13863293D01*
X9457601Y-13863293D02*
X9448077Y-13901388D01*
X9448077Y-13901388D02*
X9438553Y-13920436D01*
X9438553Y-13920436D02*
X9429029Y-13929960D01*
X9429029Y-13929960D02*
X9409982Y-13939484D01*
X9409982Y-13939484D02*
X9390934Y-13939484D01*
X9390934Y-13939484D02*
X9371887Y-13929960D01*
X9371887Y-13929960D02*
X9362363Y-13920436D01*
X9362363Y-13920436D02*
X9352839Y-13901388D01*
X9352839Y-13901388D02*
X9343315Y-13863293D01*
X9343315Y-13863293D02*
X9343315Y-13815674D01*
X9343315Y-13815674D02*
X9352839Y-13777579D01*
X9352839Y-13777579D02*
X9362363Y-13758531D01*
X9362363Y-13758531D02*
X9371887Y-13749008D01*
X9371887Y-13749008D02*
X9390934Y-13739484D01*
X9543315Y-13920436D02*
X9552839Y-13929960D01*
X9552839Y-13929960D02*
X9543315Y-13939484D01*
X9543315Y-13939484D02*
X9533791Y-13929960D01*
X9533791Y-13929960D02*
X9543315Y-13920436D01*
X9543315Y-13920436D02*
X9543315Y-13939484D01*
X9676648Y-13739484D02*
X9695696Y-13739484D01*
X9695696Y-13739484D02*
X9714744Y-13749008D01*
X9714744Y-13749008D02*
X9724268Y-13758531D01*
X9724268Y-13758531D02*
X9733791Y-13777579D01*
X9733791Y-13777579D02*
X9743315Y-13815674D01*
X9743315Y-13815674D02*
X9743315Y-13863293D01*
X9743315Y-13863293D02*
X9733791Y-13901388D01*
X9733791Y-13901388D02*
X9724268Y-13920436D01*
X9724268Y-13920436D02*
X9714744Y-13929960D01*
X9714744Y-13929960D02*
X9695696Y-13939484D01*
X9695696Y-13939484D02*
X9676648Y-13939484D01*
X9676648Y-13939484D02*
X9657601Y-13929960D01*
X9657601Y-13929960D02*
X9648077Y-13920436D01*
X9648077Y-13920436D02*
X9638553Y-13901388D01*
X9638553Y-13901388D02*
X9629029Y-13863293D01*
X9629029Y-13863293D02*
X9629029Y-13815674D01*
X9629029Y-13815674D02*
X9638553Y-13777579D01*
X9638553Y-13777579D02*
X9648077Y-13758531D01*
X9648077Y-13758531D02*
X9657601Y-13749008D01*
X9657601Y-13749008D02*
X9676648Y-13739484D01*
X9914744Y-13806150D02*
X9914744Y-13939484D01*
X9867125Y-13729960D02*
X9819506Y-13872817D01*
X9819506Y-13872817D02*
X9943315Y-13872817D01*
X10000458Y-13739484D02*
X10124268Y-13739484D01*
X10124268Y-13739484D02*
X10057601Y-13815674D01*
X10057601Y-13815674D02*
X10086172Y-13815674D01*
X10086172Y-13815674D02*
X10105220Y-13825198D01*
X10105220Y-13825198D02*
X10114744Y-13834722D01*
X10114744Y-13834722D02*
X10124268Y-13853769D01*
X10124268Y-13853769D02*
X10124268Y-13901388D01*
X10124268Y-13901388D02*
X10114744Y-13920436D01*
X10114744Y-13920436D02*
X10105220Y-13929960D01*
X10105220Y-13929960D02*
X10086172Y-13939484D01*
X10086172Y-13939484D02*
X10029029Y-13939484D01*
X10029029Y-13939484D02*
X10009982Y-13929960D01*
X10009982Y-13929960D02*
X10000458Y-13920436D01*
X10190934Y-13739484D02*
X10314744Y-13739484D01*
X10314744Y-13739484D02*
X10248077Y-13815674D01*
X10248077Y-13815674D02*
X10276649Y-13815674D01*
X10276649Y-13815674D02*
X10295696Y-13825198D01*
X10295696Y-13825198D02*
X10305220Y-13834722D01*
X10305220Y-13834722D02*
X10314744Y-13853769D01*
X10314744Y-13853769D02*
X10314744Y-13901388D01*
X10314744Y-13901388D02*
X10305220Y-13920436D01*
X10305220Y-13920436D02*
X10295696Y-13929960D01*
X10295696Y-13929960D02*
X10276649Y-13939484D01*
X10276649Y-13939484D02*
X10219506Y-13939484D01*
X10219506Y-13939484D02*
X10200458Y-13929960D01*
X10200458Y-13929960D02*
X10190934Y-13920436D01*
X10390934Y-13739484D02*
X10390934Y-13777579D01*
X10467125Y-13739484D02*
X10467125Y-13777579D01*
X10762363Y-14015674D02*
X10752839Y-14006150D01*
X10752839Y-14006150D02*
X10733791Y-13977579D01*
X10733791Y-13977579D02*
X10724268Y-13958531D01*
X10724268Y-13958531D02*
X10714744Y-13929960D01*
X10714744Y-13929960D02*
X10705220Y-13882341D01*
X10705220Y-13882341D02*
X10705220Y-13844246D01*
X10705220Y-13844246D02*
X10714744Y-13796627D01*
X10714744Y-13796627D02*
X10724268Y-13768055D01*
X10724268Y-13768055D02*
X10733791Y-13749008D01*
X10733791Y-13749008D02*
X10752839Y-13720436D01*
X10752839Y-13720436D02*
X10762363Y-13710912D01*
X10924268Y-13806150D02*
X10924268Y-13939484D01*
X10876649Y-13729960D02*
X10829030Y-13872817D01*
X10829030Y-13872817D02*
X10952839Y-13872817D01*
X11181411Y-13939484D02*
X11181411Y-13739484D01*
X11267125Y-13939484D02*
X11267125Y-13834722D01*
X11267125Y-13834722D02*
X11257601Y-13815674D01*
X11257601Y-13815674D02*
X11238553Y-13806150D01*
X11238553Y-13806150D02*
X11209982Y-13806150D01*
X11209982Y-13806150D02*
X11190934Y-13815674D01*
X11190934Y-13815674D02*
X11181411Y-13825198D01*
X11390934Y-13939484D02*
X11371887Y-13929960D01*
X11371887Y-13929960D02*
X11362363Y-13920436D01*
X11362363Y-13920436D02*
X11352839Y-13901388D01*
X11352839Y-13901388D02*
X11352839Y-13844246D01*
X11352839Y-13844246D02*
X11362363Y-13825198D01*
X11362363Y-13825198D02*
X11371887Y-13815674D01*
X11371887Y-13815674D02*
X11390934Y-13806150D01*
X11390934Y-13806150D02*
X11419506Y-13806150D01*
X11419506Y-13806150D02*
X11438553Y-13815674D01*
X11438553Y-13815674D02*
X11448077Y-13825198D01*
X11448077Y-13825198D02*
X11457601Y-13844246D01*
X11457601Y-13844246D02*
X11457601Y-13901388D01*
X11457601Y-13901388D02*
X11448077Y-13920436D01*
X11448077Y-13920436D02*
X11438553Y-13929960D01*
X11438553Y-13929960D02*
X11419506Y-13939484D01*
X11419506Y-13939484D02*
X11390934Y-13939484D01*
X11571887Y-13939484D02*
X11552839Y-13929960D01*
X11552839Y-13929960D02*
X11543315Y-13910912D01*
X11543315Y-13910912D02*
X11543315Y-13739484D01*
X11724268Y-13929960D02*
X11705220Y-13939484D01*
X11705220Y-13939484D02*
X11667125Y-13939484D01*
X11667125Y-13939484D02*
X11648077Y-13929960D01*
X11648077Y-13929960D02*
X11638553Y-13910912D01*
X11638553Y-13910912D02*
X11638553Y-13834722D01*
X11638553Y-13834722D02*
X11648077Y-13815674D01*
X11648077Y-13815674D02*
X11667125Y-13806150D01*
X11667125Y-13806150D02*
X11705220Y-13806150D01*
X11705220Y-13806150D02*
X11724268Y-13815674D01*
X11724268Y-13815674D02*
X11733791Y-13834722D01*
X11733791Y-13834722D02*
X11733791Y-13853769D01*
X11733791Y-13853769D02*
X11638553Y-13872817D01*
X11809982Y-13929960D02*
X11829030Y-13939484D01*
X11829030Y-13939484D02*
X11867125Y-13939484D01*
X11867125Y-13939484D02*
X11886172Y-13929960D01*
X11886172Y-13929960D02*
X11895696Y-13910912D01*
X11895696Y-13910912D02*
X11895696Y-13901388D01*
X11895696Y-13901388D02*
X11886172Y-13882341D01*
X11886172Y-13882341D02*
X11867125Y-13872817D01*
X11867125Y-13872817D02*
X11838553Y-13872817D01*
X11838553Y-13872817D02*
X11819506Y-13863293D01*
X11819506Y-13863293D02*
X11809982Y-13844246D01*
X11809982Y-13844246D02*
X11809982Y-13834722D01*
X11809982Y-13834722D02*
X11819506Y-13815674D01*
X11819506Y-13815674D02*
X11838553Y-13806150D01*
X11838553Y-13806150D02*
X11867125Y-13806150D01*
X11867125Y-13806150D02*
X11886172Y-13815674D01*
X11962363Y-14015674D02*
X11971887Y-14006150D01*
X11971887Y-14006150D02*
X11990934Y-13977579D01*
X11990934Y-13977579D02*
X12000458Y-13958531D01*
X12000458Y-13958531D02*
X12009982Y-13929960D01*
X12009982Y-13929960D02*
X12019506Y-13882341D01*
X12019506Y-13882341D02*
X12019506Y-13844246D01*
X12019506Y-13844246D02*
X12009982Y-13796627D01*
X12009982Y-13796627D02*
X12000458Y-13768055D01*
X12000458Y-13768055D02*
X11990934Y-13749008D01*
X11990934Y-13749008D02*
X11971887Y-13720436D01*
X11971887Y-13720436D02*
X11962363Y-13710912D01*
M02*
